<?xml version="1.0" encoding="utf-8"?>
<!-- Generator: Adobe Illustrator 23.0.3, SVG Export Plug-In . SVG Version: 6.00 Build 0)  -->
<svg version="1.1" id="Layer_1" xmlns="http://www.w3.org/2000/svg" xmlns:xlink="http://www.w3.org/1999/xlink" x="0px" y="0px"
	 viewBox="0 0 519.3 449.8" style="enable-background:new 0 0 519.3 449.8;" xml:space="preserve">
<g>
	<g>
		<path d="M68.8,243.4c0,0-1.1-0.7-3.4-2c-2.2-1.3-4-3.2-5.2-5.6s-1.8-5.2-1.8-8.3v-11.7c0-3.2,0.6-5.9,1.8-8.3s3-4.3,5.2-5.6
			c2.2-1.3,4.8-2,7.8-2c2.4,0,4.7,0.5,6.7,1.6c2.1,1,3.8,2.5,5.1,4.4c1.4,1.9,2.3,4.1,2.8,6.7h-6.1c-0.4-1.3-1-2.5-1.9-3.6
			c-0.9-1-1.9-1.9-3.1-2.4c-1.2-0.6-2.4-0.8-3.6-0.8c-1.7,0-3.3,0.4-4.6,1.3c-1.3,0.8-2.3,2-3,3.5c-0.7,1.5-1.1,3.3-1.1,5.3v11.7
			c0,2,0.4,3.8,1.1,5.3c0.7,1.5,1.7,2.7,3,3.5c1.3,0.8,2.8,1.2,4.6,1.2c1.3,0,2.5-0.3,3.6-0.8c1.2-0.5,2.2-1.3,3-2.3
			c0.9-1,1.5-2.3,1.9-3.7h6.1c-0.5,2.5-1.4,4.7-2.8,6.7c-1.4,1.9-3.1,3.4-5.2,4.4s-4.3,1.6-6.7,1.6
			C70.3,243.4,68.8,243.4,68.8,243.4z"/>
		<path d="M95.8,212.6h6V243h-6V212.6z M110.5,218.3c-0.8-0.3-1.7-0.5-2.8-0.5c-1.9,0-3.4,0.5-4.4,1.6c-1,1-1.6,2.5-1.6,4.4
			l-0.6-5.9c0.9-1.8,2.1-3.2,3.6-4.2c1.5-1,3.1-1.5,4.9-1.5c1.4,0,2.6,0.2,3.8,0.6c1.1,0.4,2.1,1,2.9,1.8l-3.9,5.3
			C112,219.2,111.3,218.7,110.5,218.3z"/>
		<path d="M121.4,200.4h6v6h-6V200.4z M121.4,212.6h6V243h-6V212.6z"/>
		<path d="M136.5,212.6h6V243h-6V212.6z M154.6,224.6c0-2.1-0.5-3.8-1.6-5s-2.5-1.8-4.5-1.8c-2,0-3.5,0.5-4.5,1.6
			c-1.1,1-1.6,2.5-1.6,4.4l-0.6-5.9c0.9-1.8,2.2-3.3,3.7-4.2c1.5-1,3.2-1.5,5-1.5c2.1,0,3.9,0.5,5.4,1.5c1.5,1,2.7,2.4,3.4,4.2
			s1.2,4.1,1.2,6.7V243h-6V224.6z M172.8,224.6c0-2.1-0.6-3.8-1.7-5s-2.7-1.8-4.7-1.8c-1.9,0-3.3,0.6-4.3,1.7
			c-1,1.1-1.5,2.7-1.5,4.8l-1.2-5.9c1-2,2.2-3.6,3.8-4.7c1.6-1.1,3.3-1.7,5.2-1.7c2.2,0,4.1,0.5,5.6,1.5s2.7,2.4,3.5,4.2
			c0.8,1.9,1.2,4.1,1.2,6.7V243h-6V224.6z"/>
		<path d="M196.1,243.4c0,0-1-0.5-3-1.6s-3.5-2.6-4.6-4.6c-1-2-1.6-4.5-1.6-7.4v-3.4c0-3,0.5-5.6,1.5-7.7c1-2.1,2.5-3.8,4.4-4.9
			c1.9-1.1,4.2-1.7,6.9-1.7c2.5,0,4.7,0.6,6.5,1.9c1.8,1.3,3.2,3.1,4.1,5.5s1.4,5.3,1.4,8.6v2h-20.5v-4.8h14.8
			c-0.2-2.5-0.8-4.4-1.9-5.8s-2.6-2.1-4.4-2.1c-2.3,0-4,0.7-5.3,2.2c-1.2,1.5-1.9,3.6-1.9,6.3v3.9c0,2.5,0.7,4.5,2,5.8
			c1.3,1.3,3.2,2,5.7,2c1.2,0,2.4-0.2,3.6-0.7s2.3-1.2,3.2-2.1l3.9,3.9c-1.5,1.4-3.2,2.6-5.1,3.4s-3.8,1.2-5.7,1.2
			C197.5,243.4,196.1,243.4,196.1,243.4z"/>
		<path d="M244.3,243.4c0,0-1-0.5-2.9-1.6s-3.5-2.5-4.5-4.5s-1.6-4.4-1.6-7.1v-5c0-2.8,0.5-5.1,1.6-7.1c1-2,2.5-3.4,4.5-4.5
			s4.3-1.5,7.1-1.5c1.6,0,3.1,0.2,4.5,0.6s2.7,0.9,3.8,1.7c1.1,0.7,2,1.6,2.8,2.6l-4.3,3.9c-0.9-1-1.9-1.7-3-2.3s-2.4-0.8-3.6-0.8
			c-2.3,0-4.1,0.6-5.4,1.9s-1.9,3.1-1.9,5.4v5c0,2.4,0.6,4.3,1.9,5.6s3.1,2,5.4,2c1.3,0,2.5-0.3,3.6-0.8s2.1-1.4,3-2.4l4.3,4.2
			c-0.8,1-1.7,1.9-2.8,2.6s-2.4,1.3-3.8,1.6s-2.9,0.6-4.4,0.6C245.6,243.4,244.3,243.4,244.3,243.4z"/>
		<path d="M267.3,241.1c-1.9-1.6-2.8-3.9-2.8-7.1c0-3,0.8-5.3,2.5-6.8s4.3-2.3,7.7-2.3h8.6l0.4,4.8h-9c-1.6,0-2.7,0.3-3.5,1
			s-1.2,1.8-1.2,3.2c0,1.5,0.5,2.7,1.5,3.4s2.6,1.1,4.7,1.1c2.3,0,4-0.2,5.1-0.7s1.7-1.3,1.7-2.3l0.6,4.3c-0.5,0.8-1.2,1.5-1.9,2
			s-1.7,0.9-2.7,1.2s-2.2,0.4-3.4,0.4C272,243.4,269.2,242.7,267.3,241.1z M283.2,223.7c0-2-0.5-3.5-1.6-4.6s-2.6-1.7-4.5-1.7
			c-1.2,0-2.4,0.2-3.6,0.6s-2.2,0.9-3.1,1.6l-4.4-3c1.2-1.4,2.7-2.5,4.6-3.2c1.9-0.8,4-1.2,6.3-1.2c2.5,0,4.7,0.4,6.5,1.3
			c1.8,0.9,3.2,2.2,4.1,3.9c0.9,1.7,1.4,3.7,1.4,6.1V243h-5.7V223.7z"/>
		<path d="M295.6,212.6h13.7v5.4h-13.7V212.6z M300.5,241.1c-1.1-1.4-1.7-3.4-1.7-6v-31.3h6v31.4c0,0.7,0.1,1.3,0.4,1.7
			s0.7,0.6,1.3,0.6h2.9v5.7h-3.5C303.4,243.1,301.6,242.5,300.5,241.1z"/>
		<path d="M325.8,243.4c0,0-1-0.5-3-1.6s-3.5-2.6-4.6-4.6s-1.6-4.5-1.6-7.4v-3.4c0-3,0.5-5.6,1.5-7.7c1-2.1,2.5-3.8,4.4-4.9
			s4.2-1.7,6.9-1.7c2.5,0,4.7,0.6,6.5,1.9c1.8,1.3,3.2,3.1,4.1,5.5s1.4,5.3,1.4,8.6v2H321v-4.8h14.8c-0.2-2.5-0.8-4.4-1.9-5.8
			s-2.6-2.1-4.4-2.1c-2.3,0-4,0.7-5.3,2.2s-1.9,3.6-1.9,6.3v3.9c0,2.5,0.7,4.5,2,5.8s3.2,2,5.7,2c1.2,0,2.4-0.2,3.6-0.7
			s2.3-1.2,3.2-2.1l3.9,3.9c-1.5,1.4-3.2,2.6-5.1,3.4s-3.8,1.2-5.7,1.2C327.2,243.4,325.8,243.4,325.8,243.4z"/>
		<path d="M353.6,242.1c-1.6-1-2.8-2.4-3.6-4.2s-1.2-4.1-1.2-6.7v-6.7c0-2.6,0.4-4.9,1.2-6.7s2-3.3,3.5-4.2s3.4-1.5,5.5-1.5
			c1.8,0,3.4,0.5,4.9,1.4s2.7,2.3,3.6,4l-0.6,6.2c0-1.3-0.2-2.4-0.7-3.3s-1.1-1.6-2-2.1s-2-0.7-3.2-0.7c-2,0-3.5,0.6-4.6,1.8
			s-1.6,3-1.6,5.2v6.6c0,2.2,0.5,3.9,1.6,5.1s2.6,1.8,4.6,1.8c1.3,0,2.3-0.2,3.2-0.7s1.6-1.2,2-2.2s0.7-2.1,0.7-3.4l0.4,6.4
			c-0.6,1.5-1.6,2.8-3,3.8s-3.1,1.5-5.1,1.5C357.1,243.5,355.2,243,353.6,242.1z M356.5,255.4c0,0-0.9-0.4-2.7-1.3s-3.2-2-4.2-3.6
			l4-3.7c0.8,1.1,1.7,1.9,2.8,2.5s2.2,0.9,3.4,0.9c2.3,0,4.1-0.6,5.3-1.9s1.9-3,1.9-5.3v-30.4h6v29.5c0,2.8-0.5,5.2-1.5,7.2
			s-2.5,3.5-4.5,4.5s-4.3,1.6-7.1,1.6C357.6,255.4,356.5,255.4,356.5,255.4z"/>
		<path d="M386.9,241.9c-1.9-1-3.3-2.5-4.3-4.5s-1.5-4.4-1.5-7.2v-5c0-2.8,0.5-5.1,1.5-7.1s2.4-3.5,4.3-4.5s4.1-1.5,6.8-1.5
			s4.9,0.5,6.8,1.5s3.3,2.5,4.3,4.5s1.5,4.3,1.5,7.1v5c0,2.8-0.5,5.1-1.5,7.1s-2.4,3.5-4.3,4.5s-4.1,1.6-6.8,1.6
			S388.8,242.9,386.9,241.9z M398.5,235.8c1.1-1.3,1.7-3.1,1.7-5.5v-5c0-2.4-0.6-4.2-1.7-5.5s-2.8-1.9-4.8-1.9s-3.7,0.6-4.8,1.9
			s-1.7,3.1-1.7,5.5v5c0,2.4,0.6,4.2,1.7,5.5s2.8,2,4.8,2S397.4,237.1,398.5,235.8z"/>
		<path d="M414.7,212.6h6V243h-6V212.6z M429.5,218.3c-0.8-0.3-1.7-0.5-2.8-0.5c-1.9,0-3.4,0.5-4.4,1.6s-1.6,2.5-1.6,4.4l-0.6-5.9
			c0.9-1.8,2.1-3.2,3.6-4.2c1.5-1,3.1-1.5,4.9-1.5c1.4,0,2.6,0.2,3.8,0.6c1.1,0.4,2.1,1,2.9,1.8l-3.9,5.3
			C430.9,219.2,430.3,218.7,429.5,218.3z"/>
		<path d="M437.1,212.6h6.1l9.3,26.4l-3.3,6.5L437.1,212.6z M464,212.6l-12.9,37.5c-0.5,1.4-1.1,2.5-1.8,3.3s-1.7,1.4-2.8,1.7
			s-2.5,0.5-4.1,0.5h-1.2v-5.7h1.2c1.1,0,2-0.2,2.7-0.7s1.2-1.2,1.7-2.3l11.3-34.4H464z"/>
	</g>
</g>
<polygon style="opacity:0.46;fill:none;stroke:#000000;stroke-miterlimit:10;enable-background:new    ;" points="388.5,0 128.8,0 
	-1,224.9 128.8,449.8 388.5,449.8 518.3,224.9 "/>
</svg>
