<?xml version="1.0" encoding="utf-8"?>
<!-- Generator: Adobe Illustrator 23.0.3, SVG Export Plug-In . SVG Version: 6.00 Build 0)  -->
<svg version="1.1" id="Layer_1" xmlns="http://www.w3.org/2000/svg" xmlns:xlink="http://www.w3.org/1999/xlink" x="0px" y="0px"
	 viewBox="0 0 519.3 449.8" style="enable-background:new 0 0 519.3 449.8;" xml:space="preserve">
<polygon style="opacity:0.46;fill:none;stroke:#000000;stroke-miterlimit:10;enable-background:new    ;" points="389.5,0 129.8,0 
	0,224.9 129.8,449.8 389.5,449.8 519.3,224.9 "/>
<g>
	<g>
		<path d="M101.3,193.9h7.1V245h-7.1V193.9z M105.5,238.4h13.9c3.6,0,6.3-0.7,7.9-2.1c1.7-1.4,2.5-3.3,2.5-5.8v-0.1
			c0-1.7-0.3-3.2-0.9-4.5s-1.5-2.2-2.8-2.9c-1.3-0.7-2.9-1-5-1h-15.6v-6.5h15.6c2.6,0,4.6-0.6,6-1.9c1.3-1.2,2-3.1,2-5.5
			c0-2.6-0.8-4.5-2.3-5.7c-1.5-1.3-3.8-1.9-6.8-1.9h-14.6v-6.6h15.9c3.3,0,6.1,0.6,8.3,1.7c2.2,1.1,3.9,2.7,5,4.8
			c1.1,2.1,1.7,4.5,1.7,7.4c0,1.8-0.3,3.4-1,4.9c-0.7,1.5-1.7,2.8-3.1,3.9c-1.4,1.1-3.1,1.8-5.2,2.2c2.1,0.3,3.8,1,5.3,2.2
			c1.5,1.2,2.6,2.6,3.4,4.3c0.8,1.7,1.2,3.6,1.2,5.6v0.1c0,2.8-0.6,5.2-1.8,7.3c-1.2,2.1-3,3.7-5.2,4.9c-2.3,1.1-4.9,1.7-7.9,1.7
			h-16.5V238.4z"/>
		<path d="M148.1,243.9c-2.3-1.1-4.1-2.6-5.6-4.6l5.9-4.2c0.7,1.1,1.6,2,2.8,2.7c1.2,0.6,2.7,0.9,4.3,0.9c2.8,0,5-0.9,6.5-2.6
			c1.5-1.7,2.3-4.2,2.3-7.3v-34.8h7.2v34.9c0,3.5-0.6,6.6-1.9,9.1c-1.2,2.5-3.1,4.4-5.4,5.7s-5.3,2-8.6,2
			C152.9,245.5,150.4,245,148.1,243.9z"/>
		<path d="M195.9,245.5c0,0-1.1-0.2-3.3-0.7c-2.2-0.5-4.3-1.2-6.2-2.1c-1.9-0.9-3.7-2.1-5.4-3.5l4.5-5.5c1.9,1.7,4.1,3,6.4,3.8
			c2.3,0.8,4.9,1.3,7.6,1.3c3.7,0,6.6-0.7,8.6-2.1s3.1-3.3,3.1-5.8v0c0-1.8-0.5-3.2-1.4-4.2c-0.9-1-2.1-1.8-3.6-2.3
			c-1.5-0.5-3.4-1-5.7-1.4c-0.1,0-0.1,0-0.2,0c-0.1,0-0.2,0-0.2,0l-0.5-0.1c-3.4-0.6-6.2-1.2-8.3-2s-4-2.1-5.5-4
			c-1.5-2-2.3-4.7-2.3-8.3v0c0-3.2,0.7-5.9,2.1-8.1c1.4-2.2,3.5-3.9,6.2-5.1c2.7-1.2,6-1.8,9.8-1.8c1.8,0,3.6,0.2,5.4,0.6
			c1.8,0.4,3.5,1,5.2,1.8c1.7,0.8,3.4,1.8,5.1,3l-4.1,5.7c-1.9-1.4-3.9-2.5-5.8-3.2c-1.9-0.7-3.9-1.1-5.8-1.1
			c-3.5,0-6.2,0.7-8.1,2.1c-1.9,1.4-2.9,3.4-2.9,5.9v0c0,1.8,0.5,3.1,1.5,4.1c1,1,2.2,1.8,3.7,2.2c1.5,0.5,3.6,1,6.2,1.5
			c0.1,0,0.2,0,0.3,0.1c0.1,0,0.2,0,0.3,0.1c0.1,0,0.2,0,0.4,0.1c0.1,0,0.3,0,0.4,0.1c3.1,0.6,5.7,1.4,7.8,2.3
			c2.1,0.9,3.8,2.3,5.2,4.2c1.4,1.9,2.1,4.6,2.1,7.9v0.1c0,3.1-0.7,5.8-2.2,8s-3.6,3.9-6.4,5.1c-2.8,1.2-6.2,1.7-10.1,1.7
			C197.1,245.5,195.9,245.5,195.9,245.5z"/>
		<path d="M259.3,245.5c0,0-1.3-0.8-4-2.4s-4.8-3.8-6.2-6.7s-2.2-6.2-2.2-10v-14c0-3.8,0.7-7.1,2.2-10s3.6-5.1,6.2-6.7
			s5.8-2.4,9.3-2.4c2.9,0,5.6,0.6,8.1,1.9c2.5,1.3,4.5,3,6.2,5.3c1.7,2.3,2.8,5,3.4,8h-7.3c-0.4-1.6-1.2-3-2.2-4.3
			c-1-1.3-2.3-2.2-3.7-2.9c-1.4-0.7-2.9-1-4.4-1c-2.1,0-3.9,0.5-5.5,1.5c-1.6,1-2.8,2.4-3.7,4.2c-0.9,1.8-1.3,3.9-1.3,6.3v14
			c0,2.4,0.4,4.5,1.3,6.3s2.1,3.2,3.7,4.2s3.4,1.5,5.5,1.5c1.5,0,3-0.3,4.4-0.9s2.6-1.6,3.7-2.8s1.8-2.7,2.2-4.4h7.3
			c-0.6,3-1.7,5.7-3.4,8s-3.7,4.1-6.2,5.3s-5.1,1.9-8.1,1.9C261.1,245.5,259.3,245.5,259.3,245.5z"/>
		<path d="M299.9,243.2c-2.7-1.6-4.8-3.8-6.3-6.6s-2.2-6.1-2.2-9.9v-14.5c0-3.7,0.7-7,2.2-9.9s3.6-5.1,6.3-6.6
			c2.7-1.6,5.9-2.3,9.4-2.3s6.7,0.8,9.4,2.3c2.7,1.6,4.8,3.8,6.3,6.6s2.2,6.1,2.2,9.9v14.5c0,3.8-0.7,7-2.2,9.9s-3.6,5.1-6.3,6.6
			s-5.9,2.3-9.4,2.3S302.6,244.7,299.9,243.2z M314.9,237c1.6-0.9,2.8-2.3,3.7-4s1.3-3.8,1.3-6.1v-15c0-2.3-0.4-4.3-1.3-6.1
			c-0.9-1.7-2.1-3.1-3.7-4s-3.5-1.4-5.6-1.4s-4,0.5-5.6,1.4s-2.8,2.3-3.7,4c-0.9,1.7-1.3,3.8-1.3,6.1v15c0,2.3,0.4,4.3,1.3,6.1
			s2.1,3.1,3.7,4s3.5,1.4,5.6,1.4S313.3,238,314.9,237z"/>
		<path d="M338.9,193.9h7.2V245h-7.2V193.9z M343.7,238.2h11.6c3.8,0,6.7-1,8.8-2.9s3.1-4.7,3.1-8.3v-15c0-3.6-1-6.3-3.1-8.3
			c-2.1-2-5-2.9-8.8-2.9h-11.6v-6.8h11.4c4.1,0,7.6,0.7,10.5,2.1c2.9,1.4,5.1,3.5,6.6,6.3s2.3,6,2.3,9.9v14.5c0,3.9-0.8,7.2-2.3,9.9
			s-3.7,4.8-6.7,6.3s-6.4,2.1-10.5,2.1h-11.3V238.2z"/>
		<path d="M386.1,193.9h7.2V245h-7.2V193.9z M389.6,193.9H419v6.8h-29.4V193.9z M389.6,216.2h25.5v6.8h-25.5V216.2z M389.6,238.2
			H419v6.8h-29.4V238.2z"/>
	</g>
</g>
</svg>
