<?xml version="1.0" encoding="utf-8"?>
<!-- Generator: Adobe Illustrator 23.0.3, SVG Export Plug-In . SVG Version: 6.00 Build 0)  -->
<svg version="1.1" id="Layer_1" xmlns="http://www.w3.org/2000/svg" xmlns:xlink="http://www.w3.org/1999/xlink" x="0px" y="0px"
	 viewBox="0 0 8192 4011.6" style="enable-background:new 0 0 8192 4011.6;" xml:space="preserve">
<g>
	<g>
		<path d="M2252.8,2552h27.8v5.2h-27.8V2552z M2263.8,2555.3h5.6v36.2h-5.6V2555.3z"/>
		<path d="M2284.3,2552h5.6v39.4h-5.6V2552z M2301.4,2574.4c0-2-0.5-3.5-1.5-4.6c-1-1.2-2.4-1.6-4.4-1.6c-1.9,0-3.3,0.5-4.2,1.4
			c-0.9,0.9-1.5,2.3-1.5,4l-0.6-5.5c0.9-1.6,2-3,3.4-3.8c1.4-0.8,3-1.4,4.7-1.4c3,0,5.5,1,7.1,3s2.6,4.9,2.6,8.5v17.1h-5.6V2574.4
			L2301.4,2574.4L2301.4,2574.4z"/>
		<path d="M2315.4,2552h5.6v5.6h-5.6V2552z M2315.4,2563.2h5.6v28.1h-5.6V2563.2z"/>
		<path d="M2336.8,2591.8c0,0-0.7-0.1-2.2-0.5c-1.5-0.3-2.8-0.8-4.1-1.5c-1.3-0.7-2.4-1.5-3.5-2.4l3.3-4.1c1.5,1.2,3,2.1,4.5,2.7
			c1.5,0.6,3,0.9,4.4,0.9c2.2,0,3.8-0.3,5-1c1.2-0.7,1.6-1.7,1.6-3c0-0.9-0.3-1.6-0.9-2.1c-0.6-0.5-1.4-0.8-2.2-0.9
			s-2.1-0.3-3.7-0.5c-0.1,0-0.3,0-0.5,0c-0.1,0-0.3,0-0.5,0c-0.2,0-0.1,0-0.2,0c-0.1,0-0.1,0-0.2,0c-1.9-0.1-3.4-0.5-4.6-0.8
			c-1.3-0.3-2.3-1.2-3.1-2.2c-0.8-1-1.3-2.6-1.3-4.6c0-2,0.5-3.6,1.3-5c0.8-1.4,2.1-2.3,3.6-3s3.6-1,6-1c1.5,0,2.9,0.1,4.2,0.5
			c1.3,0.3,2.6,0.7,3.8,1.2c1.3,0.5,2.4,1.2,3.5,2l-3.4,4.1c-1.4-0.9-2.8-1.6-4.2-2.1c-1.4-0.5-2.7-0.7-4.1-0.7
			c-1.9,0-3.3,0.3-4.3,0.9c-1,0.6-1.4,1.6-1.4,2.9c0,0.8,0.2,1.3,0.8,1.7c0.6,0.5,1.2,0.6,2,0.8s2,0.2,3.5,0.3c0.1,0,0.2,0,0.3,0
			s0.2,0,0.3,0h0.1h0.1c2,0.1,3.7,0.3,5,0.8c1.3,0.5,2.6,1.2,3.5,2.3c0.9,1.2,1.4,2.9,1.4,5.1c0,2.1-0.5,3.7-1.3,5s-2.2,2.3-4,3
			c-1.7,0.7-4,1-6.6,1C2337.7,2591.8,2336.8,2591.8,2336.8,2591.8z"/>
		<path d="M2373.1,2552h5.6v5.6h-5.6V2552z M2373.1,2563.2h5.6v28.1h-5.6V2563.2z"/>
		<path d="M2394.5,2591.8c0,0-0.7-0.1-2.2-0.5c-1.5-0.3-2.8-0.8-4.1-1.5c-1.3-0.7-2.4-1.5-3.5-2.4l3.3-4.1c1.5,1.2,3,2.1,4.5,2.7
			c1.5,0.6,3,0.9,4.4,0.9c2.2,0,3.8-0.3,5-1c1.2-0.7,1.6-1.7,1.6-3c0-0.9-0.3-1.6-0.9-2.1c-0.6-0.5-1.4-0.8-2.2-0.9
			s-2.1-0.3-3.7-0.5c-0.1,0-0.3,0-0.5,0s-0.3,0-0.5,0c-0.1,0-0.1,0-0.2,0s-0.1,0-0.2,0c-1.9-0.1-3.4-0.5-4.6-0.8
			c-1.3-0.3-2.3-1.2-3.1-2.2c-0.8-1-1.3-2.6-1.3-4.6c0-2,0.5-3.6,1.3-5c0.8-1.4,2.1-2.3,3.6-3s3.6-1,6-1c1.5,0,2.9,0.1,4.2,0.5
			c1.3,0.3,2.6,0.7,3.8,1.2c1.3,0.5,2.4,1.2,3.5,2l-3.4,4.1c-1.4-0.9-2.8-1.6-4.2-2.1c-1.4-0.5-2.7-0.7-4.1-0.7
			c-1.9,0-3.3,0.3-4.3,0.9c-1,0.6-1.4,1.6-1.4,2.9c0,0.8,0.2,1.3,0.8,1.7c0.6,0.5,1.2,0.6,2,0.8c0.8,0.2,2,0.2,3.5,0.3
			c0.1,0,0.2,0,0.3,0s0.2,0,0.3,0h0.1h0.1c2,0.1,3.7,0.3,5,0.8c1.3,0.5,2.6,1.2,3.5,2.3c0.9,1.2,1.4,2.9,1.4,5.1
			c0,2.1-0.5,3.7-1.3,5s-2.2,2.3-4,3c-1.8,0.7-4,1-6.6,1C2395.3,2591.8,2394.5,2591.8,2394.5,2591.8z"/>
		<path d="M2427.6,2563.2h5.7l8.7,24.4l-3,6L2427.6,2563.2z M2452.6,2563.2l-12,34.7c-0.5,1.3-1,2.3-1.7,3s-1.6,1.3-2.7,1.6
			c-1,0.3-2.3,0.5-3.8,0.5h-1.2v-5.2h1.2c1,0,1.9-0.2,2.4-0.6c0.6-0.3,1.2-1.2,1.6-2.2l10.4-31.8H2452.6z"/>
		<path d="M2462,2590.4c-1.7-0.9-3-2.3-4-4.2c-0.9-1.9-1.4-4.1-1.4-6.6v-4.6c0-2.6,0.5-4.8,1.4-6.6c0.9-1.9,2.2-3.3,4-4.2
			s3.8-1.4,6.3-1.4c2.4,0,4.5,0.5,6.3,1.4c1.7,0.9,3,2.3,4,4.2c0.9,1.9,1.4,4.1,1.4,6.6v4.6c0,2.6-0.5,4.8-1.4,6.6
			c-0.9,1.9-2.2,3.3-4,4.2c-1.7,0.9-3.8,1.4-6.3,1.4S2463.7,2591.3,2462,2590.4z M2472.8,2584.7c1-1.2,1.6-2.9,1.6-5.1v-4.6
			c0-2.2-0.6-4-1.6-5.1c-1-1.2-2.6-1.7-4.5-1.7c-2,0-3.5,0.6-4.5,1.7c-1,1.2-1.6,2.9-1.6,5.1v4.6c0,2.2,0.6,4,1.6,5.1
			c1,1.2,2.6,1.9,4.5,1.9C2470.2,2586.6,2471.7,2585.9,2472.8,2584.7z"/>
		<path d="M2493.2,2580.3c0,2,0.5,3.5,1.5,4.5c1,1,2.4,1.6,4.3,1.6c1.9,0,3.3-0.5,4.2-1.4s1.5-2.3,1.5-4.1l0.3,5.9
			c-0.6,1.4-1.5,2.6-2.8,3.5c-1.3,0.9-2.9,1.4-4.8,1.4c-3.1,0-5.6-1-7.2-3c-1.6-2-2.6-4.9-2.6-8.5v-17.1h5.6V2580.3L2493.2,2580.3z
			 M2504.7,2563.2h5.6v28.1h-5.6V2563.2z"/>
	</g>
</g>
<g>
	<g>
		<path d="M2006.5,1667.7h6.6l13.9,53.1l11.9-53.1h9.8l-16.5,67.8h-9.7l-12.5-47.4l-13,47.4h-9.7l-16.5-67.8h9.8l11.9,53.1
			L2006.5,1667.7z"/>
		<path d="M2058.6,1667.7h9.6v67.8h-9.6V1667.7z M2063.2,1667.7h38.9v9.1h-38.9V1667.7L2063.2,1667.7z M2063.2,1697.3h33.8v9.1
			h-33.8V1697.3z M2063.2,1726.5h38.9v9.1h-38.9V1726.5L2063.2,1726.5z"/>
		<path d="M2115.6,1667.7h9.6v67.8h-9.6V1667.7z M2120.4,1726.5h38.8v9.1h-38.8V1726.5z"/>
		<path d="M2185.6,1736.2c0,0-1.8-1-5.4-3.1c-3.6-2.1-6.4-5.1-8.3-8.9s-3-8.3-3-13.3v-18.6c0-5.1,1-9.5,3-13.3s4.7-6.8,8.3-8.9
			s7.7-3.2,12.3-3.2c3.9,0,7.5,0.8,10.7,2.5c3.3,1.7,6,4,8.2,7.1c2.2,3.1,3.7,6.6,4.5,10.5h-9.7c-0.6-2.1-1.6-4-3-5.7
			c-1.4-1.7-3-3-4.9-3.9c-1.9-0.9-3.8-1.4-5.8-1.4c-2.8,0-5.2,0.7-7.3,2c-2.1,1.3-3.7,3.2-4.9,5.6c-1.2,2.4-1.7,5.2-1.7,8.5v18.6
			c0,3.2,0.6,6,1.7,8.4c1.2,2.4,2.8,4.3,4.9,5.6c2.1,1.3,4.5,2,7.3,2c2,0,4-0.4,5.8-1.3c1.9-0.8,3.5-2.1,4.9-3.8
			c1.4-1.7,2.4-3.6,3-5.9h9.7c-0.8,4-2.3,7.6-4.5,10.5c-2.2,3.1-5,5.4-8.3,7.1s-6.9,2.5-10.6,2.5
			C2187.9,1736.2,2185.6,1736.2,2185.6,1736.2z"/>
		<path d="M2239.4,1733.2c-3.6-2.1-6.4-5-8.4-8.8c-2-3.8-3-8.2-3-13.1v-19.2c0-5,1-9.4,3-13.1c2-3.8,4.8-6.7,8.4-8.8
			c3.6-2.1,7.8-3.1,12.5-3.1c4.8,0,8.9,1,12.5,3.1c3.6,2.1,6.4,5,8.4,8.8c2,3.8,3,8.2,3,13.1v19.2c0,5-1,9.4-3,13.1
			c-2,3.8-4.8,6.7-8.4,8.8c-3.6,2.1-7.8,3.1-12.5,3.1C2247.2,1736.2,2243.1,1735.1,2239.4,1733.2z M2259.3,1725
			c2.1-1.3,3.8-3.1,5-5.4c1.2-2.3,1.8-5,1.8-8.1v-19.9c0-3.1-0.6-5.8-1.8-8.1c-1.2-2.3-2.8-4.1-5-5.4c-2.1-1.3-4.6-1.9-7.4-1.9
			c-2.8,0-5.3,0.6-7.4,1.9s-3.8,3.1-5,5.4c-1.2,2.3-1.8,5-1.8,8.1v19.9c0,3.1,0.6,5.8,1.8,8.1c1.2,2.3,2.8,4.1,5,5.4
			c2.1,1.3,4.6,1.9,7.4,1.9C2254.7,1726.9,2257.2,1726.2,2259.3,1725z"/>
		<path d="M2339.8,1667.7h9v67.8h-9.3v-50.7l0.5,3l-16.7,38.4h-6.7l-16.7-37.4l0.5-3.9v50.7h-9.3v-67.8h9l19.9,44.8L2339.8,1667.7z"
			/>
		<path d="M2365.5,1667.7h9.6v67.8h-9.6V1667.7z M2370.2,1667.7h38.9v9.1h-38.9V1667.7z M2370.2,1697.3h33.8v9.1h-33.8V1697.3z
			 M2370.2,1726.5h38.9v9.1h-38.9V1726.5z"/>
		<path d="M2438.9,1667.7h47.9v9.1h-47.9V1667.7z M2458.1,1673.3h9.6v62.3h-9.6V1673.3z"/>
		<path d="M2504.2,1733.2c-3.6-2.1-6.4-5-8.4-8.8c-2-3.8-3-8.2-3-13.1v-19.2c0-5,1-9.4,3-13.1c2-3.8,4.8-6.7,8.4-8.8
			c3.6-2.1,7.8-3.1,12.5-3.1s8.9,1,12.5,3.1c3.6,2.1,6.4,5,8.4,8.8s3,8.2,3,13.1v19.2c0,5-1,9.4-3,13.1c-2,3.8-4.8,6.7-8.4,8.8
			c-3.6,2.1-7.8,3.1-12.5,3.1C2512,1736.2,2507.8,1735.1,2504.2,1733.2z M2524.1,1725c2.1-1.3,3.8-3.1,5-5.4c1.2-2.3,1.8-5,1.8-8.1
			v-19.9c0-3.1-0.6-5.8-1.8-8.1c-1.2-2.3-2.8-4.1-5-5.4c-2.1-1.3-4.6-1.9-7.4-1.9s-5.3,0.6-7.4,1.9c-2.1,1.3-3.8,3.1-5,5.4
			c-1.2,2.3-1.8,5-1.8,8.1v19.9c0,3.1,0.6,5.8,1.8,8.1c1.2,2.3,2.8,4.1,5,5.4c2.1,1.3,4.6,1.9,7.4,1.9S2522,1726.2,2524.1,1725z"/>
		<path d="M2591.5,1733.2c-3.6-2.1-6.4-5-8.4-8.8c-2-3.8-3-8.2-3-13.1v-19.2c0-5,1-9.4,3-13.1c2-3.8,4.8-6.7,8.4-8.8
			c3.6-2.1,7.8-3.1,12.5-3.1c4.8,0,8.9,1,12.5,3.1c3.6,2.1,6.4,5,8.4,8.8c2,3.8,3,8.2,3,13.1v19.2c0,5-1,9.4-3,13.1
			c-2,3.8-4.8,6.7-8.4,8.8c-3.6,2.1-7.8,3.1-12.5,3.1C2599.3,1736.2,2595.1,1735.1,2591.5,1733.2z M2611.3,1725
			c2.1-1.3,3.8-3.1,5-5.4c1.2-2.3,1.8-5,1.8-8.1v-19.9c0-3.1-0.6-5.8-1.8-8.1c-1.2-2.3-2.8-4.1-5-5.4c-2.1-1.3-4.6-1.9-7.4-1.9
			c-2.8,0-5.3,0.6-7.4,1.9s-3.8,3.1-5,5.4c-1.2,2.3-1.8,5-1.8,8.1v19.9c0,3.1,0.6,5.8,1.8,8.1c1.2,2.3,2.8,4.1,5,5.4
			c2.1,1.3,4.6,1.9,7.4,1.9C2606.8,1726.9,2609.2,1726.2,2611.3,1725z"/>
		<path d="M2653.2,1733.3c-3.6-2-6.3-4.9-8.2-8.7c-1.9-3.8-2.8-8.4-2.8-13.6v-43.3h9.6v43.6c0,5,1.2,8.8,3.8,11.4
			c2.5,2.7,6,4.1,10.5,4.1c4.6,0,8.1-1.4,10.6-4.1c2.5-2.7,3.8-6.6,3.8-11.4v-43.6h9.6v43.3c0,5.3-0.9,9.8-2.8,13.6
			s-4.6,6.7-8.2,8.7c-3.6,2-7.9,3-12.9,3C2661.1,1736.2,2656.8,1735.2,2653.2,1733.3z"/>
		<path d="M2705.7,1667.7h9.6v67.8h-9.6V1667.7z M2709.9,1697.8h23.2c1.8,0,3.4-0.4,4.8-1.3c1.4-0.9,2.5-2.1,3.3-3.7
			s1.1-3.5,1.1-5.6s-0.4-3.9-1.1-5.6c-0.8-1.6-1.8-2.9-3.2-3.7c-1.4-0.9-3-1.3-4.9-1.3h-23.2v-9.1h22.8c3.9,0,7.4,0.8,10.3,2.4
			c3,1.6,5.3,3.9,6.9,6.9c1.6,3,2.5,6.4,2.5,10.2c0,3.9-0.8,7.4-2.5,10.2c-1.7,3-4,5.3-7,6.9c-3,1.6-6.4,2.4-10.2,2.4h-22.8V1697.8z
			 M2728.4,1704.7l9.5-2.2l17.3,32.9h-11.2L2728.4,1704.7z"/>
		<path d="M2793.7,1667.7h9.6v67.8h-9.6V1667.7z M2800.2,1726.5h15.3c5,0,8.9-1.3,11.6-3.9s4.1-6.3,4.1-10.9v-20
			c0-4.8-1.4-8.4-4.1-10.9c-2.8-2.6-6.7-3.9-11.6-3.9h-15.3v-9.1h15c5.5,0,10,1,13.9,2.9c3.9,1.9,6.8,4.7,8.9,8.3
			c2,3.7,3,8.1,3,13.1v19.2c0,5.2-1,9.6-3,13.1c-2,3.7-5,6.4-8.9,8.3c-3.9,1.9-8.6,2.9-13.9,2.9h-15V1726.5z"/>
		<path d="M2874.9,1667.7h8.2l25,67.8h-10.2l-18.8-54.7l-18.8,54.7h-10.2L2874.9,1667.7z M2861.3,1711.6h35.7v9.1h-35.7V1711.6z"/>
		<path d="M2908.9,1667.7h47.9v9.1h-47.9V1667.7z M2928,1673.3h9.6v62.3h-9.6V1673.3z"/>
		<path d="M2982.6,1667.7h8.2l25,67.8h-10.2l-18.8-54.7l-18.8,54.7h-10.2L2982.6,1667.7z M2969.2,1711.6h35.7v9.1h-35.7V1711.6z"/>
		<path d="M3067.2,1736.2c0,0-1.5-0.3-4.4-0.9c-2.9-0.6-5.7-1.6-8.2-2.8c-2.5-1.2-4.9-2.8-7.1-4.7l6-7.3c2.6,2.3,5.5,3.9,8.6,5.1
			c3.1,1.1,6.5,1.7,10.1,1.7c4.9,0,8.8-0.9,11.4-2.7c2.7-1.8,4.1-4.4,4.1-7.8l0,0c0-2.4-0.6-4.3-1.9-5.6c-1.2-1.4-2.8-2.4-4.8-3.1
			c-2-0.7-4.5-1.3-7.6-1.9c-0.1,0-0.2,0-0.3,0s-0.2,0-0.3,0l-0.7-0.1c-4.6-0.8-8.3-1.7-11-2.6s-5.3-2.8-7.3-5.4c-2-2.6-3-6.3-3-11
			l0,0c0-4.2,0.9-7.8,2.8-10.7c1.9-3,4.6-5.3,8.3-6.8c3.6-1.6,8-2.3,13-2.3c2.4,0,4.8,0.3,7.2,0.8c2.4,0.5,4.7,1.3,7,2.4
			c2.3,1,4.6,2.4,6.8,4l-5.4,7.6c-2.6-1.9-5.2-3.3-7.8-4.3c-2.6-1-5.2-1.4-7.8-1.4c-4.7,0-8.3,0.9-10.8,2.8
			c-2.6,1.9-3.9,4.5-3.9,7.9l0,0c0,2.3,0.7,4.2,2,5.5c1.3,1.3,3,2.3,5,3c2,0.6,4.7,1.3,8.3,2c0.1,0,0.2,0.1,0.4,0.1
			c0.1,0,0.2,0,0.4,0.1c0.2,0,0.3,0.1,0.5,0.1c0.2,0,0.4,0.1,0.5,0.1c4.1,0.8,7.6,1.8,10.2,3c2.8,1.2,5.1,3,6.9,5.6
			c1.9,2.6,2.8,6.1,2.8,10.5v0.1c0,4.2-1,7.7-3,10.6c-2,3-4.8,5.2-8.6,6.8c-3.7,1.5-8.2,2.3-13.4,2.3
			C3068.8,1736.2,3067.2,1736.2,3067.2,1736.2z"/>
		<path d="M3125.7,1736.2c0,0-1.8-1-5.4-3.1s-6.4-5.1-8.3-8.9c-1.9-3.8-3-8.3-3-13.3v-18.6c0-5.1,1-9.5,3-13.3
			c2-3.9,4.7-6.8,8.3-8.9c3.6-2.1,7.7-3.2,12.3-3.2c3.9,0,7.5,0.8,10.7,2.5s6,4,8.2,7.1c2.2,3.1,3.7,6.6,4.5,10.5h-9.7
			c-0.6-2.1-1.6-4-3-5.7s-3-3-4.9-3.9c-1.9-0.9-3.8-1.4-5.8-1.4c-2.8,0-5.2,0.7-7.3,2c-2.1,1.3-3.7,3.2-4.9,5.6
			c-1.2,2.4-1.7,5.2-1.7,8.5v18.6c0,3.2,0.6,6,1.7,8.4c1.2,2.4,2.8,4.3,4.9,5.6c2.1,1.3,4.5,2,7.3,2c2,0,4-0.4,5.8-1.3
			c1.9-0.8,3.5-2.1,4.9-3.8c1.4-1.7,2.4-3.6,3-5.9h9.7c-0.8,4-2.3,7.6-4.5,10.5c-2.2,3.1-5,5.4-8.3,7.1s-6.9,2.5-10.6,2.5
			C3128,1736.2,3125.7,1736.2,3125.7,1736.2z"/>
		<path d="M3179.1,1735.5h-9.6v-67.8h9.6V1735.5z"/>
		<path d="M3195.9,1667.7h9.6v67.8h-9.6V1667.7z M3200.5,1667.7h38.9v9.1h-38.9V1667.7z M3200.5,1697.3h33.8v9.1h-33.8V1697.3z
			 M3200.5,1726.5h38.9v9.1h-38.9V1726.5z"/>
		<path d="M3252.9,1667.7h8.7l33.1,52.4l-1.1,1.2v-53.6h9.5v67.7h-8.8l-33-51.6l1.1-1.2v52.8h-9.5V1667.7z"/>
		<path d="M3335,1736.2c0,0-1.8-1-5.4-3.1s-6.4-5.1-8.3-8.9s-3-8.3-3-13.3v-18.6c0-5.1,1-9.5,3-13.3c2-3.9,4.7-6.8,8.3-8.9
			c3.6-2.1,7.7-3.2,12.3-3.2c3.9,0,7.5,0.8,10.7,2.5s6,4,8.2,7.1c2.2,3.1,3.7,6.6,4.5,10.5h-9.7c-0.6-2.1-1.6-4-3-5.7s-3-3-4.9-3.9
			c-1.9-0.9-3.8-1.4-5.8-1.4c-2.8,0-5.2,0.7-7.3,2c-2.1,1.3-3.7,3.2-4.9,5.6c-1.2,2.4-1.7,5.2-1.7,8.5v18.6c0,3.2,0.6,6,1.7,8.4
			c1.2,2.4,2.8,4.3,4.9,5.6c2.1,1.3,4.5,2,7.3,2c2,0,4-0.4,5.8-1.3c1.9-0.8,3.5-2.1,4.9-3.8c1.4-1.7,2.4-3.6,3-5.9h9.7
			c-0.8,4-2.3,7.6-4.5,10.5c-2.2,3.1-5,5.4-8.3,7.1s-6.9,2.5-10.6,2.5C3337.3,1736.2,3335,1736.2,3335,1736.2z"/>
		<path d="M3378.8,1667.7h9.6v67.8h-9.6V1667.7z M3383.5,1667.7h38.9v9.1h-38.9V1667.7z M3383.5,1697.3h33.8v9.1h-33.8V1697.3z
			 M3383.5,1726.5h38.9v9.1h-38.9V1726.5z"/>
		<path d="M3461.6,1667.7h9.6v67.8h-9.6V1667.7z M3466.2,1667.7h38.9v9.1h-38.9V1667.7z M3466.2,1697.3h33.8v9.1h-33.8V1697.3z
			 M3466.2,1726.5h38.9v9.1h-38.9V1726.5z"/>
		<path d="M3534.8,1696.7l17-29h10.6l-22.4,36.7l-18.2,31.1h-10.6L3534.8,1696.7z M3535.2,1705.7l-1.5-2.3l-22-35.7h10.6l16.4,27.7
			l1.5,2.5l23.2,37.7h-10.6L3535.2,1705.7z"/>
		<path d="M3572.8,1667.7h9.6v67.8h-9.6V1667.7z M3578.8,1697.6h37.6v9.1h-37.6V1697.6z M3611.4,1667.7h9.6v67.8h-9.6V1667.7z"/>
		<path d="M3647.3,1735.5h-9.6v-67.8h9.6V1735.5z"/>
		<path d="M3664,1667.7h9.5v67.8h-9.5V1667.7z M3669.6,1726.7h18.4c4.8,0,8.4-0.9,10.5-2.8c2.2-1.8,3.3-4.4,3.3-7.8v-0.1
			c0-2.3-0.4-4.3-1.2-6s-2.1-2.9-3.8-3.8s-3.9-1.3-6.6-1.3h-20.7v-8.6h20.7c3.5,0,6.2-0.8,8-2.5s2.7-4.1,2.7-7.4c0-3.4-1-6-3-7.6
			c-2-1.7-5-2.5-9-2.5h-19.4v-8.9h21.1c4.4,0,8.1,0.8,11,2.3c3,1.5,5.2,3.6,6.7,6.4c1.5,2.8,2.2,6,2.2,9.7c0,2.3-0.5,4.5-1.4,6.6
			c-0.9,2-2.3,3.8-4.1,5.3c-1.9,1.5-4.2,2.4-6.9,2.9c2.7,0.4,5.1,1.4,7.1,2.9c2,1.5,3.5,3.5,4.6,5.8c1.1,2.3,1.6,4.8,1.6,7.5v0.1
			c0,3.7-0.8,6.9-2.4,9.7c-1.6,2.8-4,5-7,6.5c-3,1.5-6.6,2.3-10.5,2.3h-21.9L3669.6,1726.7L3669.6,1726.7z"/>
		<path d="M3735.2,1735.5h-9.6v-67.8h9.6V1735.5z"/>
		<path d="M3742.7,1667.7h47.9v9.1h-47.9V1667.7z M3761.8,1673.3h9.6v62.3h-9.6V1673.3z"/>
		<path d="M3807.4,1735.5h-9.6v-67.8h9.6V1735.5z"/>
		<path d="M3834.2,1733.2c-3.6-2.1-6.4-5-8.4-8.8c-2-3.8-3-8.2-3-13.1v-19.2c0-5,1-9.4,3-13.1c2-3.8,4.8-6.7,8.4-8.8
			c3.6-2.1,7.8-3.1,12.5-3.1c4.8,0,8.9,1,12.5,3.1c3.6,2.1,6.4,5,8.4,8.8c2,3.8,3,8.2,3,13.1v19.2c0,5-1,9.4-3,13.1
			c-2,3.8-4.8,6.7-8.4,8.8c-3.6,2.1-7.8,3.1-12.5,3.1C3841.9,1736.2,3837.8,1735.1,3834.2,1733.2z M3854.1,1725
			c2.1-1.3,3.8-3.1,5-5.4c1.2-2.3,1.8-5,1.8-8.1v-19.9c0-3.1-0.6-5.8-1.8-8.1c-1.2-2.3-2.8-4.1-5-5.4c-2.1-1.3-4.6-1.9-7.4-1.9
			c-2.8,0-5.3,0.6-7.4,1.9s-3.8,3.1-5,5.4c-1.2,2.3-1.8,5-1.8,8.1v19.9c0,3.1,0.6,5.8,1.8,8.1s2.8,4.1,5,5.4
			c2.1,1.3,4.6,1.9,7.4,1.9C3849.5,1726.9,3851.9,1726.2,3854.1,1725z"/>
		<path d="M3885.9,1667.7h8.7l33.1,52.4l-1.1,1.2v-53.6h9.5v67.7h-8.8l-33-51.6l1.1-1.2v52.8h-9.5V1667.7z"/>
		<path d="M1971.4,1776.9h6.2l5.4,21.6l7.6-21.6h4.2l7.6,21.6l5.4-21.6h6.2l-9.4,30.2h-4.5l-7.4-20.9l-7.4,20.9h-4.5L1971.4,1776.9z
			"/>
		<path d="M2020.1,1764.8h6v6h-6V1764.8z M2020.1,1776.9h6v30.2h-6V1776.9z"/>
		<path d="M2032.8,1776.9h13.6v5.4h-13.6V1776.9z M2037.6,1805.3c-1.1-1.4-1.7-3.4-1.7-6v-31.2h6v31.2c0,0.7,0.1,1.3,0.4,1.7
			c0.3,0.4,0.7,0.6,1.3,0.6h2.9v5.7h-3.5C2040.5,1807.3,2038.7,1806.6,2037.6,1805.3z"/>
		<path d="M2054.6,1764.8h6v42.4h-6V1764.8z M2072.9,1788.8c0-2.1-0.6-3.8-1.7-5c-1.1-1.2-2.7-1.8-4.7-1.8c-2,0-3.5,0.5-4.5,1.5
			c-1.1,1-1.6,2.5-1.6,4.3l-0.6-5.9c0.9-1.8,2.2-3.2,3.7-4.2s3.2-1.5,5-1.5c3.3,0,5.9,1.1,7.7,3.2c1.8,2.2,2.7,5.2,2.7,9.2v18.4h-6
			V1788.8L2072.9,1788.8z"/>
		<path d="M2104,1764.8h6v42.4h-6V1764.8z M2112.6,1806.3c-1.4-0.9-2.4-2.2-3.1-3.9l0.4-6.4c0,1.3,0.2,2.4,0.7,3.3
			c0.5,0.9,1.1,1.6,2,2.1c0.9,0.5,2,0.7,3.2,0.7c2,0,3.5-0.6,4.6-1.8c1.1-1.2,1.6-2.9,1.6-5.1v-6.6c0-2.2-0.5-4-1.6-5.2
			c-1.1-1.2-2.6-1.8-4.6-1.8c-1.3,0-2.3,0.2-3.2,0.7s-1.6,1.2-2,2.1c-0.4,0.9-0.7,2-0.7,3.3l-0.6-5.9c0.9-1.8,2.1-3.1,3.6-4.1
			c1.5-1,3.1-1.5,5-1.5c2.1,0,4,0.5,5.5,1.5c1.5,1,2.7,2.4,3.5,4.2c0.8,1.9,1.2,4.1,1.2,6.7v6.6c0,2.6-0.4,4.8-1.2,6.6
			c-0.8,1.8-2,3.2-3.6,4.2c-1.6,1-3.5,1.5-5.7,1.5C2115.6,1807.6,2114,1807.2,2112.6,1806.3z"/>
		<path d="M2137.8,1805.3c-1.9-1.6-2.8-3.9-2.8-7.1c0-3,0.8-5.3,2.5-6.8c1.7-1.5,4.3-2.3,7.7-2.3h8.6l0.4,4.8h-9
			c-1.6,0-2.7,0.3-3.5,1c-0.8,0.7-1.2,1.8-1.2,3.2c0,1.5,0.5,2.7,1.5,3.4c1,0.7,2.6,1.1,4.7,1.1c2.3,0,4-0.2,5.1-0.7
			s1.7-1.2,1.7-2.3l0.6,4.3c-0.5,0.8-1.2,1.5-1.9,2c-0.8,0.5-1.7,0.9-2.7,1.2c-1,0.3-2.2,0.4-3.4,0.4
			C2142.4,1807.6,2139.6,1806.8,2137.8,1805.3z M2153.5,1788c0-2-0.5-3.5-1.6-4.6c-1.1-1.1-2.6-1.7-4.5-1.7c-1.2,0-2.4,0.2-3.6,0.6
			s-2.2,0.9-3.1,1.6l-4.4-3c1.2-1.4,2.7-2.5,4.6-3.2c1.9-0.8,4-1.2,6.3-1.2c2.5,0,4.7,0.4,6.5,1.3s3.2,2.2,4.1,3.9
			c0.9,1.7,1.4,3.7,1.4,6.1v19.4h-5.7V1788z"/>
		<path d="M2168.2,1764.8h6v6h-6V1764.8z M2168.2,1776.9h6v30.2h-6V1776.9z"/>
		<path d="M2189.1,1799.3c0,0.7,0.2,1.3,0.5,1.7c0.3,0.4,0.8,0.6,1.4,0.6h2.8v5.7h-3.5c-2.3,0-4-0.7-5.3-2.1
			c-1.2-1.4-1.9-3.4-1.9-5.9v-34.5h6V1799.3z"/>
		<path d="M2200.5,1776.9h6v42.6h-6V1776.9z M2209.1,1806.3c-1.4-0.9-2.4-2.2-3.1-3.9l0.4-6.4c0,1.3,0.2,2.4,0.7,3.3
			c0.5,0.9,1.1,1.6,2,2.1c0.9,0.5,2,0.7,3.2,0.7c2,0,3.5-0.6,4.6-1.8c1.1-1.2,1.6-2.9,1.6-5.1v-6.6c0-2.2-0.5-4-1.6-5.2
			c-1.1-1.2-2.6-1.8-4.6-1.8c-1.3,0-2.3,0.2-3.2,0.7c-0.9,0.5-1.6,1.2-2,2.1c-0.4,0.9-0.7,2-0.7,3.3l-0.6-5.9
			c0.9-1.8,2.1-3.1,3.6-4.1c1.5-1,3.1-1.5,5-1.5c2.1,0,4,0.5,5.5,1.5c1.5,1,2.7,2.4,3.5,4.2c0.8,1.9,1.2,4.1,1.2,6.7v6.6
			c0,2.6-0.4,4.8-1.2,6.6c-0.8,1.8-2,3.2-3.6,4.2c-1.6,1-3.5,1.5-5.7,1.5C2212.1,1807.6,2210.5,1807.2,2209.1,1806.3z"/>
		<path d="M2232.9,1776.9h6v30.2h-6V1776.9z M2247.6,1782.6c-0.8-0.3-1.7-0.5-2.8-0.5c-1.9,0-3.4,0.5-4.4,1.6c-1,1-1.6,2.5-1.6,4.4
			l-0.6-5.9c0.9-1.8,2.1-3.2,3.6-4.2c1.5-1,3.1-1.5,4.9-1.5c1.4,0,2.6,0.2,3.8,0.6c1.1,0.4,2.1,1,2.9,1.8l-3.9,5.3
			C2249,1783.4,2248.4,1782.9,2247.6,1782.6z"/>
		<path d="M2263.2,1806.1c-1.9-1-3.3-2.5-4.3-4.5s-1.5-4.4-1.5-7.2v-5c0-2.8,0.5-5.1,1.5-7.1s2.4-3.5,4.3-4.5c1.9-1,4.1-1.5,6.8-1.5
			s4.9,0.5,6.8,1.5c1.9,1,3.3,2.5,4.3,4.5c1,2,1.5,4.3,1.5,7.1v5c0,2.8-0.5,5.1-1.5,7.1c-1,2-2.4,3.5-4.3,4.5
			c-1.9,1-4.1,1.6-6.8,1.6S2265.1,1807.1,2263.2,1806.1z M2274.9,1800c1.1-1.3,1.7-3.1,1.7-5.5v-5c0-2.4-0.6-4.2-1.7-5.5
			s-2.8-1.9-4.8-1.9c-2.1,0-3.7,0.6-4.8,1.9c-1.1,1.3-1.7,3.1-1.7,5.5v5c0,2.4,0.6,4.2,1.7,5.5c1.1,1.3,2.8,2,4.8,2
			C2272.1,1801.9,2273.7,1801.3,2274.9,1800z"/>
		<path d="M2286.8,1813.8h3.3c0.5,0,1-0.2,1.3-0.6c0.3-0.4,0.5-1,0.5-1.7v-34.6h6v34.5c0,2.6-0.6,4.5-1.9,5.9
			c-1.2,1.4-3,2.1-5.3,2.1h-3.9L2286.8,1813.8L2286.8,1813.8z M2291.8,1764.8h6.1v6h-6.1V1764.8z"/>
		<path d="M2315.2,1807.6c0,0-1-0.5-3-1.6c-2-1.1-3.5-2.6-4.6-4.6c-1-2-1.6-4.5-1.6-7.4v-3.4c0-3,0.5-5.6,1.5-7.7s2.5-3.8,4.4-4.9
			c1.9-1.1,4.2-1.7,6.9-1.7c2.5,0,4.7,0.6,6.5,1.9c1.8,1.3,3.2,3.1,4.1,5.5c0.9,2.4,1.4,5.3,1.4,8.6v2h-20.4v-4.8h14.7
			c-0.2-2.5-0.8-4.4-1.9-5.8c-1.1-1.4-2.6-2.1-4.4-2.1c-2.3,0-4,0.7-5.3,2.2c-1.2,1.5-1.9,3.6-1.9,6.3v3.9c0,2.5,0.7,4.5,2,5.8
			c1.3,1.3,3.2,2,5.7,2c1.2,0,2.4-0.2,3.6-0.7c1.2-0.5,2.3-1.2,3.2-2.1l3.9,3.9c-1.5,1.4-3.2,2.6-5.1,3.4c-1.9,0.8-3.8,1.2-5.7,1.2
			C2316.6,1807.6,2315.2,1807.6,2315.2,1807.6z"/>
		<path d="M2347,1807.6c0,0-1-0.5-2.9-1.6c-2-1-3.5-2.5-4.5-4.5c-1-2-1.6-4.4-1.6-7.1v-5c0-2.8,0.5-5.1,1.6-7.1c1-2,2.5-3.4,4.5-4.5
			c2-1.1,4.3-1.5,7.1-1.5c1.6,0,3.1,0.2,4.5,0.6c1.4,0.4,2.7,0.9,3.8,1.7c1.1,0.7,2,1.6,2.8,2.6l-4.3,3.9c-0.9-1-1.9-1.7-3-2.3
			c-1.2-0.5-2.4-0.8-3.6-0.8c-2.3,0-4.1,0.6-5.4,1.9c-1.3,1.3-1.9,3.1-1.9,5.4v5c0,2.4,0.6,4.3,1.9,5.6c1.3,1.3,3.1,2,5.4,2
			c1.3,0,2.5-0.3,3.6-0.8c1.2-0.6,2.1-1.4,3-2.4l4.3,4.2c-0.8,1-1.7,1.9-2.8,2.6c-1.1,0.7-2.4,1.3-3.8,1.6c-1.4,0.4-2.9,0.6-4.4,0.6
			C2348.4,1807.6,2347,1807.6,2347,1807.6z"/>
		<path d="M2366.3,1776.9h13.6v5.4h-13.6V1776.9z M2371.2,1805.3c-1.1-1.4-1.7-3.4-1.7-6v-31.2h6v31.2c0,0.7,0.1,1.3,0.4,1.7
			c0.3,0.4,0.7,0.6,1.3,0.6h2.9v5.7h-3.5C2374.1,1807.3,2372.3,1806.6,2371.2,1805.3z"/>
		<path d="M2387.1,1800.9h6.3v6.3h-6.3V1800.9z"/>
		<path d="M2406.5,1806.1c-1.9-1-3.3-2.5-4.3-4.5s-1.5-4.4-1.5-7.2v-5c0-2.8,0.5-5.1,1.5-7.1s2.4-3.5,4.3-4.5c1.9-1,4.1-1.5,6.8-1.5
			c2.7,0,4.9,0.5,6.8,1.5c1.9,1,3.3,2.5,4.3,4.5c1,2,1.5,4.3,1.5,7.1v5c0,2.8-0.5,5.1-1.5,7.1c-1,2-2.4,3.5-4.3,4.5
			c-1.9,1-4.1,1.6-6.8,1.6C2410.6,1807.6,2408.4,1807.1,2406.5,1806.1z M2418,1800c1.1-1.3,1.7-3.1,1.7-5.5v-5
			c0-2.4-0.6-4.2-1.7-5.5s-2.8-1.9-4.8-1.9c-2.1,0-3.7,0.6-4.8,1.9c-1.1,1.3-1.7,3.1-1.7,5.5v5c0,2.4,0.6,4.2,1.7,5.5
			c1.1,1.3,2.8,2,4.8,2C2415.4,1801.9,2416.9,1801.3,2418,1800z"/>
		<path d="M2434.2,1776.9h6v30.2h-6V1776.9z M2448.9,1782.6c-0.8-0.3-1.7-0.5-2.8-0.5c-1.9,0-3.4,0.5-4.4,1.6c-1,1-1.6,2.5-1.6,4.4
			l-0.6-5.9c0.9-1.8,2.1-3.2,3.6-4.2c1.5-1,3.1-1.5,4.9-1.5c1.4,0,2.6,0.2,3.8,0.6c1.1,0.4,2.1,1,2.9,1.8l-3.9,5.3
			C2450.3,1783.4,2449.7,1782.9,2448.9,1782.6z"/>
		<path d="M2463.6,1806.3c-1.6-1-2.8-2.4-3.6-4.2c-0.8-1.9-1.2-4.1-1.2-6.7v-6.7c0-2.6,0.4-4.9,1.2-6.7c0.8-1.9,2-3.3,3.5-4.2
			c1.5-1,3.4-1.5,5.5-1.5c1.8,0,3.4,0.5,4.9,1.4s2.7,2.3,3.6,4l-0.6,6.2c0-1.3-0.2-2.4-0.7-3.3c-0.5-0.9-1.1-1.6-2-2.1
			s-2-0.7-3.2-0.7c-2,0-3.5,0.6-4.6,1.8s-1.6,3-1.6,5.2v6.6c0,2.2,0.5,3.9,1.6,5.1c1.1,1.2,2.6,1.8,4.6,1.8c1.3,0,2.3-0.2,3.2-0.7
			s1.6-1.2,2-2.2c0.4-1,0.7-2.1,0.7-3.4l0.4,6.4c-0.6,1.5-1.6,2.8-3,3.8c-1.4,1-3.1,1.5-5.1,1.5
			C2467,1807.7,2465.1,1807.2,2463.6,1806.3z M2466.4,1819.4c0,0-0.9-0.4-2.7-1.3c-1.8-0.8-3.2-2-4.2-3.6l4-3.7
			c0.8,1.1,1.7,1.9,2.8,2.5c1.1,0.6,2.2,0.9,3.4,0.9c2.3,0,4.1-0.6,5.3-1.9c1.2-1.3,1.9-3,1.9-5.3v-30.2h6v29.3
			c0,2.8-0.5,5.2-1.5,7.2s-2.5,3.5-4.5,4.5c-2,1-4.3,1.6-7.1,1.6C2467.5,1819.4,2466.4,1819.4,2466.4,1819.4z"/>
		<path d="M1977.1,1875.3c-1.7-4.7-2.6-9.7-2.6-15.4c0-5.6,0.9-10.7,2.6-15.4c1.7-4.7,4.3-8.9,7.8-12.6l4.1,3.7
			c-2.9,3.3-5.2,7-6.6,10.9c-1.5,4.1-2.2,8.5-2.2,13.3c0,4.9,0.7,9.4,2.2,13.3c1.5,4.1,3.7,7.7,6.6,10.9l-4.1,3.7
			C1981.4,1884.2,1978.8,1880,1977.1,1875.3z"/>
		<path d="M2012.8,1836.4h4.1l8.7,33.2l7.5-33.2h6.2l-10.3,42.4h-6.1l-7.9-29.6l-8.2,29.6h-6.1l-10.3-42.4h6.2l7.5,33.2
			L2012.8,1836.4z"/>
		<path d="M2072.9,1836.4h5.1l15.6,42.4h-6.4l-11.7-34.2l-11.7,34.2h-6.4L2072.9,1836.4z M2064.5,1863.8h22.3v5.7h-22.3V1863.8z"/>
		<path d="M2125.8,1879.2c0,0-0.9-0.2-2.8-0.6c-1.8-0.4-3.5-1-5.1-1.8c-1.6-0.8-3.1-1.8-4.5-2.9l3.7-4.6c1.6,1.4,3.4,2.5,5.4,3.2
			c2,0.7,4.1,1.1,6.4,1.1c3.1,0,5.5-0.6,7.2-1.7c1.7-1.1,2.5-2.8,2.5-4.8l0,0c0-1.5-0.4-2.7-1.2-3.5c-0.8-0.9-1.8-1.5-3-1.9
			s-2.8-0.8-4.7-1.2c-0.1,0-0.1,0-0.2,0c-0.1,0-0.1,0-0.2,0l-0.4-0.1c-2.9-0.5-5.2-1-7-1.7s-3.3-1.7-4.6-3.4c-1.3-1.6-1.9-4-1.9-7
			l0,0c0-2.6,0.6-4.9,1.8-6.8c1.2-1.9,2.9-3.3,5.2-4.3c2.3-1,5-1.5,8.2-1.5c1.5,0,3,0.2,4.5,0.5c1.5,0.3,2.9,0.8,4.4,1.5
			c1.4,0.7,2.8,1.5,4.2,2.5l-3.4,4.7c-1.6-1.2-3.2-2.1-4.8-2.7c-1.6-0.6-3.2-0.9-4.8-0.9c-2.9,0-5.2,0.6-6.8,1.7
			c-1.6,1.2-2.4,2.8-2.4,4.9l0,0c0,1.5,0.4,2.6,1.2,3.5c0.8,0.8,1.9,1.5,3.1,1.9s3,0.8,5.2,1.2c0.1,0,0.2,0,0.2,0c0.1,0,0.1,0,0.2,0
			s0.2,0,0.3,0.1c0.1,0,0.2,0,0.3,0.1c2.6,0.5,4.7,1.2,6.5,1.9c1.7,0.7,3.2,1.9,4.3,3.5c1.2,1.6,1.7,3.8,1.7,6.6v0.1
			c0,2.6-0.6,4.8-1.8,6.7c-1.2,1.9-3,3.3-5.3,4.2c-2.3,1-5.2,1.5-8.5,1.5C2126.8,1879.2,2125.8,1879.2,2125.8,1879.2z"/>
		<path d="M2168.8,1836.4h6v42.4h-6V1836.4z M2172.9,1873.1h9.6c3.1,0,5.6-0.8,7.3-2.4c1.7-1.6,2.6-3.9,2.6-6.9v-12.4
			c0-3-0.9-5.3-2.6-6.9c-1.7-1.6-4.2-2.4-7.3-2.4h-9.6v-5.7h9.5c3.4,0,6.3,0.6,8.8,1.8c2.4,1.2,4.3,2.9,5.5,5.2
			c1.3,2.3,1.9,5,1.9,8.3v12c0,3.2-0.6,6-1.9,8.3c-1.3,2.3-3.1,4-5.6,5.2c-2.4,1.2-5.4,1.8-8.8,1.8h-9.4V1873.1z"/>
		<path d="M2221.2,1848.6h13.6v5.4h-13.6V1848.6z M2225.9,1876.9c-1.1-1.4-1.7-3.4-1.7-6v-31.2h6v31.2c0,0.7,0.1,1.3,0.4,1.7
			c0.3,0.4,0.7,0.6,1.3,0.6h2.9v5.7h-3.5C2228.9,1878.9,2227.1,1878.2,2225.9,1876.9z"/>
		<path d="M2247.8,1877.7c-1.9-1-3.3-2.5-4.3-4.5c-1-2-1.5-4.4-1.5-7.2v-5c0-2.8,0.5-5.1,1.5-7.1c1-2,2.4-3.5,4.3-4.5
			c1.9-1,4.1-1.5,6.8-1.5s4.9,0.5,6.8,1.5c1.9,1,3.3,2.5,4.3,4.5c1,2,1.5,4.3,1.5,7.1v5c0,2.8-0.5,5.1-1.5,7.1s-2.4,3.5-4.3,4.5
			c-1.9,1-4.1,1.6-6.8,1.6S2249.7,1878.7,2247.8,1877.7z M2259.4,1871.6c1.1-1.3,1.7-3.1,1.7-5.5v-5c0-2.4-0.6-4.2-1.7-5.5
			c-1.1-1.3-2.8-1.9-4.8-1.9c-2.1,0-3.7,0.6-4.8,1.9c-1.1,1.3-1.7,3.1-1.7,5.5v5c0,2.4,0.6,4.2,1.7,5.5c1.1,1.3,2.8,2,4.8,2
			C2256.6,1873.5,2258.3,1872.9,2259.4,1871.6z"/>
		<path d="M2291.5,1848.6h6v30.2h-6V1848.6z M2309.6,1860.4c0-2.1-0.5-3.8-1.6-5c-1.1-1.2-2.5-1.8-4.5-1.8c-2,0-3.5,0.5-4.5,1.6
			c-1.1,1-1.6,2.5-1.6,4.4l-0.6-5.9c0.9-1.8,2.2-3.3,3.7-4.2c1.5-1,3.2-1.5,5-1.5c2.1,0,3.9,0.5,5.4,1.5c1.5,1,2.7,2.4,3.4,4.2
			c0.8,1.9,1.2,4.1,1.2,6.7v18.4h-6L2309.6,1860.4L2309.6,1860.4z M2327.6,1860.4c0-2.1-0.6-3.8-1.7-5s-2.7-1.8-4.7-1.8
			c-1.9,0-3.3,0.6-4.3,1.7c-1,1.1-1.5,2.7-1.5,4.8l-1.2-5.9c1-2,2.2-3.6,3.8-4.7c1.6-1.1,3.3-1.7,5.2-1.7c2.2,0,4.1,0.5,5.6,1.5
			c1.5,1,2.7,2.4,3.5,4.2c0.8,1.9,1.2,4.1,1.2,6.7v18.4h-6L2327.6,1860.4L2327.6,1860.4z"/>
		<path d="M2347.5,1877.7c-1.9-1-3.3-2.5-4.3-4.5c-1-2-1.5-4.4-1.5-7.2v-5c0-2.8,0.5-5.1,1.5-7.1c1-2,2.4-3.5,4.3-4.5
			c1.9-1,4.1-1.5,6.8-1.5s4.9,0.5,6.8,1.5c1.9,1,3.3,2.5,4.3,4.5c1,2,1.5,4.3,1.5,7.1v5c0,2.8-0.5,5.1-1.5,7.1s-2.4,3.5-4.3,4.5
			c-1.9,1-4.1,1.6-6.8,1.6S2349.3,1878.7,2347.5,1877.7z M2359,1871.6c1.1-1.3,1.7-3.1,1.7-5.5v-5c0-2.4-0.6-4.2-1.7-5.5
			c-1.1-1.3-2.8-1.9-4.8-1.9c-2.1,0-3.7,0.6-4.8,1.9c-1.1,1.3-1.7,3.1-1.7,5.5v5c0,2.4,0.6,4.2,1.7,5.5c1.1,1.3,2.8,2,4.8,2
			C2356.3,1873.5,2357.9,1872.9,2359,1871.6z"/>
		<path d="M2393,1848.6h6.2l-11.3,30.2h-4.5l-11.3-30.2h6.2l7.4,21.6L2393,1848.6z"/>
		<path d="M2413.2,1879.2c0,0-1-0.5-3-1.6c-2-1.1-3.5-2.6-4.6-4.6c-1-2-1.6-4.5-1.6-7.4v-3.4c0-3,0.5-5.6,1.5-7.7s2.5-3.8,4.4-4.9
			c1.9-1.1,4.2-1.7,6.9-1.7c2.5,0,4.7,0.6,6.5,1.9s3.2,3.1,4.1,5.5c0.9,2.4,1.4,5.3,1.4,8.6v2h-20.4v-4.8h14.7
			c-0.2-2.5-0.8-4.4-1.9-5.8c-1.1-1.4-2.6-2.1-4.4-2.1c-2.3,0-4,0.7-5.3,2.2c-1.2,1.5-1.9,3.6-1.9,6.3v3.9c0,2.5,0.7,4.5,2,5.8
			c1.3,1.3,3.2,2,5.7,2c1.2,0,2.4-0.2,3.6-0.7s2.3-1.2,3.2-2.1l3.9,3.9c-1.5,1.4-3.2,2.6-5.1,3.4c-1.9,0.8-3.8,1.2-5.7,1.2
			C2414.6,1879.2,2413.2,1879.2,2413.2,1879.2z"/>
		<path d="M2454.4,1876.9c-1.9-1.6-2.8-3.9-2.8-7.1c0-3,0.8-5.3,2.5-6.8s4.3-2.3,7.7-2.3h8.6l0.4,4.8h-9c-1.6,0-2.7,0.3-3.5,1
			c-0.8,0.7-1.2,1.8-1.2,3.2c0,1.5,0.5,2.7,1.5,3.4c1,0.7,2.6,1.1,4.7,1.1c2.3,0,4-0.2,5.1-0.7c1.1-0.5,1.7-1.2,1.7-2.3l0.6,4.3
			c-0.5,0.8-1.2,1.5-1.9,2c-0.8,0.5-1.7,0.9-2.7,1.2c-1,0.3-2.2,0.4-3.4,0.4C2458.9,1879.2,2456.1,1878.4,2454.4,1876.9z
			 M2470.1,1859.6c0-2-0.5-3.5-1.6-4.6c-1.1-1.1-2.6-1.7-4.5-1.7c-1.2,0-2.4,0.2-3.6,0.6c-1.2,0.4-2.2,0.9-3.1,1.6l-4.4-3
			c1.2-1.4,2.7-2.5,4.6-3.2c1.9-0.8,4-1.2,6.3-1.2c2.5,0,4.7,0.4,6.5,1.3c1.8,0.9,3.2,2.2,4.1,3.9c0.9,1.7,1.4,3.7,1.4,6.1v19.4
			h-5.7V1859.6z"/>
		<path d="M2484.8,1848.6h6v30.2h-6V1848.6z M2499.4,1854.2c-0.8-0.3-1.7-0.5-2.8-0.5c-1.9,0-3.4,0.5-4.4,1.6c-1,1-1.6,2.5-1.6,4.4
			l-0.6-5.9c0.9-1.8,2.1-3.2,3.6-4.2c1.5-1,3.1-1.5,4.9-1.5c1.4,0,2.6,0.2,3.8,0.6c1.1,0.4,2.1,1,2.9,1.8l-3.9,5.3
			C2500.9,1855,2500.2,1854.5,2499.4,1854.2z"/>
		<path d="M2515.1,1877.7c-1.9-1-3.3-2.5-4.3-4.5c-1-2-1.5-4.4-1.5-7.2v-5c0-2.8,0.5-5.1,1.5-7.1c1-2,2.4-3.5,4.3-4.5
			c1.9-1,4.1-1.5,6.8-1.5c2.7,0,4.9,0.5,6.8,1.5c1.9,1,3.3,2.5,4.3,4.5c1,2,1.5,4.3,1.5,7.1v5c0,2.8-0.5,5.1-1.5,7.1
			c-1,2-2.4,3.5-4.3,4.5c-1.9,1-4.1,1.6-6.8,1.6C2519.2,1879.2,2517,1878.7,2515.1,1877.7z M2526.7,1871.6c1.1-1.3,1.7-3.1,1.7-5.5
			v-5c0-2.4-0.6-4.2-1.7-5.5c-1.1-1.3-2.8-1.9-4.8-1.9c-2.1,0-3.7,0.6-4.8,1.9c-1.1,1.3-1.7,3.1-1.7,5.5v5c0,2.4,0.6,4.2,1.7,5.5
			c1.1,1.3,2.8,2,4.8,2C2523.9,1873.5,2525.6,1872.9,2526.7,1871.6z"/>
		<path d="M2548.8,1867c0,2.1,0.5,3.8,1.6,4.9c1.1,1.2,2.6,1.7,4.6,1.7c2,0,3.5-0.5,4.5-1.6c1.1-1,1.6-2.5,1.6-4.4l0.4,6.4
			c-0.6,1.5-1.6,2.8-3,3.8s-3.1,1.5-5.2,1.5c-3.4,0-6-1.1-7.8-3.2c-1.8-2.2-2.7-5.2-2.7-9.1v-18.4h6L2548.8,1867L2548.8,1867z
			 M2561,1848.6h5.9v30.2h-5.9V1848.6z"/>
		<path d="M2576,1848.6h6v30.2h-6V1848.6z M2594.3,1860.4c0-2.1-0.6-3.8-1.7-5s-2.7-1.8-4.7-1.8c-2,0-3.5,0.5-4.5,1.6
			c-1.1,1-1.6,2.5-1.6,4.4l-0.6-5.9c0.9-1.8,2.2-3.3,3.7-4.2c1.5-1,3.2-1.5,5-1.5c3.3,0,5.9,1.1,7.7,3.2c1.8,2.2,2.7,5.2,2.7,9.2
			v18.4h-6L2594.3,1860.4L2594.3,1860.4z"/>
		<path d="M2613.2,1877.9c-1.6-1-2.8-2.4-3.6-4.2c-0.8-1.9-1.2-4.1-1.2-6.7v-6.7c0-2.6,0.4-4.9,1.2-6.7c0.8-1.9,2-3.3,3.5-4.2
			c1.5-1,3.4-1.5,5.5-1.5c1.8,0,3.4,0.5,4.9,1.4c1.5,0.9,2.7,2.3,3.6,4l-0.6,6.2c0-1.3-0.2-2.4-0.7-3.3c-0.5-0.9-1.1-1.6-2-2.1
			s-2-0.7-3.2-0.7c-2,0-3.5,0.6-4.6,1.8c-1.1,1.2-1.6,3-1.6,5.2v6.6c0,2.2,0.5,3.9,1.6,5.1c1.1,1.2,2.6,1.8,4.6,1.8
			c1.3,0,2.3-0.2,3.2-0.7c0.9-0.5,1.6-1.2,2-2.2c0.4-1,0.7-2.1,0.7-3.4l0.4,6.4c-0.6,1.5-1.6,2.8-3,3.8c-1.4,1-3.1,1.5-5.1,1.5
			C2616.7,1879.3,2614.8,1878.8,2613.2,1877.9z M2626.6,1836.4h6v42.4h-6V1836.4z"/>
		<path d="M2653.4,1884.3c2.9-3.3,5.2-7,6.6-10.9c1.5-4.1,2.2-8.5,2.2-13.3c0-4.9-0.7-9.4-2.2-13.3c-1.5-4.1-3.7-7.7-6.6-10.9
			l4.1-3.7c3.5,3.8,6.1,8,7.8,12.6s2.6,9.7,2.6,15.4c0,5.6-0.9,10.7-2.6,15.4s-4.3,8.9-7.8,12.6L2653.4,1884.3z"/>
	</g>
</g>
<polygon style="opacity:0.46;fill:#45B6FE;stroke:#000000;stroke-miterlimit:10;enable-background:new    ;" points="4786.6,2119.5 
	4528.3,2119.5 4399.1,2343.3 4528.3,2567 4786.6,2567 4915.8,2343.3 "/>
<polygon style="fill:none;stroke:#000000;stroke-miterlimit:10;" points="4330.6,2380.8 4072.2,2380.8 3943.1,2604.5 4072.2,2828.3 
	4330.6,2828.3 4459.7,2604.5 "/>
<polygon style="fill:none;stroke:#000000;stroke-miterlimit:10;" points="3880.4,2119.5 3622.1,2119.5 3493,2343.3 3622.1,2567 
	3880.4,2567 4009.6,2343.3 "/>
<polygon style="fill:none;stroke:#000000;stroke-miterlimit:10;" points="3431.4,2380.8 3173,2380.8 3043.9,2604.5 3173,2828.3 
	3431.4,2828.3 3560.5,2604.5 "/>
<polygon style="fill:none;stroke:#000000;stroke-miterlimit:10;" points="2979.9,2130.1 2721.5,2130.1 2592.4,2353.8 2721.5,2577.6 
	2979.9,2577.6 3109,2353.8 "/>
<path style="fill:none;stroke:#000000;stroke-miterlimit:10;" d="M3080,2592.3c34-58.4,68-116.8,102.1-175.3"/>
<path style="fill:none;stroke:#000000;stroke-miterlimit:10;" d="M3985,2595.5c34-58.4,68-116.8,102.1-175.3"/>
<g>
	<line style="fill:none;" x1="2441.9" y1="2517.9" x2="2592.4" y2="2441.7"/>
	<g>
		<line style="fill:none;stroke:#000000;stroke-width:7;stroke-miterlimit:10;" x1="2441.9" y1="2517.9" x2="2567.7" y2="2454.2"/>
		<g>
			<path d="M2592.4,2441.7c-9.5,10.2-20.2,24.9-25.2,37.2l-2.8-23.1l-16.9-15.9C2560.4,2443.2,2578.6,2443.3,2592.4,2441.7z"/>
		</g>
	</g>
</g>
<g>
	<g>
		<path d="M3198.8,2585.7h5.6v42.4h-5.8v-31.7l0.3,1.9l-10.4,24h-4.2l-10.4-23.4l0.3-2.5v31.7h-5.8v-42.4h5.6l12.4,28L3198.8,2585.7
			z"/>
		<path d="M3219.2,2627c-1.9-1-3.3-2.5-4.3-4.5c-1-2-1.5-4.4-1.5-7.2v-5c0-2.8,0.5-5.1,1.5-7.1c1-2,2.4-3.5,4.3-4.5
			c1.9-1,4.1-1.5,6.8-1.5s4.9,0.5,6.8,1.5c1.9,1,3.3,2.5,4.3,4.5c1,2,1.5,4.3,1.5,7.1v5c0,2.8-0.5,5.1-1.5,7.1c-1,2-2.4,3.5-4.3,4.5
			s-4.1,1.6-6.8,1.6S3221.1,2628,3219.2,2627z M3230.7,2620.9c1.1-1.3,1.7-3.1,1.7-5.5v-5c0-2.4-0.6-4.2-1.7-5.5
			c-1.1-1.3-2.8-1.9-4.8-1.9c-2.1,0-3.7,0.6-4.8,1.9c-1.1,1.3-1.7,3.1-1.7,5.5v5c0,2.4,0.6,4.2,1.7,5.5c1.1,1.3,2.8,2,4.8,2
			C3227.9,2622.8,3229.6,2622.2,3230.7,2620.9z"/>
		<path d="M3264.6,2597.9h6.2l-11.3,30.2h-4.5l-11.3-30.2h6.2l7.4,21.6L3264.6,2597.9z"/>
		<path d="M3284.8,2628.5c0,0-1-0.5-3-1.6c-2-1.1-3.5-2.6-4.6-4.6c-1-2-1.6-4.5-1.6-7.4v-3.4c0-3,0.5-5.6,1.5-7.7s2.5-3.8,4.4-4.9
			c1.9-1.1,4.2-1.7,6.9-1.7c2.5,0,4.7,0.6,6.5,1.9c1.8,1.3,3.2,3.1,4.1,5.5c0.9,2.4,1.4,5.3,1.4,8.6v2h-20.3v-4.8h14.7
			c-0.2-2.5-0.8-4.4-1.9-5.8c-1.1-1.4-2.6-2.1-4.4-2.1c-2.3,0-4,0.7-5.3,2.2c-1.2,1.5-1.9,3.6-1.9,6.3v3.9c0,2.5,0.7,4.5,2,5.8
			c1.3,1.3,3.2,2,5.7,2c1.2,0,2.4-0.2,3.6-0.7c1.2-0.5,2.3-1.2,3.2-2.1l3.9,3.9c-1.5,1.4-3.2,2.6-5.1,3.4s-3.8,1.2-5.7,1.2
			C3286.2,2628.5,3284.8,2628.5,3284.8,2628.5z"/>
		<path d="M3324.7,2585.7h6v42.4h-6V2585.7z M3343,2609.7c0-2.1-0.6-3.8-1.7-5c-1.1-1.2-2.7-1.8-4.7-1.8c-2,0-3.5,0.5-4.5,1.5
			c-1.1,1-1.6,2.5-1.6,4.3l-0.6-5.9c0.9-1.8,2.2-3.2,3.7-4.2c1.5-1,3.2-1.5,5-1.5c3.3,0,5.9,1.1,7.7,3.2c1.8,2.2,2.7,5.2,2.7,9.2
			v18.4h-6L3343,2609.7L3343,2609.7z"/>
		<path d="M3366.2,2628.5c0,0-1-0.5-3-1.6c-2-1.1-3.5-2.6-4.6-4.6c-1-2-1.6-4.5-1.6-7.4v-3.4c0-3,0.5-5.6,1.5-7.7s2.5-3.8,4.4-4.9
			c1.9-1.1,4.2-1.7,6.9-1.7c2.5,0,4.7,0.6,6.5,1.9c1.8,1.3,3.2,3.1,4.1,5.5c0.9,2.4,1.4,5.3,1.4,8.6v2h-20.4v-4.8h14.7
			c-0.2-2.5-0.8-4.4-1.9-5.8c-1.1-1.4-2.6-2.1-4.4-2.1c-2.3,0-4,0.7-5.3,2.2c-1.2,1.5-1.9,3.6-1.9,6.3v3.9c0,2.5,0.7,4.5,2,5.8
			c1.3,1.3,3.2,2,5.7,2c1.2,0,2.4-0.2,3.6-0.7c1.2-0.5,2.3-1.2,3.2-2.1l3.9,3.9c-1.5,1.4-3.2,2.6-5.1,3.4s-3.8,1.2-5.7,1.2
			C3367.6,2628.5,3366.2,2628.5,3366.2,2628.5z"/>
		<path d="M3390.1,2597.9h6v30.2h-6V2597.9z M3404.7,2603.5c-0.8-0.3-1.7-0.5-2.8-0.5c-1.9,0-3.4,0.5-4.4,1.6c-1,1-1.6,2.5-1.6,4.4
			l-0.6-5.9c0.9-1.8,2.1-3.2,3.6-4.2c1.5-1,3.1-1.5,4.9-1.5c1.4,0,2.6,0.2,3.8,0.6c1.1,0.4,2.1,1,2.9,1.8l-3.9,5.3
			C3406.2,2604.3,3405.5,2603.8,3404.7,2603.5z"/>
		<path d="M3423.7,2628.5c0,0-1-0.5-3-1.6c-2-1.1-3.5-2.6-4.6-4.6c-1-2-1.6-4.5-1.6-7.4v-3.4c0-3,0.5-5.6,1.5-7.7s2.5-3.8,4.4-4.9
			s4.2-1.7,6.9-1.7c2.5,0,4.7,0.6,6.5,1.9c1.8,1.3,3.2,3.1,4.1,5.5c0.9,2.4,1.4,5.3,1.4,8.6v2h-20.4v-4.8h14.7
			c-0.2-2.5-0.8-4.4-1.9-5.8s-2.6-2.1-4.4-2.1c-2.3,0-4,0.7-5.3,2.2c-1.2,1.5-1.9,3.6-1.9,6.3v3.9c0,2.5,0.7,4.5,2,5.8
			c1.3,1.3,3.2,2,5.7,2c1.2,0,2.4-0.2,3.6-0.7c1.2-0.5,2.3-1.2,3.2-2.1l3.9,3.9c-1.5,1.4-3.2,2.6-5.1,3.4c-1.9,0.8-3.8,1.2-5.7,1.2
			C3425.1,2628.5,3423.7,2628.5,3423.7,2628.5z"/>
	</g>
</g>
<g>
	<g>
		<path d="M4490.2,2361.5c-2.2-1.2-3.9-3-5.1-5.4c-1.2-2.4-1.8-5.2-1.8-8.6v-27.1h6v27.3c0,3.1,0.8,5.5,2.3,7.2
			c1.6,1.7,3.8,2.5,6.6,2.5c2.9,0,5.1-0.8,6.7-2.5s2.4-4.1,2.4-7.2v-27.3h6v27.1c0,3.3-0.6,6.2-1.8,8.6s-2.9,4.2-5.1,5.4
			c-2.2,1.2-5,1.9-8.1,1.9C4495,2363.4,4492.5,2362.8,4490.2,2361.5z"/>
		<path d="M4522.5,2332.6h6v30.2h-6V2332.6z M4540.8,2344.6c0-2.1-0.6-3.8-1.7-5c-1.1-1.2-2.7-1.8-4.7-1.8s-3.5,0.5-4.5,1.6
			c-1.1,1-1.6,2.5-1.6,4.4l-0.6-5.9c0.9-1.8,2.2-3.3,3.7-4.2c1.5-1,3.2-1.5,5-1.5c3.3,0,5.9,1.1,7.7,3.2c1.8,2.2,2.7,5.2,2.7,9.2
			v18.4h-6V2344.6z"/>
		<path d="M4555.8,2320.6h6v6h-6V2320.6z M4555.8,2332.6h6v30.2h-6V2332.6z"/>
		<path d="M4568.5,2332.6h13.6v5.4h-13.6V2332.6z M4573.2,2361.1c-1.1-1.4-1.7-3.4-1.7-6V2324h6v31.2c0,0.7,0.1,1.3,0.4,1.7
			c0.3,0.4,0.7,0.6,1.3,0.6h2.9v5.7h-3.5C4576.2,2363.1,4574.4,2362.4,4573.2,2361.1z"/>
		<path d="M4598.4,2363.4c0,0-1-0.5-3-1.6s-3.5-2.6-4.6-4.6c-1-2-1.6-4.5-1.6-7.4v-3.4c0-3,0.5-5.6,1.5-7.7c1-2.1,2.5-3.8,4.4-4.9
			s4.2-1.7,6.9-1.7c2.5,0,4.7,0.6,6.5,1.9s3.2,3.1,4.1,5.5c0.9,2.4,1.4,5.3,1.4,8.6v2h-20.4v-4.8h14.7c-0.2-2.5-0.8-4.4-1.9-5.8
			c-1.1-1.4-2.6-2.1-4.4-2.1c-2.3,0-4,0.7-5.3,2.2c-1.2,1.5-1.9,3.6-1.9,6.3v3.9c0,2.5,0.7,4.5,2,5.8c1.3,1.3,3.2,2,5.7,2
			c1.2,0,2.4-0.2,3.6-0.7c1.2-0.5,2.3-1.2,3.2-2.1l3.9,3.9c-1.5,1.4-3.2,2.6-5.1,3.4s-3.8,1.2-5.7,1.2
			C4599.8,2363.4,4598.4,2363.4,4598.4,2363.4z"/>
		<path d="M4626.2,2362c-1.6-1-2.8-2.4-3.6-4.2c-0.8-1.8-1.2-4.1-1.2-6.7v-6.7c0-2.6,0.4-4.9,1.2-6.7c0.8-1.9,2-3.3,3.5-4.2
			c1.5-1,3.4-1.5,5.5-1.5c1.8,0,3.4,0.5,4.9,1.4s2.7,2.3,3.6,4l-0.6,6.2c0-1.3-0.2-2.4-0.7-3.3c-0.5-0.9-1.1-1.6-2-2.1
			s-2-0.7-3.2-0.7c-2,0-3.5,0.6-4.6,1.8c-1.1,1.2-1.6,3-1.6,5.2v6.6c0,2.2,0.5,3.9,1.6,5.1c1.1,1.2,2.6,1.8,4.6,1.8
			c1.3,0,2.3-0.2,3.2-0.7c0.9-0.5,1.6-1.2,2-2.2s0.7-2.1,0.7-3.4l0.4,6.4c-0.6,1.5-1.6,2.8-3,3.8s-3.1,1.5-5.1,1.5
			C4629.6,2363.5,4627.8,2363,4626.2,2362z M4639.5,2320.6h6v42.4h-6V2320.6z"/>
		<path d="M4680.7,2363.4c0,0-0.9-0.2-2.8-0.6c-1.8-0.4-3.5-1-5.1-1.8s-3.1-1.8-4.5-2.9l3.7-4.6c1.6,1.4,3.4,2.5,5.4,3.2
			s4.1,1.1,6.4,1.1c3.1,0,5.5-0.6,7.2-1.7c1.7-1.1,2.5-2.8,2.5-4.8l0,0c0-1.5-0.4-2.7-1.2-3.5c-0.8-0.9-1.8-1.5-3-1.9
			c-1.2-0.4-2.8-0.8-4.7-1.2c-0.1,0-0.1,0-0.2,0c-0.1,0-0.1,0-0.2,0l-0.4-0.1c-2.9-0.5-5.2-1-7-1.7c-1.8-0.7-3.3-1.7-4.6-3.4
			c-1.3-1.6-1.9-4-1.9-7l0,0c0-2.6,0.6-4.9,1.8-6.8c1.2-1.9,2.9-3.3,5.2-4.3c2.3-1,5-1.5,8.2-1.5c1.5,0,3,0.2,4.5,0.5
			s2.9,0.8,4.4,1.5c1.5,0.7,2.8,1.5,4.2,2.5l-3.4,4.7c-1.6-1.2-3.2-2.1-4.8-2.7s-3.2-0.9-4.8-0.9c-2.9,0-5.2,0.6-6.8,1.7
			s-2.4,2.8-2.4,4.9l0,0c0,1.5,0.4,2.6,1.2,3.5c0.8,0.8,1.9,1.5,3.1,1.9c1.2,0.4,3,0.8,5.2,1.2c0.1,0,0.2,0,0.2,0c0.1,0,0.1,0,0.2,0
			s0.2,0,0.3,0.1s0.2,0,0.3,0.1c2.6,0.5,4.7,1.2,6.5,1.9s3.2,1.9,4.3,3.5c1.2,1.6,1.7,3.8,1.7,6.6v0.1c0,2.6-0.6,4.8-1.8,6.7
			c-1.2,1.9-3,3.3-5.3,4.2c-2.3,1-5.2,1.5-8.5,1.5C4681.8,2363.4,4680.7,2363.4,4680.7,2363.4z"/>
		<path d="M4704.9,2332.6h13.6v5.4h-13.6V2332.6z M4709.7,2361.1c-1.1-1.4-1.7-3.4-1.7-6V2324h6v31.2c0,0.7,0.1,1.3,0.4,1.7
			c0.3,0.4,0.7,0.6,1.3,0.6h2.9v5.7h-3.5C4712.6,2363.1,4710.8,2362.4,4709.7,2361.1z"/>
		<path d="M4728,2361.1c-1.9-1.6-2.8-3.9-2.8-7.1c0-3,0.8-5.3,2.5-6.8s4.3-2.3,7.7-2.3h8.6l0.4,4.8h-9c-1.6,0-2.7,0.3-3.5,1
			c-0.8,0.7-1.2,1.8-1.2,3.2c0,1.5,0.5,2.7,1.5,3.4s2.6,1.1,4.7,1.1c2.3,0,4-0.2,5.1-0.7c1.1-0.5,1.7-1.3,1.7-2.3l0.6,4.3
			c-0.5,0.8-1.2,1.5-1.9,2c-0.8,0.5-1.7,0.9-2.7,1.2c-1,0.3-2.2,0.4-3.4,0.4C4732.6,2363.4,4729.8,2362.6,4728,2361.1z
			 M4743.7,2343.8c0-2-0.5-3.5-1.6-4.6s-2.6-1.7-4.5-1.7c-1.2,0-2.4,0.2-3.6,0.6s-2.2,0.9-3.1,1.6l-4.4-3c1.2-1.4,2.7-2.5,4.6-3.2
			c1.9-0.8,4-1.2,6.3-1.2c2.5,0,4.7,0.4,6.5,1.3c1.8,0.9,3.2,2.2,4.1,3.9c0.9,1.7,1.4,3.7,1.4,6.1v19.4h-5.7L4743.7,2343.8
			L4743.7,2343.8z"/>
		<path d="M4756.1,2332.6h13.6v5.4h-13.6V2332.6z M4761,2361.1c-1.1-1.4-1.7-3.4-1.7-6V2324h6v31.2c0,0.7,0.1,1.3,0.4,1.7
			c0.3,0.4,0.7,0.6,1.3,0.6h2.9v5.7h-3.5C4763.8,2363.1,4762.1,2362.4,4761,2361.1z"/>
		<path d="M4786.1,2363.4c0,0-1-0.5-3-1.6c-2-1.1-3.5-2.6-4.6-4.6c-1-2-1.6-4.5-1.6-7.4v-3.4c0-3,0.5-5.6,1.5-7.7
			c1-2.1,2.5-3.8,4.4-4.9s4.2-1.7,6.9-1.7c2.5,0,4.7,0.6,6.5,1.9s3.2,3.1,4.1,5.5c0.9,2.4,1.4,5.3,1.4,8.6v2h-20.4v-4.8h14.7
			c-0.2-2.5-0.8-4.4-1.9-5.8c-1.1-1.4-2.6-2.1-4.4-2.1c-2.3,0-4,0.7-5.3,2.2c-1.2,1.5-1.9,3.6-1.9,6.3v3.9c0,2.5,0.7,4.5,2,5.8
			c1.3,1.3,3.2,2,5.7,2c1.2,0,2.4-0.2,3.6-0.7c1.2-0.5,2.3-1.2,3.2-2.1l3.9,3.9c-1.5,1.4-3.2,2.6-5.1,3.4s-3.8,1.2-5.7,1.2
			C4787.5,2363.4,4786.1,2363.4,4786.1,2363.4z"/>
		<path d="M4818,2363.4c0,0-0.8-0.2-2.4-0.5c-1.6-0.4-3-0.9-4.4-1.6s-2.6-1.6-3.8-2.6l3.5-4.4c1.6,1.3,3.3,2.2,4.9,2.8
			c1.6,0.6,3.2,0.9,4.8,0.9c2.4,0,4.1-0.4,5.3-1.1c1.2-0.7,1.8-1.8,1.8-3.3c0-1-0.3-1.7-1-2.2c-0.7-0.5-1.4-0.8-2.4-1
			c-1-0.2-2.3-0.3-4-0.5c-0.2,0-0.3,0-0.5,0s-0.3,0-0.5,0c-0.1,0-0.2,0-0.2,0c-0.1,0-0.2,0-0.2,0c-2-0.2-3.6-0.4-5-0.9
			c-1.4-0.4-2.5-1.2-3.4-2.4c-0.9-1.2-1.4-2.8-1.4-5s0.4-3.9,1.3-5.4c0.9-1.5,2.2-2.5,3.9-3.2c1.7-0.7,3.9-1.1,6.5-1.1
			c1.6,0,3.1,0.1,4.5,0.4c1.4,0.3,2.8,0.7,4.1,1.3c1.3,0.6,2.6,1.3,3.8,2.2l-3.6,4.4c-1.5-1-3-1.7-4.5-2.2c-1.5-0.5-2.9-0.7-4.3-0.7
			c-2,0-3.6,0.3-4.6,1c-1,0.7-1.5,1.7-1.5,3.1c0,0.8,0.3,1.4,0.9,1.8c0.6,0.4,1.3,0.7,2.2,0.8c0.9,0.1,2.1,0.3,3.8,0.4
			c0.1,0,0.2,0,0.4,0c0.1,0,0.3,0,0.4,0s0.1,0,0.2,0s0.1,0,0.2,0c2.1,0.1,3.9,0.4,5.4,0.8c1.5,0.4,2.7,1.3,3.8,2.5
			c1,1.3,1.5,3.1,1.5,5.5c0,2.2-0.5,4-1.4,5.4c-0.9,1.4-2.3,2.5-4.2,3.2c-1.9,0.7-4.3,1.1-7.1,1.1
			C4818.9,2363.4,4818,2363.4,4818,2363.4z"/>
	</g>
</g>
<g>
	<g>
		<path d="M152.3,176h29.7v213h-29.7V176z M169.9,361.3h57.7c15.1,0,26.2-2.9,33.1-8.6c6.9-5.8,10.4-13.9,10.4-24.3v-0.4
			c0-7.2-1.2-13.4-3.7-18.6c-2.5-5.2-6.4-9.2-11.8-11.9c-5.4-2.8-12.3-4.2-20.7-4.2h-65v-27h65c11,0,19.4-2.6,25-7.8
			c5.6-5.2,8.4-12.8,8.4-23c0-10.6-3.1-18.6-9.4-23.9c-6.3-5.3-15.6-7.9-28.1-7.9h-60.9V176h66.4c13.8,0,25.3,2.3,34.6,7
			c9.3,4.7,16.2,11.3,20.8,19.9c4.6,8.6,6.9,18.8,6.9,30.8c0,7.3-1.4,14.2-4.2,20.6c-2.8,6.4-7.2,11.9-13,16.4
			c-5.8,4.5-13,7.6-21.6,9.2c8.6,1.3,16,4.3,22.3,9.2c6.2,4.8,11,10.9,14.4,18.1c3.3,7.2,5,15,5,23.4v0.4c0,11.5-2.5,21.7-7.6,30.5
			c-5.1,8.8-12.4,15.6-21.8,20.4c-9.5,4.8-20.5,7.2-33.1,7.2h-68.8V361.3z"/>
		<path d="M343,176h29.9v29.9H343V176z M343,236.9h29.9V389H343V236.9z"/>
		<path d="M438,384.4c-7.9-4.8-13.8-11.9-17.9-21.2c-4.1-9.3-6.2-20.4-6.2-33.4v-33.5c0-13.1,2-24.3,6-33.5
			c4-9.3,9.8-16.3,17.5-21.2c7.7-4.8,16.9-7.3,27.6-7.3c9,0,17.2,2.3,24.7,7s13.5,11.3,18.1,19.8l-3.1,31.1c0-6.4-1.2-12-3.5-16.6
			c-2.3-4.6-5.7-8.1-10.2-10.5c-4.4-2.4-9.8-3.6-16.2-3.6c-9.9,0-17.5,3.1-22.9,9.2s-8.1,14.8-8.1,25.9v33.1c0,11,2.7,19.6,8.1,25.6
			s13.1,9,22.9,9c6.3,0,11.7-1.2,16.2-3.7c4.4-2.5,7.8-6.1,10.2-10.8s3.5-10.3,3.5-16.8l2.1,32.1c-3,7.5-8,13.8-14.9,18.9
			s-15.4,7.6-25.4,7.6C455.4,391.6,445.9,389.2,438,384.4z M452.2,450.8c0,0-4.5-2.1-13.5-6.4c-9-4.2-16-10.2-21-17.9l20.2-18.3
			c3.9,5.4,8.6,9.5,14,12.5s11.1,4.4,17.1,4.4c11.4,0,20.3-3.1,26.5-9.4c6.2-6.3,9.4-15.2,9.4-26.7V236.9h29.9v147.5
			c0,14-2.6,25.9-7.7,35.9s-12.6,17.5-22.3,22.7c-9.8,5.2-21.5,7.8-35.3,7.8C457.9,450.8,452.2,450.8,452.2,450.8z"/>
		<path d="M599.8,384.4c-7.9-4.8-13.8-11.9-17.9-21.2c-4.1-9.3-6.2-20.4-6.2-33.4v-33.5c0-13.1,2-24.3,6-33.5
			c4-9.3,9.8-16.3,17.5-21.2c7.7-4.8,16.9-7.3,27.6-7.3c9,0,17.2,2.3,24.7,7s13.5,11.3,18.1,19.8l-3.1,31.1c0-6.4-1.2-12-3.5-16.6
			c-2.3-4.6-5.7-8.1-10.2-10.5c-4.4-2.4-9.8-3.6-16.2-3.6c-9.9,0-17.5,3.1-22.9,9.2s-8.1,14.8-8.1,25.9v33.1c0,11,2.7,19.6,8.1,25.6
			s13.1,9,22.9,9c6.3,0,11.7-1.2,16.2-3.7c4.4-2.5,7.8-6.1,10.2-10.8s3.5-10.3,3.5-16.8l2.1,32.1c-3,7.5-8,13.8-14.9,18.9
			s-15.4,7.6-25.4,7.6C617.1,391.6,607.6,389.2,599.8,384.4z M613.9,450.8c0,0-4.5-2.1-13.5-6.4c-9-4.2-16-10.2-21-17.9l20.2-18.3
			c3.9,5.4,8.6,9.5,14,12.5s11.1,4.4,17.1,4.4c11.4,0,20.3-3.1,26.5-9.4c6.2-6.3,9.4-15.2,9.4-26.7V236.9h29.9v147.5
			c0,14-2.6,25.9-7.7,35.9s-12.6,17.5-22.3,22.7c-9.8,5.2-21.5,7.8-35.3,7.8C619.6,450.8,613.9,450.8,613.9,450.8z"/>
		<path d="M782.9,391.2c0,0-5-2.6-14.9-7.9s-17.6-13-22.8-23.2c-5.2-10.2-7.8-22.5-7.8-37v-17.1c0-15,2.5-27.9,7.5-38.5
			c5-10.6,12.3-18.8,21.9-24.3c9.6-5.6,21.1-8.3,34.6-8.3c12.7,0,23.5,3.2,32.5,9.5c9,6.3,15.8,15.5,20.6,27.5
			c4.7,12,7.1,26.4,7.1,43.2v10H759.1v-24h74.1c-0.9-12.4-4.1-22-9.6-28.9c-5.5-6.9-12.9-10.3-22.2-10.3c-11.3,0-20.1,3.7-26.3,11.1
			c-6.2,7.4-9.3,17.9-9.3,31.5v19.3c0,12.6,3.3,22.3,10,29c6.6,6.7,16.1,10.1,28.3,10.1c6.1,0,12.1-1.2,18-3.7
			c6-2.4,11.3-5.9,16-10.3l19.6,19.6c-7.5,7.2-16,12.8-25.3,16.8s-18.8,5.9-28.3,5.9C790,391.2,782.9,391.2,782.9,391.2z"/>
		<path d="M902.6,236.9h29.9V389h-29.9V236.9z M976.3,265.6c-4-1.7-8.6-2.5-13.9-2.5c-9.5,0-16.8,2.6-22,7.8
			c-5.2,5.2-7.8,12.5-7.8,21.8l-3.1-29.3c4.7-9.1,10.7-16.1,18.2-21.2c7.4-5,15.6-7.5,24.6-7.5c6.9,0,13.2,1,18.8,3
			c5.6,2,10.5,5,14.7,8.9L986.3,273C983.6,269.7,980.3,267.3,976.3,265.6z"/>
		<path d="M1114.1,176h29.9v213h-29.9V176z M1129.5,277.9h68.1c6.4,0,12.1-1.5,17-4.5c4.9-3,8.7-7.3,11.4-12.9c2.7-5.6,4-12,4-19.2
			c0-7.3-1.3-13.8-4-19.3c-2.7-5.6-6.5-9.9-11.4-13c-4.9-3.1-10.5-4.6-17-4.6h-68.1V176h67.1c12.7,0,23.9,2.7,33.5,8.1
			s17.2,13.1,22.5,22.9c5.3,9.9,8,21.3,8,34.3c0,13-2.7,24.4-8,34.2c-5.3,9.8-12.8,17.4-22.5,22.8c-9.7,5.4-20.9,8.1-33.5,8.1h-67.1
			V277.9z"/>
		<path d="M1298,176h29.9v29.9H1298V176z M1298,236.9h29.9V389H1298V236.9z"/>
		<path d="M1413.8,391.2c0,0-4.9-2.6-14.7-7.8c-9.8-5.2-17.3-12.7-22.5-22.6c-5.2-9.9-7.8-21.8-7.8-35.7v-25
			c0-13.8,2.6-25.5,7.8-35.3c5.2-9.8,12.7-17.2,22.5-22.3s21.7-7.7,35.5-7.7c7.9,0,15.4,1,22.3,2.9c7,1.9,13.3,4.7,18.8,8.3
			c5.6,3.6,10.2,8,13.9,13.2l-21.5,19.3c-4.3-4.9-9.3-8.6-15.1-11.3c-5.8-2.6-11.8-4-18-4c-11.5,0-20.5,3.2-26.8,9.7
			c-6.3,6.4-9.5,15.5-9.5,27.2v25c0,12,3.1,21.3,9.4,27.8c6.3,6.5,15.3,9.8,26.9,9.8c6.3,0,12.4-1.4,18.2-4.2
			c5.8-2.8,10.7-6.8,14.9-12l21.5,20.8c-3.8,5.1-8.5,9.4-14.1,13c-5.6,3.6-11.8,6.3-18.8,8.1c-7,1.9-14.4,2.8-22.2,2.8
			C1420.8,391.2,1413.8,391.2,1413.8,391.2z"/>
		<path d="M1511,236.9h68.6v27H1511V236.9z M1535.2,379.5c-5.7-6.8-8.6-16.8-8.6-30.1V192.7h29.9v157c0,3.7,0.7,6.6,2.2,8.6
			c1.5,2,3.6,3,6.4,3h14.4v28.4h-17.3C1549.9,389.7,1540.9,386.3,1535.2,379.5z"/>
		<path d="M1650.4,329.4c0,10.6,2.7,18.9,8.1,24.7c5.4,5.8,13.1,8.7,22.9,8.7c9.8,0,17.3-2.6,22.7-7.8c5.4-5.2,8.1-12.5,8.1-22.1
			l2.1,31.8c-3.1,7.5-8.2,13.8-15.2,18.9c-7,5.1-15.7,7.6-25.9,7.6c-16.8,0-29.8-5.4-38.9-16.2c-9.1-10.8-13.7-26-13.7-45.6v-92.4
			h29.9V329.4z M1712.2,236.9h29.7V389h-29.7V236.9z"/>
		<path d="M1787.4,236.9h29.9V389h-29.9V236.9z M1861.1,265.6c-4-1.7-8.6-2.5-13.9-2.5c-9.5,0-16.8,2.6-22,7.8
			c-5.2,5.2-7.8,12.5-7.8,21.8l-3.1-29.3c4.7-9.1,10.7-16.1,18.2-21.2c7.4-5,15.6-7.5,24.6-7.5c6.9,0,13.2,1,18.8,3
			c5.6,2,10.5,5,14.7,8.9L1871,273C1868.4,269.7,1865.1,267.3,1861.1,265.6z"/>
		<path d="M1956.6,391.2c0,0-5-2.6-14.9-7.9s-17.6-13-22.8-23.2c-5.2-10.2-7.8-22.5-7.8-37v-17.1c0-15,2.5-27.9,7.5-38.5
			c5-10.6,12.3-18.8,21.9-24.3c9.6-5.6,21.1-8.3,34.6-8.3c12.7,0,23.5,3.2,32.5,9.5c9,6.3,15.8,15.5,20.6,27.5
			c4.7,12,7.1,26.4,7.1,43.2v10h-102.5v-24h74.1c-0.9-12.4-4.1-22-9.6-28.9c-5.5-6.9-12.9-10.3-22.2-10.3
			c-11.3,0-20.1,3.7-26.3,11.1c-6.2,7.4-9.3,17.9-9.3,31.5v19.3c0,12.6,3.3,22.3,10,29c6.6,6.7,16.1,10.1,28.3,10.1
			c6.1,0,12.1-1.2,18-3.7c6-2.4,11.3-5.9,16-10.3l19.6,19.6c-7.5,7.2-16,12.8-25.3,16.8s-18.8,5.9-28.3,5.9
			C1963.6,391.2,1956.6,391.2,1956.6,391.2z"/>
		<path d="M2071.1,235.5h31.3v31.3h-31.3V235.5z M2071.1,357.6h31.3V389h-31.3V357.6z"/>
		<path d="M129.5,489.5h14.7l22.6,63.9l-8,15.6L129.5,489.5z M194.6,489.5l-31.3,90.7c-1.1,3.4-2.6,6-4.5,8c-1.8,2-4.1,3.4-6.8,4.2
			s-6,1.3-9.9,1.3h-2.9v-13.9h2.9c2.7,0,4.8-0.5,6.4-1.6c1.6-1.1,3-3,4.1-5.6l27.2-83H194.6z"/>
		<path d="M219.1,560.3c-4.5-2.5-8-6.1-10.4-10.9c-2.4-4.8-3.6-10.6-3.6-17.3v-12c0-6.7,1.2-12.4,3.6-17.1
			c2.4-4.7,5.8-8.4,10.4-10.8c4.5-2.5,10-3.7,16.4-3.7s11.8,1.2,16.4,3.7c4.5,2.5,8,6.1,10.4,10.8c2.4,4.7,3.6,10.4,3.6,17.1v12.2
			c0,6.7-1.2,12.4-3.6,17.2c-2.4,4.7-5.8,8.4-10.4,10.9c-4.5,2.5-10,3.8-16.4,3.8S223.7,562.8,219.1,560.3z M247.2,545.6
			c2.8-3.2,4.1-7.6,4.1-13.3v-12.2c0-5.7-1.4-10.1-4.1-13.2c-2.8-3.1-6.7-4.7-11.7-4.7c-5.1,0-9,1.6-11.7,4.7
			c-2.8,3.1-4.1,7.5-4.1,13.2v12.2c0,5.7,1.4,10.1,4.1,13.3c2.8,3.2,6.7,4.7,11.7,4.7C240.5,550.3,244.4,548.7,247.2,545.6z"/>
		<path d="M300.8,534.2c0,5.1,1.3,9.1,3.9,11.9c2.6,2.8,6.3,4.2,11.1,4.2c4.7,0,8.4-1.3,11-3.8c2.6-2.5,3.9-6.1,3.9-10.7l1,15.4
			c-1.5,3.6-4,6.7-7.4,9.1c-3.4,2.5-7.6,3.7-12.5,3.7c-8.1,0-14.4-2.6-18.8-7.8c-4.4-5.2-6.6-12.6-6.6-22.1v-44.7h14.4V534.2z
			 M330.6,489.5H345V563h-14.4V489.5z"/>
		<path d="M409.1,558.4c-4.5-3.8-6.7-9.5-6.7-17.1c0-7.3,2.1-12.7,6.2-16.4c4.1-3.6,10.3-5.5,18.6-5.5H448l1,11.6h-21.8
			c-3.8,0-6.6,0.8-8.5,2.5c-1.9,1.7-2.8,4.2-2.8,7.7c0,3.7,1.2,6.5,3.7,8.3c2.5,1.8,6.2,2.7,11.3,2.7c5.5,0,9.6-0.6,12.4-1.8
			c2.7-1.2,4.1-3,4.1-5.5l1.5,10.3c-1.3,2-2.8,3.6-4.7,4.9c-1.9,1.3-4,2.2-6.5,2.9c-2.5,0.6-5.2,1-8.3,1
			C420.3,564,413.6,562.2,409.1,558.4z M447.4,516.4c0-4.8-1.3-8.6-3.9-11.2c-2.6-2.7-6.2-4-10.9-4c-2.9,0-5.8,0.4-8.6,1.3
			c-2.8,0.9-5.3,2.1-7.5,3.8L406,499c2.8-3.4,6.5-6,11-7.8c4.6-1.9,9.6-2.8,15.2-2.8c6.1,0,11.3,1.1,15.6,3.2
			c4.3,2.1,7.6,5.3,9.9,9.3c2.3,4.1,3.4,9,3.4,14.8V563h-13.7V516.4z"/>
		<path d="M483.1,489.5h14.4V563h-14.4V489.5z M518.7,503.4c-1.9-0.8-4.2-1.2-6.7-1.2c-4.6,0-8.1,1.3-10.7,3.8
			c-2.5,2.5-3.8,6-3.8,10.5l-1.5-14.2c2.3-4.4,5.2-7.8,8.8-10.2c3.6-2.4,7.6-3.6,11.9-3.6c3.4,0,6.4,0.5,9.1,1.5
			c2.7,1,5.1,2.4,7.1,4.3l-9.4,12.7C522.2,505.3,520.6,504.2,518.7,503.4z"/>
		<path d="M564.9,564c0,0-2.4-1.3-7.2-3.8s-8.5-6.3-11-11.2c-2.5-4.9-3.8-10.9-3.8-17.9v-8.3c0-7.3,1.2-13.5,3.6-18.6
			c2.4-5.1,6-9.1,10.6-11.8c4.6-2.7,10.2-4,16.7-4c6.1,0,11.4,1.5,15.7,4.6c4.3,3.1,7.7,7.5,9.9,13.3c2.3,5.8,3.4,12.8,3.4,20.9v4.8
			h-49.6v-11.6h35.8c-0.4-6-2-10.7-4.6-14c-2.7-3.3-6.2-5-10.7-5c-5.5,0-9.7,1.8-12.7,5.4c-3,3.6-4.5,8.7-4.5,15.2v9.3
			c0,6.1,1.6,10.8,4.8,14c3.2,3.3,7.8,4.9,13.7,4.9c2.9,0,5.8-0.6,8.7-1.8c2.9-1.2,5.5-2.8,7.7-5l9.5,9.5c-3.6,3.5-7.7,6.2-12.2,8.1
			c-4.5,1.9-9.1,2.9-13.7,2.9C568.3,564,564.9,564,564.9,564z"/>
		<path d="M661.6,460h14.4V563h-14.4V460z M682.6,560.7c-3.4-2.2-5.9-5.3-7.5-9.3l1-15.4c0,3.2,0.6,5.9,1.7,8.1
			c1.1,2.2,2.8,3.9,4.9,5.1c2.1,1.2,4.8,1.8,7.8,1.8c4.8,0,8.5-1.5,11.1-4.4c2.6-2.9,3.9-7,3.9-12.3v-15.9c0-5.4-1.3-9.6-3.9-12.5
			c-2.6-3-6.3-4.5-11.1-4.5c-3.1,0-5.7,0.6-7.8,1.7c-2.1,1.1-3.8,2.8-4.9,5c-1.1,2.2-1.7,4.8-1.7,7.9l-1.5-14.2
			c2.2-4.3,5.1-7.6,8.7-9.9c3.6-2.3,7.6-3.5,12-3.5c5.2,0,9.6,1.2,13.3,3.5c3.7,2.3,6.5,5.7,8.5,10.2c1.9,4.5,2.9,9.9,2.9,16.2v16
			c0,6.2-1,11.6-3,16c-2,4.4-4.9,7.8-8.7,10.2c-3.8,2.3-8.4,3.5-13.7,3.5C690,564,686,562.9,682.6,560.7z"/>
		<path d="M755,534.2c0,5.1,1.3,9.1,3.9,11.9c2.6,2.8,6.3,4.2,11.1,4.2c4.7,0,8.4-1.3,11-3.8c2.6-2.5,3.9-6.1,3.9-10.7l1,15.4
			c-1.5,3.6-4,6.7-7.4,9.1c-3.4,2.5-7.6,3.7-12.5,3.7c-8.1,0-14.4-2.6-18.8-7.8c-4.4-5.2-6.6-12.6-6.6-22.1v-44.7H755V534.2z
			 M784.8,489.5h14.4V563h-14.4V489.5z"/>
		<path d="M815.5,489.5h33.1v13h-33.1V489.5z M827.2,558.4c-2.8-3.3-4.1-8.1-4.1-14.5v-75.8h14.4V544c0,1.8,0.4,3.2,1.1,4.1
			c0.7,1,1.7,1.5,3.1,1.5h6.9v13.7h-8.4C834.3,563.3,830,561.7,827.2,558.4z"/>
		<path d="M919.2,560.3c-4.5-2.5-8-6.1-10.4-10.9c-2.4-4.8-3.6-10.6-3.6-17.3v-12c0-6.7,1.2-12.4,3.6-17.1
			c2.4-4.7,5.8-8.4,10.4-10.8c4.5-2.5,10-3.7,16.4-3.7s11.8,1.2,16.4,3.7c4.5,2.5,8,6.1,10.4,10.8c2.4,4.7,3.6,10.4,3.6,17.1v12.2
			c0,6.7-1.2,12.4-3.6,17.2c-2.4,4.7-5.8,8.4-10.4,10.9c-4.5,2.5-10,3.8-16.4,3.8S923.7,562.8,919.2,560.3z M947.3,545.6
			c2.8-3.2,4.1-7.6,4.1-13.3v-12.2c0-5.7-1.4-10.1-4.1-13.2c-2.8-3.1-6.7-4.7-11.7-4.7c-5.1,0-9,1.6-11.7,4.7
			c-2.8,3.1-4.1,7.5-4.1,13.2v12.2c0,5.7,1.4,10.1,4.1,13.3c2.8,3.2,6.7,4.7,11.7,4.7C940.6,550.3,944.5,548.7,947.3,545.6z"/>
		<path d="M986.4,489.5h14.4V563h-14.4V489.5z M1031,518.4c0-5.2-1.3-9.2-4-12s-6.5-4.2-11.3-4.2c-4.7,0-8.4,1.3-10.9,3.8
			c-2.6,2.5-3.9,6-3.9,10.5l-1.5-14.2c2.3-4.4,5.2-7.9,8.9-10.3c3.7-2.4,7.7-3.6,12.1-3.6c8,0,14.1,2.6,18.5,7.8
			c4.4,5.2,6.5,12.6,6.5,22.1V563H1031V518.4z"/>
		<path d="M1087.3,564c0,0-2.4-1.3-7.2-3.8s-8.5-6.3-11-11.2c-2.5-4.9-3.8-10.9-3.8-17.9v-8.3c0-7.3,1.2-13.5,3.6-18.6
			c2.4-5.1,6-9.1,10.6-11.8c4.6-2.7,10.2-4,16.7-4c6.1,0,11.4,1.5,15.7,4.6c4.3,3.1,7.7,7.5,9.9,13.3c2.3,5.8,3.4,12.8,3.4,20.9v4.8
			h-49.6v-11.6h35.8c-0.4-6-2-10.7-4.6-14c-2.7-3.3-6.2-5-10.7-5c-5.5,0-9.7,1.8-12.7,5.4c-3,3.6-4.5,8.7-4.5,15.2v9.3
			c0,6.1,1.6,10.8,4.8,14c3.2,3.3,7.8,4.9,13.7,4.9c2.9,0,5.8-0.6,8.7-1.8c2.9-1.2,5.5-2.8,7.7-5l9.5,9.5c-3.6,3.5-7.7,6.2-12.2,8.1
			c-4.5,1.9-9.1,2.9-13.7,2.9C1090.7,564,1087.3,564,1087.3,564z"/>
		<path d="M1195.9,560.3c-4.5-2.5-8-6.1-10.4-10.9c-2.4-4.8-3.6-10.6-3.6-17.3v-12c0-6.7,1.2-12.4,3.6-17.1
			c2.4-4.7,5.8-8.4,10.4-10.8c4.5-2.5,10-3.7,16.4-3.7s11.8,1.2,16.4,3.7c4.5,2.5,8,6.1,10.4,10.8c2.4,4.7,3.6,10.4,3.6,17.1v12.2
			c0,6.7-1.2,12.4-3.6,17.2c-2.4,4.7-5.8,8.4-10.4,10.9c-4.5,2.5-10,3.8-16.4,3.8S1200.4,562.8,1195.9,560.3z M1224,545.6
			c2.8-3.2,4.1-7.6,4.1-13.3v-12.2c0-5.7-1.4-10.1-4.1-13.2c-2.8-3.1-6.7-4.7-11.7-4.7c-5.1,0-9,1.6-11.7,4.7
			c-2.8,3.1-4.1,7.5-4.1,13.2v12.2c0,5.7,1.4,10.1,4.1,13.3c2.8,3.2,6.7,4.7,11.7,4.7C1217.3,550.3,1221.2,548.7,1224,545.6z"/>
		<path d="M1257.4,489.5h36.7v12.3h-36.7V489.5z M1265.2,479.5c0-6.5,1.5-11.4,4.5-14.6c3-3.2,7.6-4.8,13.8-4.8h10.6v13.7h-10.3
			c-1.4,0-2.4,0.5-3.1,1.6c-0.7,1-1.1,2.4-1.1,4V563h-14.4V479.5z"/>
		<path d="M1348,489.5h14.4V563H1348V489.5z M1391.9,518.4c0-5.2-1.3-9.2-3.8-12s-6.2-4.2-10.8-4.2c-4.7,0-8.4,1.3-10.9,3.8
			c-2.6,2.5-3.9,6-3.9,10.5l-1.5-14.2c2.3-4.4,5.2-7.9,8.9-10.3c3.7-2.4,7.7-3.6,12.1-3.6c5.1,0,9.5,1.2,13.2,3.5
			c3.6,2.3,6.4,5.7,8.3,10.2c1.9,4.5,2.9,9.9,2.9,16.2V563h-14.4V518.4z M1435.8,518.4c0-5.2-1.3-9.2-4-12s-6.5-4.2-11.3-4.2
			c-4.5,0-8,1.4-10.4,4.1c-2.5,2.7-3.7,6.6-3.7,11.6l-2.9-14.2c2.3-4.9,5.4-8.6,9.2-11.3c3.8-2.7,8-4,12.6-4c5.3,0,9.8,1.2,13.6,3.5
			c3.8,2.3,6.6,5.7,8.6,10.2c2,4.5,2.9,9.9,2.9,16.2V563h-14.4V518.4z"/>
		<path d="M1475.3,558.4c-4.5-3.8-6.7-9.5-6.7-17.1c0-7.3,2.1-12.7,6.2-16.4c4.1-3.6,10.3-5.5,18.6-5.5h20.9l1,11.6h-21.8
			c-3.8,0-6.6,0.8-8.5,2.5c-1.9,1.7-2.8,4.2-2.8,7.7c0,3.7,1.2,6.5,3.7,8.3c2.5,1.8,6.2,2.7,11.3,2.7c5.5,0,9.6-0.6,12.4-1.8
			c2.7-1.2,4.1-3,4.1-5.5l1.5,10.3c-1.3,2-2.8,3.6-4.7,4.9c-1.9,1.3-4,2.2-6.5,2.9c-2.5,0.6-5.2,1-8.3,1
			C1486.6,564,1479.8,562.2,1475.3,558.4z M1513.7,516.4c0-4.8-1.3-8.6-3.9-11.2c-2.6-2.7-6.2-4-10.9-4c-2.9,0-5.8,0.4-8.6,1.3
			c-2.8,0.9-5.3,2.1-7.5,3.8l-10.5-7.2c2.8-3.4,6.5-6,11-7.8c4.6-1.9,9.6-2.8,15.2-2.8c6.1,0,11.3,1.1,15.6,3.2
			c4.3,2.1,7.6,5.3,9.9,9.3c2.3,4.1,3.4,9,3.4,14.8V563h-13.7V516.4z"/>
		<path d="M1549.3,489.5h14.4V563h-14.4V489.5z M1593.9,518.4c0-5.2-1.3-9.2-4-12s-6.5-4.2-11.3-4.2c-4.7,0-8.4,1.3-10.9,3.8
			c-2.6,2.5-3.9,6-3.9,10.5l-1.5-14.2c2.3-4.4,5.2-7.9,8.9-10.3c3.7-2.4,7.7-3.6,12.1-3.6c8,0,14.1,2.6,18.5,7.8
			c4.4,5.2,6.5,12.6,6.5,22.1V563h-14.4V518.4z"/>
		<path d="M1622.5,489.5h14.7l22.6,63.9l-8,15.6L1622.5,489.5z M1687.6,489.5l-31.3,90.7c-1.1,3.4-2.6,6-4.5,8
			c-1.8,2-4.1,3.4-6.8,4.2s-6,1.3-9.9,1.3h-2.9v-13.9h2.9c2.7,0,4.8-0.5,6.4-1.6c1.6-1.1,3-3,4.1-5.6l27.2-83H1687.6z"/>
		<path d="M1739.3,489.5h14.4v103.4h-14.4V489.5z M1760.3,560.7c-3.4-2.2-5.9-5.3-7.5-9.3l1-15.4c0,3.2,0.6,5.9,1.7,8.1
			c1.1,2.2,2.8,3.9,4.9,5.1c2.1,1.2,4.8,1.8,7.8,1.8c4.8,0,8.5-1.5,11.1-4.4c2.6-2.9,3.9-7,3.9-12.3v-15.9c0-5.4-1.3-9.6-3.9-12.5
			c-2.6-3-6.3-4.5-11.1-4.5c-3.1,0-5.7,0.6-7.8,1.7c-2.1,1.1-3.8,2.8-4.9,5c-1.1,2.2-1.7,4.8-1.7,7.9l-1.5-14.2
			c2.2-4.3,5.1-7.6,8.7-9.9c3.6-2.3,7.6-3.5,12-3.5c5.2,0,9.6,1.2,13.3,3.5c3.7,2.3,6.5,5.7,8.5,10.2c1.9,4.5,2.9,9.9,2.9,16.2v16
			c0,6.2-1,11.6-3,16c-2,4.4-4.9,7.8-8.7,10.2c-3.8,2.3-8.4,3.5-13.7,3.5C1767.6,564,1763.7,562.9,1760.3,560.7z"/>
		<path d="M1821.4,558.4c-4.5-3.8-6.7-9.5-6.7-17.1c0-7.3,2.1-12.7,6.2-16.4c4.1-3.6,10.3-5.5,18.6-5.5h20.9l1,11.6h-21.8
			c-3.8,0-6.6,0.8-8.5,2.5c-1.9,1.7-2.8,4.2-2.8,7.7c0,3.7,1.2,6.5,3.7,8.3c2.5,1.8,6.2,2.7,11.3,2.7c5.5,0,9.6-0.6,12.4-1.8
			c2.7-1.2,4.1-3,4.1-5.5l1.5,10.3c-1.3,2-2.8,3.6-4.7,4.9c-1.9,1.3-4,2.2-6.5,2.9c-2.5,0.6-5.2,1-8.3,1
			C1832.6,564,1825.8,562.2,1821.4,558.4z M1859.7,516.4c0-4.8-1.3-8.6-3.9-11.2c-2.6-2.7-6.2-4-10.9-4c-2.9,0-5.8,0.4-8.6,1.3
			c-2.8,0.9-5.3,2.1-7.5,3.8l-10.5-7.2c2.8-3.4,6.5-6,11-7.8c4.6-1.9,9.6-2.8,15.2-2.8c6.1,0,11.3,1.1,15.6,3.2
			c4.3,2.1,7.6,5.3,9.9,9.3c2.3,4.1,3.4,9,3.4,14.8V563h-13.7V516.4z"/>
		<path d="M1889.7,489.5h33.1v13h-33.1V489.5z M1901.4,558.4c-2.8-3.3-4.1-8.1-4.1-14.5v-75.8h14.4V544c0,1.8,0.4,3.2,1.1,4.1
			c0.7,1,1.7,1.5,3.1,1.5h6.9v13.7h-8.4C1908.5,563.3,1904.2,561.7,1901.4,558.4z"/>
		<path d="M1942.6,460h14.4V563h-14.4V460z M1987.2,518.4c0-5.2-1.3-9.2-4-12s-6.5-4.2-11.3-4.2c-4.7,0-8.4,1.2-10.9,3.7
			c-2.6,2.5-3.9,5.9-3.9,10.4l-1.5-14.2c2.3-4.3,5.2-7.7,8.9-10.1c3.7-2.4,7.7-3.6,12.1-3.6c8,0,14.1,2.6,18.5,7.8
			c4.4,5.2,6.5,12.6,6.5,22.1V563h-14.4V518.4z"/>
		<path d="M2043.1,564c0,0-1.9-0.4-5.7-1.3c-3.8-0.8-7.4-2.1-10.7-3.8c-3.3-1.7-6.3-3.8-9.1-6.4l8.6-10.5c4,3,7.9,5.3,11.8,6.8
			c3.9,1.5,7.8,2.3,11.6,2.3c5.7,0,10-0.9,12.9-2.7c2.9-1.8,4.3-4.4,4.3-8c0-2.4-0.8-4.1-2.3-5.3c-1.6-1.2-3.5-2-5.8-2.4
			c-2.3-0.4-5.6-0.8-9.8-1.1c-0.4,0-0.8,0-1.2,0c-0.4,0-0.8-0.1-1.2-0.1c-0.2,0-0.4,0-0.6,0c-0.2,0-0.4,0-0.6,0
			c-4.8-0.4-8.8-1.1-12.1-2.1c-3.3-1-6.1-2.9-8.2-5.7c-2.2-2.8-3.3-6.8-3.3-12c0-5.2,1.1-9.5,3.2-13c2.1-3.4,5.3-6,9.5-7.8
			c4.2-1.7,9.5-2.6,15.8-2.6c3.8,0,7.5,0.4,10.9,1.1c3.5,0.7,6.8,1.8,9.9,3.2c3.2,1.4,6.2,3.2,9.1,5.3l-8.7,10.5
			c-3.7-2.4-7.3-4.1-10.9-5.3c-3.6-1.2-7-1.8-10.4-1.8c-4.9,0-8.6,0.8-11,2.5c-2.5,1.7-3.7,4.2-3.7,7.5c0,2,0.7,3.5,2.1,4.5
			c1.4,1,3.2,1.7,5.3,2c2.1,0.3,5.1,0.6,9.1,0.8c0.3,0,0.6,0.1,0.9,0.1c0.3,0,0.6,0,1,0.1c0.1,0,0.3,0,0.4,0s0.3,0,0.4,0.1
			c5.1,0.3,9.5,1,13.1,2.1c3.6,1,6.6,3.1,9.1,6.2c2.5,3.1,3.7,7.5,3.7,13.3c0,5.3-1.1,9.7-3.4,13.1c-2.3,3.5-5.7,6.1-10.2,7.8
			c-4.6,1.7-10.3,2.6-17.2,2.6C2045.3,564,2043.1,564,2043.1,564z"/>
	</g>
</g>
</svg>
