<?xml version="1.0" encoding="utf-8"?>
<!-- Generator: Adobe Illustrator 23.0.3, SVG Export Plug-In . SVG Version: 6.00 Build 0)  -->
<svg version="1.1" id="Layer_1" xmlns="http://www.w3.org/2000/svg" xmlns:xlink="http://www.w3.org/1999/xlink" x="0px" y="0px"
	 viewBox="0 0 6363.6 1263.6" style="enable-background:new 0 0 6363.6 1263.6;" xml:space="preserve">
<circle style="fill:#FFFFFF;stroke:#000000;stroke-miterlimit:10;" cx="5469.8" cy="1093.5" r="112.6"/>
<circle style="fill:#FFFFFF;stroke:#000000;stroke-miterlimit:10;" cx="5468.4" cy="791.2" r="112.6"/>
<circle style="fill:#FFFFFF;stroke:#000000;stroke-miterlimit:10;" cx="5469.8" cy="489" r="112.6"/>
<circle style="fill:#FFFFFF;stroke:#000000;stroke-miterlimit:10;" cx="5471.5" cy="186.7" r="112.6"/>
<g>
	<g>
		<path d="M5413.8,1087.4h4.8v34.1h-4.8V1087.4z M5416.6,1117h9.2c2.4,0,4.2-0.5,5.3-1.4c1.1-0.9,1.7-2.2,1.7-3.9v-0.1
			c0-1.2-0.2-2.1-0.6-3c-0.4-0.9-1-1.5-1.9-1.9s-2-0.7-3.3-0.7h-10.4v-4.3h10.4c1.8,0,3.1-0.4,4-1.2c0.9-0.8,1.3-2.1,1.3-3.7
			c0-1.7-0.5-3-1.5-3.8c-1-0.8-2.5-1.3-4.5-1.3h-9.8v-4.4h10.6c2.2,0,4,0.4,5.5,1.1s2.6,1.8,3.3,3.2c0.7,1.4,1.1,3,1.1,4.9
			c0,1.2-0.2,2.3-0.7,3.3s-1.1,1.9-2.1,2.6s-2.1,1.2-3.5,1.5c1.4,0.2,2.6,0.7,3.6,1.5c1,0.8,1.8,1.7,2.3,2.9
			c0.5,1.2,0.8,2.4,0.8,3.8v0.1c0,1.8-0.4,3.5-1.2,4.9c-0.8,1.4-2,2.5-3.5,3.3c-1.5,0.8-3.3,1.1-5.3,1.1h-11v-4.5H5416.6z"/>
		<path d="M5449.1,1115.2c0,0.6,0.1,1.1,0.4,1.4c0.3,0.3,0.6,0.5,1.1,0.5h2.3v4.5h-2.9c-1.8,0-3.2-0.6-4.2-1.7
			c-1-1.1-1.5-2.7-1.5-4.8v-27.8h4.8V1115.2z"/>
		<path d="M5459.3,1119.9c-1.5-1.2-2.2-3.1-2.2-5.7c0-2.4,0.7-4.2,2-5.4c1.3-1.2,3.4-1.8,6.2-1.8h6.9l0.3,3.8h-7.2
			c-1.3,0-2.2,0.3-2.8,0.8c-0.6,0.5-0.9,1.4-0.9,2.5c0,1.2,0.4,2.1,1.2,2.7c0.8,0.6,2.1,0.9,3.7,0.9c1.8,0,3.2-0.2,4.1-0.6
			c0.9-0.4,1.3-1,1.3-1.8l0.5,3.4c-0.4,0.7-0.9,1.2-1.6,1.6c-0.7,0.4-1.3,0.7-2.1,0.9c-0.8,0.2-1.7,0.3-2.7,0.3
			C5463,1121.8,5460.8,1121.2,5459.3,1119.9z M5472,1106c0-1.6-0.4-2.8-1.3-3.7s-2.1-1.3-3.6-1.3c-1,0-1.9,0.1-2.8,0.4
			s-1.8,0.7-2.5,1.2l-3.5-2.4c0.9-1.1,2.1-2,3.6-2.6s3.2-0.9,5-0.9c2,0,3.7,0.4,5.2,1.1s2.5,1.7,3.3,3.1c0.8,1.4,1.1,3,1.1,4.9v15.6
			h-4.5V1106z"/>
		<path d="M5490.3,1121.8c0,0-0.8-0.4-2.4-1.2c-1.6-0.8-2.8-2-3.6-3.6s-1.2-3.5-1.2-5.7v-4c0-2.2,0.4-4.1,1.2-5.6s2-2.8,3.6-3.6
			c1.6-0.8,3.5-1.2,5.7-1.2c1.3,0,2.5,0.2,3.6,0.5c1.1,0.3,2.1,0.7,3,1.3s1.6,1.3,2.2,2.1l-3.4,3.1c-0.7-0.8-1.5-1.4-2.4-1.8
			c-0.9-0.4-1.9-0.6-2.9-0.6c-1.8,0-3.3,0.5-4.3,1.5s-1.5,2.5-1.5,4.4v4c0,1.9,0.5,3.4,1.5,4.5s2.4,1.6,4.3,1.6c1,0,2-0.2,2.9-0.7
			c0.9-0.5,1.7-1.1,2.4-1.9l3.4,3.3c-0.6,0.8-1.4,1.5-2.3,2.1c-0.9,0.6-1.9,1-3,1.3c-1.1,0.3-2.3,0.4-3.6,0.4
			C5491.4,1121.8,5490.3,1121.8,5490.3,1121.8z"/>
		<path d="M5507.7,1087.4h4.8v34.1h-4.8V1087.4z M5509.7,1112.2l12.5-15.1h5.6l-18.4,20.8L5509.7,1112.2z M5515.4,1107.4l3.1-3.2
			l10.6,17.2h-5.2L5515.4,1107.4z"/>
	</g>
</g>
<g>
	<g>
		<path d="M5427.8,775.6h3.3l7,26.7l6-26.7h5l-8.3,34.1h-4.9l-6.3-23.8l-6.6,23.8h-4.9l-8.3-34.1h5l6,26.7L5427.8,775.6z"/>
		<path d="M5453.5,775.6h4.8v34.1h-4.8V775.6z M5468.3,794.9c0-1.7-0.4-3-1.3-4c-0.9-1-2.1-1.4-3.8-1.4c-1.6,0-2.8,0.4-3.6,1.2
			c-0.8,0.8-1.3,2-1.3,3.4l-0.5-4.7c0.8-1.4,1.7-2.6,2.9-3.3c1.2-0.7,2.6-1.2,4-1.2c2.6,0,4.7,0.9,6.1,2.6s2.2,4.2,2.2,7.3v14.8
			h-4.8v-14.7H5468.3z"/>
		<path d="M5480.3,775.6h4.8v4.8h-4.8V775.6z M5480.3,785.3h4.8v24.3h-4.8V785.3z"/>
		<path d="M5490.5,785.3h11v4.3h-11V785.3z M5494.4,808.2c-0.9-1.1-1.4-2.7-1.4-4.8v-25.1h4.8v25.1c0,0.6,0.1,1.1,0.4,1.4
			c0.3,0.3,0.6,0.5,1,0.5h2.3v4.5h-2.8C5496.7,809.8,5495.3,809.2,5494.4,808.2z"/>
		<path d="M5514.6,810c0,0-0.8-0.4-2.4-1.3s-2.8-2.1-3.6-3.7c-0.8-1.6-1.3-3.6-1.3-5.9v-2.7c0-2.4,0.4-4.5,1.2-6.2
			c0.8-1.7,2-3,3.5-3.9s3.4-1.3,5.5-1.3c2,0,3.8,0.5,5.2,1.5s2.5,2.5,3.3,4.4c0.8,1.9,1.1,4.2,1.1,6.9v1.6h-16.4v-3.8h11.9
			c-0.1-2-0.7-3.5-1.5-4.6c-0.8-1.1-2.1-1.7-3.6-1.7c-1.8,0-3.2,0.6-4.2,1.8s-1.5,2.9-1.5,5v3.1c0,2,0.5,3.6,1.6,4.6
			c1.1,1,2.6,1.6,4.5,1.6c1,0,1.9-0.2,2.9-0.6s1.8-0.9,2.6-1.6l3.1,3.1c-1.2,1.2-2.6,2.1-4.1,2.7s-3,0.9-4.5,0.9
			C5515.7,810,5514.6,810,5514.6,810z"/>
	</g>
</g>
<g>
	<g>
		<path d="M5424.4,473.8h4.1l12.6,34.1h-5.2l-9.4-27.5l-9.4,27.5h-5.2L5424.4,473.8z M5417.6,495.9h17.9v4.5h-17.9V495.9z"/>
		<path d="M5452.2,508.2c0,0-0.6-0.1-1.9-0.4c-1.3-0.3-2.4-0.7-3.5-1.3c-1.1-0.6-2.1-1.3-3-2.1l2.8-3.5c1.3,1,2.6,1.8,3.9,2.3
			c1.3,0.5,2.6,0.8,3.8,0.8c1.9,0,3.3-0.3,4.3-0.9s1.4-1.5,1.4-2.6c0-0.8-0.3-1.4-0.8-1.8s-1.2-0.7-1.9-0.8s-1.8-0.3-3.2-0.4
			c-0.1,0-0.3,0-0.4,0s-0.3,0-0.4,0s-0.1,0-0.2,0c-0.1,0-0.1,0-0.2,0c-1.6-0.1-2.9-0.4-4-0.7s-2-1-2.7-1.9c-0.7-0.9-1.1-2.2-1.1-4
			s0.4-3.1,1.1-4.3c0.7-1.2,1.8-2,3.1-2.6s3.1-0.9,5.2-0.9c1.3,0,2.5,0.1,3.6,0.4c1.1,0.3,2.2,0.6,3.3,1s2.1,1,3,1.7l-2.9,3.5
			c-1.2-0.8-2.4-1.4-3.6-1.8c-1.2-0.4-2.3-0.6-3.5-0.6c-1.6,0-2.8,0.3-3.7,0.8s-1.2,1.4-1.2,2.5c0,0.7,0.2,1.1,0.7,1.5
			s1,0.5,1.7,0.7c0.7,0.2,1.7,0.2,3,0.3c0.1,0,0.2,0,0.3,0s0.2,0,0.3,0h0.1h0.1c1.7,0.1,3.2,0.3,4.3,0.7s2.2,1,3,2
			c0.8,1,1.2,2.5,1.2,4.4c0,1.8-0.4,3.2-1.1,4.3c-0.7,1.1-1.9,2-3.4,2.6s-3.4,0.9-5.7,0.9C5452.9,508.2,5452.2,508.2,5452.2,508.2z"
			/>
		<path d="M5470.6,473.8h4.8v4.8h-4.8V473.8z M5470.6,483.5h4.8v24.3h-4.8V483.5z"/>
		<path d="M5483.7,506.4c-1.5-1.2-2.2-3.1-2.2-5.7c0-2.4,0.7-4.2,2-5.4c1.3-1.2,3.4-1.8,6.2-1.8h6.9l0.3,3.8h-7.2
			c-1.3,0-2.2,0.3-2.8,0.8s-0.9,1.4-0.9,2.5c0,1.2,0.4,2.1,1.2,2.7s2.1,0.9,3.7,0.9c1.8,0,3.2-0.2,4.1-0.6s1.3-1,1.3-1.8l0.5,3.4
			c-0.4,0.7-0.9,1.2-1.6,1.6c-0.7,0.4-1.3,0.7-2.1,0.9s-1.7,0.3-2.7,0.3C5487.5,508.2,5485.2,507.6,5483.7,506.4z M5496.4,492.5
			c0-1.6-0.4-2.8-1.3-3.7s-2.1-1.3-3.6-1.3c-1,0-1.9,0.1-2.8,0.4c-0.9,0.3-1.8,0.7-2.5,1.2l-3.5-2.4c0.9-1.1,2.1-2,3.6-2.6
			s3.2-0.9,5-0.9c2,0,3.7,0.4,5.2,1.1s2.5,1.7,3.3,3.1c0.8,1.4,1.1,3,1.1,4.9v15.6h-4.5V492.5L5496.4,492.5z"/>
		<path d="M5508.2,483.5h4.8v24.3h-4.8V483.5z M5523,493.1c0-1.7-0.4-3-1.3-4c-0.9-1-2.1-1.4-3.8-1.4c-1.6,0-2.8,0.4-3.6,1.2
			c-0.8,0.8-1.3,2-1.3,3.5l-0.5-4.7c0.8-1.5,1.7-2.6,2.9-3.4s2.6-1.2,4-1.2c2.6,0,4.7,0.9,6.1,2.6s2.2,4.2,2.2,7.3v14.8h-4.8v-14.7
			H5523z"/>
	</g>
</g>
<g>
	<g>
		<path d="M5420.8,206.6c-1.8-1-3.2-2.5-4.2-4.4s-1.5-4.1-1.5-6.6v-9.7c0-2.5,0.5-4.7,1.5-6.6s2.4-3.4,4.2-4.4
			c1.8-1,3.9-1.6,6.3-1.6s4.5,0.5,6.3,1.6c1.8,1.1,3.2,2.5,4.2,4.4s1.5,4.1,1.5,6.6v9.7c0,2.5-0.5,4.7-1.5,6.6s-2.4,3.4-4.2,4.4
			c-1.8,1-3.9,1.6-6.3,1.6S5422.6,207.6,5420.8,206.6z M5430.8,202.5c1.1-0.6,1.9-1.5,2.5-2.7c0.6-1.2,0.9-2.5,0.9-4v-10
			c0-1.5-0.3-2.9-0.9-4c-0.6-1.1-1.4-2.1-2.5-2.7c-1.1-0.6-2.3-0.9-3.7-0.9s-2.6,0.3-3.7,0.9c-1.1,0.6-1.9,1.5-2.5,2.7
			c-0.6,1.2-0.9,2.5-0.9,4v10c0,1.5,0.3,2.9,0.9,4c0.6,1.1,1.4,2.1,2.5,2.7c1.1,0.6,2.3,0.9,3.7,0.9S5429.7,203.1,5430.8,202.5z"/>
		<path d="M5444.4,183.4h11v4.3h-11V183.4z M5448.3,206.3c-0.9-1.1-1.4-2.7-1.4-4.8v-25.1h4.8v25.1c0,0.6,0.1,1.1,0.4,1.4
			c0.3,0.3,0.6,0.5,1,0.5h2.3v4.5h-2.8C5450.7,207.9,5449.2,207.3,5448.3,206.3z"/>
		<path d="M5462,173.7h4.8v34.1h-4.8V173.7z M5476.7,193c0-1.7-0.4-3-1.3-4s-2.1-1.4-3.8-1.4c-1.6,0-2.8,0.4-3.6,1.2
			c-0.8,0.8-1.3,2-1.3,3.4l-0.5-4.7c0.8-1.4,1.7-2.6,2.9-3.3c1.2-0.7,2.6-1.2,4-1.2c2.6,0,4.7,0.9,6.1,2.6s2.2,4.2,2.2,7.3v14.8
			h-4.8V193H5476.7z"/>
		<path d="M5495.4,208.1c0,0-0.8-0.4-2.4-1.3s-2.8-2.1-3.6-3.7s-1.3-3.6-1.3-5.9v-2.7c0-2.4,0.4-4.5,1.2-6.2s2-3,3.5-3.9
			s3.4-1.3,5.5-1.3c2,0,3.8,0.5,5.2,1.5s2.5,2.5,3.3,4.4c0.8,1.9,1.1,4.2,1.1,6.9v1.6h-16.4v-3.8h11.9c-0.1-2-0.7-3.5-1.5-4.6
			c-0.8-1.1-2.1-1.7-3.6-1.7c-1.8,0-3.2,0.6-4.2,1.8s-1.5,2.9-1.5,5v3.1c0,2,0.5,3.6,1.6,4.6c1.1,1,2.6,1.6,4.5,1.6
			c1,0,1.9-0.2,2.9-0.6s1.8-0.9,2.6-1.6l3.1,3.1c-1.2,1.2-2.6,2.1-4.1,2.7s-3,0.9-4.5,0.9C5496.5,208.1,5495.4,208.1,5495.4,208.1z"
			/>
		<path d="M5514.5,183.4h4.8v24.3h-4.8V183.4z M5526.3,188c-0.6-0.3-1.4-0.4-2.2-0.4c-1.5,0-2.7,0.4-3.5,1.3c-0.8,0.9-1.3,2-1.3,3.5
			l-0.5-4.7c0.8-1.5,1.7-2.6,2.9-3.4c1.2-0.8,2.5-1.2,3.9-1.2c1.1,0,2.1,0.2,3,0.5s1.7,0.8,2.4,1.4l-3.1,4.2
			C5527.5,188.7,5526.9,188.3,5526.3,188z"/>
	</g>
</g>
<rect x="3831.2" y="131.7" style="fill:none;stroke:#000000;stroke-miterlimit:10;" width="540.8" height="83.1"/>
<rect x="3831.2" y="751.2" style="fill:none;stroke:#000000;stroke-miterlimit:10;" width="540.8" height="76.9"/>
<polygon style="fill:#06C258;stroke:#000000;stroke-miterlimit:10;" points="1796.8,340.6 1693.4,340.6 1641.6,430.2 1693.4,519.8 
	1796.8,519.8 1848.5,430.2 "/>
<polygon style="fill:none;stroke:#000000;stroke-miterlimit:10;" points="1800.1,558.7 1696.6,558.7 1644.9,648.3 1696.6,737.9 
	1800.1,737.9 1851.8,648.3 "/>
<polygon style="fill:none;stroke:#000000;stroke-miterlimit:10;" points="1805.1,765.4 1701.6,765.4 1649.9,855 1701.6,944.6 
	1805.1,944.6 1856.8,855 "/>
<polygon style="fill:none;stroke:#000000;stroke-miterlimit:10;" points="1807.4,975.5 1703.9,975.5 1652.2,1065.1 1703.9,1154.7 
	1807.4,1154.7 1859.1,1065.1 "/>
<g>
	<g>
		<path d="M106.3,454.7h24v4.5h-24C106.3,459.2,106.3,454.7,106.3,454.7z M115.9,457.5h4.8v31.3h-4.8V457.5z"/>
		<path d="M133.6,454.7h4.8v34.1h-4.8V454.7z M148.4,474c0-1.7-0.4-3-1.3-4c-0.9-1-2.1-1.4-3.8-1.4c-1.6,0-2.8,0.4-3.6,1.2
			c-0.8,0.8-1.3,2-1.3,3.4l-0.5-4.7c0.8-1.4,1.7-2.6,2.9-3.3c1.2-0.7,2.6-1.2,4-1.2c2.6,0,4.7,0.9,6.1,2.6c1.4,1.7,2.2,4.2,2.2,7.3
			v14.8h-4.8V474H148.4z"/>
		<path d="M160.4,454.7h4.8v4.8h-4.8V454.7z M160.4,464.4h4.8v24.3h-4.8V464.4z"/>
		<path d="M178.9,489.1c0,0-0.6-0.1-1.9-0.4s-2.4-0.7-3.5-1.3s-2.1-1.3-3-2.1l2.8-3.5c1.3,1,2.6,1.8,3.9,2.3s2.6,0.8,3.8,0.8
			c1.9,0,3.3-0.3,4.3-0.9s1.4-1.5,1.4-2.6c0-0.8-0.3-1.4-0.8-1.8s-1.2-0.7-1.9-0.8s-1.8-0.3-3.2-0.4c-0.1,0-0.3,0-0.4,0
			s-0.3,0-0.4,0c-0.1,0-0.1,0-0.2,0s-0.1,0-0.2,0c-1.6-0.1-2.9-0.4-4-0.7s-2-1-2.7-1.9s-1.1-2.2-1.1-4s0.4-3.1,1.1-4.3
			s1.8-2,3.1-2.6s3.1-0.9,5.2-0.9c1.3,0,2.5,0.1,3.6,0.4s2.2,0.6,3.3,1s2.1,1,3,1.7l-2.9,3.5c-1.2-0.8-2.4-1.4-3.6-1.8
			s-2.3-0.6-3.5-0.6c-1.6,0-2.8,0.3-3.7,0.8s-1.2,1.4-1.2,2.5c0,0.7,0.2,1.1,0.7,1.5s1,0.5,1.7,0.7s1.7,0.2,3,0.3c0.1,0,0.2,0,0.3,0
			s0.2,0,0.3,0h0.1h0.1c1.7,0.1,3.2,0.3,4.3,0.7s2.2,1,3,2s1.2,2.5,1.2,4.4c0,1.8-0.4,3.2-1.1,4.3s-1.9,2-3.4,2.6s-3.4,0.9-5.7,0.9
			C179.7,489.1,178.9,489.1,178.9,489.1z"/>
		<path d="M210.3,454.7h4.8v4.8h-4.8V454.7z M210.3,464.4h4.8v24.3h-4.8V464.4z"/>
		<path d="M228.8,489.1c0,0-0.6-0.1-1.9-0.4s-2.4-0.7-3.5-1.3s-2.1-1.3-3-2.1l2.8-3.5c1.3,1,2.6,1.8,3.9,2.3s2.6,0.8,3.8,0.8
			c1.9,0,3.3-0.3,4.3-0.9s1.4-1.5,1.4-2.6c0-0.8-0.3-1.4-0.8-1.8s-1.2-0.7-1.9-0.8s-1.8-0.3-3.2-0.4c-0.1,0-0.3,0-0.4,0
			s-0.3,0-0.4,0c-0.1,0-0.1,0-0.2,0s-0.1,0-0.2,0c-1.6-0.1-2.9-0.4-4-0.7s-2-1-2.7-1.9s-1.1-2.2-1.1-4s0.4-3.1,1.1-4.3
			s1.8-2,3.1-2.6s3.1-0.9,5.2-0.9c1.3,0,2.5,0.1,3.6,0.4s2.2,0.6,3.3,1s2.1,1,3,1.7l-2.9,3.5c-1.2-0.8-2.4-1.4-3.6-1.8
			s-2.3-0.6-3.5-0.6c-1.6,0-2.8,0.3-3.7,0.8s-1.2,1.4-1.2,2.5c0,0.7,0.2,1.1,0.7,1.5s1,0.5,1.7,0.7s1.7,0.2,3,0.3c0.1,0,0.2,0,0.3,0
			s0.2,0,0.3,0h0.1h0.1c1.7,0.1,3.2,0.3,4.3,0.7s2.2,1,3,2s1.2,2.5,1.2,4.4c0,1.8-0.4,3.2-1.1,4.3s-1.9,2-3.4,2.6s-3.4,0.9-5.7,0.9
			C229.5,489.1,228.8,489.1,228.8,489.1z"/>
		<path d="M257.5,464.4h4.9l7.5,21.1l-2.6,5.2L257.5,464.4z M279.1,464.4l-10.4,30c-0.4,1.1-0.9,2-1.5,2.6s-1.4,1.1-2.3,1.4
			c-0.9,0.3-2,0.4-3.3,0.4h-1v-4.5h1c0.9,0,1.6-0.2,2.1-0.5s1-1,1.4-1.9l9-27.5H279.1z"/>
		<path d="M287.2,487.9c-1.5-0.8-2.6-2-3.4-3.6s-1.2-3.5-1.2-5.7v-4c0-2.2,0.4-4.1,1.2-5.7c0.8-1.6,1.9-2.8,3.4-3.6s3.3-1.2,5.4-1.2
			c2.1,0,3.9,0.4,5.4,1.2s2.6,2,3.4,3.6s1.2,3.5,1.2,5.7v4c0,2.2-0.4,4.1-1.2,5.7c-0.8,1.6-1.9,2.8-3.4,3.6s-3.3,1.2-5.4,1.2
			C290.5,489.1,288.7,488.7,287.2,487.9z M296.5,483c0.9-1,1.4-2.5,1.4-4.4v-4c0-1.9-0.5-3.4-1.4-4.4s-2.2-1.5-3.9-1.5
			c-1.7,0-3,0.5-3.9,1.5s-1.4,2.5-1.4,4.4v4c0,1.9,0.5,3.4,1.4,4.4s2.2,1.6,3.9,1.6C294.3,484.6,295.6,484,296.5,483z"/>
		<path d="M314.2,479.2c0,1.7,0.4,3,1.3,3.9s2.1,1.4,3.7,1.4s2.8-0.4,3.6-1.2s1.3-2,1.3-3.5l0.3,5.1c-0.5,1.2-1.3,2.2-2.4,3
			s-2.5,1.2-4.1,1.2c-2.7,0-4.8-0.9-6.2-2.6s-2.2-4.2-2.2-7.3v-14.8h4.8L314.2,479.2L314.2,479.2z M324.1,464.4h4.8v24.3h-4.8V464.4
			z"/>
	</g>
</g>
<circle style="fill:none;stroke:#000000;stroke-miterlimit:10;" cx="224.3" cy="642.7" r="105.7"/>
<rect x="1702.8" y="676.4" style="fill:none;" width="0" height="2"/>
<g>
	<g>
		<path d="M1701.9,631.1h4.8v34.1h-4.8V631.1z M1703.9,646.2h11.6c0.9,0,1.7-0.2,2.4-0.7c0.7-0.5,1.2-1.1,1.6-1.9
			c0.4-0.8,0.6-1.7,0.6-2.8c0-1.1-0.2-2-0.6-2.8c-0.4-0.8-0.9-1.4-1.6-1.9s-1.5-0.7-2.4-0.7h-11.6v-4.5h11.4c2,0,3.7,0.4,5.2,1.2
			s2.6,2,3.5,3.5s1.2,3.2,1.2,5.2s-0.4,3.7-1.2,5.2c-0.8,1.5-2,2.6-3.5,3.5c-1.5,0.9-3.2,1.2-5.2,1.2h-11.4V646.2z M1713.2,649.7
			l4.8-1.1l8.7,16.5h-5.7L1713.2,649.7z"/>
		<path d="M1733.7,663.7c-1.5-1.2-2.2-3.1-2.2-5.7c0-2.4,0.7-4.2,2-5.4c1.3-1.2,3.4-1.8,6.2-1.8h6.9l0.3,3.8h-7.2
			c-1.3,0-2.2,0.3-2.8,0.8s-0.9,1.4-0.9,2.5c0,1.2,0.4,2.1,1.2,2.7c0.8,0.6,2.1,0.9,3.7,0.9c1.8,0,3.2-0.2,4.1-0.6
			c0.9-0.4,1.3-1,1.3-1.8l0.5,3.4c-0.4,0.7-0.9,1.2-1.6,1.6c-0.7,0.4-1.3,0.7-2.1,0.9c-0.8,0.2-1.7,0.3-2.7,0.3
			C1737.5,665.5,1735.2,664.9,1733.7,663.7z M1746.4,649.8c0-1.6-0.4-2.8-1.3-3.7c-0.9-0.9-2.1-1.3-3.6-1.3c-1,0-1.9,0.1-2.8,0.4
			c-0.9,0.3-1.8,0.7-2.5,1.2l-3.5-2.4c0.9-1.1,2.1-2,3.6-2.6c1.5-0.6,3.2-0.9,5-0.9c2,0,3.7,0.4,5.2,1.1s2.5,1.7,3.3,3.1
			c0.8,1.4,1.1,3,1.1,4.9v15.6h-4.5V649.8z"/>
		<path d="M1758.2,640.9h4.8v34.2h-4.8V640.9z M1765.2,664.5c-1.1-0.7-2-1.8-2.5-3.1l0.3-5.1c0,1,0.2,1.9,0.6,2.7
			c0.4,0.8,0.9,1.3,1.6,1.7c0.7,0.4,1.6,0.6,2.6,0.6c1.6,0,2.8-0.5,3.7-1.4c0.9-0.9,1.3-2.3,1.3-4.1v-5.3c0-1.8-0.4-3.2-1.3-4.1
			c-0.9-0.9-2.1-1.5-3.7-1.5c-1,0-1.9,0.2-2.6,0.6s-1.3,0.9-1.6,1.7c-0.3,0.8-0.6,1.6-0.6,2.6l-0.5-4.7c0.7-1.4,1.7-2.5,2.9-3.3
			c1.2-0.8,2.5-1.2,4-1.2c1.7,0,3.2,0.4,4.4,1.2c1.2,0.8,2.2,1.9,2.8,3.4s1,3.3,1,5.4v5.3c0,2.1-0.3,3.8-1,5.3
			c-0.7,1.5-1.6,2.6-2.9,3.4s-2.8,1.2-4.5,1.2C1767.6,665.5,1766.3,665.2,1765.2,664.5z"/>
		<path d="M1790.9,665.5c0,0-0.8-0.4-2.4-1.3c-1.6-0.9-2.8-2.1-3.6-3.7c-0.8-1.6-1.3-3.6-1.3-5.9v-2.7c0-2.4,0.4-4.5,1.2-6.2
			c0.8-1.7,2-3,3.5-3.9c1.5-0.9,3.4-1.3,5.5-1.3c2,0,3.8,0.5,5.2,1.5s2.5,2.5,3.3,4.4c0.8,1.9,1.1,4.2,1.1,6.9v1.6H1787v-3.8h11.9
			c-0.1-2-0.7-3.5-1.5-4.6c-0.8-1.1-2.1-1.7-3.6-1.7c-1.8,0-3.2,0.6-4.2,1.8s-1.5,2.9-1.5,5v3.1c0,2,0.5,3.6,1.6,4.6
			s2.6,1.6,4.5,1.6c1,0,1.9-0.2,2.9-0.6s1.8-0.9,2.6-1.6l3.1,3.1c-1.2,1.2-2.6,2.1-4.1,2.7c-1.5,0.6-3,0.9-4.5,0.9
			C1792.1,665.5,1790.9,665.5,1790.9,665.5z"/>
	</g>
</g>
<g>
	<g>
		<path d="M1707,842.9h4.5V877h-4.7v-25.5l0.2,1.5l-8.4,19.3h-3.3l-8.4-18.8l0.2-2V877h-4.7v-34.1h4.5l10,22.5L1707,842.9z"/>
		<path d="M1724.2,867.5c0,1.7,0.4,3,1.3,3.9c0.9,0.9,2.1,1.4,3.7,1.4s2.8-0.4,3.6-1.2c0.8-0.8,1.3-2,1.3-3.5l0.3,5.1
			c-0.5,1.2-1.3,2.2-2.4,3s-2.5,1.2-4.1,1.2c-2.7,0-4.8-0.9-6.2-2.6s-2.2-4.2-2.2-7.3v-14.8h4.8v14.8H1724.2z M1734.1,852.7h4.8V877
			h-4.8V852.7z"/>
		<path d="M1746.1,852.7h4.8V877h-4.8V852.7z M1757.9,857.3c-0.6-0.3-1.4-0.4-2.2-0.4c-1.5,0-2.7,0.4-3.5,1.3
			c-0.8,0.9-1.3,2-1.3,3.5l-0.5-4.7c0.8-1.5,1.7-2.6,2.9-3.4s2.5-1.2,3.9-1.2c1.1,0,2.1,0.2,3,0.5c0.9,0.3,1.7,0.8,2.4,1.4l-3.1,4.2
			C1759.1,857.9,1758.6,857.5,1757.9,857.3z"/>
		<path d="M1769.8,876.3c-1.3-0.8-2.2-1.9-2.9-3.4s-1-3.3-1-5.3v-5.4c0-2.1,0.3-3.9,1-5.4s1.6-2.6,2.8-3.4s2.7-1.2,4.4-1.2
			c1.4,0,2.8,0.4,3.9,1.1s2.2,1.8,2.9,3.2l-0.5,5c0-1-0.2-1.9-0.6-2.6s-0.9-1.3-1.6-1.7c-0.7-0.4-1.6-0.6-2.6-0.6
			c-1.6,0-2.8,0.5-3.7,1.5s-1.3,2.4-1.3,4.1v5.3c0,1.8,0.4,3.1,1.3,4.1s2.1,1.4,3.7,1.4c1,0,1.9-0.2,2.6-0.6c0.7-0.4,1.3-1,1.6-1.7
			c0.3-0.7,0.6-1.6,0.6-2.7l0.3,5.1c-0.5,1.2-1.3,2.2-2.4,3c-1.1,0.8-2.5,1.2-4.1,1.2C1772.5,877.4,1771,877,1769.8,876.3z
			 M1780.4,842.9h4.8V877h-4.8V842.9z"/>
		<path d="M1799.1,877.3c0,0-0.8-0.4-2.4-1.3c-1.6-0.9-2.8-2.1-3.6-3.7c-0.8-1.6-1.3-3.6-1.3-5.9v-2.7c0-2.4,0.4-4.5,1.2-6.2
			c0.8-1.7,2-3,3.5-3.9c1.5-0.9,3.4-1.3,5.5-1.3c2,0,3.8,0.5,5.2,1.5s2.5,2.5,3.3,4.4c0.8,1.9,1.1,4.2,1.1,6.9v1.6h-16.4v-3.8h11.9
			c-0.1-2-0.7-3.5-1.5-4.6c-0.8-1.1-2.1-1.7-3.6-1.7c-1.8,0-3.2,0.6-4.2,1.8s-1.5,2.9-1.5,5v3.1c0,2,0.5,3.6,1.6,4.6
			s2.6,1.6,4.5,1.6c1,0,1.9-0.2,2.9-0.6s1.8-0.9,2.6-1.6l3.1,3.1c-1.2,1.2-2.6,2.1-4.1,2.7s-3,0.9-4.5,0.9
			C1800.2,877.3,1799.1,877.3,1799.1,877.3z"/>
		<path d="M1818.2,852.7h4.8V877h-4.8V852.7z M1830,857.3c-0.6-0.3-1.4-0.4-2.2-0.4c-1.5,0-2.7,0.4-3.5,1.3c-0.8,0.9-1.3,2-1.3,3.5
			l-0.5-4.7c0.8-1.5,1.7-2.6,2.9-3.4s2.5-1.2,3.9-1.2c1.1,0,2.1,0.2,3,0.5c0.9,0.3,1.7,0.8,2.4,1.4l-3.1,4.2
			C1831.2,857.9,1830.6,857.5,1830,857.3z"/>
	</g>
</g>
<g>
	<g>
		<path d="M1690.4,1035.5h3.4v24.1h-3.4V1035.5z M1692.2,1047h7.7c0.7,0,1.4-0.2,1.9-0.5c0.6-0.3,1-0.8,1.3-1.5
			c0.3-0.6,0.5-1.4,0.5-2.2c0-0.8-0.2-1.6-0.5-2.2s-0.7-1.1-1.3-1.5s-1.2-0.5-1.9-0.5h-7.7v-3.2h7.6c1.4,0,2.7,0.3,3.8,0.9
			c1.1,0.6,1.9,1.5,2.5,2.6s0.9,2.4,0.9,3.9s-0.3,2.8-0.9,3.9c-0.6,1.1-1.5,2-2.5,2.6c-1.1,0.6-2.4,0.9-3.8,0.9h-7.6V1047z"/>
		<path d="M1714.7,1052.9c0,1.2,0.3,2.1,0.9,2.8c0.6,0.7,1.5,1,2.6,1s2-0.3,2.6-0.9c0.6-0.6,0.9-1.4,0.9-2.5l0.2,3.6
			c-0.4,0.9-0.9,1.6-1.7,2.1c-0.8,0.6-1.8,0.9-2.9,0.9c-1.9,0-3.4-0.6-4.4-1.8c-1-1.2-1.6-2.9-1.6-5.2v-10.5h3.4V1052.9z
			 M1721.7,1042.4h3.4v17.2h-3.4V1042.4z"/>
		<path d="M1730.2,1035.5h3.4v24.1h-3.4V1035.5z M1735.1,1059.1c-0.8-0.5-1.4-1.2-1.8-2.2l0.2-3.6c0,0.7,0.1,1.4,0.4,1.9
			s0.7,0.9,1.2,1.2c0.5,0.3,1.1,0.4,1.8,0.4c1.1,0,2-0.3,2.6-1c0.6-0.7,0.9-1.6,0.9-2.9v-3.7c0-1.3-0.3-2.2-0.9-2.9
			c-0.6-0.7-1.5-1-2.6-1c-0.7,0-1.3,0.1-1.8,0.4c-0.5,0.3-0.9,0.7-1.2,1.2s-0.4,1.1-0.4,1.9l-0.3-3.3c0.5-1,1.2-1.8,2-2.3
			s1.8-0.8,2.8-0.8c1.2,0,2.3,0.3,3.1,0.8c0.9,0.5,1.5,1.3,2,2.4s0.7,2.3,0.7,3.8v3.8c0,1.5-0.2,2.7-0.7,3.8c-0.5,1-1.1,1.8-2,2.4
			c-0.9,0.6-2,0.8-3.2,0.8C1736.8,1059.9,1735.9,1059.6,1735.1,1059.1z"/>
		<path d="M1752.1,1055.2c0,0.4,0.1,0.7,0.3,1c0.2,0.2,0.4,0.3,0.8,0.3h1.6v3.2h-2c-1.3,0-2.3-0.4-3-1.2s-1.1-1.9-1.1-3.4v-19.7h3.4
			L1752.1,1055.2L1752.1,1055.2z"/>
		<path d="M1758.5,1035.5h3.4v3.4h-3.4V1035.5z M1758.5,1042.4h3.4v17.2h-3.4V1042.4z"/>
		<path d="M1771.6,1059.9c0,0-0.6-0.3-1.7-0.9s-2-1.4-2.5-2.6c-0.6-1.1-0.9-2.5-0.9-4.1v-2.8c0-1.6,0.3-2.9,0.9-4s1.4-2,2.5-2.5
			c1.1-0.6,2.5-0.9,4-0.9c0.9,0,1.7,0.1,2.5,0.3c0.8,0.2,1.5,0.5,2.1,0.9c0.6,0.4,1.2,0.9,1.6,1.5l-2.4,2.2c-0.5-0.6-1.1-1-1.7-1.3
			c-0.6-0.3-1.3-0.4-2-0.4c-1.3,0-2.3,0.4-3,1.1c-0.7,0.7-1.1,1.8-1.1,3.1v2.8c0,1.4,0.4,2.4,1.1,3.2c0.7,0.7,1.7,1.1,3,1.1
			c0.7,0,1.4-0.2,2.1-0.5c0.7-0.3,1.2-0.8,1.7-1.4l2.4,2.4c-0.4,0.6-1,1.1-1.6,1.5s-1.3,0.7-2.1,0.9c-0.8,0.2-1.6,0.3-2.5,0.3
			C1772.4,1059.9,1771.6,1059.9,1771.6,1059.9z"/>
		<path d="M1693.8,1100.4h-3.4v-24.1h3.4V1100.4z"/>
		<path d="M1699.5,1083.2h3.4v17.2h-3.4V1083.2z M1709.9,1090c0-1.2-0.3-2.2-0.9-2.8c-0.6-0.6-1.5-1-2.7-1c-1.1,0-2,0.3-2.6,0.9
			s-0.9,1.4-0.9,2.5l-0.3-3.3c0.5-1,1.2-1.8,2.1-2.4c0.9-0.6,1.8-0.8,2.8-0.8c1.9,0,3.3,0.6,4.3,1.8c1,1.2,1.5,3,1.5,5.2v10.5h-3.4
			L1709.9,1090L1709.9,1090z"/>
		<path d="M1720.7,1099.9c-0.9-0.5-1.6-1.3-2-2.4c-0.5-1.1-0.7-2.3-0.7-3.8v-3.8c0-1.5,0.2-2.8,0.7-3.8c0.5-1.1,1.1-1.9,2-2.4
			s1.9-0.8,3.1-0.8c1,0,2,0.3,2.8,0.8s1.5,1.3,2,2.2l-0.3,3.5c0-0.7-0.1-1.4-0.4-1.9s-0.7-0.9-1.2-1.2c-0.5-0.3-1.1-0.4-1.8-0.4
			c-1.1,0-2,0.3-2.6,1s-0.9,1.7-0.9,2.9v3.8c0,1.3,0.3,2.2,0.9,2.9c0.6,0.7,1.5,1,2.6,1c0.7,0,1.3-0.1,1.8-0.4
			c0.5-0.3,0.9-0.7,1.2-1.2s0.4-1.2,0.4-1.9l0.2,3.6c-0.3,0.9-0.9,1.6-1.7,2.1c-0.8,0.6-1.7,0.9-2.9,0.9
			C1722.7,1100.7,1721.6,1100.5,1720.7,1099.9z M1728.2,1076.3h3.4v24.1h-3.4V1076.3z"/>
		<path d="M1741.4,1100.7c0,0-0.6-0.3-1.7-0.9c-1.1-0.6-2-1.5-2.6-2.6c-0.6-1.2-0.9-2.6-0.9-4.2v-1.9c0-1.7,0.3-3.2,0.9-4.4
			c0.6-1.2,1.4-2.1,2.5-2.8c1.1-0.7,2.4-0.9,3.9-0.9c1.4,0,2.7,0.4,3.7,1.1c1,0.7,1.8,1.8,2.3,3.1c0.5,1.4,0.8,3,0.8,4.9v1.1h-11.6
			v-2.7h8.4c-0.1-1.4-0.5-2.5-1.1-3.3c-0.6-0.8-1.5-1.2-2.5-1.2c-1.3,0-2.3,0.4-3,1.3c-0.7,0.8-1.1,2-1.1,3.6v2.2
			c0,1.4,0.4,2.5,1.1,3.3c0.7,0.8,1.8,1.1,3.2,1.1c0.7,0,1.4-0.1,2-0.4c0.7-0.3,1.3-0.7,1.8-1.2l2.2,2.2c-0.9,0.8-1.8,1.5-2.9,1.9
			s-2.1,0.7-3.2,0.7C1742.2,1100.7,1741.4,1100.7,1741.4,1100.7z"/>
		<path d="M1759.6,1100.7c0,0-0.6-0.3-1.7-0.9c-1.1-0.6-2-1.4-2.5-2.6c-0.6-1.1-0.9-2.5-0.9-4.1v-2.8c0-1.6,0.3-2.9,0.9-4
			c0.6-1.1,1.4-2,2.5-2.5c1.1-0.6,2.5-0.9,4-0.9c0.9,0,1.7,0.1,2.5,0.3c0.8,0.2,1.5,0.5,2.1,0.9s1.2,0.9,1.6,1.5l-2.4,2.2
			c-0.5-0.6-1.1-1-1.7-1.3c-0.6-0.3-1.3-0.4-2-0.4c-1.3,0-2.3,0.4-3,1.1c-0.7,0.7-1.1,1.8-1.1,3.1v2.8c0,1.4,0.4,2.4,1.1,3.2
			c0.7,0.7,1.7,1.1,3,1.1c0.7,0,1.4-0.2,2.1-0.5c0.7-0.3,1.2-0.8,1.7-1.4l2.4,2.4c-0.4,0.6-1,1.1-1.6,1.5s-1.3,0.7-2.1,0.9
			c-0.8,0.2-1.6,0.3-2.5,0.3C1760.4,1100.7,1759.6,1100.7,1759.6,1100.7z"/>
		<path d="M1776.6,1100.7c0,0-0.6-0.3-1.7-0.9c-1.1-0.6-2-1.5-2.6-2.6c-0.6-1.2-0.9-2.6-0.9-4.2v-1.9c0-1.7,0.3-3.2,0.9-4.4
			c0.6-1.2,1.4-2.1,2.5-2.8c1.1-0.7,2.4-0.9,3.9-0.9c1.4,0,2.7,0.4,3.7,1.1c1,0.7,1.8,1.8,2.3,3.1c0.5,1.4,0.8,3,0.8,4.9v1.1h-11.6
			v-2.7h8.4c-0.1-1.4-0.5-2.5-1.1-3.3c-0.6-0.8-1.5-1.2-2.5-1.2c-1.3,0-2.3,0.4-3,1.3c-0.7,0.8-1.1,2-1.1,3.6v2.2
			c0,1.4,0.4,2.5,1.1,3.3c0.7,0.8,1.8,1.1,3.2,1.1c0.7,0,1.4-0.1,2-0.4c0.7-0.3,1.3-0.7,1.8-1.2l2.2,2.2c-0.9,0.8-1.8,1.5-2.9,1.9
			s-2.1,0.7-3.2,0.7C1777.4,1100.7,1776.6,1100.7,1776.6,1100.7z"/>
		<path d="M1790.2,1083.2h3.4v17.2h-3.4V1083.2z M1800.6,1090c0-1.2-0.3-2.2-0.9-2.8c-0.6-0.6-1.5-1-2.7-1c-1.1,0-2,0.3-2.6,0.9
			s-0.9,1.4-0.9,2.5l-0.3-3.3c0.5-1,1.2-1.8,2.1-2.4c0.9-0.6,1.8-0.8,2.8-0.8c1.9,0,3.3,0.6,4.3,1.8c1,1.2,1.5,3,1.5,5.2v10.5h-3.4
			L1800.6,1090L1800.6,1090z"/>
		<path d="M1813.8,1100.7c0,0-0.6-0.3-1.7-0.9c-1.1-0.6-2-1.4-2.5-2.6c-0.6-1.1-0.9-2.5-0.9-4.1v-2.8c0-1.6,0.3-2.9,0.9-4
			c0.6-1.1,1.4-2,2.5-2.5c1.1-0.6,2.5-0.9,4-0.9c0.9,0,1.7,0.1,2.5,0.3c0.8,0.2,1.5,0.5,2.1,0.9s1.2,0.9,1.6,1.5l-2.4,2.2
			c-0.5-0.6-1.1-1-1.7-1.3c-0.6-0.3-1.3-0.4-2-0.4c-1.3,0-2.3,0.4-3,1.1c-0.7,0.7-1.1,1.8-1.1,3.1v2.8c0,1.4,0.4,2.4,1.1,3.2
			c0.7,0.7,1.7,1.1,3,1.1c0.7,0,1.4-0.2,2.1-0.5c0.7-0.3,1.2-0.8,1.7-1.4l2.4,2.4c-0.4,0.6-1,1.1-1.6,1.5s-1.3,0.7-2.1,0.9
			c-0.8,0.2-1.6,0.3-2.5,0.3C1814.5,1100.7,1813.8,1100.7,1813.8,1100.7z"/>
		<path d="M1824.3,1083.2h3.5l5.3,15l-1.9,3.7L1824.3,1083.2z M1839.5,1083.2l-7.3,21.3c-0.3,0.8-0.6,1.4-1,1.9s-1,0.8-1.6,1
			c-0.6,0.2-1.4,0.3-2.3,0.3h-0.7v-3.3h0.7c0.6,0,1.1-0.1,1.5-0.4c0.4-0.3,0.7-0.7,1-1.3l6.4-19.5H1839.5z"/>
	</g>
</g>
<polygon style="fill:none;stroke:#000000;stroke-miterlimit:10;" points="2219.1,240.7 2115.7,240.7 2063.9,330.3 2115.7,419.9 
	2219.1,419.9 2270.8,330.3 "/>
<g>
</g>
<g>
	<path d="M2098.7,320.6c1.4-0.2,3.3-0.4,5.7-0.4c2.9,0,5.1,0.7,6.4,1.9c1.3,1.1,2,2.8,2,4.8c0,2.1-0.6,3.7-1.8,4.9
		c-1.6,1.7-4.1,2.5-7,2.5c-0.9,0-1.7,0-2.4-0.2v9.2h-3V320.6z M2101.7,331.6c0.6,0.2,1.5,0.2,2.4,0.2c3.6,0,5.7-1.7,5.7-4.9
		c0-3-2.1-4.5-5.4-4.5c-1.3,0-2.3,0.1-2.8,0.2V331.6z"/>
	<path d="M2130.8,334.8c0,6.1-4.2,8.7-8.2,8.7c-4.5,0-7.9-3.3-7.9-8.5c0-5.5,3.6-8.7,8.2-8.7
		C2127.6,326.4,2130.8,329.8,2130.8,334.8z M2117.7,335c0,3.6,2.1,6.3,5,6.3c2.9,0,5-2.7,5-6.4c0-2.8-1.4-6.3-4.9-6.3
		C2119.2,328.6,2117.7,331.9,2117.7,335z"/>
	<path d="M2134.1,340.2c0.9,0.6,2.4,1.2,3.9,1.2c2.2,0,3.2-1.1,3.2-2.4c0-1.4-0.8-2.2-3.1-3c-3-1.1-4.4-2.7-4.4-4.7
		c0-2.7,2.1-4.8,5.7-4.8c1.7,0,3.1,0.5,4,1l-0.7,2.2c-0.6-0.4-1.8-1-3.4-1c-1.8,0-2.8,1-2.8,2.2c0,1.4,1,2,3.1,2.8
		c2.9,1.1,4.3,2.5,4.3,5c0,2.9-2.2,4.9-6.2,4.9c-1.8,0-3.5-0.4-4.6-1.1L2134.1,340.2z"/>
	<path d="M2147.6,340.2c0.9,0.6,2.4,1.2,3.9,1.2c2.2,0,3.2-1.1,3.2-2.4c0-1.4-0.8-2.2-3.1-3c-3-1.1-4.4-2.7-4.4-4.7
		c0-2.7,2.1-4.8,5.7-4.8c1.7,0,3.1,0.5,4,1l-0.7,2.2c-0.6-0.4-1.8-1-3.4-1c-1.8,0-2.8,1-2.8,2.2c0,1.4,1,2,3.1,2.8
		c2.9,1.1,4.3,2.5,4.3,5c0,2.9-2.2,4.9-6.2,4.9c-1.8,0-3.5-0.4-4.6-1.1L2147.6,340.2z"/>
	<path d="M2163.1,335.5c0.1,4,2.7,5.7,5.6,5.7c2.1,0,3.4-0.4,4.6-0.9l0.5,2.1c-1.1,0.5-2.9,1-5.5,1c-5.1,0-8.1-3.3-8.1-8.3
		s2.9-8.9,7.7-8.9c5.4,0,6.8,4.7,6.8,7.8c0,0.6-0.1,1.1-0.1,1.4H2163.1z M2171.9,333.4c0-1.9-0.8-4.9-4.1-4.9c-3,0-4.4,2.8-4.6,4.9
		H2171.9z"/>
	<path d="M2178.1,340.2c0.9,0.6,2.4,1.2,3.9,1.2c2.2,0,3.2-1.1,3.2-2.4c0-1.4-0.8-2.2-3.1-3c-3-1.1-4.4-2.7-4.4-4.7
		c0-2.7,2.1-4.8,5.7-4.8c1.7,0,3.1,0.5,4,1l-0.7,2.2c-0.6-0.4-1.8-1-3.4-1c-1.8,0-2.8,1-2.8,2.2c0,1.4,1,2,3.1,2.8
		c2.9,1.1,4.3,2.5,4.3,5c0,2.9-2.2,4.9-6.2,4.9c-1.8,0-3.5-0.4-4.6-1.1L2178.1,340.2z"/>
	<path d="M2191.5,340.2c0.9,0.6,2.4,1.2,3.9,1.2c2.2,0,3.2-1.1,3.2-2.4c0-1.4-0.8-2.2-3.1-3c-3-1.1-4.4-2.7-4.4-4.7
		c0-2.7,2.1-4.8,5.7-4.8c1.7,0,3.1,0.5,4,1l-0.7,2.2c-0.6-0.4-1.8-1-3.4-1c-1.8,0-2.8,1-2.8,2.2c0,1.4,1,2,3.1,2.8
		c2.9,1.1,4.3,2.5,4.3,5c0,2.9-2.2,4.9-6.2,4.9c-1.8,0-3.5-0.4-4.6-1.1L2191.5,340.2z"/>
	<path d="M2208.8,322.1c0,1-0.7,1.8-1.9,1.8c-1.1,0-1.8-0.8-1.8-1.8c0-1.1,0.8-1.9,1.9-1.9C2208,320.3,2208.8,321.1,2208.8,322.1z
		 M2205.4,343.2v-16.5h3v16.5H2205.4z"/>
	<path d="M2228.3,334.8c0,6.1-4.2,8.7-8.2,8.7c-4.5,0-7.9-3.3-7.9-8.5c0-5.5,3.6-8.7,8.2-8.7
		C2225.1,326.4,2228.3,329.8,2228.3,334.8z M2215.2,335c0,3.6,2.1,6.3,5,6.3c2.9,0,5-2.7,5-6.4c0-2.8-1.4-6.3-4.9-6.3
		C2216.7,328.6,2215.2,331.9,2215.2,335z"/>
	<path d="M2232,331.2c0-1.7,0-3.1-0.1-4.5h2.7l0.2,2.7h0.1c0.8-1.6,2.7-3.1,5.4-3.1c2.3,0,5.8,1.4,5.8,7v9.8h-3v-9.5
		c0-2.7-1-4.9-3.8-4.9c-2,0-3.5,1.4-4,3.1c-0.1,0.4-0.2,0.9-0.2,1.4v9.9h-3V331.2z"/>
</g>
<polygon style="fill:none;stroke:#000000;stroke-miterlimit:10;" points="2219.1,446.2 2115.7,446.2 2063.9,535.8 2115.7,625.4 
	2219.1,625.4 2270.8,535.8 "/>
<g>
</g>
<polygon style="fill:none;stroke:#000000;stroke-miterlimit:10;" points="2721.5,127 2618.1,127 2566.3,216.6 2618.1,306.2 
	2721.5,306.2 2773.2,216.6 "/>
<g>
	<path d="M2602.5,225.1c1.9,1.2,4.6,2.1,7.5,2.1c4.3,0,6.8-2.3,6.8-5.5c0-3-1.7-4.8-6.1-6.4c-5.3-1.9-8.5-4.6-8.5-9.2
		c0-5,4.2-8.8,10.5-8.8c3.3,0,5.7,0.8,7.2,1.6l-1.2,3.4c-1.1-0.6-3.2-1.5-6.1-1.5c-4.4,0-6.1,2.6-6.1,4.8c0,3,2,4.5,6.4,6.2
		c5.5,2.1,8.3,4.8,8.3,9.5c0,5-3.7,9.3-11.3,9.3c-3.1,0-6.5-0.9-8.3-2.1L2602.5,225.1z"/>
	<path d="M2649.3,229.2c-1.5,0.8-4.6,1.5-8.5,1.5c-9.1,0-16-5.8-16-16.4c0-10.1,6.9-17,16.9-17c4,0,6.6,0.9,7.7,1.4l-1,3.4
		c-1.6-0.8-3.8-1.3-6.5-1.3c-7.6,0-12.6,4.8-12.6,13.3c0,7.9,4.6,13,12.4,13c2.5,0,5.1-0.5,6.8-1.3L2649.3,229.2z"/>
	<path d="M2658.7,197.9v13.5h15.6v-13.5h4.2v32.4h-4.2v-15.2h-15.6v15.2h-4.2v-32.4H2658.7z"/>
	<path d="M2685.8,198.3c2.5-0.4,5.6-0.7,8.9-0.7c6,0,10.3,1.4,13.1,4c2.9,2.6,4.6,6.4,4.6,11.6c0,5.3-1.6,9.6-4.7,12.6
		c-3,3-8,4.7-14.3,4.7c-3,0-5.5-0.1-7.6-0.4V198.3z M2690,226.9c1.1,0.2,2.6,0.2,4.2,0.2c8.9,0,13.8-5,13.8-13.7
		c0-7.6-4.3-12.5-13.1-12.5c-2.2,0-3.8,0.2-4.9,0.4V226.9z"/>
	<path d="M2735.7,203L2735.7,203l-5.5,2.9l-0.8-3.2l6.8-3.6h3.6v31.2h-4.1V203z"/>
</g>
<rect x="3831.2" y="447.4" style="fill:none;stroke:#000000;stroke-miterlimit:10;" width="540.8" height="83.1"/>
<g>
	<path d="M4077.6,496l-3.4,10.2h-4.3l11-32.4h5l11,32.4h-4.5l-3.5-10.2H4077.6z M4088.3,492.7l-3.2-9.3c-0.7-2.1-1.2-4-1.7-5.9h-0.1
		c-0.5,1.9-1,3.9-1.6,5.9l-3.2,9.4H4088.3z"/>
	<path d="M4101.8,474.2c2.1-0.4,5.1-0.7,8-0.7c4.5,0,7.3,0.8,9.4,2.6c1.6,1.4,2.5,3.6,2.5,6.1c0,4.3-2.7,7.1-6.1,8.3v0.1
		c2.5,0.9,4,3.2,4.8,6.5c1.1,4.5,1.8,7.6,2.5,8.9h-4.3c-0.5-0.9-1.2-3.7-2.2-7.7c-1-4.5-2.7-6.1-6.5-6.3h-3.9v14h-4.2V474.2z
		 M4106,489h4.3c4.5,0,7.3-2.4,7.3-6.1c0-4.2-3-6-7.4-6c-2,0-3.5,0.2-4.1,0.4V489z"/>
</g>
<g>
	<path d="M4064.6,193.3V161h4.6l10.4,16.4c2.4,3.8,4.3,7.2,5.8,10.5l0.1,0c-0.4-4.3-0.5-8.3-0.5-13.3V161h3.9v32.4h-4.2l-10.3-16.4
		c-2.3-3.6-4.4-7.3-6-10.8l-0.1,0c0.2,4.1,0.3,8,0.3,13.3v13.8H4064.6z"/>
	<path d="M4103.1,193.3v-13.7l-10.2-18.6h4.8l4.6,8.9c1.2,2.4,2.2,4.4,3.2,6.7h0.1c0.9-2.1,2-4.2,3.3-6.7l4.7-8.9h4.8l-10.8,18.6
		v13.8H4103.1z"/>
</g>
<g>
	<path d="M4072.4,773h4.2v28.9h13.8v3.5h-18V773z"/>
	<path d="M4100.3,795.2l-3.4,10.2h-4.3l11-32.4h5l11,32.4h-4.5l-3.5-10.2H4100.3z M4110.9,791.9l-3.2-9.3c-0.7-2.1-1.2-4-1.7-5.9
		h-0.1c-0.5,1.9-1,3.9-1.6,5.9l-3.2,9.4H4110.9z"/>
</g>
<rect x="3831.2" y="1065.2" style="fill:none;stroke:#000000;stroke-miterlimit:10;" width="540.8" height="76.9"/>
<g>
	<path d="M4100.3,1103.7c-0.2-4.5-0.5-9.9-0.5-14h-0.1c-1.1,3.8-2.4,7.8-4.1,12.3l-5.7,15.7h-3.2l-5.2-15.4
		c-1.5-4.6-2.8-8.7-3.7-12.6h-0.1c-0.1,4-0.3,9.5-0.6,14.3l-0.9,13.9h-4l2.3-32.4h5.3l5.5,15.6c1.3,4,2.4,7.5,3.3,10.9h0.1
		c0.8-3.3,2-6.8,3.4-10.9l5.8-15.6h5.3l2,32.4h-4.1L4100.3,1103.7z"/>
	<path d="M4115.8,1085.5v32.4h-4.2v-32.4H4115.8z"/>
</g>
<line style="fill:none;stroke:#000000;stroke-width:4;stroke-miterlimit:10;" x1="3636.8" y1="328.7" x2="4586.6" y2="328.7"/>
<line style="fill:none;stroke:#000000;stroke-width:4;stroke-miterlimit:10;" x1="3626.7" y1="640.8" x2="4576.5" y2="640.8"/>
<line style="fill:none;stroke:#000000;stroke-width:4;stroke-miterlimit:10;" x1="3626.7" y1="946.5" x2="4576.5" y2="946.5"/>
<g>
	<g>
		<line style="fill:none;stroke:#000000;stroke-width:5;stroke-miterlimit:10;" x1="410.5" y1="631.8" x2="568.3" y2="631.8"/>
		<g>
			<path d="M598.4,631.8c-14.2,5.3-31.8,14.3-42.7,23.8l8.6-23.8l-8.6-23.8C566.6,617.5,584.2,626.5,598.4,631.8z"/>
		</g>
	</g>
</g>
<rect x="42.9" y="34.7" style="fill:none;stroke:#000000;stroke-width:5;stroke-miterlimit:10;" width="6274.7" height="1201"/>
<line style="fill:none;stroke:#000000;stroke-width:14;stroke-miterlimit:10;" x1="727.5" y1="299.8" x2="839.9" y2="234.6"/>
<polygon style="fill:#FFFFFF;stroke:#000000;stroke-width:5;stroke-miterlimit:10;" points="807.2,186.5 874.6,291.8 937.9,249.9 
	872.5,146.3 "/>
<polyline style="fill:none;stroke:#000000;stroke-width:5;stroke-miterlimit:10;" points="807.2,186.5 801.1,189.2 801.1,180.5 
	870,137.6 879.7,143.7 872.5,146.3 "/>
<polyline style="fill:none;stroke:#000000;stroke-width:5;stroke-miterlimit:10;" points="873.8,291.7 868.8,296.2 876.7,299.8 
	944.3,254.9 942.8,243.5 937.5,248.9 "/>
<path style="fill:#FFFFFF;stroke:#000000;stroke-width:8;stroke-miterlimit:10;" d="M914.6,377.8h-70.2c-6.6,0-11.9-5.3-11.9-11.9
	v-3.4c0-6.6,5.3-11.9,11.9-11.9h70.2c6.6,0,11.9,5.3,11.9,11.9v3.4C926.5,372.5,921.2,377.8,914.6,377.8z"/>
<path style="fill:#FFFFFF;stroke:#000000;stroke-width:8;stroke-miterlimit:10;" d="M923.5,406.2h-87.6c-5.1,0-9.2-4.1-9.2-9.2v-8.8
	c0-5.1,4.1-9.2,9.2-9.2h87.6c5.1,0,9.2,4.1,9.2,9.2v8.8C932.7,402.1,928.5,406.2,923.5,406.2z"/>
<circle style="fill:none;stroke:#000000;stroke-miterlimit:10;" cx="852" cy="620.2" r="105.7"/>
<g>
	<path d="M821,608.7h-9.8v-3.6h24v3.6h-9.9v28.8H821V608.7z"/>
	<path d="M836.4,621.5c0-2.7,0-5.1-0.2-7.2h3.7l0.1,4.6h0.2c1.1-3.1,3.6-5.1,6.4-5.1c0.5,0,0.8,0,1.2,0.1v4
		c-0.4-0.1-0.9-0.1-1.4-0.1c-3,0-5.1,2.3-5.7,5.4c-0.1,0.6-0.2,1.2-0.2,2v12.4h-4.2V621.5z"/>
	<path d="M857,607.7c0,1.4-1,2.6-2.7,2.6c-1.5,0-2.5-1.2-2.5-2.6c0-1.5,1.1-2.6,2.6-2.6C856,605.1,857,606.2,857,607.7z
		 M852.3,637.5v-23.2h4.2v23.2H852.3z"/>
	<path d="M876.4,637.5l-0.3-2.9h-0.1c-1.3,1.8-3.8,3.5-7.1,3.5c-4.7,0-7.1-3.3-7.1-6.7c0-5.6,5-8.7,14-8.6v-0.5
		c0-1.9-0.5-5.4-5.3-5.4c-2.2,0-4.4,0.7-6,1.7l-1-2.8c1.9-1.2,4.7-2.1,7.6-2.1c7.1,0,8.8,4.8,8.8,9.5v8.7c0,2,0.1,4,0.4,5.6H876.4z
		 M875.7,625.6c-4.6-0.1-9.8,0.7-9.8,5.2c0,2.7,1.8,4,4,4c3,0,4.9-1.9,5.6-3.9c0.1-0.4,0.2-0.9,0.2-1.3V625.6z"/>
	<path d="M886.6,603.4h4.2v34.1h-4.2V603.4z"/>
</g>
<circle style="fill:none;stroke:#000000;stroke-miterlimit:10;" cx="1334" cy="611.9" r="105.7"/>
<g>
	<path d="M1690.3,414.2c2.5-0.4,5.6-0.7,8.9-0.7c6,0,10.3,1.4,13.1,4c2.9,2.6,4.6,6.4,4.6,11.6c0,5.3-1.6,9.6-4.7,12.6
		c-3,3-8,4.7-14.3,4.7c-3,0-5.5-0.1-7.6-0.4V414.2z M1694.4,442.9c1.1,0.2,2.6,0.2,4.2,0.2c8.9,0,13.8-5,13.8-13.7
		c0-7.6-4.3-12.5-13.1-12.5c-2.2,0-3.8,0.2-4.9,0.4V442.9z"/>
	<path d="M1722.1,430.2c0-2.7,0-5.1-0.2-7.2h3.7l0.1,4.6h0.2c1.1-3.1,3.6-5.1,6.4-5.1c0.5,0,0.8,0,1.2,0.1v4
		c-0.4-0.1-0.9-0.1-1.4-0.1c-3,0-5.1,2.3-5.7,5.4c-0.1,0.6-0.2,1.2-0.2,2v12.4h-4.2V430.2z"/>
	<path d="M1757.2,439.8c0,2.4,0,4.5,0.2,6.3h-3.7l-0.2-3.8h-0.1c-1.1,1.9-3.6,4.3-7.7,4.3c-3.6,0-8-2-8-10.2v-13.6h4.2v12.9
		c0,4.4,1.3,7.4,5.2,7.4c2.8,0,4.8-2,5.6-3.8c0.2-0.6,0.4-1.4,0.4-2.2v-14.3h4.2V439.8z"/>
	<path d="M1784.3,422.9c-0.1,1.7-0.2,3.6-0.2,6.4v13.5c0,5.3-1.1,8.6-3.3,10.6c-2.3,2.1-5.5,2.8-8.4,2.8c-2.8,0-5.9-0.7-7.7-1.9
		l1.1-3.2c1.5,1,3.9,1.8,6.8,1.8c4.3,0,7.5-2.3,7.5-8.1v-2.6h-0.1c-1.3,2.2-3.8,3.9-7.4,3.9c-5.8,0-9.9-4.9-9.9-11.3
		c0-7.9,5.1-12.3,10.5-12.3c4,0,6.2,2.1,7.2,4h0.1l0.2-3.5H1784.3z M1779.9,432.1c0-0.7,0-1.3-0.2-1.9c-0.8-2.4-2.8-4.5-5.9-4.5
		c-4,0-6.9,3.4-6.9,8.8c0,4.6,2.3,8.4,6.9,8.4c2.6,0,4.9-1.6,5.9-4.3c0.2-0.7,0.3-1.5,0.3-2.3V432.1z"/>
	<path d="M1790.5,441.8c1.2,0.8,3.5,1.7,5.6,1.7c3.1,0,4.5-1.5,4.5-3.5c0-2-1.2-3.1-4.3-4.3c-4.2-1.5-6.1-3.8-6.1-6.6
		c0-3.7,3-6.8,8-6.8c2.4,0,4.4,0.7,5.7,1.4l-1.1,3.1c-0.9-0.6-2.6-1.3-4.8-1.3c-2.5,0-3.9,1.4-3.9,3.2c0,1.9,1.4,2.8,4.4,3.9
		c4,1.5,6.1,3.6,6.1,7c0,4.1-3.2,7-8.7,7c-2.5,0-4.9-0.6-6.5-1.6L1790.5,441.8z"/>
</g>
<g>
	<g>
		<line style="fill:none;stroke:#000000;stroke-width:5;stroke-miterlimit:10;" x1="1009.1" y1="620.2" x2="1166.9" y2="620.2"/>
		<g>
			<path d="M1197.1,620.2c-14.2,5.3-31.8,14.3-42.7,23.8l8.6-23.8l-8.6-23.8C1165.2,606,1182.9,614.9,1197.1,620.2z"/>
		</g>
	</g>
</g>
<g>
	<path d="M1327.9,635.9v-4.8c-2.8,0-5.7-0.9-7.3-2.1l1.2-3.2c1.7,1.2,4.2,2.1,6.9,2.1c3.4,0,5.7-2,5.7-4.7c0-2.6-1.9-4.3-5.4-5.7
		c-4.9-1.9-7.9-4.1-7.9-8.3c0-4,2.8-7,7.2-7.7v-4.8h3v4.7c2.9,0.1,4.8,0.9,6.2,1.7l-1.2,3.2c-1-0.6-3-1.6-6-1.6
		c-3.7,0-5.1,2.2-5.1,4.1c0,2.5,1.8,3.7,6,5.5c4.9,2,7.4,4.5,7.4,8.8c0,3.8-2.6,7.3-7.6,8.2v5H1327.9z"/>
</g>
<ellipse cx="256.3" cy="935.5" rx="25.6" ry="26.6"/>
<ellipse cx="342.9" cy="935.5" rx="47" ry="26.6"/>
<ellipse cx="318.2" cy="1011.8" rx="25.6" ry="26.6"/>
<ellipse cx="404.8" cy="1011.8" rx="47" ry="26.6"/>
<ellipse cx="534.6" cy="935.5" rx="25.6" ry="26.6"/>
<ellipse cx="621.1" cy="935.5" rx="47" ry="26.6"/>
<ellipse cx="598.2" cy="1011.8" rx="25.6" ry="26.6"/>
<ellipse cx="684.7" cy="1011.8" rx="47" ry="26.6"/>
<g>
	<path d="M2088.7,525.5c1.8-0.3,3.9-0.5,6.3-0.5c4.3,0,7.3,1,9.3,2.9c2,1.9,3.2,4.5,3.2,8.2c0,3.7-1.2,6.8-3.3,8.9
		c-2.1,2.1-5.7,3.3-10.1,3.3c-2.1,0-3.9-0.1-5.4-0.3V525.5z M2091.7,545.8c0.7,0.1,1.8,0.2,3,0.2c6.3,0,9.8-3.5,9.8-9.7
		c0-5.4-3-8.8-9.3-8.8c-1.5,0-2.7,0.1-3.5,0.3V545.8z"/>
	<path d="M2114.6,527c0,1-0.7,1.8-1.9,1.8c-1.1,0-1.8-0.8-1.8-1.8c0-1.1,0.8-1.9,1.9-1.9C2113.9,525.2,2114.6,526,2114.6,527z
		 M2111.3,548.1v-16.5h3v16.5H2111.3z"/>
	<path d="M2118.8,545.1c0.9,0.6,2.4,1.2,3.9,1.2c2.2,0,3.2-1.1,3.2-2.4c0-1.4-0.8-2.2-3.1-3c-3-1.1-4.4-2.7-4.4-4.7
		c0-2.7,2.1-4.8,5.7-4.8c1.7,0,3.1,0.5,4,1l-0.7,2.2c-0.6-0.4-1.8-1-3.4-1c-1.8,0-2.8,1-2.8,2.2c0,1.4,1,2,3.1,2.8
		c2.9,1.1,4.3,2.5,4.3,5c0,2.9-2.2,4.9-6.2,4.9c-1.8,0-3.5-0.4-4.6-1.1L2118.8,545.1z"/>
	<path d="M2136.3,526.9v4.7h4.3v2.3h-4.3v8.9c0,2,0.6,3.2,2.2,3.2c0.8,0,1.4-0.1,1.7-0.2l0.1,2.2c-0.6,0.2-1.5,0.4-2.7,0.4
		c-1.4,0-2.5-0.4-3.2-1.3c-0.8-0.9-1.2-2.3-1.2-4.3v-9h-2.5v-2.3h2.5v-3.9L2136.3,526.9z"/>
	<path d="M2143.9,536.8c0-1.9,0-3.6-0.1-5.1h2.6l0.1,3.2h0.1c0.7-2.2,2.5-3.6,4.6-3.6c0.3,0,0.6,0,0.8,0.1v2.8
		c-0.3-0.1-0.6-0.1-1-0.1c-2.1,0-3.6,1.6-4,3.8c-0.1,0.4-0.1,0.9-0.1,1.4v8.8h-3V536.8z"/>
	<path d="M2158.5,527c0,1-0.7,1.8-1.9,1.8c-1.1,0-1.8-0.8-1.8-1.8c0-1.1,0.8-1.9,1.9-1.9C2157.8,525.2,2158.5,526,2158.5,527z
		 M2155.2,548.1v-16.5h3v16.5H2155.2z"/>
	<path d="M2163,548.1c0.1-1.1,0.1-2.8,0.1-4.2V524h3v10.3h0.1c1.1-1.8,3-3,5.6-3c4.1,0,7,3.4,6.9,8.4c0,5.9-3.7,8.8-7.4,8.8
		c-2.4,0-4.3-0.9-5.5-3.1h-0.1l-0.1,2.7H2163z M2166.1,541.5c0,0.4,0.1,0.7,0.1,1.1c0.6,2.1,2.3,3.5,4.5,3.5c3.1,0,5-2.5,5-6.3
		c0-3.3-1.7-6.1-4.9-6.1c-2,0-3.9,1.4-4.6,3.7c-0.1,0.3-0.2,0.7-0.2,1.2V541.5z"/>
	<path d="M2196.3,543.6c0,1.7,0,3.2,0.1,4.5h-2.7l-0.2-2.7h-0.1c-0.8,1.3-2.5,3.1-5.4,3.1c-2.6,0-5.7-1.4-5.7-7.2v-9.6h3v9.1
		c0,3.1,1,5.2,3.7,5.2c2,0,3.4-1.4,3.9-2.7c0.2-0.4,0.3-1,0.3-1.5v-10.1h3V543.6z"/>
	<path d="M2204.8,526.9v4.7h4.3v2.3h-4.3v8.9c0,2,0.6,3.2,2.2,3.2c0.8,0,1.4-0.1,1.7-0.2l0.1,2.2c-0.6,0.2-1.5,0.4-2.7,0.4
		c-1.4,0-2.5-0.4-3.2-1.3c-0.8-0.9-1.2-2.3-1.2-4.3v-9h-2.5v-2.3h2.5v-3.9L2204.8,526.9z"/>
	<path d="M2215.8,527c0,1-0.7,1.8-1.9,1.8c-1.1,0-1.8-0.8-1.8-1.8c0-1.1,0.8-1.9,1.9-1.9C2215.1,525.2,2215.8,526,2215.8,527z
		 M2212.5,548.1v-16.5h3v16.5H2212.5z"/>
	<path d="M2235.3,539.8c0,6.1-4.2,8.7-8.2,8.7c-4.5,0-7.9-3.3-7.9-8.5c0-5.5,3.6-8.7,8.2-8.7
		C2232.1,531.3,2235.3,534.7,2235.3,539.8z M2222.3,539.9c0,3.6,2.1,6.3,5,6.3c2.9,0,5-2.7,5-6.4c0-2.8-1.4-6.3-4.9-6.3
		C2223.8,533.5,2222.3,536.8,2222.3,539.9z"/>
	<path d="M2239.1,536.1c0-1.7,0-3.1-0.1-4.5h2.7l0.2,2.7h0.1c0.8-1.6,2.7-3.1,5.4-3.1c2.3,0,5.8,1.4,5.8,7v9.8h-3v-9.5
		c0-2.7-1-4.9-3.8-4.9c-2,0-3.5,1.4-4,3.1c-0.1,0.4-0.2,0.9-0.2,1.4v9.9h-3V536.1z"/>
</g>
<polygon style="fill:none;stroke:#000000;stroke-miterlimit:10;" points="2721.5,343.2 2618.1,343.2 2566.3,432.8 2618.1,522.4 
	2721.5,522.4 2773.2,432.8 "/>
<g>
	<path d="M2602.5,441.4c1.9,1.2,4.6,2.1,7.5,2.1c4.3,0,6.8-2.3,6.8-5.5c0-3-1.7-4.8-6.1-6.4c-5.3-1.9-8.5-4.6-8.5-9.2
		c0-5,4.2-8.8,10.5-8.8c3.3,0,5.7,0.8,7.2,1.6l-1.2,3.4c-1.1-0.6-3.2-1.5-6.1-1.5c-4.4,0-6.1,2.6-6.1,4.8c0,3,2,4.5,6.4,6.2
		c5.5,2.1,8.3,4.8,8.3,9.5c0,5-3.7,9.3-11.3,9.3c-3.1,0-6.5-0.9-8.3-2.1L2602.5,441.4z"/>
	<path d="M2649.3,445.4c-1.5,0.8-4.6,1.5-8.5,1.5c-9.1,0-16-5.8-16-16.4c0-10.1,6.9-17,16.9-17c4,0,6.6,0.9,7.7,1.4l-1,3.4
		c-1.6-0.8-3.8-1.3-6.5-1.3c-7.6,0-12.6,4.8-12.6,13.3c0,7.9,4.6,13,12.4,13c2.5,0,5.1-0.5,6.8-1.3L2649.3,445.4z"/>
	<path d="M2658.7,414.1v13.5h15.6v-13.5h4.2v32.4h-4.2v-15.2h-15.6v15.2h-4.2v-32.4H2658.7z"/>
	<path d="M2685.8,414.6c2.5-0.4,5.6-0.7,8.9-0.7c6,0,10.3,1.4,13.1,4c2.9,2.6,4.6,6.4,4.6,11.6c0,5.3-1.6,9.6-4.7,12.6
		c-3,3-8,4.7-14.3,4.7c-3,0-5.5-0.1-7.6-0.4V414.6z M2690,443.2c1.1,0.2,2.6,0.2,4.2,0.2c8.9,0,13.8-5,13.8-13.7
		c0-7.6-4.3-12.5-13.1-12.5c-2.2,0-3.8,0.2-4.9,0.4V443.2z"/>
	<path d="M2726.5,446.5v-2.6l3.3-3.2c8-7.6,11.6-11.6,11.6-16.3c0-3.2-1.5-6.1-6.2-6.1c-2.8,0-5.2,1.4-6.6,2.6l-1.3-3
		c2.2-1.8,5.2-3.2,8.8-3.2c6.7,0,9.6,4.6,9.6,9.1c0,5.8-4.2,10.4-10.8,16.8l-2.5,2.3v0.1h14v3.5H2726.5z"/>
</g>
<polygon style="fill:none;stroke:#000000;stroke-miterlimit:10;" points="2721.5,559 2618.1,559 2566.3,648.6 2618.1,738.2 
	2721.5,738.2 2773.2,648.6 "/>
<g>
	<path d="M2602.5,657.2c1.9,1.2,4.6,2.1,7.5,2.1c4.3,0,6.8-2.3,6.8-5.5c0-3-1.7-4.8-6.1-6.4c-5.3-1.9-8.5-4.6-8.5-9.2
		c0-5,4.2-8.8,10.5-8.8c3.3,0,5.7,0.8,7.2,1.6l-1.2,3.4c-1.1-0.6-3.2-1.5-6.1-1.5c-4.4,0-6.1,2.6-6.1,4.8c0,3,2,4.5,6.4,6.2
		c5.5,2.1,8.3,4.8,8.3,9.5c0,5-3.7,9.3-11.3,9.3c-3.1,0-6.5-0.9-8.3-2.1L2602.5,657.2z"/>
	<path d="M2649.3,661.2c-1.5,0.8-4.6,1.5-8.5,1.5c-9.1,0-16-5.8-16-16.4c0-10.1,6.9-17,16.9-17c4,0,6.6,0.9,7.7,1.4l-1,3.4
		c-1.6-0.8-3.8-1.3-6.5-1.3c-7.6,0-12.6,4.8-12.6,13.3c0,7.9,4.6,13,12.4,13c2.5,0,5.1-0.5,6.8-1.3L2649.3,661.2z"/>
	<path d="M2658.7,629.9v13.5h15.6v-13.5h4.2v32.4h-4.2v-15.2h-15.6v15.2h-4.2v-32.4H2658.7z"/>
	<path d="M2685.8,630.4c2.5-0.4,5.6-0.7,8.9-0.7c6,0,10.3,1.4,13.1,4c2.9,2.6,4.6,6.4,4.6,11.6c0,5.3-1.6,9.6-4.7,12.6
		c-3,3-8,4.7-14.3,4.7c-3,0-5.5-0.1-7.6-0.4V630.4z M2690,659c1.1,0.2,2.6,0.2,4.2,0.2c8.9,0,13.8-5,13.8-13.7
		c0-7.6-4.3-12.5-13.1-12.5c-2.2,0-3.8,0.2-4.9,0.4V659z"/>
	<path d="M2727.5,657.4c1.2,0.8,4,2,6.9,2c5.4,0,7.1-3.5,7.1-6c0-4.4-4-6.2-8.1-6.2h-2.4v-3.2h2.4c3.1,0,7-1.6,7-5.3
		c0-2.5-1.6-4.7-5.5-4.7c-2.5,0-4.9,1.1-6.2,2.1l-1.1-3.1c1.6-1.2,4.8-2.4,8.2-2.4c6.1,0,8.9,3.6,8.9,7.4c0,3.2-1.9,6-5.8,7.3v0.1
		c3.8,0.8,7,3.6,7,8c0,5-3.9,9.4-11.4,9.4c-3.5,0-6.6-1.1-8.1-2.1L2727.5,657.4z"/>
</g>
<g>
</g>
</svg>
