<?xml version="1.0" encoding="utf-8"?>
<!-- Generator: Adobe Illustrator 23.0.3, SVG Export Plug-In . SVG Version: 6.00 Build 0)  -->
<svg version="1.1" id="Layer_1" xmlns="http://www.w3.org/2000/svg" xmlns:xlink="http://www.w3.org/1999/xlink" x="0px" y="0px"
	 viewBox="0 0 10167.6 4011.6" style="enable-background:new 0 0 10167.6 4011.6;" xml:space="preserve">
<g>
	<g>
		<path d="M2226.4,2562h27.9v5.2h-27.9V2562z M2237.5,2565.3h5.6v36.4h-5.6V2565.3z"/>
		<path d="M2258.1,2562h5.6v39.6h-5.6V2562z M2275.3,2584.5c0-2-0.5-3.5-1.5-4.6c-1-1.2-2.4-1.6-4.4-1.6c-1.9,0-3.3,0.5-4.2,1.4
			c-0.9,0.9-1.5,2.3-1.5,4l-0.6-5.5c0.9-1.6,2-3,3.4-3.8s3-1.4,4.7-1.4c3,0,5.5,1,7.1,3c1.6,2,2.6,4.9,2.6,8.5v17.2h-5.6v-17.1
			H2275.3z"/>
		<path d="M2289.3,2562h5.6v5.6h-5.6V2562z M2289.3,2573.3h5.6v28.2h-5.6V2573.3z"/>
		<path d="M2310.8,2602c0,0-0.7-0.1-2.2-0.5c-1.5-0.3-2.8-0.8-4.1-1.5c-1.3-0.7-2.4-1.5-3.5-2.4l3.3-4.1c1.5,1.2,3,2.1,4.5,2.7
			s3,0.9,4.4,0.9c2.2,0,3.8-0.3,5-1c1.2-0.7,1.6-1.7,1.6-3c0-0.9-0.3-1.6-0.9-2.1s-1.4-0.8-2.2-0.9s-2.1-0.3-3.7-0.5
			c-0.1,0-0.3,0-0.5,0c-0.1,0-0.3,0-0.5,0s-0.1,0-0.2,0c-0.1,0-0.1,0-0.2,0c-1.9-0.1-3.4-0.5-4.6-0.8c-1.3-0.3-2.3-1.2-3.1-2.2
			s-1.3-2.6-1.3-4.6s0.5-3.6,1.3-5c0.8-1.4,2.1-2.3,3.6-3s3.6-1,6-1c1.5,0,2.9,0.1,4.2,0.5c1.3,0.3,2.6,0.7,3.8,1.2
			c1.3,0.5,2.4,1.2,3.5,2l-3.4,4.1c-1.4-0.9-2.8-1.6-4.2-2.1s-2.7-0.7-4.1-0.7c-1.9,0-3.3,0.3-4.3,0.9c-1,0.6-1.4,1.6-1.4,2.9
			c0,0.8,0.2,1.3,0.8,1.7c0.6,0.5,1.2,0.6,2,0.8c0.8,0.2,2,0.2,3.5,0.3c0.1,0,0.2,0,0.3,0s0.2,0,0.3,0h0.1h0.1c2,0.1,3.7,0.3,5,0.8
			c1.3,0.5,2.6,1.2,3.5,2.3c0.9,1.2,1.4,2.9,1.4,5.1c0,2.1-0.5,3.7-1.3,5c-0.8,1.3-2.2,2.3-4,3c-1.7,0.7-4,1-6.6,1
			C2311.7,2602,2310.8,2602,2310.8,2602z"/>
		<path d="M2347.3,2562h5.6v5.6h-5.6V2562z M2347.3,2573.3h5.6v28.2h-5.6V2573.3z"/>
		<path d="M2368.8,2602c0,0-0.7-0.1-2.2-0.5c-1.5-0.3-2.8-0.8-4.1-1.5c-1.3-0.7-2.4-1.5-3.5-2.4l3.3-4.1c1.5,1.2,3,2.1,4.5,2.7
			s3,0.9,4.4,0.9c2.2,0,3.8-0.3,5-1s1.6-1.7,1.6-3c0-0.9-0.3-1.6-0.9-2.1s-1.4-0.8-2.2-0.9s-2.1-0.3-3.7-0.5c-0.1,0-0.3,0-0.5,0
			s-0.3,0-0.5,0c-0.1,0-0.1,0-0.2,0s-0.1,0-0.2,0c-1.9-0.1-3.4-0.5-4.6-0.8c-1.3-0.3-2.3-1.2-3.1-2.2s-1.3-2.6-1.3-4.6
			s0.5-3.6,1.3-5c0.8-1.4,2.1-2.3,3.6-3s3.6-1,6-1c1.5,0,2.9,0.1,4.2,0.5c1.3,0.3,2.6,0.7,3.8,1.2c1.3,0.5,2.4,1.2,3.5,2l-3.4,4.1
			c-1.4-0.9-2.8-1.6-4.2-2.1s-2.7-0.7-4.1-0.7c-1.9,0-3.3,0.3-4.3,0.9c-1,0.6-1.4,1.6-1.4,2.9c0,0.8,0.2,1.3,0.8,1.7
			c0.6,0.5,1.2,0.6,2,0.8c0.8,0.2,2,0.2,3.5,0.3c0.1,0,0.2,0,0.3,0s0.2,0,0.3,0h0.1h0.1c2,0.1,3.7,0.3,5,0.8
			c1.3,0.5,2.6,1.2,3.5,2.3c0.9,1.2,1.4,2.9,1.4,5.1c0,2.1-0.5,3.7-1.3,5c-0.8,1.3-2.2,2.3-4,3s-4,1-6.6,1
			C2369.6,2602,2368.8,2602,2368.8,2602z"/>
		<path d="M2402.1,2573.3h5.7l8.7,24.5l-3,6L2402.1,2573.3z M2427.2,2573.3l-12.1,34.9c-0.5,1.3-1,2.3-1.7,3s-1.6,1.3-2.7,1.6
			c-1,0.3-2.3,0.5-3.8,0.5h-1.2v-5.2h1.2c1,0,1.9-0.2,2.4-0.6c0.6-0.3,1.2-1.2,1.6-2.2l10.5-32H2427.2z"/>
		<path d="M2436.7,2600.6c-1.7-0.9-3-2.3-4-4.2c-0.9-1.9-1.4-4.1-1.4-6.6v-4.6c0-2.6,0.5-4.8,1.4-6.6c0.9-1.9,2.2-3.3,4-4.2
			s3.8-1.4,6.3-1.4c2.4,0,4.5,0.5,6.3,1.4c1.7,0.9,3,2.3,4,4.2c0.9,1.9,1.4,4.1,1.4,6.6v4.6c0,2.6-0.5,4.8-1.4,6.6
			c-0.9,1.9-2.2,3.3-4,4.2c-1.7,0.9-3.8,1.4-6.3,1.4C2440.5,2602,2438.4,2601.5,2436.7,2600.6z M2447.5,2594.9
			c1-1.2,1.6-2.9,1.6-5.1v-4.6c0-2.2-0.6-4-1.6-5.1c-1-1.2-2.6-1.7-4.5-1.7c-2,0-3.5,0.6-4.5,1.7c-1,1.2-1.6,2.9-1.6,5.1v4.6
			c0,2.2,0.6,4,1.6,5.1c1,1.2,2.6,1.9,4.5,1.9C2444.9,2596.8,2446.4,2596.1,2447.5,2594.9z"/>
		<path d="M2468,2590.5c0,2,0.5,3.5,1.5,4.5c1,1,2.4,1.6,4.3,1.6c1.9,0,3.3-0.5,4.2-1.4s1.5-2.3,1.5-4.1l0.3,5.9
			c-0.6,1.4-1.5,2.6-2.8,3.5c-1.3,0.9-2.9,1.4-4.8,1.4c-3.1,0-5.6-1-7.2-3s-2.6-4.9-2.6-8.5v-17.2h5.6L2468,2590.5L2468,2590.5z
			 M2479.6,2573.3h5.6v28.2h-5.6V2573.3z"/>
	</g>
</g>
<g>
	<g>
		<path d="M1978.8,1673.1h6.6l14,53.4l12-53.4h9.9l-16.6,68.2h-9.8l-12.6-47.6l-13.1,47.6h-9.8l-16.6-68.2h9.9l12,53.4
			L1978.8,1673.1z"/>
		<path d="M2031.2,1673.1h9.6v68.2h-9.6V1673.1z M2035.8,1673.1h39.1v9.1h-39.1V1673.1z M2035.8,1702.9h34v9.1h-34V1702.9z
			 M2035.8,1732.2h39.1v9.1h-39.1V1732.2z"/>
		<path d="M2088.5,1673.1h9.6v68.2h-9.6V1673.1z M2093.3,1732.2h39v9.1h-39V1732.2z"/>
		<path d="M2158.8,1742c0,0-1.8-1-5.4-3.1c-3.6-2.1-6.4-5.1-8.3-8.9s-3-8.3-3-13.4v-18.7c0-5.1,1-9.5,3-13.4s4.7-6.8,8.3-8.9
			c3.6-2.1,7.7-3.2,12.4-3.2c3.9,0,7.5,0.8,10.8,2.5c3.3,1.7,6,4,8.2,7.1c2.2,3.1,3.7,6.6,4.5,10.6h-9.8c-0.6-2.1-1.6-4-3-5.7
			c-1.4-1.7-3-3-4.9-3.9c-1.9-0.9-3.8-1.4-5.8-1.4c-2.8,0-5.2,0.7-7.3,2c-2.1,1.3-3.7,3.2-4.9,5.6c-1.2,2.4-1.7,5.2-1.7,8.5v18.7
			c0,3.2,0.6,6,1.7,8.4c1.2,2.4,2.8,4.3,4.9,5.6c2.1,1.3,4.5,2,7.3,2c2,0,4-0.4,5.8-1.3c1.9-0.8,3.5-2.1,4.9-3.8
			c1.4-1.7,2.4-3.6,3-5.9h9.8c-0.8,4-2.3,7.6-4.5,10.6c-2.2,3.1-5,5.4-8.3,7.1c-3.3,1.7-6.9,2.5-10.7,2.5
			C2161.2,1742,2158.8,1742,2158.8,1742z"/>
		<path d="M2212.9,1738.9c-3.6-2.1-6.4-5-8.4-8.8c-2-3.8-3-8.2-3-13.2v-19.3c0-5,1-9.4,3-13.2c2-3.8,4.8-6.7,8.4-8.8
			c3.6-2.1,7.8-3.1,12.6-3.1c4.8,0,8.9,1,12.6,3.1c3.6,2.1,6.4,5,8.4,8.8c2,3.8,3,8.2,3,13.2v19.3c0,5-1,9.4-3,13.2
			c-2,3.8-4.8,6.7-8.4,8.8c-3.6,2.1-7.8,3.1-12.6,3.1C2220.8,1742,2216.6,1740.9,2212.9,1738.9z M2232.9,1730.7
			c2.1-1.3,3.8-3.1,5-5.4c1.2-2.3,1.8-5,1.8-8.1v-20c0-3.1-0.6-5.8-1.8-8.1c-1.2-2.3-2.8-4.1-5-5.4c-2.1-1.3-4.6-1.9-7.4-1.9
			s-5.3,0.6-7.4,1.9c-2.1,1.3-3.8,3.1-5,5.4c-1.2,2.3-1.8,5-1.8,8.1v20c0,3.1,0.6,5.8,1.8,8.1c1.2,2.3,2.8,4.1,5,5.4
			c2.1,1.3,4.6,1.9,7.4,1.9S2230.8,1731.9,2232.9,1730.7z"/>
		<path d="M2313.9,1673.1h9v68.2h-9.3v-51l0.5,3l-16.8,38.6h-6.7l-16.8-37.6l0.5-3.9v51h-9.3v-68.2h9l20,45L2313.9,1673.1z"/>
		<path d="M2339.7,1673.1h9.6v68.2h-9.6V1673.1z M2344.4,1673.1h39.1v9.1h-39.1V1673.1z M2344.4,1702.9h34v9.1h-34V1702.9z
			 M2344.4,1732.2h39.1v9.1h-39.1V1732.2z"/>
		<path d="M2413.5,1673.1h48.1v9.1h-48.1V1673.1z M2432.8,1678.7h9.6v62.6h-9.6V1678.7z"/>
		<path d="M2479.1,1738.9c-3.6-2.1-6.4-5-8.4-8.8c-2-3.8-3-8.2-3-13.2v-19.3c0-5,1-9.4,3-13.2c2-3.8,4.8-6.7,8.4-8.8
			c3.6-2.1,7.8-3.1,12.6-3.1c4.8,0,8.9,1,12.6,3.1c3.6,2.1,6.4,5,8.4,8.8c2,3.8,3,8.2,3,13.2v19.3c0,5-1,9.4-3,13.2
			c-2,3.8-4.8,6.7-8.4,8.8c-3.6,2.1-7.8,3.1-12.6,3.1C2486.9,1742,2482.7,1740.9,2479.1,1738.9z M2499.1,1730.7
			c2.1-1.3,3.8-3.1,5-5.4c1.2-2.3,1.8-5,1.8-8.1v-20c0-3.1-0.6-5.8-1.8-8.1c-1.2-2.3-2.8-4.1-5-5.4c-2.1-1.3-4.6-1.9-7.4-1.9
			s-5.3,0.6-7.4,1.9c-2.1,1.3-3.8,3.1-5,5.4c-1.2,2.3-1.8,5-1.8,8.1v20c0,3.1,0.6,5.8,1.8,8.1c1.2,2.3,2.8,4.1,5,5.4
			c2.1,1.3,4.6,1.9,7.4,1.9S2497,1731.9,2499.1,1730.7z"/>
		<path d="M2566.9,1738.9c-3.6-2.1-6.4-5-8.4-8.8c-2-3.8-3-8.2-3-13.2v-19.3c0-5,1-9.4,3-13.2c2-3.8,4.8-6.7,8.4-8.8
			c3.6-2.1,7.8-3.1,12.6-3.1c4.8,0,8.9,1,12.6,3.1c3.6,2.1,6.4,5,8.4,8.8c2,3.8,3,8.2,3,13.2v19.3c0,5-1,9.4-3,13.2
			c-2,3.8-4.8,6.7-8.4,8.8c-3.6,2.1-7.8,3.1-12.6,3.1C2574.7,1742,2570.5,1740.9,2566.9,1738.9z M2586.8,1730.7
			c2.1-1.3,3.8-3.1,5-5.4c1.2-2.3,1.8-5,1.8-8.1v-20c0-3.1-0.6-5.8-1.8-8.1c-1.2-2.3-2.8-4.1-5-5.4c-2.1-1.3-4.6-1.9-7.4-1.9
			s-5.3,0.6-7.4,1.9c-2.1,1.3-3.8,3.1-5,5.4c-1.2,2.3-1.8,5-1.8,8.1v20c0,3.1,0.6,5.8,1.8,8.1c1.2,2.3,2.8,4.1,5,5.4
			c2.1,1.3,4.6,1.9,7.4,1.9S2584.7,1731.9,2586.8,1730.7z"/>
		<path d="M2628.9,1739c-3.6-2-6.3-4.9-8.2-8.7s-2.8-8.4-2.8-13.7v-43.5h9.6v43.8c0,5,1.2,8.8,3.8,11.5c2.5,2.7,6,4.1,10.6,4.1
			c4.6,0,8.1-1.4,10.7-4.1c2.5-2.7,3.8-6.6,3.8-11.5v-43.8h9.6v43.5c0,5.3-0.9,9.9-2.8,13.7s-4.6,6.7-8.2,8.7c-3.6,2-7.9,3-13,3
			C2636.8,1742,2632.5,1741,2628.9,1739z"/>
		<path d="M2681.7,1673.1h9.6v68.2h-9.6V1673.1z M2685.9,1703.4h23.3c1.8,0,3.4-0.4,4.8-1.3c1.4-0.9,2.5-2.1,3.3-3.7
			c0.8-1.6,1.1-3.5,1.1-5.6c0-2.1-0.4-3.9-1.1-5.6c-0.8-1.6-1.8-2.9-3.2-3.7c-1.4-0.9-3-1.3-4.9-1.3h-23.3v-9.1h22.9
			c3.9,0,7.4,0.8,10.4,2.4c3,1.6,5.3,3.9,6.9,6.9c1.6,3,2.5,6.4,2.5,10.3c0,3.9-0.8,7.4-2.5,10.3c-1.7,3-4,5.3-7,6.9
			c-3,1.6-6.4,2.4-10.3,2.4h-22.9V1703.4z M2704.5,1710.3l9.5-2.2l17.4,33.1h-11.3L2704.5,1710.3z"/>
		<path d="M2770.1,1673.1h9.6v68.2h-9.6V1673.1z M2776.6,1732.2h15.4c5,0,8.9-1.3,11.7-3.9c2.8-2.6,4.1-6.3,4.1-11v-20.1
			c0-4.8-1.4-8.4-4.1-11c-2.8-2.6-6.7-3.9-11.7-3.9h-15.4v-9.1h15.1c5.5,0,10.1,1,14,2.9c3.9,1.9,6.8,4.7,8.9,8.3
			c2,3.7,3,8.1,3,13.2v19.3c0,5.2-1,9.6-3,13.2c-2,3.7-5,6.4-8.9,8.3c-3.9,1.9-8.6,2.9-14,2.9h-15.1V1732.2z"/>
		<path d="M2851.7,1673.1h8.2l25.1,68.2h-10.3l-18.9-55l-18.9,55h-10.3L2851.7,1673.1z M2838.1,1717.2h35.9v9.1h-35.9V1717.2z"/>
		<path d="M2885.9,1673.1h48.1v9.1h-48.1V1673.1z M2905.1,1678.7h9.6v62.6h-9.6V1678.7z"/>
		<path d="M2960,1673.1h8.2l25.1,68.2H2983l-18.9-55l-18.9,55h-10.3L2960,1673.1z M2946.5,1717.2h35.9v9.1h-35.9V1717.2z"/>
		<path d="M3045,1742c0,0-1.5-0.3-4.4-0.9c-2.9-0.6-5.7-1.6-8.2-2.8c-2.5-1.2-4.9-2.8-7.1-4.7l6-7.3c2.6,2.3,5.5,3.9,8.6,5.1
			c3.1,1.1,6.5,1.7,10.2,1.7c4.9,0,8.8-0.9,11.5-2.7s4.1-4.4,4.1-7.8v0c0-2.4-0.6-4.3-1.9-5.6c-1.2-1.4-2.8-2.4-4.8-3.1
			c-2-0.7-4.5-1.3-7.6-1.9c-0.1,0-0.2,0-0.3,0c-0.1,0-0.2,0-0.3,0l-0.7-0.1c-4.6-0.8-8.3-1.7-11.1-2.6s-5.3-2.8-7.3-5.4
			c-2-2.6-3-6.3-3-11.1v0c0-4.2,0.9-7.8,2.8-10.8c1.9-3,4.6-5.3,8.3-6.8c3.6-1.6,8-2.3,13.1-2.3c2.4,0,4.8,0.3,7.2,0.8
			c2.4,0.5,4.7,1.3,7,2.4c2.3,1,4.6,2.4,6.8,4l-5.4,7.6c-2.6-1.9-5.2-3.3-7.8-4.3c-2.6-1-5.2-1.4-7.8-1.4c-4.7,0-8.3,0.9-10.9,2.8
			c-2.6,1.9-3.9,4.5-3.9,7.9v0c0,2.3,0.7,4.2,2,5.5c1.3,1.3,3,2.3,5,3c2,0.6,4.7,1.3,8.3,2c0.1,0,0.2,0.1,0.4,0.1
			c0.1,0,0.2,0,0.4,0.1c0.2,0,0.3,0.1,0.5,0.1c0.2,0,0.4,0.1,0.5,0.1c4.1,0.8,7.6,1.8,10.3,3c2.8,1.2,5.1,3,6.9,5.6
			c1.9,2.6,2.8,6.1,2.8,10.6v0.1c0,4.2-1,7.7-3,10.7s-4.8,5.2-8.6,6.8c-3.7,1.5-8.2,2.3-13.5,2.3C3046.6,1742,3045,1742,3045,1742z"
			/>
		<path d="M3103.8,1742c0,0-1.8-1-5.4-3.1c-3.6-2.1-6.4-5.1-8.3-8.9s-3-8.3-3-13.4v-18.7c0-5.1,1-9.5,3-13.4s4.7-6.8,8.3-8.9
			c3.6-2.1,7.7-3.2,12.4-3.2c3.9,0,7.5,0.8,10.8,2.5c3.3,1.7,6,4,8.2,7.1c2.2,3.1,3.7,6.6,4.5,10.6h-9.8c-0.6-2.1-1.6-4-3-5.7
			c-1.4-1.7-3-3-4.9-3.9c-1.9-0.9-3.8-1.4-5.8-1.4c-2.8,0-5.2,0.7-7.3,2c-2.1,1.3-3.7,3.2-4.9,5.6c-1.2,2.4-1.7,5.2-1.7,8.5v18.7
			c0,3.2,0.6,6,1.7,8.4c1.2,2.4,2.8,4.3,4.9,5.6c2.1,1.3,4.5,2,7.3,2c2,0,4-0.4,5.8-1.3c1.9-0.8,3.5-2.1,4.9-3.8
			c1.4-1.7,2.4-3.6,3-5.9h9.8c-0.8,4-2.3,7.6-4.5,10.6c-2.2,3.1-5,5.4-8.3,7.1c-3.3,1.7-6.9,2.5-10.7,2.5
			C3106.1,1742,3103.8,1742,3103.8,1742z"/>
		<path d="M3157.5,1741.3h-9.6v-68.2h9.6V1741.3z"/>
		<path d="M3174.4,1673.1h9.6v68.2h-9.6V1673.1z M3179,1673.1h39.1v9.1H3179V1673.1z M3179,1702.9h34v9.1h-34V1702.9z M3179,1732.2
			h39.1v9.1H3179V1732.2z"/>
		<path d="M3231.7,1673.1h8.7l33.3,52.7l-1.1,1.2v-53.9h9.5v68.1h-8.8l-33.2-51.9l1.1-1.2v53.1h-9.5V1673.1z"/>
		<path d="M3314.2,1742c0,0-1.8-1-5.4-3.1c-3.6-2.1-6.4-5.1-8.3-8.9s-3-8.3-3-13.4v-18.7c0-5.1,1-9.5,3-13.4s4.7-6.8,8.3-8.9
			c3.6-2.1,7.7-3.2,12.4-3.2c3.9,0,7.5,0.8,10.8,2.5c3.3,1.7,6,4,8.2,7.1c2.2,3.1,3.7,6.6,4.5,10.6h-9.8c-0.6-2.1-1.6-4-3-5.7
			c-1.4-1.7-3-3-4.9-3.9c-1.9-0.9-3.8-1.4-5.8-1.4c-2.8,0-5.2,0.7-7.3,2c-2.1,1.3-3.7,3.2-4.9,5.6c-1.2,2.4-1.7,5.2-1.7,8.5v18.7
			c0,3.2,0.6,6,1.7,8.4c1.2,2.4,2.8,4.3,4.9,5.6c2.1,1.3,4.5,2,7.3,2c2,0,4-0.4,5.8-1.3c1.9-0.8,3.5-2.1,4.9-3.8
			c1.4-1.7,2.4-3.6,3-5.9h9.8c-0.8,4-2.3,7.6-4.5,10.6c-2.2,3.1-5,5.4-8.3,7.1c-3.3,1.7-6.9,2.5-10.7,2.5
			C3316.5,1742,3314.2,1742,3314.2,1742z"/>
		<path d="M3358.3,1673.1h9.6v68.2h-9.6V1673.1z M3363,1673.1h39.1v9.1H3363V1673.1z M3363,1702.9h34v9.1h-34V1702.9z M3363,1732.2
			h39.1v9.1H3363V1732.2z"/>
		<path d="M3441.5,1673.1h9.6v68.2h-9.6V1673.1z M3446.1,1673.1h39.1v9.1h-39.1V1673.1z M3446.1,1702.9h34v9.1h-34V1702.9z
			 M3446.1,1732.2h39.1v9.1h-39.1V1732.2z"/>
		<path d="M3515.1,1702.3l17.1-29.2h10.7l-22.5,36.9l-18.3,31.3h-10.7L3515.1,1702.3z M3515.5,1711.3l-1.5-2.3l-22.1-35.9h10.7
			l16.5,27.8l1.5,2.5l23.3,37.9h-10.7L3515.5,1711.3z"/>
		<path d="M3553.3,1673.1h9.6v68.2h-9.6V1673.1z M3559.3,1703.2h37.8v9.1h-37.8V1703.2z M3592.1,1673.1h9.6v68.2h-9.6V1673.1z"/>
		<path d="M3628.1,1741.3h-9.6v-68.2h9.6V1741.3z"/>
		<path d="M3644.9,1673.1h9.5v68.2h-9.5V1673.1z M3650.6,1732.4h18.5c4.8,0,8.4-0.9,10.6-2.8c2.2-1.8,3.3-4.4,3.3-7.8v-0.1
			c0-2.3-0.4-4.3-1.2-6c-0.8-1.7-2.1-2.9-3.8-3.8c-1.7-0.9-3.9-1.3-6.6-1.3h-20.8v-8.6h20.8c3.5,0,6.2-0.8,8-2.5
			c1.8-1.7,2.7-4.1,2.7-7.4c0-3.4-1-6-3-7.6c-2-1.7-5-2.5-9-2.5h-19.5v-8.9h21.2c4.4,0,8.1,0.8,11.1,2.3c3,1.5,5.2,3.6,6.7,6.4
			c1.5,2.8,2.2,6,2.2,9.8c0,2.3-0.5,4.5-1.4,6.6c-0.9,2-2.3,3.8-4.1,5.3c-1.9,1.5-4.2,2.4-6.9,2.9c2.7,0.4,5.1,1.4,7.1,2.9
			c2,1.5,3.5,3.5,4.6,5.8c1.1,2.3,1.6,4.8,1.6,7.5v0.1c0,3.7-0.8,6.9-2.4,9.8c-1.6,2.8-4,5-7,6.5c-3,1.5-6.6,2.3-10.6,2.3h-22
			V1732.4z"/>
		<path d="M3716.5,1741.3h-9.6v-68.2h9.6V1741.3z"/>
		<path d="M3724,1673.1h48.1v9.1H3724V1673.1z M3743.2,1678.7h9.6v62.6h-9.6V1678.7z"/>
		<path d="M3789.1,1741.3h-9.6v-68.2h9.6V1741.3z"/>
		<path d="M3816,1738.9c-3.6-2.1-6.4-5-8.4-8.8c-2-3.8-3-8.2-3-13.2v-19.3c0-5,1-9.4,3-13.2c2-3.8,4.8-6.7,8.4-8.8
			c3.6-2.1,7.8-3.1,12.6-3.1c4.8,0,8.9,1,12.6,3.1c3.6,2.1,6.4,5,8.4,8.8c2,3.8,3,8.2,3,13.2v19.3c0,5-1,9.4-3,13.2
			c-2,3.8-4.8,6.7-8.4,8.8c-3.6,2.1-7.8,3.1-12.6,3.1C3823.8,1742,3819.6,1740.9,3816,1738.9z M3836,1730.7c2.1-1.3,3.8-3.1,5-5.4
			c1.2-2.3,1.8-5,1.8-8.1v-20c0-3.1-0.6-5.8-1.8-8.1c-1.2-2.3-2.8-4.1-5-5.4c-2.1-1.3-4.6-1.9-7.4-1.9s-5.3,0.6-7.4,1.9
			c-2.1,1.3-3.8,3.1-5,5.4c-1.2,2.3-1.8,5-1.8,8.1v20c0,3.1,0.6,5.8,1.8,8.1c1.2,2.3,2.8,4.1,5,5.4c2.1,1.3,4.6,1.9,7.4,1.9
			S3833.8,1731.9,3836,1730.7z"/>
		<path d="M3868,1673.1h8.7l33.3,52.7l-1.1,1.2v-53.9h9.5v68.1h-8.8l-33.2-51.9l1.1-1.2v53.1h-9.5V1673.1z"/>
		<path d="M1943.5,1782.9h6.2l5.4,21.7l7.6-21.7h4.2l7.6,21.7l5.4-21.7h6.2l-9.4,30.4h-4.5l-7.4-21l-7.4,21h-4.5L1943.5,1782.9z"/>
		<path d="M1992.5,1770.7h6v6h-6V1770.7z M1992.5,1782.9h6v30.4h-6V1782.9z"/>
		<path d="M2005.3,1782.9h13.7v5.4h-13.7V1782.9z M2010.1,1811.4c-1.1-1.4-1.7-3.4-1.7-6V1774h6v31.4c0,0.7,0.1,1.3,0.4,1.7
			c0.3,0.4,0.7,0.6,1.3,0.6h2.9v5.7h-3.5C2013,1813.4,2011.2,1812.7,2010.1,1811.4z"/>
		<path d="M2027.2,1770.7h6v42.6h-6V1770.7z M2045.6,1794.8c0-2.1-0.6-3.8-1.7-5s-2.7-1.8-4.7-1.8c-2,0-3.5,0.5-4.5,1.5
			c-1.1,1-1.6,2.5-1.6,4.3l-0.6-5.9c0.9-1.8,2.2-3.2,3.7-4.2c1.5-1,3.2-1.5,5-1.5c3.3,0,5.9,1.1,7.7,3.2c1.8,2.2,2.7,5.2,2.7,9.2
			v18.5h-6V1794.8z"/>
		<path d="M2076.8,1770.7h6v42.6h-6V1770.7z M2085.5,1812.4c-1.4-0.9-2.4-2.2-3.1-3.9l0.4-6.4c0,1.3,0.2,2.4,0.7,3.3
			c0.5,0.9,1.1,1.6,2,2.1c0.9,0.5,2,0.7,3.2,0.7c2,0,3.5-0.6,4.6-1.8s1.6-2.9,1.6-5.1v-6.6c0-2.2-0.5-4-1.6-5.2s-2.6-1.8-4.6-1.8
			c-1.3,0-2.3,0.2-3.2,0.7c-0.9,0.5-1.6,1.2-2,2.1s-0.7,2-0.7,3.3l-0.6-5.9c0.9-1.8,2.1-3.1,3.6-4.1c1.5-1,3.1-1.5,5-1.5
			c2.1,0,4,0.5,5.5,1.5c1.5,1,2.7,2.4,3.5,4.2c0.8,1.9,1.2,4.1,1.2,6.7v6.6c0,2.6-0.4,4.8-1.2,6.6c-0.8,1.8-2,3.2-3.6,4.2
			s-3.5,1.5-5.7,1.5C2088.5,1813.7,2086.9,1813.3,2085.5,1812.4z"/>
		<path d="M2110.8,1811.4c-1.9-1.6-2.8-3.9-2.8-7.1c0-3,0.8-5.3,2.5-6.8c1.7-1.5,4.3-2.3,7.7-2.3h8.6l0.4,4.8h-9
			c-1.6,0-2.7,0.3-3.5,1c-0.8,0.7-1.2,1.8-1.2,3.2c0,1.5,0.5,2.7,1.5,3.4c1,0.7,2.6,1.1,4.7,1.1c2.3,0,4-0.2,5.1-0.7
			c1.1-0.5,1.7-1.2,1.7-2.3l0.6,4.3c-0.5,0.8-1.2,1.5-1.9,2c-0.8,0.5-1.7,0.9-2.7,1.2c-1,0.3-2.2,0.4-3.4,0.4
			C2115.4,1813.7,2112.6,1812.9,2110.8,1811.4z M2126.6,1794c0-2-0.5-3.5-1.6-4.6c-1.1-1.1-2.6-1.7-4.5-1.7c-1.2,0-2.4,0.2-3.6,0.6
			c-1.2,0.4-2.2,0.9-3.1,1.6l-4.4-3c1.2-1.4,2.7-2.5,4.6-3.2c1.9-0.8,4-1.2,6.3-1.2c2.5,0,4.7,0.4,6.5,1.3c1.8,0.9,3.2,2.2,4.1,3.9
			c0.9,1.7,1.4,3.7,1.4,6.1v19.5h-5.7V1794z"/>
		<path d="M2141.4,1770.7h6v6h-6V1770.7z M2141.4,1782.9h6v30.4h-6V1782.9z"/>
		<path d="M2162.4,1805.4c0,0.7,0.2,1.3,0.5,1.7c0.3,0.4,0.8,0.6,1.4,0.6h2.8v5.7h-3.5c-2.3,0-4-0.7-5.3-2.1
			c-1.2-1.4-1.9-3.4-1.9-5.9v-34.7h6V1805.4z"/>
		<path d="M2173.8,1782.9h6v42.8h-6V1782.9z M2182.5,1812.4c-1.4-0.9-2.4-2.2-3.1-3.9l0.4-6.4c0,1.3,0.2,2.4,0.7,3.3
			c0.5,0.9,1.1,1.6,2,2.1c0.9,0.5,2,0.7,3.2,0.7c2,0,3.5-0.6,4.6-1.8s1.6-2.9,1.6-5.1v-6.6c0-2.2-0.5-4-1.6-5.2s-2.6-1.8-4.6-1.8
			c-1.3,0-2.3,0.2-3.2,0.7c-0.9,0.5-1.6,1.2-2,2.1s-0.7,2-0.7,3.3l-0.6-5.9c0.9-1.8,2.1-3.1,3.6-4.1c1.5-1,3.1-1.5,5-1.5
			c2.1,0,4,0.5,5.5,1.5c1.5,1,2.7,2.4,3.5,4.2c0.8,1.9,1.2,4.1,1.2,6.7v6.6c0,2.6-0.4,4.8-1.2,6.6c-0.8,1.8-2,3.2-3.6,4.2
			s-3.5,1.5-5.7,1.5C2185.5,1813.7,2183.9,1813.3,2182.5,1812.4z"/>
		<path d="M2206.4,1782.9h6v30.4h-6V1782.9z M2221.2,1788.6c-0.8-0.3-1.7-0.5-2.8-0.5c-1.9,0-3.4,0.5-4.4,1.6c-1,1-1.6,2.5-1.6,4.4
			l-0.6-5.9c0.9-1.8,2.1-3.2,3.6-4.2c1.5-1,3.1-1.5,4.9-1.5c1.4,0,2.6,0.2,3.8,0.6c1.1,0.4,2.1,1,2.9,1.8l-3.9,5.3
			C2222.6,1789.4,2222,1788.9,2221.2,1788.6z"/>
		<path d="M2236.9,1812.2c-1.9-1-3.3-2.5-4.3-4.5c-1-2-1.5-4.4-1.5-7.2v-5c0-2.8,0.5-5.1,1.5-7.1c1-2,2.4-3.5,4.3-4.5
			s4.1-1.5,6.8-1.5s4.9,0.5,6.8,1.5s3.3,2.5,4.3,4.5c1,2,1.5,4.3,1.5,7.1v5c0,2.8-0.5,5.1-1.5,7.1c-1,2-2.4,3.5-4.3,4.5
			c-1.9,1-4.1,1.6-6.8,1.6S2238.8,1813.2,2236.9,1812.2z M2248.6,1806.1c1.1-1.3,1.7-3.1,1.7-5.5v-5c0-2.4-0.6-4.2-1.7-5.5
			s-2.8-1.9-4.8-1.9c-2.1,0-3.7,0.6-4.8,1.9s-1.7,3.1-1.7,5.5v5c0,2.4,0.6,4.2,1.7,5.5c1.1,1.3,2.8,2,4.8,2
			C2245.8,1808,2247.4,1807.4,2248.6,1806.1z"/>
		<path d="M2260.6,1820h3.3c0.5,0,1-0.2,1.3-0.6c0.3-0.4,0.5-1,0.5-1.7v-34.8h6v34.7c0,2.6-0.6,4.5-1.9,5.9c-1.2,1.4-3,2.1-5.3,2.1
			h-3.9V1820z M2265.6,1770.7h6.1v6h-6.1V1770.7z"/>
		<path d="M2289.1,1813.7c0,0-1-0.5-3-1.6s-3.5-2.6-4.6-4.6c-1-2-1.6-4.5-1.6-7.4v-3.4c0-3,0.5-5.6,1.5-7.7c1-2.1,2.5-3.8,4.4-4.9
			c1.9-1.1,4.2-1.7,6.9-1.7c2.5,0,4.7,0.6,6.5,1.9c1.8,1.3,3.2,3.1,4.1,5.5c0.9,2.4,1.4,5.3,1.4,8.6v2h-20.5v-4.8h14.8
			c-0.2-2.5-0.8-4.4-1.9-5.8c-1.1-1.4-2.6-2.1-4.4-2.1c-2.3,0-4,0.7-5.3,2.2c-1.2,1.5-1.9,3.6-1.9,6.3v3.9c0,2.5,0.7,4.5,2,5.8
			c1.3,1.3,3.2,2,5.7,2c1.2,0,2.4-0.2,3.6-0.7c1.2-0.5,2.3-1.2,3.2-2.1l3.9,3.9c-1.5,1.4-3.2,2.6-5.1,3.4s-3.8,1.2-5.7,1.2
			C2290.5,1813.7,2289.1,1813.7,2289.1,1813.7z"/>
		<path d="M2321.1,1813.7c0,0-1-0.5-2.9-1.6c-2-1-3.5-2.5-4.5-4.5c-1-2-1.6-4.4-1.6-7.1v-5c0-2.8,0.5-5.1,1.6-7.1
			c1-2,2.5-3.4,4.5-4.5s4.3-1.5,7.1-1.5c1.6,0,3.1,0.2,4.5,0.6c1.4,0.4,2.7,0.9,3.8,1.7c1.1,0.7,2,1.6,2.8,2.6l-4.3,3.9
			c-0.9-1-1.9-1.7-3-2.3c-1.2-0.5-2.4-0.8-3.6-0.8c-2.3,0-4.1,0.6-5.4,1.9c-1.3,1.3-1.9,3.1-1.9,5.4v5c0,2.4,0.6,4.3,1.9,5.6
			c1.3,1.3,3.1,2,5.4,2c1.3,0,2.5-0.3,3.6-0.8c1.2-0.6,2.1-1.4,3-2.4l4.3,4.2c-0.8,1-1.7,1.9-2.8,2.6c-1.1,0.7-2.4,1.3-3.8,1.6
			c-1.4,0.4-2.9,0.6-4.4,0.6C2322.5,1813.7,2321.1,1813.7,2321.1,1813.7z"/>
		<path d="M2340.5,1782.9h13.7v5.4h-13.7V1782.9z M2345.4,1811.4c-1.1-1.4-1.7-3.4-1.7-6V1774h6v31.4c0,0.7,0.1,1.3,0.4,1.7
			c0.3,0.4,0.7,0.6,1.3,0.6h2.9v5.7h-3.5C2348.3,1813.4,2346.5,1812.7,2345.4,1811.4z"/>
		<path d="M2361.4,1807h6.3v6.3h-6.3V1807z"/>
		<path d="M2380.9,1812.2c-1.9-1-3.3-2.5-4.3-4.5c-1-2-1.5-4.4-1.5-7.2v-5c0-2.8,0.5-5.1,1.5-7.1c1-2,2.4-3.5,4.3-4.5
			s4.1-1.5,6.8-1.5s4.9,0.5,6.8,1.5s3.3,2.5,4.3,4.5c1,2,1.5,4.3,1.5,7.1v5c0,2.8-0.5,5.1-1.5,7.1c-1,2-2.4,3.5-4.3,4.5
			c-1.9,1-4.1,1.6-6.8,1.6S2382.8,1813.2,2380.9,1812.2z M2392.5,1806.1c1.1-1.3,1.7-3.1,1.7-5.5v-5c0-2.4-0.6-4.2-1.7-5.5
			s-2.8-1.9-4.8-1.9c-2.1,0-3.7,0.6-4.8,1.9s-1.7,3.1-1.7,5.5v5c0,2.4,0.6,4.2,1.7,5.5c1.1,1.3,2.8,2,4.8,2
			C2389.8,1808,2391.4,1807.4,2392.5,1806.1z"/>
		<path d="M2408.7,1782.9h6v30.4h-6V1782.9z M2423.5,1788.6c-0.8-0.3-1.7-0.5-2.8-0.5c-1.9,0-3.4,0.5-4.4,1.6c-1,1-1.6,2.5-1.6,4.4
			l-0.6-5.9c0.9-1.8,2.1-3.2,3.6-4.2c1.5-1,3.1-1.5,4.9-1.5c1.4,0,2.6,0.2,3.8,0.6c1.1,0.4,2.1,1,2.9,1.8l-3.9,5.3
			C2424.9,1789.4,2424.3,1788.9,2423.5,1788.6z"/>
		<path d="M2438.3,1812.4c-1.6-1-2.8-2.4-3.6-4.2c-0.8-1.9-1.2-4.1-1.2-6.7v-6.7c0-2.6,0.4-4.9,1.2-6.7c0.8-1.9,2-3.3,3.5-4.2
			c1.5-1,3.4-1.5,5.5-1.5c1.8,0,3.4,0.5,4.9,1.4s2.7,2.3,3.6,4l-0.6,6.2c0-1.3-0.2-2.4-0.7-3.3c-0.5-0.9-1.1-1.6-2-2.1
			c-0.9-0.5-2-0.7-3.2-0.7c-2,0-3.5,0.6-4.6,1.8s-1.6,3-1.6,5.2v6.6c0,2.2,0.5,3.9,1.6,5.1s2.6,1.8,4.6,1.8c1.3,0,2.3-0.2,3.2-0.7
			c0.9-0.5,1.6-1.2,2-2.2s0.7-2.1,0.7-3.4l0.4,6.4c-0.6,1.5-1.6,2.8-3,3.8s-3.1,1.5-5.1,1.5
			C2441.7,1813.8,2439.8,1813.3,2438.3,1812.4z M2441.1,1825.6c0,0-0.9-0.4-2.7-1.3c-1.8-0.8-3.2-2-4.2-3.6l4-3.7
			c0.8,1.1,1.7,1.9,2.8,2.5s2.2,0.9,3.4,0.9c2.3,0,4.1-0.6,5.3-1.9c1.2-1.3,1.9-3,1.9-5.3v-30.4h6v29.5c0,2.8-0.5,5.2-1.5,7.2
			s-2.5,3.5-4.5,4.5c-2,1-4.3,1.6-7.1,1.6C2442.2,1825.6,2441.1,1825.6,2441.1,1825.6z"/>
		<path d="M1949.3,1881.8c-1.7-4.7-2.6-9.8-2.6-15.5c0-5.6,0.9-10.8,2.6-15.5c1.7-4.7,4.3-8.9,7.8-12.7l4.1,3.7
			c-2.9,3.3-5.2,7-6.6,11c-1.5,4.1-2.2,8.5-2.2,13.4c0,4.9,0.7,9.4,2.2,13.4c1.5,4.1,3.7,7.7,6.6,11l-4.1,3.7
			C1953.6,1890.7,1951,1886.5,1949.3,1881.8z"/>
		<path d="M1985.2,1842.7h4.1l8.7,33.4l7.5-33.4h6.2l-10.4,42.6h-6.1l-7.9-29.8l-8.2,29.8h-6.1l-10.4-42.6h6.2l7.5,33.4
			L1985.2,1842.7z"/>
		<path d="M2045.6,1842.7h5.1l15.7,42.6h-6.4l-11.8-34.4l-11.8,34.4h-6.4L2045.6,1842.7z M2037.1,1870.2h22.4v5.7h-22.4V1870.2z"/>
		<path d="M2098.7,1885.7c0,0-0.9-0.2-2.8-0.6c-1.8-0.4-3.5-1-5.1-1.8c-1.6-0.8-3.1-1.8-4.5-2.9l3.7-4.6c1.6,1.4,3.4,2.5,5.4,3.2
			c2,0.7,4.1,1.1,6.4,1.1c3.1,0,5.5-0.6,7.2-1.7s2.5-2.8,2.5-4.8v0c0-1.5-0.4-2.7-1.2-3.5c-0.8-0.9-1.8-1.5-3-1.9
			c-1.2-0.4-2.8-0.8-4.7-1.2c-0.1,0-0.1,0-0.2,0c-0.1,0-0.1,0-0.2,0l-0.4-0.1c-2.9-0.5-5.2-1-7-1.7s-3.3-1.7-4.6-3.4
			c-1.3-1.6-1.9-4-1.9-7v0c0-2.6,0.6-4.9,1.8-6.8c1.2-1.9,2.9-3.3,5.2-4.3c2.3-1,5-1.5,8.2-1.5c1.5,0,3,0.2,4.5,0.5
			c1.5,0.3,2.9,0.8,4.4,1.5c1.4,0.7,2.8,1.5,4.2,2.5l-3.4,4.7c-1.6-1.2-3.2-2.1-4.8-2.7c-1.6-0.6-3.2-0.9-4.8-0.9
			c-2.9,0-5.2,0.6-6.8,1.7c-1.6,1.2-2.4,2.8-2.4,4.9v0c0,1.5,0.4,2.6,1.2,3.5c0.8,0.8,1.9,1.5,3.1,1.9c1.2,0.4,3,0.8,5.2,1.2
			c0.1,0,0.2,0,0.2,0c0.1,0,0.1,0,0.2,0c0.1,0,0.2,0,0.3,0.1c0.1,0,0.2,0,0.3,0.1c2.6,0.5,4.7,1.2,6.5,1.9c1.7,0.7,3.2,1.9,4.3,3.5
			c1.2,1.6,1.7,3.8,1.7,6.6v0.1c0,2.6-0.6,4.8-1.8,6.7s-3,3.3-5.3,4.2c-2.3,1-5.2,1.5-8.5,1.5
			C2099.7,1885.7,2098.7,1885.7,2098.7,1885.7z"/>
		<path d="M2142,1842.7h6v42.6h-6V1842.7z M2146.1,1879.6h9.6c3.1,0,5.6-0.8,7.3-2.4c1.7-1.6,2.6-3.9,2.6-6.9v-12.5
			c0-3-0.9-5.3-2.6-6.9c-1.7-1.6-4.2-2.4-7.3-2.4h-9.6v-5.7h9.5c3.4,0,6.3,0.6,8.8,1.8c2.4,1.2,4.3,2.9,5.5,5.2
			c1.3,2.3,1.9,5,1.9,8.3v12.1c0,3.2-0.6,6-1.9,8.3c-1.3,2.3-3.1,4-5.6,5.2c-2.4,1.2-5.4,1.8-8.8,1.8h-9.4V1879.6z"/>
		<path d="M2194.6,1854.9h13.7v5.4h-13.7V1854.9z M2199.4,1883.4c-1.1-1.4-1.7-3.4-1.7-6V1846h6v31.4c0,0.7,0.1,1.3,0.4,1.7
			c0.3,0.4,0.7,0.6,1.3,0.6h2.9v5.7h-3.5C2202.4,1885.4,2200.6,1884.7,2199.4,1883.4z"/>
		<path d="M2221.4,1884.2c-1.9-1-3.3-2.5-4.3-4.5c-1-2-1.5-4.4-1.5-7.2v-5c0-2.8,0.5-5.1,1.5-7.1c1-2,2.4-3.5,4.3-4.5
			s4.1-1.5,6.8-1.5s4.9,0.5,6.8,1.5s3.3,2.5,4.3,4.5c1,2,1.5,4.3,1.5,7.1v5c0,2.8-0.5,5.1-1.5,7.1c-1,2-2.4,3.5-4.3,4.5
			c-1.9,1-4.1,1.6-6.8,1.6S2223.3,1885.2,2221.4,1884.2z M2233,1878.1c1.1-1.3,1.7-3.1,1.7-5.5v-5c0-2.4-0.6-4.2-1.7-5.5
			s-2.8-1.9-4.8-1.9c-2.1,0-3.7,0.6-4.8,1.9s-1.7,3.1-1.7,5.5v5c0,2.4,0.6,4.2,1.7,5.5c1.1,1.3,2.8,2,4.8,2
			C2230.2,1880,2231.9,1879.4,2233,1878.1z"/>
		<path d="M2265.3,1854.9h6v30.4h-6V1854.9z M2283.5,1866.8c0-2.1-0.5-3.8-1.6-5s-2.5-1.8-4.5-1.8c-2,0-3.5,0.5-4.5,1.6
			c-1.1,1-1.6,2.5-1.6,4.4l-0.6-5.9c0.9-1.8,2.2-3.3,3.7-4.2c1.5-1,3.2-1.5,5-1.5c2.1,0,3.9,0.5,5.4,1.5c1.5,1,2.7,2.4,3.4,4.2
			c0.8,1.9,1.2,4.1,1.2,6.7v18.5h-6V1866.8z M2301.6,1866.8c0-2.1-0.6-3.8-1.7-5s-2.7-1.8-4.7-1.8c-1.9,0-3.3,0.6-4.3,1.7
			c-1,1.1-1.5,2.7-1.5,4.8l-1.2-5.9c1-2,2.2-3.6,3.8-4.7c1.6-1.1,3.3-1.7,5.2-1.7c2.2,0,4.1,0.5,5.6,1.5s2.7,2.4,3.5,4.2
			c0.8,1.9,1.2,4.1,1.2,6.7v18.5h-6V1866.8z"/>
		<path d="M2321.6,1884.2c-1.9-1-3.3-2.5-4.3-4.5c-1-2-1.5-4.4-1.5-7.2v-5c0-2.8,0.5-5.1,1.5-7.1c1-2,2.4-3.5,4.3-4.5
			s4.1-1.5,6.8-1.5s4.9,0.5,6.8,1.5s3.3,2.5,4.3,4.5c1,2,1.5,4.3,1.5,7.1v5c0,2.8-0.5,5.1-1.5,7.1c-1,2-2.4,3.5-4.3,4.5
			c-1.9,1-4.1,1.6-6.8,1.6S2323.4,1885.2,2321.6,1884.2z M2333.2,1878.1c1.1-1.3,1.7-3.1,1.7-5.5v-5c0-2.4-0.6-4.2-1.7-5.5
			s-2.8-1.9-4.8-1.9c-2.1,0-3.7,0.6-4.8,1.9s-1.7,3.1-1.7,5.5v5c0,2.4,0.6,4.2,1.7,5.5c1.1,1.3,2.8,2,4.8,2
			C2330.4,1880,2332,1879.4,2333.2,1878.1z"/>
		<path d="M2367.3,1854.9h6.2l-11.4,30.4h-4.5l-11.4-30.4h6.2l7.4,21.7L2367.3,1854.9z"/>
		<path d="M2387.6,1885.7c0,0-1-0.5-3-1.6s-3.5-2.6-4.6-4.6c-1-2-1.6-4.5-1.6-7.4v-3.4c0-3,0.5-5.6,1.5-7.7c1-2.1,2.5-3.8,4.4-4.9
			c1.9-1.1,4.2-1.7,6.9-1.7c2.5,0,4.7,0.6,6.5,1.9c1.8,1.3,3.2,3.1,4.1,5.5c0.9,2.4,1.4,5.3,1.4,8.6v2h-20.5v-4.8h14.8
			c-0.2-2.5-0.8-4.4-1.9-5.8c-1.1-1.4-2.6-2.1-4.4-2.1c-2.3,0-4,0.7-5.3,2.2c-1.2,1.5-1.9,3.6-1.9,6.3v3.9c0,2.5,0.7,4.5,2,5.8
			c1.3,1.3,3.2,2,5.7,2c1.2,0,2.4-0.2,3.6-0.7c1.2-0.5,2.3-1.2,3.2-2.1l3.9,3.9c-1.5,1.4-3.2,2.6-5.1,3.4s-3.8,1.2-5.7,1.2
			C2389,1885.7,2387.6,1885.7,2387.6,1885.7z"/>
		<path d="M2429,1883.4c-1.9-1.6-2.8-3.9-2.8-7.1c0-3,0.8-5.3,2.5-6.8c1.7-1.5,4.3-2.3,7.7-2.3h8.6l0.4,4.8h-9c-1.6,0-2.7,0.3-3.5,1
			c-0.8,0.7-1.2,1.8-1.2,3.2c0,1.5,0.5,2.7,1.5,3.4c1,0.7,2.6,1.1,4.7,1.1c2.3,0,4-0.2,5.1-0.7c1.1-0.5,1.7-1.2,1.7-2.3l0.6,4.3
			c-0.5,0.8-1.2,1.5-1.9,2c-0.8,0.5-1.7,0.9-2.7,1.2c-1,0.3-2.2,0.4-3.4,0.4C2433.6,1885.7,2430.8,1884.9,2429,1883.4z M2444.8,1866
			c0-2-0.5-3.5-1.6-4.6c-1.1-1.1-2.6-1.7-4.5-1.7c-1.2,0-2.4,0.2-3.6,0.6c-1.2,0.4-2.2,0.9-3.1,1.6l-4.4-3c1.2-1.4,2.7-2.5,4.6-3.2
			c1.9-0.8,4-1.2,6.3-1.2c2.5,0,4.7,0.4,6.5,1.3c1.8,0.9,3.2,2.2,4.1,3.9c0.9,1.7,1.4,3.7,1.4,6.1v19.5h-5.7V1866z"/>
		<path d="M2459.6,1854.9h6v30.4h-6V1854.9z M2474.3,1860.6c-0.8-0.3-1.7-0.5-2.8-0.5c-1.9,0-3.4,0.5-4.4,1.6c-1,1-1.6,2.5-1.6,4.4
			l-0.6-5.9c0.9-1.8,2.1-3.2,3.6-4.2c1.5-1,3.1-1.5,4.9-1.5c1.4,0,2.6,0.2,3.8,0.6c1.1,0.4,2.1,1,2.9,1.8l-3.9,5.3
			C2475.8,1861.4,2475.1,1860.9,2474.3,1860.6z"/>
		<path d="M2490.1,1884.2c-1.9-1-3.3-2.5-4.3-4.5c-1-2-1.5-4.4-1.5-7.2v-5c0-2.8,0.5-5.1,1.5-7.1c1-2,2.4-3.5,4.3-4.5
			s4.1-1.5,6.8-1.5s4.9,0.5,6.8,1.5s3.3,2.5,4.3,4.5c1,2,1.5,4.3,1.5,7.1v5c0,2.8-0.5,5.1-1.5,7.1c-1,2-2.4,3.5-4.3,4.5
			c-1.9,1-4.1,1.6-6.8,1.6S2492,1885.2,2490.1,1884.2z M2501.7,1878.1c1.1-1.3,1.7-3.1,1.7-5.5v-5c0-2.4-0.6-4.2-1.7-5.5
			s-2.8-1.9-4.8-1.9c-2.1,0-3.7,0.6-4.8,1.9s-1.7,3.1-1.7,5.5v5c0,2.4,0.6,4.2,1.7,5.5c1.1,1.3,2.8,2,4.8,2
			C2498.9,1880,2500.6,1879.4,2501.7,1878.1z"/>
		<path d="M2523.9,1873.4c0,2.1,0.5,3.8,1.6,4.9c1.1,1.2,2.6,1.7,4.6,1.7c2,0,3.5-0.5,4.5-1.6c1.1-1,1.6-2.5,1.6-4.4l0.4,6.4
			c-0.6,1.5-1.6,2.8-3,3.8c-1.4,1-3.1,1.5-5.2,1.5c-3.4,0-6-1.1-7.8-3.2c-1.8-2.2-2.7-5.2-2.7-9.1v-18.5h6V1873.4z M2536.2,1854.9
			h5.9v30.4h-5.9V1854.9z"/>
		<path d="M2551.3,1854.9h6v30.4h-6V1854.9z M2569.7,1866.8c0-2.1-0.6-3.8-1.7-5s-2.7-1.8-4.7-1.8c-2,0-3.5,0.5-4.5,1.6
			c-1.1,1-1.6,2.5-1.6,4.4l-0.6-5.9c0.9-1.8,2.2-3.3,3.7-4.2c1.5-1,3.2-1.5,5-1.5c3.3,0,5.9,1.1,7.7,3.2c1.8,2.2,2.7,5.2,2.7,9.2
			v18.5h-6V1866.8z"/>
		<path d="M2588.7,1884.4c-1.6-1-2.8-2.4-3.6-4.2c-0.8-1.9-1.2-4.1-1.2-6.7v-6.7c0-2.6,0.4-4.9,1.2-6.7c0.8-1.9,2-3.3,3.5-4.2
			c1.5-1,3.4-1.5,5.5-1.5c1.8,0,3.4,0.5,4.9,1.4s2.7,2.3,3.6,4l-0.6,6.2c0-1.3-0.2-2.4-0.7-3.3c-0.5-0.9-1.1-1.6-2-2.1
			c-0.9-0.5-2-0.7-3.2-0.7c-2,0-3.5,0.6-4.6,1.8s-1.6,3-1.6,5.2v6.6c0,2.2,0.5,3.9,1.6,5.1s2.6,1.8,4.6,1.8c1.3,0,2.3-0.2,3.2-0.7
			c0.9-0.5,1.6-1.2,2-2.2s0.7-2.1,0.7-3.4l0.4,6.4c-0.6,1.5-1.6,2.8-3,3.8s-3.1,1.5-5.1,1.5
			C2592.2,1885.8,2590.3,1885.3,2588.7,1884.4z M2602.1,1842.7h6v42.6h-6V1842.7z"/>
		<path d="M2629.1,1890.8c2.9-3.3,5.2-7,6.6-11c1.5-4.1,2.2-8.5,2.2-13.4c0-4.9-0.7-9.4-2.2-13.4c-1.5-4.1-3.7-7.7-6.6-11l4.1-3.7
			c3.5,3.8,6.1,8,7.8,12.7c1.7,4.7,2.6,9.8,2.6,15.5c0,5.6-0.9,10.8-2.6,15.5s-4.3,8.9-7.8,12.7L2629.1,1890.8z"/>
	</g>
</g>
<polygon style="opacity:0.46;fill:#45B6FE;stroke:#000000;stroke-miterlimit:10;" points="4773.4,2127.3 4513.7,2127.3 
	4383.9,2352.2 4513.7,2577.1 4773.4,2577.1 4903.2,2352.2 "/>
<polygon style="fill:none;stroke:#000000;stroke-miterlimit:10;" points="4779.2,1603.5 4519.4,1603.5 4389.7,1828.4 4519.4,2053.2 
	4779.2,2053.2 4909,1828.4 "/>
<polygon style="fill:none;stroke:#000000;stroke-miterlimit:10;" points="5252.9,2380.6 4993.2,2380.6 4863.4,2605.5 4993.2,2830.4 
	5252.9,2830.4 5382.7,2605.5 "/>
<polygon style="fill:none;stroke:#000000;stroke-miterlimit:10;" points="4779.2,2646.2 4519.4,2646.2 4389.7,2871.1 4519.4,3096 
	4779.2,3096 4909,2871.1 "/>
<polygon style="fill:none;stroke:#000000;stroke-miterlimit:10;" points="5244.6,1853.1 4985.1,1853.1 4855.1,2078 4985.1,2302.8 
	5244.6,2302.8 5374.4,2078 "/>
<polygon style="fill:none;stroke:#000000;stroke-miterlimit:10;" points="5719.6,2646.2 5459.9,2646.2 5330.1,2871.1 5459.9,3096 
	5719.6,3096 5849.4,2871.1 "/>
<polygon style="fill:none;stroke:#000000;stroke-miterlimit:10;" points="5725.4,3173.5 5465.6,3173.5 5335.9,3398.4 5465.6,3623.3 
	5725.4,3623.3 5855.2,3398.4 "/>
<polygon style="fill:none;stroke:#000000;stroke-miterlimit:10;" points="5703.9,1598.3 5444.4,1598.3 5314.4,1823.1 5444.4,2048 
	5703.9,2048 5833.7,1823.1 "/>
<polygon style="fill:none;stroke:#000000;stroke-miterlimit:10;" points="5711.3,2118.7 5451.8,2118.7 5321.8,2343.5 5451.8,2568.4 
	5711.3,2568.4 5841.1,2343.5 "/>
<polygon style="fill:none;stroke:#000000;stroke-miterlimit:10;" points="6199.1,2899.5 5939.4,2899.5 5809.6,3124.4 5939.4,3349.3 
	6199.1,3349.3 6328.9,3124.4 "/>
<polygon style="fill:none;stroke:#000000;stroke-miterlimit:10;" points="6183.4,1851.6 5923.9,1851.6 5793.9,2076.4 5923.9,2301.3 
	6183.4,2301.3 6313.2,2076.4 "/>
<polygon style="fill:none;stroke:#000000;stroke-miterlimit:10;" points="6190.8,2372 5931.3,2372 5801.3,2596.8 5931.3,2821.7 
	6190.8,2821.7 6320.6,2596.8 "/>
<polygon style="fill:none;stroke:#000000;stroke-miterlimit:10;" points="6859.9,3359.1 7119.4,3360.9 7251,3136.9 7122.5,2911.2 
	6863,2909.4 6731.7,3133.4 "/>
<polygon style="fill:none;stroke:#000000;stroke-miterlimit:10;" points="6395.2,3609.3 6654.7,3611 6786.3,3387.1 6657.8,3161.3 
	6398.3,3159.5 6267,3383.5 "/>
<polygon style="fill:none;stroke:#000000;stroke-miterlimit:10;" points="6391.4,2560.6 6650.9,2562.4 6782.4,2338.4 6653.9,2112.6 
	6394.4,2110.9 6263.2,2334.8 "/>
<polygon style="fill:none;stroke:#000000;stroke-miterlimit:10;" points="4315,2389.9 4055.3,2389.9 3925.5,2614.8 4055.3,2839.7 
	4315,2839.7 4444.8,2614.8 "/>
<polygon style="fill:none;stroke:#000000;stroke-miterlimit:10;" points="3862.5,2127.3 3602.8,2127.3 3473,2352.2 3602.8,2577.1 
	3862.5,2577.1 3992.3,2352.2 "/>
<polygon style="fill:none;stroke:#000000;stroke-miterlimit:10;" points="3411.1,2389.9 3151.4,2389.9 3021.6,2614.8 3151.4,2839.7 
	3411.1,2839.7 3540.9,2614.8 "/>
<polygon style="fill:none;stroke:#000000;stroke-miterlimit:10;" points="2957.3,2137.9 2697.5,2137.9 2567.8,2362.8 2697.5,2587.7 
	2957.3,2587.7 3087.1,2362.8 "/>
<polygon style="fill:none;stroke:#000000;stroke-width:28;stroke-miterlimit:10;" points="6044.2,-1213.1 2326,-1213.1 
	468.7,2005.8 2326,5224.7 6044.2,5224.7 7901.6,2005.8 "/>
<path style="fill:none;stroke:#000000;stroke-miterlimit:10;" d="M3057.9,2602.5c34.2-58.7,68.4-117.4,102.6-176.2"/>
<path style="fill:none;stroke:#000000;stroke-miterlimit:10;" d="M3967.6,2605.7c34.2-58.7,68.4-117.4,102.6-176.2"/>
<g>
	<line x1="2416.5" y1="2527.7" x2="2567.8" y2="2451.1"/>
	<g>
		<line style="fill:none;stroke:#000000;stroke-width:7;stroke-miterlimit:10;" x1="2416.5" y1="2527.7" x2="2542.9" y2="2463.7"/>
		<g>
			<path d="M2567.8,2451.1c-9.5,10.3-20.3,25-25.3,37.4l-2.8-23.2l-17-16C2535.6,2452.6,2553.9,2452.7,2567.8,2451.1z"/>
		</g>
	</g>
</g>
<g>
	<g>
		<path d="M3177.3,2595.9h5.6v42.6h-5.8v-31.9l0.3,1.9l-10.5,24.1h-4.2l-10.5-23.5l0.3-2.5v31.9h-5.8v-42.6h5.6l12.5,28.1
			L3177.3,2595.9z"/>
		<path d="M3197.8,2637.4c-1.9-1-3.3-2.5-4.3-4.5c-1-2-1.5-4.4-1.5-7.2v-5c0-2.8,0.5-5.1,1.5-7.1c1-2,2.4-3.5,4.3-4.5
			s4.1-1.5,6.8-1.5s4.9,0.5,6.8,1.5s3.3,2.5,4.3,4.5c1,2,1.5,4.3,1.5,7.1v5c0,2.8-0.5,5.1-1.5,7.1c-1,2-2.4,3.5-4.3,4.5
			s-4.1,1.6-6.8,1.6S3199.7,2638.4,3197.8,2637.4z M3209.4,2631.3c1.1-1.3,1.7-3.1,1.7-5.5v-5c0-2.4-0.6-4.2-1.7-5.5
			s-2.8-1.9-4.8-1.9c-2.1,0-3.7,0.6-4.8,1.9s-1.7,3.1-1.7,5.5v5c0,2.4,0.6,4.2,1.7,5.5s2.8,2,4.8,2
			C3206.6,2633.2,3208.3,2632.6,3209.4,2631.3z"/>
		<path d="M3243.5,2608.1h6.2l-11.4,30.4h-4.5l-11.4-30.4h6.2l7.4,21.7L3243.5,2608.1z"/>
		<path d="M3263.8,2638.9c0,0-1-0.5-3-1.6s-3.5-2.6-4.6-4.6c-1-2-1.6-4.5-1.6-7.4v-3.4c0-3,0.5-5.6,1.5-7.7c1-2.1,2.5-3.8,4.4-4.9
			c1.9-1.1,4.2-1.7,6.9-1.7c2.5,0,4.7,0.6,6.5,1.9c1.8,1.3,3.2,3.1,4.1,5.5c0.9,2.4,1.4,5.3,1.4,8.6v2H3259v-4.8h14.8
			c-0.2-2.5-0.8-4.4-1.9-5.8c-1.1-1.4-2.6-2.1-4.4-2.1c-2.3,0-4,0.7-5.3,2.2c-1.2,1.5-1.9,3.6-1.9,6.3v3.9c0,2.5,0.7,4.5,2,5.8
			c1.3,1.3,3.2,2,5.7,2c1.2,0,2.4-0.2,3.6-0.7c1.2-0.5,2.3-1.2,3.2-2.1l3.9,3.9c-1.5,1.4-3.2,2.6-5.1,3.4s-3.8,1.2-5.7,1.2
			C3265.2,2638.9,3263.8,2638.9,3263.8,2638.9z"/>
		<path d="M3303.9,2595.9h6v42.6h-6V2595.9z M3322.3,2620c0-2.1-0.6-3.8-1.7-5s-2.7-1.8-4.7-1.8c-2,0-3.5,0.5-4.5,1.5
			c-1.1,1-1.6,2.5-1.6,4.3l-0.6-5.9c0.9-1.8,2.2-3.2,3.7-4.2c1.5-1,3.2-1.5,5-1.5c3.3,0,5.9,1.1,7.7,3.2c1.8,2.2,2.7,5.2,2.7,9.2
			v18.5h-6V2620z"/>
		<path d="M3345.6,2638.9c0,0-1-0.5-3-1.6s-3.5-2.6-4.6-4.6c-1-2-1.6-4.5-1.6-7.4v-3.4c0-3,0.5-5.6,1.5-7.7c1-2.1,2.5-3.8,4.4-4.9
			c1.9-1.1,4.2-1.7,6.9-1.7c2.5,0,4.7,0.6,6.5,1.9c1.8,1.3,3.2,3.1,4.1,5.5c0.9,2.4,1.4,5.3,1.4,8.6v2h-20.5v-4.8h14.8
			c-0.2-2.5-0.8-4.4-1.9-5.8c-1.1-1.4-2.6-2.1-4.4-2.1c-2.3,0-4,0.7-5.3,2.2c-1.2,1.5-1.9,3.6-1.9,6.3v3.9c0,2.5,0.7,4.5,2,5.8
			c1.3,1.3,3.2,2,5.7,2c1.2,0,2.4-0.2,3.6-0.7c1.2-0.5,2.3-1.2,3.2-2.1l3.9,3.9c-1.5,1.4-3.2,2.6-5.1,3.4s-3.8,1.2-5.7,1.2
			C3347,2638.9,3345.6,2638.9,3345.6,2638.9z"/>
		<path d="M3369.6,2608.1h6v30.4h-6V2608.1z M3384.3,2613.8c-0.8-0.3-1.7-0.5-2.8-0.5c-1.9,0-3.4,0.5-4.4,1.6c-1,1-1.6,2.5-1.6,4.4
			l-0.6-5.9c0.9-1.8,2.1-3.2,3.6-4.2c1.5-1,3.1-1.5,4.9-1.5c1.4,0,2.6,0.2,3.8,0.6c1.1,0.4,2.1,1,2.9,1.8l-3.9,5.3
			C3385.8,2614.6,3385.1,2614.1,3384.3,2613.8z"/>
		<path d="M3403.4,2638.9c0,0-1-0.5-3-1.6s-3.5-2.6-4.6-4.6c-1-2-1.6-4.5-1.6-7.4v-3.4c0-3,0.5-5.6,1.5-7.7c1-2.1,2.5-3.8,4.4-4.9
			c1.9-1.1,4.2-1.7,6.9-1.7c2.5,0,4.7,0.6,6.5,1.9c1.8,1.3,3.2,3.1,4.1,5.5c0.9,2.4,1.4,5.3,1.4,8.6v2h-20.5v-4.8h14.8
			c-0.2-2.5-0.8-4.4-1.9-5.8c-1.1-1.4-2.6-2.1-4.4-2.1c-2.3,0-4,0.7-5.3,2.2c-1.2,1.5-1.9,3.6-1.9,6.3v3.9c0,2.5,0.7,4.5,2,5.8
			c1.3,1.3,3.2,2,5.7,2c1.2,0,2.4-0.2,3.6-0.7c1.2-0.5,2.3-1.2,3.2-2.1l3.9,3.9c-1.5,1.4-3.2,2.6-5.1,3.4s-3.8,1.2-5.7,1.2
			C3404.8,2638.9,3403.4,2638.9,3403.4,2638.9z"/>
	</g>
</g>
<polygon style="fill:none;stroke:#000000;stroke-miterlimit:10;" points="5922.1,1779.1 6181.6,1780.9 6313.2,1556.9 6184.7,1331.2 
	5925.2,1329.4 5793.9,1553.4 "/>
<polygon style="fill:none;stroke:#000000;stroke-miterlimit:10;" points="6395.2,2032.4 6654.7,2034.1 6786.3,1810.2 6657.8,1584.4 
	6398.3,1582.6 6267,1806.6 "/>
<polygon style="fill:none;stroke:#000000;stroke-miterlimit:10;" points="6391.4,3084.9 6650.9,3086.7 6782.4,2862.7 6653.9,2637 
	6394.4,2635.2 6263.2,2859.2 "/>
<polygon style="fill:none;stroke:#000000;stroke-miterlimit:10;" points="5252.9,2908.2 4993.2,2908.2 4863.4,3133.1 4993.2,3357.9 
	5252.9,3357.9 5382.7,3133.1 "/>
<polygon style="fill:none;stroke:#000000;stroke-miterlimit:10;" points="5244.6,1325.5 4985.1,1325.5 4855.1,1550.4 4985.1,1775.3 
	5244.6,1775.3 5374.4,1550.4 "/>
<polygon style="fill:none;stroke:#000000;stroke-miterlimit:10;" points="5450,1525.8 5709.5,1527.6 5841.1,1303.6 5712.6,1077.9 
	5453.1,1076.1 5321.8,1300.1 "/>
<polygon style="fill:none;stroke:#000000;stroke-miterlimit:10;" points="5922.1,1257 6181.6,1258.7 6313.2,1034.8 6184.7,809 
	5925.2,807.2 5793.9,1031.2 "/>
<polygon style="fill:none;stroke:#000000;stroke-miterlimit:10;" points="6395.2,1504.1 6654.7,1505.9 6786.3,1281.9 6657.8,1056.2 
	6398.3,1054.4 6267,1278.4 "/>
<polygon style="fill:none;stroke:#000000;stroke-miterlimit:10;" points="6863.9,2302.4 7123.4,2304.1 7255,2080.2 7126.5,1854.4 
	6867,1852.6 6735.7,2076.6 "/>
<polygon style="fill:none;stroke:#000000;stroke-miterlimit:10;" points="6867.8,1774.1 7127.3,1775.9 7258.8,1551.9 7130.3,1326.2 
	6870.8,1324.4 6739.5,1548.4 "/>
<polygon style="fill:none;stroke:#000000;stroke-miterlimit:10;" points="6863.9,2826.7 7123.4,2828.5 7255,2604.5 7126.5,2378.7 
	6867,2377 6735.7,2600.9 "/>
<g>
	<g>
		<path d="M4475.4,2370.5c-2.2-1.2-3.9-3-5.1-5.4s-1.8-5.2-1.8-8.6v-27.2h6v27.4c0,3.1,0.8,5.5,2.3,7.2c1.6,1.7,3.8,2.5,6.6,2.5
			c2.9,0,5.1-0.8,6.7-2.5c1.6-1.7,2.4-4.1,2.4-7.2v-27.4h6v27.2c0,3.3-0.6,6.2-1.8,8.6s-2.9,4.2-5.1,5.4c-2.2,1.2-5,1.9-8.1,1.9
			C4480.3,2372.4,4477.7,2371.8,4475.4,2370.5z"/>
		<path d="M4507.9,2341.5h6v30.4h-6V2341.5z M4526.3,2353.5c0-2.1-0.6-3.8-1.7-5s-2.7-1.8-4.7-1.8c-2,0-3.5,0.5-4.5,1.6
			c-1.1,1-1.6,2.5-1.6,4.4l-0.6-5.9c0.9-1.8,2.2-3.3,3.7-4.2c1.5-1,3.2-1.5,5-1.5c3.3,0,5.9,1.1,7.7,3.2c1.8,2.2,2.7,5.2,2.7,9.2
			v18.5h-6V2353.5z"/>
		<path d="M4541.4,2329.4h6v6h-6V2329.4z M4541.4,2341.5h6v30.4h-6V2341.5z"/>
		<path d="M4554.1,2341.5h13.7v5.4h-13.7V2341.5z M4558.9,2370.1c-1.1-1.4-1.7-3.4-1.7-6v-31.3h6v31.4c0,0.7,0.1,1.3,0.4,1.7
			s0.7,0.6,1.3,0.6h2.9v5.7h-3.5C4561.9,2372.1,4560.1,2371.4,4558.9,2370.1z"/>
		<path d="M4584.2,2372.4c0,0-1-0.5-3-1.6s-3.5-2.6-4.6-4.6c-1-2-1.6-4.5-1.6-7.4v-3.4c0-3,0.5-5.6,1.5-7.7c1-2.1,2.5-3.8,4.4-4.9
			c1.9-1.1,4.2-1.7,6.9-1.7c2.5,0,4.7,0.6,6.5,1.9c1.8,1.3,3.2,3.1,4.1,5.5c0.9,2.4,1.4,5.3,1.4,8.6v2h-20.5v-4.8h14.8
			c-0.2-2.5-0.8-4.4-1.9-5.8c-1.1-1.4-2.6-2.1-4.4-2.1c-2.3,0-4,0.7-5.3,2.2c-1.2,1.5-1.9,3.6-1.9,6.3v3.9c0,2.5,0.7,4.5,2,5.8
			c1.3,1.3,3.2,2,5.7,2c1.2,0,2.4-0.2,3.6-0.7c1.2-0.5,2.3-1.2,3.2-2.1l3.9,3.9c-1.5,1.4-3.2,2.6-5.1,3.4s-3.8,1.2-5.7,1.2
			C4585.6,2372.4,4584.2,2372.4,4584.2,2372.4z"/>
		<path d="M4612.1,2371c-1.6-1-2.8-2.4-3.6-4.2s-1.2-4.1-1.2-6.7v-6.7c0-2.6,0.4-4.9,1.2-6.7c0.8-1.9,2-3.3,3.5-4.2
			c1.5-1,3.4-1.5,5.5-1.5c1.8,0,3.4,0.5,4.9,1.4s2.7,2.3,3.6,4l-0.6,6.2c0-1.3-0.2-2.4-0.7-3.3s-1.1-1.6-2-2.1
			c-0.9-0.5-2-0.7-3.2-0.7c-2,0-3.5,0.6-4.6,1.8s-1.6,3-1.6,5.2v6.6c0,2.2,0.5,3.9,1.6,5.1s2.6,1.8,4.6,1.8c1.3,0,2.3-0.2,3.2-0.7
			c0.9-0.5,1.6-1.2,2-2.2s0.7-2.1,0.7-3.4l0.4,6.4c-0.6,1.5-1.6,2.8-3,3.8s-3.1,1.5-5.1,1.5C4615.6,2372.5,4613.7,2372,4612.1,2371z
			 M4625.5,2329.4h6v42.6h-6V2329.4z"/>
		<path d="M4666.9,2372.4c0,0-0.9-0.2-2.8-0.6c-1.8-0.4-3.5-1-5.1-1.8c-1.6-0.8-3.1-1.8-4.5-2.9l3.7-4.6c1.6,1.4,3.4,2.5,5.4,3.2
			c2,0.7,4.1,1.1,6.4,1.1c3.1,0,5.5-0.6,7.2-1.7s2.5-2.8,2.5-4.8v0c0-1.5-0.4-2.7-1.2-3.5c-0.8-0.9-1.8-1.5-3-1.9
			c-1.2-0.4-2.8-0.8-4.7-1.2c-0.1,0-0.1,0-0.2,0c-0.1,0-0.1,0-0.2,0l-0.4-0.1c-2.9-0.5-5.2-1-7-1.7s-3.3-1.7-4.6-3.4
			c-1.3-1.6-1.9-4-1.9-7v0c0-2.6,0.6-4.9,1.8-6.8c1.2-1.9,2.9-3.3,5.2-4.3c2.3-1,5-1.5,8.2-1.5c1.5,0,3,0.2,4.5,0.5
			c1.5,0.3,2.9,0.8,4.4,1.5s2.8,1.5,4.2,2.5l-3.4,4.7c-1.6-1.2-3.2-2.1-4.8-2.7s-3.2-0.9-4.8-0.9c-2.9,0-5.2,0.6-6.8,1.7
			s-2.4,2.8-2.4,4.9v0c0,1.5,0.4,2.6,1.2,3.5c0.8,0.8,1.9,1.5,3.1,1.9c1.2,0.4,3,0.8,5.2,1.2c0.1,0,0.2,0,0.2,0c0.1,0,0.1,0,0.2,0
			c0.1,0,0.2,0,0.3,0.1s0.2,0,0.3,0.1c2.6,0.5,4.7,1.2,6.5,1.9s3.2,1.9,4.3,3.5c1.2,1.6,1.7,3.8,1.7,6.6v0.1c0,2.6-0.6,4.8-1.8,6.7
			s-3,3.3-5.3,4.2c-2.3,1-5.2,1.5-8.5,1.5C4668,2372.4,4666.9,2372.4,4666.9,2372.4z"/>
		<path d="M4691.2,2341.5h13.7v5.4h-13.7V2341.5z M4696.1,2370.1c-1.1-1.4-1.7-3.4-1.7-6v-31.3h6v31.4c0,0.7,0.1,1.3,0.4,1.7
			s0.7,0.6,1.3,0.6h2.9v5.7h-3.5C4699,2372.1,4697.2,2371.4,4696.1,2370.1z"/>
		<path d="M4714.5,2370.1c-1.9-1.6-2.8-3.9-2.8-7.1c0-3,0.8-5.3,2.5-6.8s4.3-2.3,7.7-2.3h8.6l0.4,4.8h-9c-1.6,0-2.7,0.3-3.5,1
			c-0.8,0.7-1.2,1.8-1.2,3.2c0,1.5,0.5,2.7,1.5,3.4s2.6,1.1,4.7,1.1c2.3,0,4-0.2,5.1-0.7c1.1-0.5,1.7-1.3,1.7-2.3l0.6,4.3
			c-0.5,0.8-1.2,1.5-1.9,2c-0.8,0.5-1.7,0.9-2.7,1.2c-1,0.3-2.2,0.4-3.4,0.4C4719.1,2372.4,4716.3,2371.6,4714.5,2370.1z
			 M4730.3,2352.7c0-2-0.5-3.5-1.6-4.6c-1.1-1.1-2.6-1.7-4.5-1.7c-1.2,0-2.4,0.2-3.6,0.6c-1.2,0.4-2.2,0.9-3.1,1.6l-4.4-3
			c1.2-1.4,2.7-2.5,4.6-3.2c1.9-0.8,4-1.2,6.3-1.2c2.5,0,4.7,0.4,6.5,1.3c1.8,0.9,3.2,2.2,4.1,3.9s1.4,3.7,1.4,6.1v19.5h-5.7V2352.7
			z"/>
		<path d="M4742.7,2341.5h13.7v5.4h-13.7V2341.5z M4747.6,2370.1c-1.1-1.4-1.7-3.4-1.7-6v-31.3h6v31.4c0,0.7,0.1,1.3,0.4,1.7
			s0.7,0.6,1.3,0.6h2.9v5.7h-3.5C4750.5,2372.1,4748.7,2371.4,4747.6,2370.1z"/>
		<path d="M4772.9,2372.4c0,0-1-0.5-3-1.6s-3.5-2.6-4.6-4.6c-1-2-1.6-4.5-1.6-7.4v-3.4c0-3,0.5-5.6,1.5-7.7c1-2.1,2.5-3.8,4.4-4.9
			c1.9-1.1,4.2-1.7,6.9-1.7c2.5,0,4.7,0.6,6.5,1.9c1.8,1.3,3.2,3.1,4.1,5.5c0.9,2.4,1.4,5.3,1.4,8.6v2h-20.5v-4.8h14.8
			c-0.2-2.5-0.8-4.4-1.9-5.8c-1.1-1.4-2.6-2.1-4.4-2.1c-2.3,0-4,0.7-5.3,2.2c-1.2,1.5-1.9,3.6-1.9,6.3v3.9c0,2.5,0.7,4.5,2,5.8
			c1.3,1.3,3.2,2,5.7,2c1.2,0,2.4-0.2,3.6-0.7c1.2-0.5,2.3-1.2,3.2-2.1l3.9,3.9c-1.5,1.4-3.2,2.6-5.1,3.4s-3.8,1.2-5.7,1.2
			C4774.3,2372.4,4772.9,2372.4,4772.9,2372.4z"/>
		<path d="M4804.9,2372.4c0,0-0.8-0.2-2.4-0.5c-1.6-0.4-3-0.9-4.4-1.6c-1.4-0.7-2.6-1.6-3.8-2.6l3.5-4.4c1.6,1.3,3.3,2.2,4.9,2.8
			c1.6,0.6,3.2,0.9,4.8,0.9c2.4,0,4.1-0.4,5.3-1.1c1.2-0.7,1.8-1.8,1.8-3.3c0-1-0.3-1.7-1-2.2s-1.4-0.8-2.4-1c-1-0.2-2.3-0.3-4-0.5
			c-0.2,0-0.3,0-0.5,0s-0.3,0-0.5,0c-0.1,0-0.2,0-0.2,0c-0.1,0-0.2,0-0.2,0c-2-0.2-3.6-0.4-5-0.9c-1.4-0.4-2.5-1.2-3.4-2.4
			s-1.4-2.8-1.4-5s0.4-3.9,1.3-5.4s2.2-2.5,3.9-3.2c1.7-0.7,3.9-1.1,6.5-1.1c1.6,0,3.1,0.1,4.5,0.4s2.8,0.7,4.1,1.3
			c1.3,0.6,2.6,1.3,3.8,2.2l-3.6,4.4c-1.5-1-3-1.7-4.5-2.2c-1.5-0.5-2.9-0.7-4.3-0.7c-2,0-3.6,0.3-4.6,1c-1,0.7-1.5,1.7-1.5,3.1
			c0,0.8,0.3,1.4,0.9,1.8c0.6,0.4,1.3,0.7,2.2,0.8s2.1,0.3,3.8,0.4c0.1,0,0.2,0,0.4,0c0.1,0,0.3,0,0.4,0c0.1,0,0.1,0,0.2,0
			s0.1,0,0.2,0c2.1,0.1,3.9,0.4,5.4,0.8s2.7,1.3,3.8,2.5c1,1.3,1.5,3.1,1.5,5.5c0,2.2-0.5,4-1.4,5.4s-2.3,2.5-4.2,3.2
			c-1.9,0.7-4.3,1.1-7.1,1.1C4805.8,2372.4,4804.9,2372.4,4804.9,2372.4z"/>
	</g>
</g>
<g>
	<g>
		<path d="M5498.4,1281h6v42.6h-6V1281z M5502.5,1317.9h9.6c3.1,0,5.6-0.8,7.3-2.4c1.7-1.6,2.6-3.9,2.6-6.9V1296
			c0-3-0.9-5.3-2.6-6.9c-1.7-1.6-4.2-2.4-7.3-2.4h-9.6v-5.7h9.5c3.4,0,6.3,0.6,8.8,1.8c2.4,1.2,4.3,2.9,5.5,5.2
			c1.3,2.3,1.9,5,1.9,8.3v12.1c0,3.2-0.6,6-1.9,8.3c-1.3,2.3-3.1,4-5.6,5.2c-2.4,1.2-5.4,1.8-8.8,1.8h-9.4V1317.9z"/>
		<path d="M5537.2,1293.2h6v30.4h-6V1293.2z M5552,1298.9c-0.8-0.3-1.7-0.5-2.8-0.5c-1.9,0-3.4,0.5-4.4,1.6c-1,1-1.6,2.5-1.6,4.4
			l-0.6-5.9c0.9-1.8,2.1-3.2,3.6-4.2c1.5-1,3.1-1.5,4.9-1.5c1.4,0,2.6,0.2,3.8,0.6c1.1,0.4,2.1,1,2.9,1.8l-3.9,5.3
			C5553.4,1299.7,5552.8,1299.2,5552,1298.9z"/>
		<path d="M5568.8,1311.7c0,2.1,0.5,3.8,1.6,4.9c1.1,1.2,2.6,1.7,4.6,1.7c2,0,3.5-0.5,4.5-1.6c1.1-1,1.6-2.5,1.6-4.4l0.4,6.4
			c-0.6,1.5-1.6,2.8-3,3.8c-1.4,1-3.1,1.5-5.2,1.5c-3.4,0-6-1.1-7.8-3.2c-1.8-2.2-2.7-5.2-2.7-9.1v-18.5h6V1311.7z M5581.2,1293.2
			h5.9v30.4h-5.9V1293.2z"/>
		<path d="M5600.1,1322.7c-1.6-1-2.8-2.4-3.6-4.2c-0.8-1.9-1.2-4.1-1.2-6.7v-6.7c0-2.6,0.4-4.9,1.2-6.7c0.8-1.9,2-3.3,3.5-4.2
			c1.5-1,3.4-1.5,5.5-1.5c1.8,0,3.4,0.5,4.9,1.4s2.7,2.3,3.6,4l-0.6,6.2c0-1.3-0.2-2.4-0.7-3.3c-0.5-0.9-1.1-1.6-2-2.1
			c-0.9-0.5-2-0.7-3.2-0.7c-2,0-3.5,0.6-4.6,1.8s-1.6,3-1.6,5.2v6.6c0,2.2,0.5,3.9,1.6,5.1s2.6,1.8,4.6,1.8c1.3,0,2.3-0.2,3.2-0.7
			c0.9-0.5,1.6-1.2,2-2.2s0.7-2.1,0.7-3.4l0.4,6.4c-0.6,1.5-1.6,2.8-3,3.8s-3.1,1.5-5.1,1.5
			C5603.6,1324.1,5601.7,1323.6,5600.1,1322.7z M5603,1335.9c0,0-0.9-0.4-2.7-1.3c-1.8-0.8-3.2-2-4.2-3.6l4-3.7
			c0.8,1.1,1.7,1.9,2.8,2.5s2.2,0.9,3.4,0.9c2.3,0,4.1-0.6,5.3-1.9c1.2-1.3,1.9-3,1.9-5.3v-30.4h6v29.5c0,2.8-0.5,5.2-1.5,7.2
			s-2.5,3.5-4.5,4.5c-2,1-4.3,1.6-7.1,1.6C5604.1,1335.9,5603,1335.9,5603,1335.9z"/>
		<path d="M5636.6,1324c0,0-0.8-0.2-2.4-0.5c-1.6-0.4-3-0.9-4.4-1.6c-1.4-0.7-2.6-1.6-3.8-2.6l3.5-4.4c1.6,1.3,3.3,2.2,4.9,2.8
			c1.6,0.6,3.2,0.9,4.8,0.9c2.4,0,4.1-0.4,5.3-1.1c1.2-0.7,1.8-1.8,1.8-3.3c0-1-0.3-1.7-1-2.2c-0.6-0.5-1.4-0.8-2.4-1
			c-1-0.2-2.3-0.3-4-0.5c-0.2,0-0.3,0-0.5,0c-0.2,0-0.3,0-0.5,0c-0.1,0-0.2,0-0.2,0c-0.1,0-0.2,0-0.2,0c-2-0.2-3.6-0.4-5-0.9
			c-1.4-0.4-2.5-1.2-3.4-2.4c-0.9-1.2-1.4-2.8-1.4-5c0-2.1,0.4-3.9,1.3-5.4c0.9-1.4,2.2-2.5,3.9-3.2c1.7-0.7,3.9-1.1,6.5-1.1
			c1.6,0,3.1,0.1,4.5,0.4s2.8,0.7,4.1,1.3c1.3,0.6,2.6,1.3,3.8,2.2l-3.6,4.4c-1.5-1-3-1.7-4.5-2.2c-1.5-0.5-2.9-0.7-4.3-0.7
			c-2,0-3.6,0.3-4.6,1c-1,0.7-1.5,1.7-1.5,3.1c0,0.8,0.3,1.4,0.9,1.8c0.6,0.4,1.3,0.7,2.2,0.8c0.9,0.1,2.1,0.3,3.8,0.4
			c0.1,0,0.2,0,0.4,0c0.1,0,0.3,0,0.4,0c0.1,0,0.1,0,0.2,0s0.1,0,0.2,0c2.1,0.1,3.9,0.4,5.4,0.8c1.5,0.4,2.7,1.3,3.8,2.5
			c1,1.3,1.5,3.1,1.5,5.5c0,2.2-0.5,4-1.4,5.4s-2.3,2.5-4.2,3.2c-1.9,0.7-4.3,1.1-7.1,1.1C5637.5,1324,5636.6,1324,5636.6,1324z"/>
	</g>
</g>
<g>
	<g>
		<path d="M5961.6,1535.3h6.5l10.2,33.4l10.2-33.4h6.5l-13.9,42.6h-5.7L5961.6,1535.3z"/>
		<path d="M6000.7,1535.3h6v6h-6V1535.3z M6000.7,1547.5h6v30.4h-6V1547.5z"/>
		<path d="M6020.6,1576.8c-1.9-1-3.3-2.5-4.3-4.5c-1-2-1.5-4.4-1.5-7.2v-5c0-2.8,0.5-5.1,1.5-7.1c1-2,2.4-3.5,4.3-4.5
			s4.1-1.5,6.8-1.5s4.9,0.5,6.8,1.5s3.3,2.5,4.3,4.5c1,2,1.5,4.3,1.5,7.1v5c0,2.8-0.5,5.1-1.5,7.1c-1,2-2.4,3.5-4.3,4.5
			c-1.9,1-4.1,1.6-6.8,1.6S6022.5,1577.8,6020.6,1576.8z M6032.2,1570.7c1.1-1.3,1.7-3.1,1.7-5.5v-5c0-2.4-0.6-4.2-1.7-5.5
			s-2.8-1.9-4.8-1.9c-2.1,0-3.7,0.6-4.8,1.9s-1.7,3.1-1.7,5.5v5c0,2.4,0.6,4.2,1.7,5.5c1.1,1.3,2.8,2,4.8,2
			C6029.5,1572.6,6031.1,1572,6032.2,1570.7z"/>
		<path d="M6054.4,1570c0,0.7,0.2,1.3,0.5,1.7c0.3,0.4,0.8,0.6,1.4,0.6h2.8v5.7h-3.5c-2.3,0-4-0.7-5.3-2.1c-1.2-1.4-1.9-3.4-1.9-5.9
			v-34.7h6V1570z"/>
		<path d="M6074,1578.3c0,0-1-0.5-3-1.6s-3.5-2.6-4.6-4.6c-1-2-1.6-4.5-1.6-7.4v-3.4c0-3,0.5-5.6,1.5-7.7c1-2.1,2.5-3.8,4.4-4.9
			s4.2-1.7,6.9-1.7c2.5,0,4.7,0.6,6.5,1.9c1.8,1.3,3.2,3.1,4.1,5.5s1.4,5.3,1.4,8.6v2h-20.5v-4.8h14.8c-0.2-2.5-0.8-4.4-1.9-5.8
			s-2.6-2.1-4.4-2.1c-2.3,0-4,0.7-5.3,2.2c-1.2,1.5-1.9,3.6-1.9,6.3v3.9c0,2.5,0.7,4.5,2,5.8s3.2,2,5.7,2c1.2,0,2.4-0.2,3.6-0.7
			c1.2-0.5,2.3-1.2,3.2-2.1l3.9,3.9c-1.5,1.4-3.2,2.6-5.1,3.4s-3.8,1.2-5.7,1.2C6075.4,1578.3,6074,1578.3,6074,1578.3z"/>
		<path d="M6097.9,1547.5h6v30.4h-6V1547.5z M6116.4,1559.4c0-2.1-0.6-3.8-1.7-5s-2.7-1.8-4.7-1.8c-2,0-3.5,0.5-4.5,1.6
			c-1.1,1-1.6,2.5-1.6,4.4l-0.6-5.9c0.9-1.8,2.2-3.3,3.7-4.2s3.2-1.5,5-1.5c3.3,0,5.9,1.1,7.7,3.2c1.8,2.2,2.7,5.2,2.7,9.2v18.5h-6
			V1559.4z"/>
		<path d="M6129.1,1547.5h13.7v5.4h-13.7V1547.5z M6134,1576c-1.1-1.4-1.7-3.4-1.7-6v-31.3h6v31.4c0,0.7,0.1,1.3,0.4,1.7
			c0.3,0.4,0.7,0.6,1.3,0.6h2.9v5.7h-3.5C6136.9,1578,6135.1,1577.3,6134,1576z"/>
	</g>
</g>
<g>
	<g>
		<path d="M5941.5,2052.9h6v42.6h-6V2052.9z M5944.6,2073.3h13.6c1.3,0,2.4-0.3,3.4-0.9c1-0.6,1.7-1.5,2.3-2.6
			c0.5-1.1,0.8-2.4,0.8-3.8c0-1.5-0.3-2.8-0.8-3.9c-0.5-1.1-1.3-2-2.3-2.6c-1-0.6-2.1-0.9-3.4-0.9h-13.6v-5.7h13.4
			c2.5,0,4.8,0.5,6.7,1.6s3.4,2.6,4.5,4.6c1.1,2,1.6,4.3,1.6,6.9c0,2.6-0.5,4.9-1.6,6.8c-1.1,2-2.6,3.5-4.5,4.6
			c-1.9,1.1-4.2,1.6-6.7,1.6h-13.4V2073.3z"/>
		<path d="M5978.3,2065.1h6v30.4h-6V2065.1z M5993,2070.9c-0.8-0.3-1.7-0.5-2.8-0.5c-1.9,0-3.4,0.5-4.4,1.6c-1,1-1.6,2.5-1.6,4.4
			l-0.6-5.9c0.9-1.8,2.1-3.2,3.6-4.2c1.5-1,3.1-1.5,4.9-1.5c1.4,0,2.6,0.2,3.8,0.6c1.1,0.4,2.1,1,2.9,1.8l-3.9,5.3
			C5994.5,2071.7,5993.8,2071.2,5993,2070.9z"/>
		<path d="M6008.8,2094.4c-1.9-1-3.3-2.5-4.3-4.5c-1-2-1.5-4.4-1.5-7.2v-5c0-2.8,0.5-5.1,1.5-7.1c1-2,2.4-3.5,4.3-4.5
			s4.1-1.5,6.8-1.5s4.9,0.5,6.8,1.5s3.3,2.5,4.3,4.5c1,2,1.5,4.3,1.5,7.1v5c0,2.8-0.5,5.1-1.5,7.1c-1,2-2.4,3.5-4.3,4.5
			s-4.1,1.6-6.8,1.6S6010.7,2095.5,6008.8,2094.4z M6020.4,2088.3c1.1-1.3,1.7-3.1,1.7-5.5v-5c0-2.4-0.6-4.2-1.7-5.5
			s-2.8-1.9-4.8-1.9c-2.1,0-3.7,0.6-4.8,1.9s-1.7,3.1-1.7,5.5v5c0,2.4,0.6,4.2,1.7,5.5c1.1,1.3,2.8,2,4.8,2
			C6017.6,2090.3,6019.3,2089.6,6020.4,2088.3z"/>
		<path d="M6036.6,2065.1h6v42.8h-6V2065.1z M6045.3,2094.6c-1.4-0.9-2.4-2.2-3.1-3.9l0.4-6.4c0,1.3,0.2,2.4,0.7,3.3
			c0.5,0.9,1.1,1.6,2,2.1c0.9,0.5,2,0.7,3.2,0.7c2,0,3.5-0.6,4.6-1.8s1.6-2.9,1.6-5.1v-6.6c0-2.2-0.5-4-1.6-5.2s-2.6-1.8-4.6-1.8
			c-1.3,0-2.3,0.2-3.2,0.7c-0.9,0.5-1.6,1.2-2,2.1s-0.7,2-0.7,3.3l-0.6-5.9c0.9-1.8,2.1-3.1,3.6-4.1c1.5-1,3.1-1.5,5-1.5
			c2.1,0,4,0.5,5.5,1.5s2.7,2.4,3.5,4.2c0.8,1.9,1.2,4.1,1.2,6.7v6.6c0,2.6-0.4,4.8-1.2,6.6c-0.8,1.8-2,3.2-3.6,4.2
			s-3.5,1.5-5.7,1.5C6048.3,2096,6046.7,2095.5,6045.3,2094.6z"/>
		<path d="M6077.5,2096c0,0-1-0.5-3-1.6s-3.5-2.6-4.6-4.6c-1-2-1.6-4.5-1.6-7.4v-3.4c0-3,0.5-5.6,1.5-7.7c1-2.1,2.5-3.8,4.4-4.9
			s4.2-1.7,6.9-1.7c2.5,0,4.7,0.6,6.5,1.9c1.8,1.3,3.2,3.1,4.1,5.5s1.4,5.3,1.4,8.6v2h-20.5v-4.8h14.8c-0.2-2.5-0.8-4.4-1.9-5.8
			s-2.6-2.1-4.4-2.1c-2.3,0-4,0.7-5.3,2.2c-1.2,1.5-1.9,3.6-1.9,6.3v3.9c0,2.5,0.7,4.5,2,5.8s3.2,2,5.7,2c1.2,0,2.4-0.2,3.6-0.7
			s2.3-1.2,3.2-2.1l3.9,3.9c-1.5,1.4-3.2,2.6-5.1,3.4s-3.8,1.2-5.7,1.2C6078.9,2096,6077.5,2096,6077.5,2096z"/>
		<path d="M6101.4,2065.1h6v30.4h-6V2065.1z M6116.1,2070.9c-0.8-0.3-1.7-0.5-2.8-0.5c-1.9,0-3.4,0.5-4.4,1.6c-1,1-1.6,2.5-1.6,4.4
			l-0.6-5.9c0.9-1.8,2.1-3.2,3.6-4.2c1.5-1,3.1-1.5,4.9-1.5c1.4,0,2.6,0.2,3.8,0.6c1.1,0.4,2.1,1,2.9,1.8l-3.9,5.3
			C6117.6,2071.7,6116.9,2071.2,6116.1,2070.9z"/>
		<path d="M6124.7,2065.1h13.7v5.4h-13.7V2065.1z M6129.5,2093.6c-1.1-1.4-1.7-3.4-1.7-6v-31.3h6v31.4c0,0.7,0.1,1.3,0.4,1.7
			s0.7,0.6,1.3,0.6h2.9v5.7h-3.5C6132.4,2095.7,6130.6,2095,6129.5,2093.6z"/>
		<path d="M6143.3,2065.1h6.1l9.3,26.4l-3.3,6.5L6143.3,2065.1z M6170.3,2065.1l-12.9,37.5c-0.5,1.4-1.1,2.5-1.8,3.3
			c-0.8,0.8-1.7,1.4-2.8,1.7s-2.5,0.5-4.1,0.5h-1.2v-5.7h1.2c1.1,0,2-0.2,2.7-0.7c0.7-0.5,1.2-1.2,1.7-2.3l11.3-34.4H6170.3z"/>
	</g>
</g>
<g>
	<g>
		<path d="M5421.6,2328.5h6v42.6h-6V2328.5z M5424.7,2348.9h13.6c1.3,0,2.4-0.3,3.4-0.9c1-0.6,1.7-1.5,2.3-2.6
			c0.5-1.1,0.8-2.4,0.8-3.8c0-1.5-0.3-2.8-0.8-3.9c-0.5-1.1-1.3-2-2.3-2.6c-1-0.6-2.1-0.9-3.4-0.9h-13.6v-5.7h13.4
			c2.5,0,4.8,0.5,6.7,1.6s3.4,2.6,4.5,4.6c1.1,2,1.6,4.3,1.6,6.9c0,2.6-0.5,4.9-1.6,6.8c-1.1,2-2.6,3.5-4.5,4.6
			c-1.9,1.1-4.2,1.6-6.7,1.6h-13.4V2348.9z"/>
		<path d="M5464.4,2359.1c0,2.1,0.5,3.8,1.6,4.9c1.1,1.2,2.6,1.7,4.6,1.7c2,0,3.5-0.5,4.5-1.6c1.1-1,1.6-2.5,1.6-4.4l0.4,6.4
			c-0.6,1.5-1.6,2.8-3,3.8c-1.4,1-3.1,1.5-5.2,1.5c-3.4,0-6-1.1-7.8-3.2c-1.8-2.2-2.7-5.2-2.7-9.1v-18.5h6V2359.1z M5476.7,2340.7
			h5.9v30.4h-5.9V2340.7z"/>
		<path d="M5491.8,2328.5h6v42.6h-6V2328.5z M5500.4,2370.1c-1.4-0.9-2.4-2.2-3.1-3.9l0.4-6.4c0,1.3,0.2,2.4,0.7,3.3
			c0.5,0.9,1.1,1.6,2,2.1c0.9,0.5,2,0.7,3.2,0.7c2,0,3.5-0.6,4.6-1.8s1.6-2.9,1.6-5.1v-6.6c0-2.2-0.5-4-1.6-5.2s-2.6-1.8-4.6-1.8
			c-1.3,0-2.3,0.2-3.2,0.7c-0.9,0.5-1.6,1.2-2,2.1s-0.7,2-0.7,3.3l-0.6-5.9c0.9-1.8,2.1-3.1,3.6-4.1c1.5-1,3.1-1.5,5-1.5
			c2.1,0,4,0.5,5.5,1.5c1.5,1,2.7,2.4,3.5,4.2c0.8,1.9,1.2,4.1,1.2,6.7v6.6c0,2.6-0.4,4.8-1.2,6.6c-0.8,1.8-2,3.2-3.6,4.2
			s-3.5,1.5-5.7,1.5C5503.5,2371.5,5501.8,2371.1,5500.4,2370.1z"/>
		<path d="M5530.4,2363.2c0,0.7,0.2,1.3,0.5,1.7c0.3,0.4,0.8,0.6,1.4,0.6h2.8v5.7h-3.5c-2.3,0-4-0.7-5.3-2.1
			c-1.2-1.4-1.9-3.4-1.9-5.9v-34.7h6V2363.2z"/>
		<path d="M5541.8,2328.5h6v6h-6V2328.5z M5541.8,2340.7h6v30.4h-6V2340.7z"/>
		<path d="M5565,2371.5c0,0-1-0.5-2.9-1.6c-2-1-3.5-2.5-4.5-4.5c-1-2-1.6-4.4-1.6-7.1v-5c0-2.8,0.5-5.1,1.6-7.1c1-2,2.5-3.4,4.5-4.5
			s4.3-1.5,7.1-1.5c1.6,0,3.1,0.2,4.5,0.6c1.4,0.4,2.7,0.9,3.8,1.7c1.1,0.7,2,1.6,2.8,2.6l-4.3,3.9c-0.9-1-1.9-1.7-3-2.3
			c-1.2-0.5-2.4-0.8-3.6-0.8c-2.3,0-4.1,0.6-5.4,1.9c-1.3,1.3-1.9,3.1-1.9,5.4v5c0,2.4,0.6,4.3,1.9,5.6c1.3,1.3,3.1,2,5.4,2
			c1.3,0,2.5-0.3,3.6-0.8c1.2-0.6,2.1-1.4,3-2.4l4.3,4.2c-0.8,1-1.7,1.9-2.8,2.6c-1.1,0.7-2.4,1.3-3.8,1.6c-1.4,0.4-2.9,0.6-4.4,0.6
			C5566.3,2371.5,5565,2371.5,5565,2371.5z"/>
		<path d="M5607.7,2370c-1.9-1-3.3-2.5-4.3-4.5c-1-2-1.5-4.4-1.5-7.2v-5c0-2.8,0.5-5.1,1.5-7.1s2.4-3.5,4.3-4.5s4.1-1.5,6.8-1.5
			s4.9,0.5,6.8,1.5s3.3,2.5,4.3,4.5s1.5,4.3,1.5,7.1v5c0,2.8-0.5,5.1-1.5,7.1s-2.4,3.5-4.3,4.5c-1.9,1-4.1,1.6-6.8,1.6
			S5609.6,2371,5607.7,2370z M5619.3,2363.9c1.1-1.3,1.7-3.1,1.7-5.5v-5c0-2.4-0.6-4.2-1.7-5.5s-2.8-1.9-4.8-1.9s-3.7,0.6-4.8,1.9
			s-1.7,3.1-1.7,5.5v5c0,2.4,0.6,4.2,1.7,5.5c1.1,1.3,2.8,2,4.8,2S5618.2,2365.2,5619.3,2363.9z"/>
		<path d="M5635.5,2340.7h6v30.4h-6V2340.7z M5650.3,2346.4c-0.8-0.3-1.7-0.5-2.8-0.5c-1.9,0-3.4,0.5-4.4,1.6c-1,1-1.6,2.5-1.6,4.4
			l-0.6-5.9c0.9-1.8,2.1-3.2,3.6-4.2c1.5-1,3.1-1.5,4.9-1.5c1.4,0,2.6,0.2,3.8,0.6c1.1,0.4,2.1,1,2.9,1.8l-3.9,5.3
			C5651.7,2347.2,5651.1,2346.7,5650.3,2346.4z"/>
		<path d="M5665.1,2370.1c-1.6-1-2.8-2.4-3.6-4.2c-0.8-1.9-1.2-4.1-1.2-6.7v-6.7c0-2.6,0.4-4.9,1.2-6.7c0.8-1.9,2-3.3,3.5-4.2
			s3.4-1.5,5.5-1.5c1.8,0,3.4,0.5,4.9,1.4s2.7,2.3,3.6,4l-0.6,6.2c0-1.3-0.2-2.4-0.7-3.3c-0.5-0.9-1.1-1.6-2-2.1
			c-0.9-0.5-2-0.7-3.2-0.7c-2,0-3.5,0.6-4.6,1.8s-1.6,3-1.6,5.2v6.6c0,2.2,0.5,3.9,1.6,5.1s2.6,1.8,4.6,1.8c1.3,0,2.3-0.2,3.2-0.7
			s1.6-1.2,2-2.2s0.7-2.1,0.7-3.4l0.4,6.4c-0.6,1.5-1.6,2.8-3,3.8c-1.4,1-3.1,1.5-5.1,1.5
			C5668.5,2371.6,5666.6,2371.1,5665.1,2370.1z M5678.4,2328.5h6v42.6h-6V2328.5z"/>
		<path d="M5701.7,2371.5c0,0-1-0.5-3-1.6s-3.5-2.6-4.6-4.6c-1-2-1.6-4.5-1.6-7.4v-3.4c0-3,0.5-5.6,1.5-7.7c1-2.1,2.5-3.8,4.4-4.9
			s4.2-1.7,6.9-1.7c2.5,0,4.7,0.6,6.5,1.9c1.8,1.3,3.2,3.1,4.1,5.5s1.4,5.3,1.4,8.6v2h-20.5v-4.8h14.8c-0.2-2.5-0.8-4.4-1.9-5.8
			s-2.6-2.1-4.4-2.1c-2.3,0-4,0.7-5.3,2.2c-1.2,1.5-1.9,3.6-1.9,6.3v3.9c0,2.5,0.7,4.5,2,5.8s3.2,2,5.7,2c1.2,0,2.4-0.2,3.6-0.7
			c1.2-0.5,2.3-1.2,3.2-2.1l3.9,3.9c-1.5,1.4-3.2,2.6-5.1,3.4s-3.8,1.2-5.7,1.2C5703.1,2371.5,5701.7,2371.5,5701.7,2371.5z"/>
		<path d="M5725.6,2340.7h6v30.4h-6V2340.7z M5740.4,2346.4c-0.8-0.3-1.7-0.5-2.8-0.5c-1.9,0-3.4,0.5-4.4,1.6c-1,1-1.6,2.5-1.6,4.4
			l-0.6-5.9c0.9-1.8,2.1-3.2,3.6-4.2c1.5-1,3.1-1.5,4.9-1.5c1.4,0,2.6,0.2,3.8,0.6c1.1,0.4,2.1,1,2.9,1.8l-3.9,5.3
			C5741.8,2347.2,5741.2,2346.7,5740.4,2346.4z"/>
	</g>
</g>
</svg>
