<?xml version="1.0" encoding="utf-8"?>
<!-- Generator: Adobe Illustrator 23.0.3, SVG Export Plug-In . SVG Version: 6.00 Build 0)  -->
<svg version="1.1" id="Layer_1" xmlns="http://www.w3.org/2000/svg" xmlns:xlink="http://www.w3.org/1999/xlink" x="0px" y="0px"
	 viewBox="0 0 1756.9 987.2" style="enable-background:new 0 0 1756.9 987.2;" xml:space="preserve">
<circle style="fill:#FFFFFF;stroke:#000000;stroke-miterlimit:10;" cx="545.1" cy="813.4" r="112.6"/>
<circle style="fill:#FFFFFF;stroke:#000000;stroke-miterlimit:10;" cx="886.5" cy="813.4" r="112.6"/>
<circle style="fill:#FFFFFF;stroke:#000000;stroke-miterlimit:10;" cx="1227.9" cy="813.4" r="112.6"/>
<circle style="fill:#FFFFFF;stroke:#000000;stroke-miterlimit:10;" cx="1569.3" cy="807" r="112.6"/>
<g>
	<g>
		<path d="M488.8,934.8h4.8v34.1h-4.8V934.8z M491.6,964.4h9.2c2.4,0,4.2-0.5,5.3-1.4s1.7-2.2,1.7-3.9v-0.1c0-1.2-0.2-2.1-0.6-3
			s-1-1.5-1.9-1.9s-2-0.7-3.3-0.7h-10.4v-4.3H502c1.8,0,3.1-0.4,4-1.2s1.3-2.1,1.3-3.7c0-1.7-0.5-3-1.5-3.8s-2.5-1.3-4.5-1.3h-9.8
			v-4.4h10.6c2.2,0,4,0.4,5.5,1.1s2.6,1.8,3.3,3.2s1.1,3,1.1,4.9c0,1.2-0.2,2.3-0.7,3.3s-1.1,1.9-2.1,2.6s-2.1,1.2-3.5,1.5
			c1.4,0.2,2.6,0.7,3.6,1.5s1.8,1.7,2.3,2.9s0.8,2.4,0.8,3.8v0.1c0,1.8-0.4,3.5-1.2,4.9s-2,2.5-3.5,3.3s-3.3,1.1-5.3,1.1h-11V964.4z
			"/>
		<path d="M524.1,962.6c0,0.6,0.1,1.1,0.4,1.4s0.6,0.5,1.1,0.5h2.3v4.5H525c-1.8,0-3.2-0.6-4.2-1.7s-1.5-2.7-1.5-4.8v-27.8h4.8
			V962.6z"/>
		<path d="M534.3,967.3c-1.5-1.2-2.2-3.1-2.2-5.7c0-2.4,0.7-4.2,2-5.4s3.4-1.8,6.2-1.8h6.9l0.3,3.8h-7.2c-1.3,0-2.2,0.3-2.8,0.8
			s-0.9,1.4-0.9,2.5c0,1.2,0.4,2.1,1.2,2.7s2.1,0.9,3.7,0.9c1.8,0,3.2-0.2,4.1-0.6s1.3-1,1.3-1.8l0.5,3.4c-0.4,0.7-0.9,1.2-1.6,1.6
			s-1.3,0.7-2.1,0.9s-1.7,0.3-2.7,0.3C538,969.2,535.8,968.6,534.3,967.3z M547,953.4c0-1.6-0.4-2.8-1.3-3.7s-2.1-1.3-3.6-1.3
			c-1,0-1.9,0.1-2.8,0.4s-1.8,0.7-2.5,1.2l-3.5-2.4c0.9-1.1,2.1-2,3.6-2.6s3.2-0.9,5-0.9c2,0,3.7,0.4,5.2,1.1s2.5,1.7,3.3,3.1
			s1.1,3,1.1,4.9v15.6H547V953.4z"/>
		<path d="M565.3,969.2c0,0-0.8-0.4-2.4-1.2s-2.8-2-3.6-3.6s-1.2-3.5-1.2-5.7v-4c0-2.2,0.4-4.1,1.2-5.6s2-2.8,3.6-3.6
			s3.5-1.2,5.7-1.2c1.3,0,2.5,0.2,3.6,0.5s2.1,0.7,3,1.3s1.6,1.3,2.2,2.1l-3.4,3.1c-0.7-0.8-1.5-1.4-2.4-1.8s-1.9-0.6-2.9-0.6
			c-1.8,0-3.3,0.5-4.3,1.5s-1.5,2.5-1.5,4.4v4c0,1.9,0.5,3.4,1.5,4.5s2.4,1.6,4.3,1.6c1,0,2-0.2,2.9-0.7s1.7-1.1,2.4-1.9l3.4,3.3
			c-0.6,0.8-1.4,1.5-2.3,2.1s-1.9,1-3,1.3s-2.3,0.4-3.6,0.4C566.4,969.2,565.3,969.2,565.3,969.2z"/>
		<path d="M582.7,934.8h4.8v34.1h-4.8V934.8z M584.7,959.6l12.5-15.1h5.6l-18.4,20.8L584.7,959.6z M590.4,954.8l3.1-3.2l10.6,17.2
			h-5.2L590.4,954.8z"/>
	</g>
</g>
<g>
	<g>
		<path d="M844.9,945.5h3.3l7,26.7l6-26.7h5l-8.3,34.1H853l-6.3-23.8l-6.6,23.8h-4.9l-8.3-34.1h5l6,26.7L844.9,945.5z"/>
		<path d="M870.6,945.5h4.8v34.1h-4.8V945.5z M885.4,964.8c0-1.7-0.4-3-1.3-4s-2.1-1.4-3.8-1.4c-1.6,0-2.8,0.4-3.6,1.2
			s-1.3,2-1.3,3.4l-0.5-4.7c0.8-1.4,1.7-2.6,2.9-3.3s2.6-1.2,4-1.2c2.6,0,4.7,0.9,6.1,2.6s2.2,4.2,2.2,7.3v14.8h-4.8V964.8z"/>
		<path d="M897.4,945.5h4.8v4.8h-4.8V945.5z M897.4,955.2h4.8v24.3h-4.8V955.2z"/>
		<path d="M907.6,955.2h11v4.3h-11V955.2z M911.5,978.1c-0.9-1.1-1.4-2.7-1.4-4.8v-25.1h4.8v25.1c0,0.6,0.1,1.1,0.4,1.4
			s0.6,0.5,1,0.5h2.3v4.5h-2.8C913.8,979.7,912.4,979.1,911.5,978.1z"/>
		<path d="M931.7,979.9c0,0-0.8-0.4-2.4-1.3s-2.8-2.1-3.6-3.7s-1.3-3.6-1.3-5.9v-2.7c0-2.4,0.4-4.5,1.2-6.2s2-3,3.5-3.9
			s3.4-1.3,5.5-1.3c2,0,3.8,0.5,5.2,1.5s2.5,2.5,3.3,4.4s1.1,4.2,1.1,6.9v1.6h-16.4v-3.8h11.9c-0.1-2-0.7-3.5-1.5-4.6
			s-2.1-1.7-3.6-1.7c-1.8,0-3.2,0.6-4.2,1.8s-1.5,2.9-1.5,5v3.1c0,2,0.5,3.6,1.6,4.6s2.6,1.6,4.5,1.6c1,0,1.9-0.2,2.9-0.6
			s1.8-0.9,2.6-1.6l3.1,3.1c-1.2,1.2-2.6,2.1-4.1,2.7s-3,0.9-4.5,0.9C932.8,979.9,931.7,979.9,931.7,979.9z"/>
	</g>
</g>
<g>
	<g>
		<path d="M1190.5,945.5h4.1l12.6,34.1h-5.2l-9.4-27.5l-9.4,27.5h-5.2L1190.5,945.5z M1183.7,967.6h17.9v4.5h-17.9V967.6z"/>
		<path d="M1218.3,979.9c0,0-0.6-0.1-1.9-0.4s-2.4-0.7-3.5-1.3s-2.1-1.3-3-2.1l2.8-3.5c1.3,1,2.6,1.8,3.9,2.3s2.6,0.8,3.8,0.8
			c1.9,0,3.3-0.3,4.3-0.9s1.4-1.5,1.4-2.6c0-0.8-0.3-1.4-0.8-1.8s-1.2-0.7-1.9-0.8s-1.8-0.3-3.2-0.4c-0.1,0-0.3,0-0.4,0
			s-0.3,0-0.4,0c-0.1,0-0.1,0-0.2,0s-0.1,0-0.2,0c-1.6-0.1-2.9-0.4-4-0.7s-2-1-2.7-1.9s-1.1-2.2-1.1-4s0.4-3.1,1.1-4.3
			s1.8-2,3.1-2.6s3.1-0.9,5.2-0.9c1.3,0,2.5,0.1,3.6,0.4s2.2,0.6,3.3,1s2.1,1,3,1.7l-2.9,3.5c-1.2-0.8-2.4-1.4-3.6-1.8
			s-2.3-0.6-3.5-0.6c-1.6,0-2.8,0.3-3.7,0.8s-1.2,1.4-1.2,2.5c0,0.7,0.2,1.1,0.7,1.5s1,0.5,1.7,0.7s1.7,0.2,3,0.3c0.1,0,0.2,0,0.3,0
			s0.2,0,0.3,0c0,0,0.1,0,0.1,0s0.1,0,0.1,0c1.7,0.1,3.2,0.3,4.3,0.7s2.2,1,3,2s1.2,2.5,1.2,4.4c0,1.8-0.4,3.2-1.1,4.3
			s-1.9,2-3.4,2.6s-3.4,0.9-5.7,0.9C1219,979.9,1218.3,979.9,1218.3,979.9z"/>
		<path d="M1236.7,945.5h4.8v4.8h-4.8V945.5z M1236.7,955.2h4.8v24.3h-4.8V955.2z"/>
		<path d="M1249.8,978.1c-1.5-1.2-2.2-3.1-2.2-5.7c0-2.4,0.7-4.2,2-5.4s3.4-1.8,6.2-1.8h6.9l0.3,3.8h-7.2c-1.3,0-2.2,0.3-2.8,0.8
			s-0.9,1.4-0.9,2.5c0,1.2,0.4,2.1,1.2,2.7s2.1,0.9,3.7,0.9c1.8,0,3.2-0.2,4.1-0.6s1.3-1,1.3-1.8l0.5,3.4c-0.4,0.7-0.9,1.2-1.6,1.6
			s-1.3,0.7-2.1,0.9s-1.7,0.3-2.7,0.3C1253.6,979.9,1251.3,979.3,1249.8,978.1z M1262.5,964.2c0-1.6-0.4-2.8-1.3-3.7
			s-2.1-1.3-3.6-1.3c-1,0-1.9,0.1-2.8,0.4s-1.8,0.7-2.5,1.2l-3.5-2.4c0.9-1.1,2.1-2,3.6-2.6s3.2-0.9,5-0.9c2,0,3.7,0.4,5.2,1.1
			s2.5,1.7,3.3,3.1s1.1,3,1.1,4.9v15.6h-4.5V964.2z"/>
		<path d="M1274.3,955.2h4.8v24.3h-4.8V955.2z M1289.1,964.8c0-1.7-0.4-3-1.3-4s-2.1-1.4-3.8-1.4c-1.6,0-2.8,0.4-3.6,1.2
			s-1.3,2-1.3,3.5l-0.5-4.7c0.8-1.5,1.7-2.6,2.9-3.4s2.6-1.2,4-1.2c2.6,0,4.7,0.9,6.1,2.6s2.2,4.2,2.2,7.3v14.8h-4.8V964.8z"/>
	</g>
</g>
<g>
	<g>
		<path d="M1524.8,978.4c-1.8-1-3.2-2.5-4.2-4.4s-1.5-4.1-1.5-6.6v-9.7c0-2.5,0.5-4.7,1.5-6.6s2.4-3.4,4.2-4.4s3.9-1.6,6.3-1.6
			s4.5,0.5,6.3,1.6s3.2,2.5,4.2,4.4s1.5,4.1,1.5,6.6v9.7c0,2.5-0.5,4.7-1.5,6.6s-2.4,3.4-4.2,4.4s-3.9,1.6-6.3,1.6
			S1526.6,979.4,1524.8,978.4z M1534.8,974.3c1.1-0.6,1.9-1.5,2.5-2.7s0.9-2.5,0.9-4v-10c0-1.5-0.3-2.9-0.9-4s-1.4-2.1-2.5-2.7
			s-2.3-0.9-3.7-0.9s-2.6,0.3-3.7,0.9s-1.9,1.5-2.5,2.7s-0.9,2.5-0.9,4v10c0,1.5,0.3,2.9,0.9,4s1.4,2.1,2.5,2.7s2.3,0.9,3.7,0.9
			S1533.7,974.9,1534.8,974.3z"/>
		<path d="M1548.4,955.2h11v4.3h-11V955.2z M1552.3,978.1c-0.9-1.1-1.4-2.7-1.4-4.8v-25.1h4.8v25.1c0,0.6,0.1,1.1,0.4,1.4
			s0.6,0.5,1,0.5h2.3v4.5h-2.8C1554.7,979.7,1553.2,979.1,1552.3,978.1z"/>
		<path d="M1566,945.5h4.8v34.1h-4.8V945.5z M1580.7,964.8c0-1.7-0.4-3-1.3-4s-2.1-1.4-3.8-1.4c-1.6,0-2.8,0.4-3.6,1.2
			s-1.3,2-1.3,3.4l-0.5-4.7c0.8-1.4,1.7-2.6,2.9-3.3s2.6-1.2,4-1.2c2.6,0,4.7,0.9,6.1,2.6s2.2,4.2,2.2,7.3v14.8h-4.8V964.8z"/>
		<path d="M1599.4,979.9c0,0-0.8-0.4-2.4-1.3s-2.8-2.1-3.6-3.7s-1.3-3.6-1.3-5.9v-2.7c0-2.4,0.4-4.5,1.2-6.2s2-3,3.5-3.9
			s3.4-1.3,5.5-1.3c2,0,3.8,0.5,5.2,1.5s2.5,2.5,3.3,4.4s1.1,4.2,1.1,6.9v1.6h-16.4v-3.8h11.9c-0.1-2-0.7-3.5-1.5-4.6
			s-2.1-1.7-3.6-1.7c-1.8,0-3.2,0.6-4.2,1.8s-1.5,2.9-1.5,5v3.1c0,2,0.5,3.6,1.6,4.6s2.6,1.6,4.5,1.6c1,0,1.9-0.2,2.9-0.6
			s1.8-0.9,2.6-1.6l3.1,3.1c-1.2,1.2-2.6,2.1-4.1,2.7s-3,0.9-4.5,0.9C1600.5,979.9,1599.4,979.9,1599.4,979.9z"/>
		<path d="M1618.5,955.2h4.8v24.3h-4.8V955.2z M1630.3,959.8c-0.6-0.3-1.4-0.4-2.2-0.4c-1.5,0-2.7,0.4-3.5,1.3s-1.3,2-1.3,3.5
			l-0.5-4.7c0.8-1.5,1.7-2.6,2.9-3.4s2.5-1.2,3.9-1.2c1.1,0,2.1,0.2,3,0.5s1.7,0.8,2.4,1.4l-3.1,4.2
			C1631.5,960.5,1630.9,960.1,1630.3,959.8z"/>
	</g>
</g>
<rect x="440.2" y="493.6" style="fill:none;stroke:#000000;stroke-miterlimit:10;" width="540.8" height="83.1"/>
<rect x="1115.3" y="493.6" style="fill:none;stroke:#000000;stroke-miterlimit:10;" width="566.6" height="76.9"/>
<polygon style="fill:none;stroke:#000000;stroke-miterlimit:10;" points="645.9,139.3 542.5,139.3 490.7,228.9 542.5,318.5 
	645.9,318.5 697.6,228.9 "/>
<polygon style="fill:none;stroke:#000000;stroke-miterlimit:10;" points="948,139.3 844.5,139.3 792.8,228.9 844.5,318.5 948,318.5 
	999.7,228.9 "/>
<polygon style="fill:none;stroke:#000000;stroke-miterlimit:10;" points="1258.4,139.3 1154.9,139.3 1103.2,228.9 1154.9,318.5 
	1258.4,318.5 1310.1,228.9 "/>
<polygon style="fill:none;stroke:#000000;stroke-miterlimit:10;" points="1567.3,139.3 1463.8,139.3 1412.1,228.9 1463.8,318.5 
	1567.3,318.5 1619,228.9 "/>
<g>
	<g>
		<path d="M60.8,627.4h24v4.5h-24V627.4z M70.4,630.2h4.8v31.3h-4.8V630.2z"/>
		<path d="M88.1,627.4h4.8v34.1h-4.8V627.4z M102.9,646.7c0-1.7-0.4-3-1.3-4s-2.1-1.4-3.8-1.4c-1.6,0-2.8,0.4-3.6,1.2
			s-1.3,2-1.3,3.4l-0.5-4.7c0.8-1.4,1.7-2.6,2.9-3.3s2.6-1.2,4-1.2c2.6,0,4.7,0.9,6.1,2.6s2.2,4.2,2.2,7.3v14.8h-4.8V646.7z"/>
		<path d="M114.9,627.4h4.8v4.8h-4.8V627.4z M114.9,637.1h4.8v24.3h-4.8V637.1z"/>
		<path d="M133.4,661.8c0,0-0.6-0.1-1.9-0.4s-2.4-0.7-3.5-1.3s-2.1-1.3-3-2.1l2.8-3.5c1.3,1,2.6,1.8,3.9,2.3s2.6,0.8,3.8,0.8
			c1.9,0,3.3-0.3,4.3-0.9s1.4-1.5,1.4-2.6c0-0.8-0.3-1.4-0.8-1.8s-1.2-0.7-1.9-0.8s-1.8-0.3-3.2-0.4c-0.1,0-0.3,0-0.4,0
			s-0.3,0-0.4,0c-0.1,0-0.1,0-0.2,0s-0.1,0-0.2,0c-1.6-0.1-2.9-0.4-4-0.7s-2-1-2.7-1.9s-1.1-2.2-1.1-4s0.4-3.1,1.1-4.3
			s1.8-2,3.1-2.6s3.1-0.9,5.2-0.9c1.3,0,2.5,0.1,3.6,0.4s2.2,0.6,3.3,1s2.1,1,3,1.7l-2.9,3.5c-1.2-0.8-2.4-1.4-3.6-1.8
			s-2.3-0.6-3.5-0.6c-1.6,0-2.8,0.3-3.7,0.8s-1.2,1.4-1.2,2.5c0,0.7,0.2,1.1,0.7,1.5s1,0.5,1.7,0.7s1.7,0.2,3,0.3c0.1,0,0.2,0,0.3,0
			s0.2,0,0.3,0c0,0,0.1,0,0.1,0s0.1,0,0.1,0c1.7,0.1,3.2,0.3,4.3,0.7s2.2,1,3,2s1.2,2.5,1.2,4.4c0,1.8-0.4,3.2-1.1,4.3
			s-1.9,2-3.4,2.6s-3.4,0.9-5.7,0.9C134.2,661.8,133.4,661.8,133.4,661.8z"/>
		<path d="M164.8,627.4h4.8v4.8h-4.8V627.4z M164.8,637.1h4.8v24.3h-4.8V637.1z"/>
		<path d="M183.3,661.8c0,0-0.6-0.1-1.9-0.4s-2.4-0.7-3.5-1.3s-2.1-1.3-3-2.1l2.8-3.5c1.3,1,2.6,1.8,3.9,2.3s2.6,0.8,3.8,0.8
			c1.9,0,3.3-0.3,4.3-0.9s1.4-1.5,1.4-2.6c0-0.8-0.3-1.4-0.8-1.8s-1.2-0.7-1.9-0.8s-1.8-0.3-3.2-0.4c-0.1,0-0.3,0-0.4,0
			s-0.3,0-0.4,0c-0.1,0-0.1,0-0.2,0s-0.1,0-0.2,0c-1.6-0.1-2.9-0.4-4-0.7s-2-1-2.7-1.9s-1.1-2.2-1.1-4s0.4-3.1,1.1-4.3
			s1.8-2,3.1-2.6s3.1-0.9,5.2-0.9c1.3,0,2.5,0.1,3.6,0.4s2.2,0.6,3.3,1s2.1,1,3,1.7l-2.9,3.5c-1.2-0.8-2.4-1.4-3.6-1.8
			s-2.3-0.6-3.5-0.6c-1.6,0-2.8,0.3-3.7,0.8s-1.2,1.4-1.2,2.5c0,0.7,0.2,1.1,0.7,1.5s1,0.5,1.7,0.7s1.7,0.2,3,0.3c0.1,0,0.2,0,0.3,0
			s0.2,0,0.3,0c0,0,0.1,0,0.1,0s0.1,0,0.1,0c1.7,0.1,3.2,0.3,4.3,0.7s2.2,1,3,2s1.2,2.5,1.2,4.4c0,1.8-0.4,3.2-1.1,4.3
			s-1.9,2-3.4,2.6s-3.4,0.9-5.7,0.9C184,661.8,183.3,661.8,183.3,661.8z"/>
		<path d="M212,637.1h4.9l7.5,21.1l-2.6,5.2L212,637.1z M233.6,637.1l-10.4,30c-0.4,1.1-0.9,2-1.5,2.6s-1.4,1.1-2.3,1.4
			s-2,0.4-3.3,0.4h-1V667h1c0.9,0,1.6-0.2,2.1-0.5s1-1,1.4-1.9l9-27.5H233.6z"/>
		<path d="M241.7,660.6c-1.5-0.8-2.6-2-3.4-3.6s-1.2-3.5-1.2-5.7v-4c0-2.2,0.4-4.1,1.2-5.7s1.9-2.8,3.4-3.6s3.3-1.2,5.4-1.2
			s3.9,0.4,5.4,1.2s2.6,2,3.4,3.6c0.8,1.6,1.2,3.5,1.2,5.7v4c0,2.2-0.4,4.1-1.2,5.7c-0.8,1.6-1.9,2.8-3.4,3.6s-3.3,1.2-5.4,1.2
			S243.2,661.4,241.7,660.6z M251,655.7c0.9-1,1.4-2.5,1.4-4.4v-4c0-1.9-0.5-3.4-1.4-4.4s-2.2-1.5-3.9-1.5s-3,0.5-3.9,1.5
			s-1.4,2.5-1.4,4.4v4c0,1.9,0.5,3.4,1.4,4.4s2.2,1.6,3.9,1.6S250.1,656.7,251,655.7z"/>
		<path d="M268.7,651.9c0,1.7,0.4,3,1.3,3.9s2.1,1.4,3.7,1.4c1.6,0,2.8-0.4,3.6-1.2s1.3-2,1.3-3.5l0.3,5.1c-0.5,1.2-1.3,2.2-2.4,3
			s-2.5,1.2-4.1,1.2c-2.7,0-4.8-0.9-6.2-2.6s-2.2-4.2-2.2-7.3v-14.8h4.8V651.9z M278.6,637.1h4.8v24.3h-4.8V637.1z"/>
	</g>
</g>
<circle style="fill:none;stroke:#000000;stroke-miterlimit:10;" cx="178.8" cy="815.4" r="105.7"/>
<g>
	<g>
		<path d="M674.2,519.1h4.3l16.7,26.3l-0.6,0.6v-27h4.7v34.1H695l-16.6-25.9l0.6-0.6v26.6h-4.7V519.1z"/>
		<path d="M718,539.3v13.9h-4.8v-13.9l-10.4-20.2h5.3l7.5,15.4l7.5-15.4h5.3L718,539.3z"/>
	</g>
</g>
<g>
	<g>
		<path d="M1378.9,519.1h4.8v34.1h-4.8V519.1z M1381.2,548.6h19.5v4.5h-19.5V548.6z"/>
		<path d="M1415.7,519.1h4.1l12.6,34.1h-5.2l-9.4-27.5l-9.4,27.5h-5.2L1415.7,519.1z M1408.9,541.2h17.9v4.5h-17.9V541.2z"/>
	</g>
</g>
<g>
	<g>
		<path d="M551.8,216.8h3.3l7,26.7l6-26.7h5l-8.3,34.1h-4.9l-6.3-23.8l-6.6,23.8h-4.9l-8.3-34.1h5l6,26.7L551.8,216.8z"/>
		<path d="M584.1,251.2c0,0-0.8-0.4-2.4-1.3s-2.8-2.1-3.6-3.7s-1.3-3.6-1.3-5.9v-2.7c0-2.4,0.4-4.5,1.2-6.2s2-3,3.5-3.9
			s3.4-1.3,5.5-1.3c2,0,3.8,0.5,5.2,1.5s2.5,2.5,3.3,4.4s1.1,4.2,1.1,6.9v1.6h-16.4v-3.8h11.9c-0.1-2-0.7-3.5-1.5-4.6
			s-2.1-1.7-3.6-1.7c-1.8,0-3.2,0.6-4.2,1.8s-1.5,2.9-1.5,5v3.1c0,2,0.5,3.6,1.6,4.6s2.6,1.6,4.5,1.6c1,0,1.9-0.2,2.9-0.6
			s1.8-0.9,2.6-1.6l3.1,3.1c-1.2,1.2-2.6,2.1-4.1,2.7s-3,0.9-4.5,0.9C585.2,251.2,584.1,251.2,584.1,251.2z"/>
		<path d="M609.8,251.2c0,0-0.8-0.4-2.4-1.3s-2.8-2.1-3.6-3.7s-1.3-3.6-1.3-5.9v-2.7c0-2.4,0.4-4.5,1.2-6.2s2-3,3.5-3.9
			s3.4-1.3,5.5-1.3c2,0,3.8,0.5,5.2,1.5s2.5,2.5,3.3,4.4s1.1,4.2,1.1,6.9v1.6H606v-3.8h11.9c-0.1-2-0.7-3.5-1.5-4.6
			s-2.1-1.7-3.6-1.7c-1.8,0-3.2,0.6-4.2,1.8s-1.5,2.9-1.5,5v3.1c0,2,0.5,3.6,1.6,4.6s2.6,1.6,4.5,1.6c1,0,1.9-0.2,2.9-0.6
			s1.8-0.9,2.6-1.6l3.1,3.1c-1.2,1.2-2.6,2.1-4.1,2.7s-3,0.9-4.5,0.9C610.9,251.2,609.8,251.2,609.8,251.2z"/>
		<path d="M632.1,250.2c-1.3-0.8-2.2-1.9-2.9-3.4s-1-3.3-1-5.3v-5.4c0-2.1,0.3-3.9,1-5.4s1.6-2.6,2.8-3.4s2.7-1.2,4.4-1.2
			c1.4,0,2.8,0.4,3.9,1.1s2.2,1.8,2.9,3.2l-0.5,5c0-1-0.2-1.9-0.6-2.6s-0.9-1.3-1.6-1.7s-1.6-0.6-2.6-0.6c-1.6,0-2.8,0.5-3.7,1.5
			s-1.3,2.4-1.3,4.1v5.3c0,1.8,0.4,3.1,1.3,4.1s2.1,1.4,3.7,1.4c1,0,1.9-0.2,2.6-0.6s1.3-1,1.6-1.7s0.6-1.6,0.6-2.7l0.3,5.1
			c-0.5,1.2-1.3,2.2-2.4,3s-2.5,1.2-4.1,1.2C634.9,251.3,633.4,250.9,632.1,250.2z M642.8,216.8h4.8v34.1h-4.8V216.8z"/>
	</g>
</g>
<rect x="851.7" y="257" style="fill:none;" width="0" height="2"/>
<g>
	<g>
		<path d="M856,216.8h4.8v34.1H856V216.8z M858,231.9h11.6c0.9,0,1.7-0.2,2.4-0.7s1.2-1.1,1.6-1.9s0.6-1.7,0.6-2.8s-0.2-2-0.6-2.8
			s-0.9-1.4-1.6-1.9s-1.5-0.7-2.4-0.7H858v-4.5h11.4c2,0,3.7,0.4,5.2,1.2s2.6,2,3.5,3.5s1.2,3.2,1.2,5.2s-0.4,3.7-1.2,5.2
			s-2,2.6-3.5,3.5s-3.2,1.2-5.2,1.2H858V231.9z M867.3,235.4l4.8-1.1l8.7,16.5h-5.7L867.3,235.4z"/>
		<path d="M887.8,249.4c-1.5-1.2-2.2-3.1-2.2-5.7c0-2.4,0.7-4.2,2-5.4s3.4-1.8,6.2-1.8h6.9l0.3,3.8h-7.2c-1.3,0-2.2,0.3-2.8,0.8
			s-0.9,1.4-0.9,2.5c0,1.2,0.4,2.1,1.2,2.7s2.1,0.9,3.7,0.9c1.8,0,3.2-0.2,4.1-0.6s1.3-1,1.3-1.8l0.5,3.4c-0.4,0.7-0.9,1.2-1.6,1.6
			s-1.3,0.7-2.1,0.9s-1.7,0.3-2.7,0.3C891.6,251.2,889.3,250.6,887.8,249.4z M900.5,235.5c0-1.6-0.4-2.8-1.3-3.7s-2.1-1.3-3.6-1.3
			c-1,0-1.9,0.1-2.8,0.4s-1.8,0.7-2.5,1.2l-3.5-2.4c0.9-1.1,2.1-2,3.6-2.6s3.2-0.9,5-0.9c2,0,3.7,0.4,5.2,1.1s2.5,1.7,3.3,3.1
			s1.1,3,1.1,4.9v15.6h-4.5V235.5z"/>
		<path d="M912.3,226.6h4.8v34.2h-4.8V226.6z M919.3,250.2c-1.1-0.7-2-1.8-2.5-3.1l0.3-5.1c0,1,0.2,1.9,0.6,2.7s0.9,1.3,1.6,1.7
			s1.6,0.6,2.6,0.6c1.6,0,2.8-0.5,3.7-1.4s1.3-2.3,1.3-4.1v-5.3c0-1.8-0.4-3.2-1.3-4.1s-2.1-1.5-3.7-1.5c-1,0-1.9,0.2-2.6,0.6
			s-1.3,0.9-1.6,1.7s-0.6,1.6-0.6,2.6l-0.5-4.7c0.7-1.4,1.7-2.5,2.9-3.3s2.5-1.2,4-1.2c1.7,0,3.2,0.4,4.4,1.2s2.2,1.9,2.8,3.4
			s1,3.3,1,5.4v5.3c0,2.1-0.3,3.8-1,5.3s-1.6,2.6-2.9,3.4s-2.8,1.2-4.5,1.2C921.7,251.2,920.4,250.9,919.3,250.2z"/>
		<path d="M945,251.2c0,0-0.8-0.4-2.4-1.3s-2.8-2.1-3.6-3.7s-1.3-3.6-1.3-5.9v-2.7c0-2.4,0.4-4.5,1.2-6.2s2-3,3.5-3.9
			s3.4-1.3,5.5-1.3c2,0,3.8,0.5,5.2,1.5s2.5,2.5,3.3,4.4s1.1,4.2,1.1,6.9v1.6h-16.4v-3.8h11.9c-0.1-2-0.7-3.5-1.5-4.6
			s-2.1-1.7-3.6-1.7c-1.8,0-3.2,0.6-4.2,1.8s-1.5,2.9-1.5,5v3.1c0,2,0.5,3.6,1.6,4.6s2.6,1.6,4.5,1.6c1,0,1.9-0.2,2.9-0.6
			s1.8-0.9,2.6-1.6l3.1,3.1c-1.2,1.2-2.6,2.1-4.1,2.7s-3,0.9-4.5,0.9C946.2,251.2,945,251.2,945,251.2z"/>
	</g>
</g>
<g>
	<g>
		<path d="M1160.3,216.8h4.5v34.1h-4.7v-25.5l0.2,1.5l-8.4,19.3h-3.3l-8.4-18.8l0.2-2v25.5h-4.7v-34.1h4.5l10,22.5L1160.3,216.8z"/>
		<path d="M1177.5,241.4c0,1.7,0.4,3,1.3,3.9s2.1,1.4,3.7,1.4c1.6,0,2.8-0.4,3.6-1.2s1.3-2,1.3-3.5l0.3,5.1c-0.5,1.2-1.3,2.2-2.4,3
			s-2.5,1.2-4.1,1.2c-2.7,0-4.8-0.9-6.2-2.6s-2.2-4.2-2.2-7.3v-14.8h4.8V241.4z M1187.4,226.6h4.8v24.3h-4.8V226.6z"/>
		<path d="M1199.4,226.6h4.8v24.3h-4.8V226.6z M1211.2,231.2c-0.6-0.3-1.4-0.4-2.2-0.4c-1.5,0-2.7,0.4-3.5,1.3s-1.3,2-1.3,3.5
			l-0.5-4.7c0.8-1.5,1.7-2.6,2.9-3.4s2.5-1.2,3.9-1.2c1.1,0,2.1,0.2,3,0.5s1.7,0.8,2.4,1.4l-3.1,4.2
			C1212.4,231.8,1211.9,231.4,1211.2,231.2z"/>
		<path d="M1223.1,250.2c-1.3-0.8-2.2-1.9-2.9-3.4s-1-3.3-1-5.3v-5.4c0-2.1,0.3-3.9,1-5.4s1.6-2.6,2.8-3.4s2.7-1.2,4.4-1.2
			c1.4,0,2.8,0.4,3.9,1.1s2.2,1.8,2.9,3.2l-0.5,5c0-1-0.2-1.9-0.6-2.6s-0.9-1.3-1.6-1.7s-1.6-0.6-2.6-0.6c-1.6,0-2.8,0.5-3.7,1.5
			s-1.3,2.4-1.3,4.1v5.3c0,1.8,0.4,3.1,1.3,4.1s2.1,1.4,3.7,1.4c1,0,1.9-0.2,2.6-0.6s1.3-1,1.6-1.7s0.6-1.6,0.6-2.7l0.3,5.1
			c-0.5,1.2-1.3,2.2-2.4,3s-2.5,1.2-4.1,1.2C1225.8,251.3,1224.3,250.9,1223.1,250.2z M1233.7,216.8h4.8v34.1h-4.8V216.8z"/>
		<path d="M1252.4,251.2c0,0-0.8-0.4-2.4-1.3s-2.8-2.1-3.6-3.7s-1.3-3.6-1.3-5.9v-2.7c0-2.4,0.4-4.5,1.2-6.2s2-3,3.5-3.9
			s3.4-1.3,5.5-1.3c2,0,3.8,0.5,5.2,1.5s2.5,2.5,3.3,4.4s1.1,4.2,1.1,6.9v1.6h-16.4v-3.8h11.9c-0.1-2-0.7-3.5-1.5-4.6
			s-2.1-1.7-3.6-1.7c-1.8,0-3.2,0.6-4.2,1.8s-1.5,2.9-1.5,5v3.1c0,2,0.5,3.6,1.6,4.6s2.6,1.6,4.5,1.6c1,0,1.9-0.2,2.9-0.6
			s1.8-0.9,2.6-1.6l3.1,3.1c-1.2,1.2-2.6,2.1-4.1,2.7s-3,0.9-4.5,0.9C1253.5,251.2,1252.4,251.2,1252.4,251.2z"/>
		<path d="M1271.5,226.6h4.8v24.3h-4.8V226.6z M1283.3,231.2c-0.6-0.3-1.4-0.4-2.2-0.4c-1.5,0-2.7,0.4-3.5,1.3s-1.3,2-1.3,3.5
			l-0.5-4.7c0.8-1.5,1.7-2.6,2.9-3.4s2.5-1.2,3.9-1.2c1.1,0,2.1,0.2,3,0.5s1.7,0.8,2.4,1.4l-3.1,4.2
			C1284.5,231.8,1283.9,231.4,1283.3,231.2z"/>
	</g>
</g>
<g>
	<g>
		<path d="M1450.3,199.3h3.4v24.1h-3.4V199.3z M1452.1,210.8h7.7c0.7,0,1.4-0.2,1.9-0.5c0.6-0.3,1-0.8,1.3-1.5
			c0.3-0.6,0.5-1.4,0.5-2.2c0-0.8-0.2-1.6-0.5-2.2c-0.3-0.6-0.7-1.1-1.3-1.5s-1.2-0.5-1.9-0.5h-7.7v-3.2h7.6c1.4,0,2.7,0.3,3.8,0.9
			s1.9,1.5,2.5,2.6c0.6,1.1,0.9,2.4,0.9,3.9c0,1.5-0.3,2.8-0.9,3.9c-0.6,1.1-1.5,2-2.5,2.6c-1.1,0.6-2.4,0.9-3.8,0.9h-7.6V210.8z"/>
		<path d="M1474.6,216.7c0,1.2,0.3,2.1,0.9,2.8c0.6,0.7,1.5,1,2.6,1c1.1,0,2-0.3,2.6-0.9c0.6-0.6,0.9-1.4,0.9-2.5l0.2,3.6
			c-0.4,0.9-0.9,1.6-1.7,2.1c-0.8,0.6-1.8,0.9-2.9,0.9c-1.9,0-3.4-0.6-4.4-1.8c-1-1.2-1.6-2.9-1.6-5.2v-10.5h3.4V216.7z
			 M1481.6,206.2h3.4v17.2h-3.4V206.2z"/>
		<path d="M1490.1,199.3h3.4v24.1h-3.4V199.3z M1495,222.9c-0.8-0.5-1.4-1.2-1.8-2.2l0.2-3.6c0,0.7,0.1,1.4,0.4,1.9
			c0.3,0.5,0.7,0.9,1.2,1.2c0.5,0.3,1.1,0.4,1.8,0.4c1.1,0,2-0.3,2.6-1c0.6-0.7,0.9-1.6,0.9-2.9V213c0-1.3-0.3-2.2-0.9-2.9
			c-0.6-0.7-1.5-1-2.6-1c-0.7,0-1.3,0.1-1.8,0.4c-0.5,0.3-0.9,0.7-1.2,1.2s-0.4,1.1-0.4,1.9l-0.3-3.3c0.5-1,1.2-1.8,2-2.3
			s1.8-0.8,2.8-0.8c1.2,0,2.3,0.3,3.1,0.8c0.9,0.5,1.5,1.3,2,2.4c0.5,1.1,0.7,2.3,0.7,3.8v3.8c0,1.5-0.2,2.7-0.7,3.8
			c-0.5,1-1.1,1.8-2,2.4s-2,0.8-3.2,0.8C1496.7,223.7,1495.8,223.4,1495,222.9z"/>
		<path d="M1512,219c0,0.4,0.1,0.7,0.3,1c0.2,0.2,0.4,0.3,0.8,0.3h1.6v3.2h-2c-1.3,0-2.3-0.4-3-1.2c-0.7-0.8-1.1-1.9-1.1-3.4v-19.7
			h3.4V219z"/>
		<path d="M1518.4,199.3h3.4v3.4h-3.4V199.3z M1518.4,206.2h3.4v17.2h-3.4V206.2z"/>
		<path d="M1531.5,223.7c0,0-0.6-0.3-1.7-0.9c-1.1-0.6-2-1.4-2.5-2.6c-0.6-1.1-0.9-2.5-0.9-4.1v-2.8c0-1.6,0.3-2.9,0.9-4
			c0.6-1.1,1.4-2,2.5-2.5c1.1-0.6,2.5-0.9,4-0.9c0.9,0,1.7,0.1,2.5,0.3c0.8,0.2,1.5,0.5,2.1,0.9c0.6,0.4,1.2,0.9,1.6,1.5l-2.4,2.2
			c-0.5-0.6-1.1-1-1.7-1.3s-1.3-0.4-2-0.4c-1.3,0-2.3,0.4-3,1.1s-1.1,1.8-1.1,3.1v2.8c0,1.4,0.4,2.4,1.1,3.2c0.7,0.7,1.7,1.1,3,1.1
			c0.7,0,1.4-0.2,2.1-0.5c0.7-0.3,1.2-0.8,1.7-1.4l2.4,2.4c-0.4,0.6-1,1.1-1.6,1.5c-0.6,0.4-1.3,0.7-2.1,0.9
			c-0.8,0.2-1.6,0.3-2.5,0.3C1532.3,223.7,1531.5,223.7,1531.5,223.7z"/>
		<path d="M1453.7,264.2h-3.4v-24.1h3.4V264.2z"/>
		<path d="M1459.4,247h3.4v17.2h-3.4V247z M1469.8,253.8c0-1.2-0.3-2.2-0.9-2.8s-1.5-1-2.7-1c-1.1,0-2,0.3-2.6,0.9
			c-0.6,0.6-0.9,1.4-0.9,2.5l-0.3-3.3c0.5-1,1.2-1.8,2.1-2.4c0.9-0.6,1.8-0.8,2.8-0.8c1.9,0,3.3,0.6,4.3,1.8c1,1.2,1.5,3,1.5,5.2
			v10.5h-3.4V253.8z"/>
		<path d="M1480.6,263.7c-0.9-0.5-1.6-1.3-2-2.4c-0.5-1.1-0.7-2.3-0.7-3.8v-3.8c0-1.5,0.2-2.8,0.7-3.8c0.5-1.1,1.1-1.9,2-2.4
			c0.9-0.5,1.9-0.8,3.1-0.8c1,0,2,0.3,2.8,0.8c0.8,0.5,1.5,1.3,2,2.2l-0.3,3.5c0-0.7-0.1-1.4-0.4-1.9c-0.3-0.5-0.7-0.9-1.2-1.2
			c-0.5-0.3-1.1-0.4-1.8-0.4c-1.1,0-2,0.3-2.6,1c-0.6,0.7-0.9,1.7-0.9,2.9v3.8c0,1.3,0.3,2.2,0.9,2.9c0.6,0.7,1.5,1,2.6,1
			c0.7,0,1.3-0.1,1.8-0.4c0.5-0.3,0.9-0.7,1.2-1.2s0.4-1.2,0.4-1.9l0.2,3.6c-0.3,0.9-0.9,1.6-1.7,2.1c-0.8,0.6-1.7,0.9-2.9,0.9
			C1482.6,264.5,1481.5,264.3,1480.6,263.7z M1488.1,240.1h3.4v24.1h-3.4V240.1z"/>
		<path d="M1501.3,264.5c0,0-0.6-0.3-1.7-0.9s-2-1.5-2.6-2.6c-0.6-1.2-0.9-2.6-0.9-4.2v-1.9c0-1.7,0.3-3.2,0.9-4.4
			c0.6-1.2,1.4-2.1,2.5-2.8s2.4-0.9,3.9-0.9c1.4,0,2.7,0.4,3.7,1.1c1,0.7,1.8,1.8,2.3,3.1c0.5,1.4,0.8,3,0.8,4.9v1.1h-11.6v-2.7h8.4
			c-0.1-1.4-0.5-2.5-1.1-3.3c-0.6-0.8-1.5-1.2-2.5-1.2c-1.3,0-2.3,0.4-3,1.3c-0.7,0.8-1.1,2-1.1,3.6v2.2c0,1.4,0.4,2.5,1.1,3.3
			s1.8,1.1,3.2,1.1c0.7,0,1.4-0.1,2-0.4c0.7-0.3,1.3-0.7,1.8-1.2l2.2,2.2c-0.9,0.8-1.8,1.5-2.9,1.9s-2.1,0.7-3.2,0.7
			C1502.1,264.5,1501.3,264.5,1501.3,264.5z"/>
		<path d="M1519.5,264.5c0,0-0.6-0.3-1.7-0.9c-1.1-0.6-2-1.4-2.5-2.6c-0.6-1.1-0.9-2.5-0.9-4.1v-2.8c0-1.6,0.3-2.9,0.9-4
			c0.6-1.1,1.4-2,2.5-2.5c1.1-0.6,2.5-0.9,4-0.9c0.9,0,1.7,0.1,2.5,0.3c0.8,0.2,1.5,0.5,2.1,0.9c0.6,0.4,1.2,0.9,1.6,1.5l-2.4,2.2
			c-0.5-0.6-1.1-1-1.7-1.3s-1.3-0.4-2-0.4c-1.3,0-2.3,0.4-3,1.1s-1.1,1.8-1.1,3.1v2.8c0,1.4,0.4,2.4,1.1,3.2c0.7,0.7,1.7,1.1,3,1.1
			c0.7,0,1.4-0.2,2.1-0.5c0.7-0.3,1.2-0.8,1.7-1.4l2.4,2.4c-0.4,0.6-1,1.1-1.6,1.5c-0.6,0.4-1.3,0.7-2.1,0.9
			c-0.8,0.2-1.6,0.3-2.5,0.3C1520.3,264.5,1519.5,264.5,1519.5,264.5z"/>
		<path d="M1536.5,264.5c0,0-0.6-0.3-1.7-0.9s-2-1.5-2.6-2.6c-0.6-1.2-0.9-2.6-0.9-4.2v-1.9c0-1.7,0.3-3.2,0.9-4.4
			c0.6-1.2,1.4-2.1,2.5-2.8s2.4-0.9,3.9-0.9c1.4,0,2.7,0.4,3.7,1.1c1,0.7,1.8,1.8,2.3,3.1c0.5,1.4,0.8,3,0.8,4.9v1.1h-11.6v-2.7h8.4
			c-0.1-1.4-0.5-2.5-1.1-3.3c-0.6-0.8-1.5-1.2-2.5-1.2c-1.3,0-2.3,0.4-3,1.3c-0.7,0.8-1.1,2-1.1,3.6v2.2c0,1.4,0.4,2.5,1.1,3.3
			s1.8,1.1,3.2,1.1c0.7,0,1.4-0.1,2-0.4c0.7-0.3,1.3-0.7,1.8-1.2l2.2,2.2c-0.9,0.8-1.8,1.5-2.9,1.9s-2.1,0.7-3.2,0.7
			C1537.3,264.5,1536.5,264.5,1536.5,264.5z"/>
		<path d="M1550.1,247h3.4v17.2h-3.4V247z M1560.5,253.8c0-1.2-0.3-2.2-0.9-2.8s-1.5-1-2.7-1c-1.1,0-2,0.3-2.6,0.9
			c-0.6,0.6-0.9,1.4-0.9,2.5l-0.3-3.3c0.5-1,1.2-1.8,2.1-2.4c0.9-0.6,1.8-0.8,2.8-0.8c1.9,0,3.3,0.6,4.3,1.8c1,1.2,1.5,3,1.5,5.2
			v10.5h-3.4V253.8z"/>
		<path d="M1573.7,264.5c0,0-0.6-0.3-1.7-0.9c-1.1-0.6-2-1.4-2.5-2.6c-0.6-1.1-0.9-2.5-0.9-4.1v-2.8c0-1.6,0.3-2.9,0.9-4
			c0.6-1.1,1.4-2,2.5-2.5c1.1-0.6,2.5-0.9,4-0.9c0.9,0,1.7,0.1,2.5,0.3c0.8,0.2,1.5,0.5,2.1,0.9c0.6,0.4,1.2,0.9,1.6,1.5l-2.4,2.2
			c-0.5-0.6-1.1-1-1.7-1.3s-1.3-0.4-2-0.4c-1.3,0-2.3,0.4-3,1.1s-1.1,1.8-1.1,3.1v2.8c0,1.4,0.4,2.4,1.1,3.2c0.7,0.7,1.7,1.1,3,1.1
			c0.7,0,1.4-0.2,2.1-0.5c0.7-0.3,1.2-0.8,1.7-1.4l2.4,2.4c-0.4,0.6-1,1.1-1.6,1.5c-0.6,0.4-1.3,0.7-2.1,0.9
			c-0.8,0.2-1.6,0.3-2.5,0.3C1574.4,264.5,1573.7,264.5,1573.7,264.5z"/>
		<path d="M1584.2,247h3.5l5.3,15l-1.9,3.7L1584.2,247z M1599.4,247l-7.3,21.3c-0.3,0.8-0.6,1.4-1,1.9c-0.4,0.5-1,0.8-1.6,1
			s-1.4,0.3-2.3,0.3h-0.7v-3.3h0.7c0.6,0,1.1-0.1,1.5-0.4c0.4-0.3,0.7-0.7,1-1.3l6.4-19.5H1599.4z"/>
	</g>
</g>
</svg>
