<?xml version="1.0" encoding="utf-8"?>
<!-- Generator: Adobe Illustrator 23.0.3, SVG Export Plug-In . SVG Version: 6.00 Build 0)  -->
<svg version="1.1" id="Layer_1" xmlns="http://www.w3.org/2000/svg" xmlns:xlink="http://www.w3.org/1999/xlink" x="0px" y="0px"
	 viewBox="0 0 519.3 449.8" style="enable-background:new 0 0 519.3 449.8;" xml:space="preserve">
<polygon style="opacity:0.46;fill:none;stroke:#45B6FE;stroke-miterlimit:10;enable-background:new    ;" points="389.5,0 129.8,0 
	0,224.9 129.8,449.8 389.5,449.8 519.3,224.9 "/>
<g>
	<g>
		<path d="M72.5,168.9h7.2V220h-7.2V168.9z M76.2,193.4h16.3c1.5,0,2.9-0.4,4.1-1.1c1.2-0.7,2.1-1.8,2.7-3.1c0.6-1.3,1-2.9,1-4.6
			c0-1.8-0.3-3.3-1-4.6c-0.6-1.3-1.6-2.4-2.7-3.1c-1.2-0.7-2.5-1.1-4.1-1.1H76.2v-6.8h16.1c3,0,5.7,0.7,8.1,2s4.1,3.1,5.4,5.5
			c1.3,2.4,1.9,5.1,1.9,8.2c0,3.1-0.6,5.9-1.9,8.2c-1.3,2.4-3.1,4.2-5.4,5.5c-2.3,1.3-5,1.9-8.1,1.9H76.2V193.4z"/>
		<path d="M123.8,210.6c0,0.9,0.2,1.6,0.6,2.1c0.4,0.5,0.9,0.7,1.6,0.7h3.4v6.8h-4.2c-2.7,0-4.8-0.8-6.3-2.5
			c-1.5-1.7-2.2-4.1-2.2-7.1v-41.6h7.2V210.6z"/>
		<path d="M139.1,217.7c-2.2-1.9-3.3-4.7-3.3-8.5c0-3.6,1-6.3,3.1-8.1c2-1.8,5.1-2.7,9.2-2.7h10.4l0.5,5.8h-10.8
			c-1.9,0-3.3,0.4-4.2,1.2c-0.9,0.8-1.4,2.1-1.4,3.8c0,1.9,0.6,3.2,1.8,4.1c1.2,0.9,3.1,1.3,5.6,1.3c2.7,0,4.8-0.3,6.1-0.9
			c1.3-0.6,2-1.5,2-2.7l0.7,5.1c-0.6,1-1.4,1.8-2.3,2.4c-0.9,0.6-2,1.1-3.2,1.4c-1.2,0.3-2.6,0.5-4.1,0.5
			C144.7,220.5,141.3,219.6,139.1,217.7z M158.1,196.9c0-2.4-0.6-4.2-1.9-5.6c-1.3-1.3-3.1-2-5.4-2c-1.5,0-2.9,0.2-4.3,0.7
			c-1.4,0.4-2.6,1.1-3.7,1.9l-5.2-3.6c1.4-1.7,3.2-3,5.5-3.9c2.3-0.9,4.8-1.4,7.5-1.4c3,0,5.6,0.5,7.8,1.6c2.2,1.1,3.8,2.6,4.9,4.6
			c1.1,2,1.7,4.5,1.7,7.3V220h-6.8V196.9z"/>
		<path d="M185.6,220.5c0,0-1.2-0.6-3.5-1.9c-2.4-1.2-4.2-3-5.4-5.4c-1.2-2.4-1.9-5.2-1.9-8.6v-6c0-3.3,0.6-6.1,1.9-8.5
			c1.2-2.3,3-4.1,5.4-5.4s5.2-1.8,8.5-1.8c1.9,0,3.7,0.2,5.4,0.7c1.7,0.5,3.2,1.1,4.5,2c1.3,0.9,2.4,1.9,3.3,3.2l-5.2,4.6
			c-1-1.2-2.2-2.1-3.6-2.7c-1.4-0.6-2.8-0.9-4.3-0.9c-2.8,0-4.9,0.8-6.4,2.3c-1.5,1.5-2.3,3.7-2.3,6.5v6c0,2.9,0.8,5.1,2.3,6.7
			c1.5,1.6,3.7,2.4,6.5,2.4c1.5,0,3-0.3,4.4-1c1.4-0.7,2.6-1.6,3.6-2.9l5.2,5c-0.9,1.2-2,2.3-3.4,3.1c-1.3,0.9-2.8,1.5-4.5,2
			c-1.7,0.4-3.5,0.7-5.3,0.7C187.2,220.5,185.6,220.5,185.6,220.5z"/>
		<path d="M221.6,220.5c0,0-1.2-0.6-3.6-1.9s-4.2-3.1-5.5-5.6c-1.3-2.4-1.9-5.4-1.9-8.9v-4.1c0-3.6,0.6-6.7,1.8-9.2
			c1.2-2.6,3-4.5,5.3-5.8c2.3-1.3,5.1-2,8.3-2c3,0,5.6,0.8,7.8,2.3c2.2,1.5,3.8,3.7,4.9,6.6c1.1,2.9,1.7,6.3,1.7,10.4v2.4h-24.6
			v-5.8h17.8c-0.2-3-1-5.3-2.3-6.9c-1.3-1.7-3.1-2.5-5.3-2.5c-2.7,0-4.8,0.9-6.3,2.7c-1.5,1.8-2.2,4.3-2.2,7.6v4.6
			c0,3,0.8,5.3,2.4,7c1.6,1.6,3.9,2.4,6.8,2.4c1.5,0,2.9-0.3,4.3-0.9c1.4-0.6,2.7-1.4,3.8-2.5l4.7,4.7c-1.8,1.7-3.8,3.1-6.1,4
			s-4.5,1.4-6.8,1.4C223.2,220.5,221.6,220.5,221.6,220.5z"/>
		<path d="M250.3,168.9h7.2V220h-7.2V168.9z M272.4,197.9c0-2.6-0.7-4.6-2-6s-3.2-2.1-5.6-2.1c-2.3,0-4.2,0.6-5.4,1.8
			c-1.3,1.2-1.9,2.9-1.9,5.2l-0.7-7c1.1-2.2,2.6-3.8,4.4-5c1.8-1.2,3.8-1.8,6-1.8c4,0,7,1.3,9.2,3.9c2.2,2.6,3.3,6.3,3.3,11V220
			h-7.2V197.9z"/>
		<path d="M296.4,218.7c-2.3-1.2-4-3.1-5.2-5.4c-1.2-2.4-1.8-5.2-1.8-8.6v-5.9c0-3.3,0.6-6.1,1.8-8.5c1.2-2.4,2.9-4.1,5.2-5.4
			s5-1.8,8.1-1.8s5.9,0.6,8.1,1.8s4,3,5.2,5.4c1.2,2.4,1.8,5.2,1.8,8.5v6c0,3.3-0.6,6.2-1.8,8.5c-1.2,2.4-2.9,4.2-5.2,5.4
			c-2.3,1.2-5,1.9-8.1,1.9S298.6,219.9,296.4,218.7z M310.3,211.4c1.4-1.6,2.1-3.8,2.1-6.6v-6c0-2.8-0.7-5-2.1-6.6s-3.3-2.3-5.8-2.3
			c-2.5,0-4.4,0.8-5.8,2.3s-2.1,3.7-2.1,6.6v6c0,2.8,0.7,5,2.1,6.6c1.4,1.6,3.3,2.4,5.8,2.4C307,213.7,308.9,212.9,310.3,211.4z"/>
		<path d="M336.9,210.6c0,0.9,0.2,1.6,0.6,2.1c0.4,0.5,0.9,0.7,1.6,0.7h3.4v6.8h-4.2c-2.7,0-4.8-0.8-6.3-2.5
			c-1.5-1.7-2.2-4.1-2.2-7.1v-41.6h7.2V210.6z"/>
		<path d="M355.3,218.9c-1.9-1.2-3.3-2.9-4.3-5.1c-1-2.2-1.5-4.9-1.5-8v-8.1c0-3.1,0.5-5.8,1.4-8.1c1-2.2,2.4-3.9,4.2-5.1
			c1.8-1.2,4-1.7,6.6-1.7c2.2,0,4.1,0.6,5.9,1.7s3.2,2.7,4.3,4.7l-0.7,7.5c0-1.5-0.3-2.9-0.8-4c-0.6-1.1-1.4-1.9-2.4-2.5
			c-1.1-0.6-2.4-0.9-3.9-0.9c-2.4,0-4.2,0.7-5.5,2.2s-2,3.6-2,6.2v7.9c0,2.6,0.7,4.7,2,6.1s3.1,2.2,5.5,2.2c1.5,0,2.8-0.3,3.9-0.9
			c1.1-0.6,1.9-1.5,2.4-2.6s0.8-2.5,0.8-4l0.5,7.7c-0.7,1.8-1.9,3.3-3.6,4.5s-3.7,1.8-6.1,1.8C359.5,220.6,357.2,220.1,355.3,218.9z
			 M371.3,168.9h7.2V220h-7.2V168.9z"/>
		<path d="M399.3,220.5c0,0-1.2-0.6-3.6-1.9s-4.2-3.1-5.5-5.6c-1.3-2.4-1.9-5.4-1.9-8.9v-4.1c0-3.6,0.6-6.7,1.8-9.2
			c1.2-2.6,3-4.5,5.3-5.8c2.3-1.3,5.1-2,8.3-2c3,0,5.6,0.8,7.8,2.3c2.2,1.5,3.8,3.7,4.9,6.6s1.7,6.3,1.7,10.4v2.4h-24.6v-5.8h17.8
			c-0.2-3-1-5.3-2.3-6.9s-3.1-2.5-5.3-2.5c-2.7,0-4.8,0.9-6.3,2.7c-1.5,1.8-2.2,4.3-2.2,7.6v4.6c0,3,0.8,5.3,2.4,7
			c1.6,1.6,3.9,2.4,6.8,2.4c1.5,0,2.9-0.3,4.3-0.9c1.4-0.6,2.7-1.4,3.8-2.5l4.7,4.7c-1.8,1.7-3.8,3.1-6.1,4s-4.5,1.4-6.8,1.4
			C401,220.5,399.3,220.5,399.3,220.5z"/>
		<path d="M428,183.5h7.2V220H428V183.5z M445.7,190.4c-1-0.4-2.1-0.6-3.3-0.6c-2.3,0-4,0.6-5.3,1.9c-1.3,1.3-1.9,3-1.9,5.2l-0.7-7
			c1.1-2.2,2.6-3.9,4.4-5.1c1.8-1.2,3.8-1.8,5.9-1.8c1.7,0,3.2,0.2,4.5,0.7c1.3,0.5,2.5,1.2,3.5,2.1l-4.7,6.3
			C447.4,191.4,446.6,190.8,445.7,190.4z"/>
		<path d="M164.9,255.3h7.1v51.1h-7.1V255.3z M169.2,299.8H183c3.6,0,6.3-0.7,7.9-2.1c1.7-1.4,2.5-3.3,2.5-5.8v-0.1
			c0-1.7-0.3-3.2-0.9-4.5s-1.5-2.2-2.8-2.9c-1.3-0.7-2.9-1-5-1h-15.6v-6.5h15.6c2.6,0,4.6-0.6,6-1.9c1.3-1.2,2-3.1,2-5.5
			c0-2.6-0.8-4.5-2.3-5.7c-1.5-1.3-3.8-1.9-6.8-1.9h-14.6v-6.6h15.9c3.3,0,6.1,0.6,8.3,1.7c2.2,1.1,3.9,2.7,5,4.8
			c1.1,2.1,1.7,4.5,1.7,7.4c0,1.8-0.3,3.4-1,4.9c-0.7,1.5-1.7,2.8-3.1,3.9c-1.4,1.1-3.1,1.8-5.2,2.2c2.1,0.3,3.8,1,5.3,2.2
			c1.5,1.2,2.6,2.6,3.4,4.3c0.8,1.7,1.2,3.6,1.2,5.6v0.1c0,2.8-0.6,5.2-1.8,7.3c-1.2,2.1-3,3.7-5.2,4.9c-2.3,1.1-4.9,1.7-7.9,1.7
			h-16.5V299.8z"/>
		<path d="M216.6,305.1c-2.3-1.2-4-3.1-5.2-5.4c-1.2-2.4-1.8-5.2-1.8-8.6v-5.9c0-3.3,0.6-6.1,1.8-8.5c1.2-2.4,2.9-4.1,5.2-5.4
			s5-1.8,8.1-1.8s5.9,0.6,8.1,1.8s4,3,5.2,5.4c1.2,2.4,1.8,5.2,1.8,8.5v6c0,3.3-0.6,6.2-1.8,8.5c-1.2,2.4-2.9,4.2-5.2,5.4
			s-5,1.9-8.1,1.9S218.8,306.3,216.6,305.1z M230.5,297.8c1.4-1.6,2.1-3.8,2.1-6.6v-6c0-2.8-0.7-5-2.1-6.6s-3.3-2.3-5.8-2.3
			c-2.5,0-4.4,0.8-5.8,2.3s-2.1,3.7-2.1,6.6v6c0,2.8,0.7,5,2.1,6.6s3.3,2.4,5.8,2.4C227.2,300.1,229.2,299.3,230.5,297.8z"/>
		<path d="M249.9,269.9h7.2v36.5h-7.2V269.9z M272.1,284.3c0-2.6-0.7-4.6-2-6s-3.2-2.1-5.6-2.1c-2.3,0-4.2,0.6-5.4,1.9
			c-1.3,1.2-1.9,3-1.9,5.2l-0.7-7c1.1-2.2,2.6-3.9,4.4-5.1c1.8-1.2,3.8-1.8,6-1.8c4,0,7,1.3,9.2,3.9c2.2,2.6,3.3,6.3,3.3,11v22.1
			h-7.2V284.3z"/>
		<path d="M294.9,305.3c-1.9-1.2-3.3-2.9-4.3-5.1s-1.5-4.9-1.5-8v-8.1c0-3.1,0.5-5.8,1.4-8.1c1-2.2,2.4-3.9,4.2-5.1
			c1.8-1.2,4-1.7,6.6-1.7c2.2,0,4.1,0.6,5.9,1.7s3.2,2.7,4.3,4.7l-0.7,7.5c0-1.5-0.3-2.9-0.8-4s-1.4-1.9-2.4-2.5
			c-1.1-0.6-2.4-0.9-3.9-0.9c-2.4,0-4.2,0.7-5.5,2.2s-2,3.6-2,6.2v7.9c0,2.6,0.7,4.7,2,6.1s3.1,2.2,5.5,2.2c1.5,0,2.8-0.3,3.9-0.9
			c1.1-0.6,1.9-1.5,2.4-2.6s0.8-2.5,0.8-4l0.5,7.7c-0.7,1.8-1.9,3.3-3.6,4.5s-3.7,1.8-6.1,1.8C299.1,307,296.8,306.5,294.9,305.3z
			 M310.9,255.3h7.2v51.1h-7.2V255.3z"/>
		<path d="M338.6,306.9c0,0-0.9-0.2-2.8-0.6c-1.9-0.4-3.7-1.1-5.3-1.9c-1.6-0.8-3.2-1.9-4.5-3.2l4.3-5.2c2,1.5,3.9,2.6,5.9,3.4
			c1.9,0.8,3.9,1.1,5.8,1.1c2.8,0,5-0.4,6.4-1.3c1.4-0.9,2.1-2.2,2.1-4c0-1.2-0.4-2.1-1.2-2.6s-1.7-1-2.9-1.2
			c-1.1-0.2-2.8-0.4-4.9-0.5c-0.2,0-0.4,0-0.6,0s-0.4,0-0.6-0.1c-0.1,0-0.2,0-0.3,0c-0.1,0-0.2,0-0.3,0c-2.4-0.2-4.4-0.5-6-1
			c-1.6-0.5-3-1.4-4.1-2.8s-1.6-3.4-1.6-5.9s0.5-4.7,1.6-6.4s2.6-3,4.7-3.8c2.1-0.9,4.7-1.3,7.8-1.3c1.9,0,3.7,0.2,5.4,0.5
			s3.4,0.9,4.9,1.6c1.6,0.7,3.1,1.6,4.5,2.6l-4.3,5.2c-1.8-1.2-3.6-2.1-5.4-2.6c-1.8-0.6-3.5-0.9-5.2-0.9c-2.4,0-4.3,0.4-5.5,1.2
			c-1.2,0.8-1.8,2.1-1.8,3.7c0,1,0.3,1.7,1,2.2c0.7,0.5,1.6,0.8,2.6,1s2.6,0.3,4.5,0.4c0.1,0,0.3,0,0.4,0c0.2,0,0.3,0,0.5,0
			c0.1,0,0.1,0,0.2,0s0.1,0,0.2,0c2.6,0.2,4.7,0.5,6.5,1s3.3,1.5,4.5,3.1c1.2,1.5,1.8,3.7,1.8,6.6c0,2.6-0.6,4.8-1.7,6.5
			s-2.8,3-5.1,3.9c-2.3,0.9-5.1,1.3-8.5,1.3C339.7,306.9,338.6,306.9,338.6,306.9z"/>
	</g>
</g>
</svg>
