<?xml version="1.0" encoding="utf-8"?>
<!-- Generator: Adobe Illustrator 23.0.3, SVG Export Plug-In . SVG Version: 6.00 Build 0)  -->
<svg version="1.1" id="Layer_1" xmlns="http://www.w3.org/2000/svg" xmlns:xlink="http://www.w3.org/1999/xlink" x="0px" y="0px"
	 viewBox="0 0 571.5 507.5" style="enable-background:new 0 0 571.5 507.5;" xml:space="preserve">
<polygon style="fill:#08325B;stroke:#000000;stroke-miterlimit:10;" points="416.4,22.9 158.1,22.9 28.9,246.7 158.1,470.4 
	416.4,470.4 545.6,246.7 "/>
<g>
	<g>
		<path d="M218.3,218.5h6.5l25,39.5l-0.8,0.9v-40.4h7.1v51.1h-6.6l-24.9-38.9l0.8-0.9v39.8h-7.1V218.5z"/>
		<path d="M277.9,270.1c0,0-1.2-0.6-3.6-1.9s-4.2-3.1-5.5-5.6c-1.3-2.4-1.9-5.4-1.9-8.9v-4.1c0-3.6,0.6-6.7,1.8-9.2
			c1.2-2.6,3-4.5,5.3-5.8c2.3-1.3,5.1-2,8.3-2c3,0,5.6,0.8,7.8,2.3c2.2,1.5,3.8,3.7,4.9,6.6c1.1,2.9,1.7,6.3,1.7,10.4v2.4h-24.6
			v-5.8H290c-0.2-3-1-5.3-2.3-6.9c-1.3-1.7-3.1-2.5-5.3-2.5c-2.7,0-4.8,0.9-6.3,2.7c-1.5,1.8-2.2,4.3-2.2,7.6v4.6c0,3,0.8,5.3,2.4,7
			c1.6,1.6,3.9,2.4,6.8,2.4c1.5,0,2.9-0.3,4.3-0.9c1.4-0.6,2.7-1.4,3.8-2.5l4.7,4.7c-1.8,1.7-3.8,3.1-6.1,4s-4.5,1.4-6.8,1.4
			C279.6,270.1,277.9,270.1,277.9,270.1z"/>
		<path d="M316.9,249.4l3.4,6.6l-9.3,13.5h-7.9L316.9,249.4z M317.1,253l-13.4-19.9h8l10.5,16.3l13.8,20.1H328L317.1,253z
			 M319.4,246l8-12.9h8l-12.9,19.7L319.4,246z"/>
		<path d="M341,233.1h16.5v6.5H341V233.1z M346.9,267.3c-1.4-1.6-2.1-4-2.1-7.2v-37.6h7.2v37.7c0,0.9,0.2,1.6,0.5,2.1
			c0.4,0.5,0.9,0.7,1.5,0.7h3.4v6.8h-4.1C350.4,269.8,348.2,269,346.9,267.3z"/>
	</g>
</g>
</svg>
