<?xml version="1.0" encoding="utf-8"?>
<!-- Generator: Adobe Illustrator 23.0.3, SVG Export Plug-In . SVG Version: 6.00 Build 0)  -->
<svg version="1.1" id="Layer_1" xmlns="http://www.w3.org/2000/svg" xmlns:xlink="http://www.w3.org/1999/xlink" x="0px" y="0px"
	 viewBox="0 0 519.3 449.8" style="enable-background:new 0 0 519.3 449.8;" xml:space="preserve">
<polygon style="opacity:0.46;fill:none;stroke:#45B6FE;stroke-miterlimit:10;enable-background:new    ;" points="389.5,0 129.8,0 
	0,224.9 129.8,449.8 389.5,449.8 519.3,224.9 "/>
<g>
	<g>
		<path d="M181.8,241.2c-2.7-1.6-4.8-3.8-6.3-6.6c-1.5-2.8-2.2-6.1-2.2-9.9v-14.5c0-3.7,0.7-7,2.2-9.9c1.5-2.8,3.6-5.1,6.3-6.6
			c2.7-1.6,5.9-2.3,9.4-2.3c3.6,0,6.7,0.8,9.4,2.3c2.7,1.6,4.8,3.8,6.3,6.6c1.5,2.8,2.2,6.1,2.2,9.9v14.5c0,3.8-0.7,7-2.2,9.9
			c-1.5,2.8-3.6,5.1-6.3,6.6c-2.7,1.6-5.9,2.3-9.4,2.3C187.7,243.5,184.5,242.7,181.8,241.2z M196.8,235c1.6-0.9,2.8-2.3,3.7-4
			s1.3-3.8,1.3-6.1v-15c0-2.3-0.4-4.3-1.3-6.1c-0.9-1.7-2.1-3.1-3.7-4c-1.6-0.9-3.5-1.4-5.6-1.4s-4,0.5-5.6,1.4
			c-1.6,0.9-2.8,2.3-3.7,4c-0.9,1.7-1.3,3.8-1.3,6.1v15c0,2.3,0.4,4.3,1.3,6.1s2.1,3.1,3.7,4c1.6,0.9,3.5,1.4,5.6,1.4
			S195.2,236,196.8,235z"/>
		<path d="M217.3,206.5h16.5v6.5h-16.5V206.5z M223.1,240.7c-1.4-1.6-2.1-4-2.1-7.2v-37.6h7.2v37.7c0,0.9,0.2,1.6,0.5,2.1
			s0.9,0.7,1.5,0.7h3.4v6.8h-4.1C226.6,243.2,224.5,242.4,223.1,240.7z"/>
		<path d="M243.6,191.9h7.2V243h-7.2V191.9z M265.7,220.9c0-2.6-0.7-4.6-2-6s-3.2-2.1-5.6-2.1c-2.3,0-4.2,0.6-5.4,1.8
			c-1.3,1.2-1.9,2.9-1.9,5.2l-0.7-7c1.1-2.2,2.6-3.8,4.4-5c1.8-1.2,3.8-1.8,6-1.8c4,0,7,1.3,9.2,3.9c2.2,2.6,3.3,6.3,3.3,11V243
			h-7.2V220.9z"/>
		<path d="M293.7,243.5c0,0-1.2-0.6-3.6-1.9s-4.2-3.1-5.5-5.6s-1.9-5.4-1.9-8.9v-4.1c0-3.6,0.6-6.7,1.8-9.2c1.2-2.6,3-4.5,5.3-5.8
			s5.1-2,8.3-2c3,0,5.6,0.8,7.8,2.3c2.2,1.5,3.8,3.7,4.9,6.6s1.7,6.3,1.7,10.4v2.4H288v-5.8h17.8c-0.2-3-1-5.3-2.3-6.9
			s-3.1-2.5-5.3-2.5c-2.7,0-4.8,0.9-6.3,2.7c-1.5,1.8-2.2,4.3-2.2,7.6v4.6c0,3,0.8,5.3,2.4,7s3.9,2.4,6.8,2.4c1.5,0,2.9-0.3,4.3-0.9
			s2.7-1.4,3.8-2.5l4.7,4.7c-1.8,1.7-3.8,3.1-6.1,4s-4.5,1.4-6.8,1.4C295.4,243.5,293.7,243.5,293.7,243.5z"/>
		<path d="M322.4,206.5h7.2V243h-7.2V206.5z M340.1,213.4c-1-0.4-2.1-0.6-3.3-0.6c-2.3,0-4,0.6-5.3,1.9c-1.3,1.3-1.9,3-1.9,5.2
			l-0.7-7c1.1-2.2,2.6-3.9,4.4-5.1c1.8-1.2,3.8-1.8,5.9-1.8c1.7,0,3.2,0.2,4.5,0.7c1.3,0.5,2.5,1.2,3.5,2.1l-4.7,6.3
			C341.8,214.4,341.1,213.8,340.1,213.4z"/>
	</g>
</g>
</svg>
