<?xml version="1.0" encoding="utf-8"?>
<!-- Generator: Adobe Illustrator 23.0.3, SVG Export Plug-In . SVG Version: 6.00 Build 0)  -->
<svg version="1.1" id="Layer_1" xmlns="http://www.w3.org/2000/svg" xmlns:xlink="http://www.w3.org/1999/xlink" x="0px" y="0px"
	 viewBox="0 0 519.3 449.8" style="enable-background:new 0 0 519.3 449.8;" xml:space="preserve">
<polygon style="opacity:0.46;fill:none;stroke:#45B6FE;stroke-miterlimit:10;enable-background:new    ;" points="389.5,0 129.8,0 
	0,224.9 129.8,449.8 389.5,449.8 519.3,224.9 "/>
<g>
	<g>
		<path d="M132.3,195.9h7.2V247h-7.2V195.9z M136,220.4h16.3c1.5,0,2.9-0.4,4.1-1.1c1.2-0.7,2.1-1.8,2.7-3.1c0.6-1.3,1-2.9,1-4.6
			c0-1.8-0.3-3.3-1-4.6c-0.6-1.3-1.6-2.4-2.7-3.1c-1.2-0.7-2.5-1.1-4.1-1.1H136v-6.8h16.1c3,0,5.7,0.7,8.1,2s4.1,3.1,5.4,5.5
			c1.3,2.4,1.9,5.1,1.9,8.2c0,3.1-0.6,5.9-1.9,8.2c-1.3,2.4-3.1,4.2-5.4,5.5c-2.3,1.3-5,1.9-8.1,1.9H136V220.4z"/>
		<path d="M176.4,210.5h7.2V247h-7.2V210.5z M194.1,217.4c-1-0.4-2.1-0.6-3.3-0.6c-2.3,0-4,0.6-5.3,1.9c-1.3,1.3-1.9,3-1.9,5.2
			l-0.7-7c1.1-2.2,2.6-3.9,4.4-5.1c1.8-1.2,3.7-1.8,5.9-1.8c1.7,0,3.2,0.2,4.5,0.7c1.3,0.5,2.5,1.2,3.5,2.1l-4.7,6.3
			C195.9,218.4,195.1,217.8,194.1,217.4z"/>
		<path d="M213,245.7c-2.3-1.2-4-3.1-5.2-5.4c-1.2-2.4-1.8-5.2-1.8-8.6v-5.9c0-3.3,0.6-6.1,1.8-8.5c1.2-2.4,2.9-4.1,5.2-5.4
			s5-1.8,8.1-1.8s5.9,0.6,8.1,1.8s4,3,5.2,5.4s1.8,5.2,1.8,8.5v6c0,3.3-0.6,6.2-1.8,8.5s-2.9,4.2-5.2,5.4s-5,1.9-8.1,1.9
			S215.3,246.9,213,245.7z M227,238.4c1.4-1.6,2.1-3.8,2.1-6.6v-6c0-2.8-0.7-5-2.1-6.6s-3.3-2.3-5.8-2.3c-2.5,0-4.4,0.8-5.8,2.3
			s-2.1,3.7-2.1,6.6v6c0,2.8,0.7,5,2.1,6.6s3.3,2.4,5.8,2.4C223.7,240.7,225.6,239.9,227,238.4z"/>
		<path d="M246.4,210.5h7.2v51.3h-7.2V210.5z M256.8,245.9c-1.7-1.1-2.9-2.6-3.7-4.6l0.5-7.6c0,1.6,0.3,2.9,0.8,4s1.4,1.9,2.4,2.5
			s2.4,0.9,3.9,0.9c2.4,0,4.2-0.7,5.5-2.2s2-3.5,2-6.1v-7.9c0-2.7-0.7-4.7-2-6.2s-3.1-2.2-5.5-2.2c-1.5,0-2.8,0.3-3.9,0.8
			s-1.9,1.4-2.4,2.5s-0.8,2.4-0.8,3.9l-0.7-7c1.1-2.1,2.5-3.8,4.3-4.9s3.8-1.7,5.9-1.7c2.6,0,4.8,0.6,6.6,1.7s3.2,2.9,4.2,5.1
			c1,2.2,1.4,4.9,1.4,8.1v7.9c0,3.1-0.5,5.7-1.5,7.9s-2.4,3.9-4.3,5s-4.2,1.7-6.8,1.7C260.5,247.5,258.5,247,256.8,245.9z"/>
		<path d="M295.5,247.5c0,0-1.2-0.6-3.6-1.9s-4.2-3.1-5.5-5.6s-1.9-5.4-1.9-8.9v-4.1c0-3.6,0.6-6.7,1.8-9.2c1.2-2.6,3-4.5,5.3-5.8
			s5.1-2,8.3-2c3,0,5.6,0.8,7.8,2.3c2.2,1.5,3.8,3.7,4.9,6.6s1.7,6.3,1.7,10.4v2.4h-24.6v-5.8h17.8c-0.2-3-1-5.3-2.3-6.9
			s-3.1-2.5-5.3-2.5c-2.7,0-4.8,0.9-6.3,2.7c-1.5,1.8-2.2,4.3-2.2,7.6v4.6c0,3,0.8,5.3,2.4,7s3.9,2.4,6.8,2.4c1.5,0,2.9-0.3,4.3-0.9
			s2.7-1.4,3.8-2.5l4.7,4.7c-1.8,1.7-3.8,3.1-6.1,4s-4.5,1.4-6.8,1.4C297.1,247.5,295.5,247.5,295.5,247.5z"/>
		<path d="M324.2,210.5h7.2V247h-7.2V210.5z M341.9,217.4c-1-0.4-2.1-0.6-3.3-0.6c-2.3,0-4,0.6-5.3,1.9c-1.3,1.3-1.9,3-1.9,5.2
			l-0.7-7c1.1-2.2,2.6-3.9,4.4-5.1c1.8-1.2,3.8-1.8,5.9-1.8c1.7,0,3.2,0.2,4.5,0.7c1.3,0.5,2.5,1.2,3.5,2.1l-4.7,6.3
			C343.6,218.4,342.8,217.8,341.9,217.4z"/>
		<path d="M352.1,210.5h16.5v6.5h-16.5V210.5z M357.9,244.7c-1.4-1.6-2.1-4-2.1-7.2v-37.6h7.2v37.7c0,0.9,0.2,1.6,0.5,2.1
			s0.9,0.7,1.5,0.7h3.4v6.8h-4.1C361.4,247.2,359.3,246.4,357.9,244.7z"/>
		<path d="M374.5,210.5h7.3l11.2,31.7l-4,7.8L374.5,210.5z M406.8,210.5l-15.5,45c-0.6,1.7-1.3,3-2.2,4s-2,1.7-3.4,2.1
			s-3,0.6-4.9,0.6h-1.4v-6.9h1.4c1.3,0,2.4-0.3,3.2-0.8s1.5-1.5,2.1-2.8l13.5-41.2H406.8z"/>
	</g>
</g>
</svg>
