<?xml version="1.0" encoding="utf-8"?>
<!-- Generator: Adobe Illustrator 23.0.3, SVG Export Plug-In . SVG Version: 6.00 Build 0)  -->
<svg version="1.1" id="Layer_1" xmlns="http://www.w3.org/2000/svg" xmlns:xlink="http://www.w3.org/1999/xlink" x="0px" y="0px"
	 viewBox="0 0 519.3 449.8" style="enable-background:new 0 0 519.3 449.8;" xml:space="preserve">
<polygon style="opacity:0.46;fill:#45B6FE;enable-background:new    ;" points="389.5,0 129.8,0 0,224.9 129.8,449.8 389.5,449.8 
	519.3,224.9 "/>
<g>
	<g>
		<path d="M171.3,188.9h7.2V240h-7.2V188.9z M176.2,233.2h11.6c3.8,0,6.7-1,8.8-2.9s3.1-4.7,3.1-8.3v-15c0-3.6-1-6.3-3.1-8.3
			c-2.1-2-5-2.9-8.8-2.9h-11.6v-6.8h11.4c4.1,0,7.6,0.7,10.5,2.1c2.9,1.4,5.1,3.5,6.6,6.3c1.5,2.7,2.3,6,2.3,9.9v14.5
			c0,3.9-0.8,7.2-2.3,9.9c-1.5,2.7-3.7,4.8-6.7,6.3s-6.4,2.1-10.5,2.1h-11.3V233.2z"/>
		<path d="M217.9,203.5h7.2V240h-7.2V203.5z M235.6,210.4c-1-0.4-2.1-0.6-3.3-0.6c-2.3,0-4,0.6-5.3,1.9c-1.3,1.3-1.9,3-1.9,5.2
			l-0.7-7c1.1-2.2,2.6-3.9,4.4-5.1c1.8-1.2,3.7-1.8,5.9-1.8c1.7,0,3.2,0.2,4.5,0.7c1.3,0.5,2.5,1.2,3.5,2.1l-4.7,6.3
			C237.3,211.4,236.5,210.8,235.6,210.4z"/>
		<path d="M255.8,225.7c0,2.6,0.7,4.5,2,5.9s3.1,2.1,5.5,2.1c2.3,0,4.2-0.6,5.4-1.9s1.9-3,1.9-5.3l0.5,7.6c-0.8,1.8-2,3.3-3.7,4.5
			s-3.8,1.8-6.2,1.8c-4,0-7.1-1.3-9.3-3.9c-2.2-2.6-3.3-6.2-3.3-11v-22.2h7.2V225.7z M270.6,203.5h7.1V240h-7.1V203.5z"/>
		<path d="M293.4,238.9c-1.9-1.2-3.3-2.9-4.3-5.1s-1.5-4.9-1.5-8v-8.1c0-3.1,0.5-5.8,1.4-8.1c1-2.2,2.4-3.9,4.2-5.1s4-1.7,6.6-1.7
			c2.2,0,4.1,0.6,5.9,1.7s3.2,2.7,4.3,4.7l-0.7,7.5c0-1.5-0.3-2.9-0.8-4c-0.6-1.1-1.4-1.9-2.4-2.5c-1.1-0.6-2.4-0.9-3.9-0.9
			c-2.4,0-4.2,0.7-5.5,2.2s-2,3.6-2,6.2v7.9c0,2.6,0.7,4.7,2,6.1s3.1,2.2,5.5,2.2c1.5,0,2.8-0.3,3.9-0.9s1.9-1.5,2.4-2.6
			s0.8-2.5,0.8-4l0.5,7.7c-0.7,1.8-1.9,3.3-3.6,4.5s-3.7,1.8-6.1,1.8C297.5,240.6,295.3,240.1,293.4,238.9z M296.8,254.8
			c0,0-1.1-0.5-3.3-1.5s-3.8-2.5-5-4.3l4.9-4.4c0.9,1.3,2.1,2.3,3.4,3s2.7,1.1,4.1,1.1c2.7,0,4.9-0.8,6.4-2.3s2.3-3.7,2.3-6.4v-36.5
			h7.2v35.4c0,3.4-0.6,6.2-1.8,8.6s-3,4.2-5.4,5.4s-5.2,1.9-8.5,1.9C298.1,254.8,296.8,254.8,296.8,254.8z"/>
		<path d="M337.1,240.5c0,0-0.9-0.2-2.8-0.6s-3.7-1.1-5.3-1.9s-3.2-1.9-4.5-3.2l4.3-5.2c2,1.5,3.9,2.6,5.9,3.4s3.9,1.1,5.8,1.1
			c2.8,0,5-0.4,6.4-1.3s2.1-2.2,2.1-4c0-1.2-0.4-2.1-1.2-2.6s-1.7-1-2.9-1.2c-1.1-0.2-2.8-0.4-4.9-0.5c-0.2,0-0.4,0-0.6,0
			c-0.2,0-0.4,0-0.6-0.1c-0.1,0-0.2,0-0.3,0c-0.1,0-0.2,0-0.3,0c-2.4-0.2-4.4-0.5-6-1c-1.6-0.5-3-1.4-4.1-2.8
			c-1.1-1.4-1.6-3.4-1.6-5.9c0-2.6,0.5-4.7,1.6-6.4c1.1-1.7,2.6-3,4.7-3.8c2.1-0.9,4.7-1.3,7.8-1.3c1.9,0,3.7,0.2,5.4,0.5
			s3.4,0.9,4.9,1.6c1.6,0.7,3.1,1.6,4.5,2.6l-4.3,5.2c-1.8-1.2-3.6-2.1-5.4-2.6c-1.8-0.6-3.5-0.9-5.2-0.9c-2.4,0-4.3,0.4-5.5,1.2
			c-1.2,0.8-1.8,2.1-1.8,3.7c0,1,0.3,1.7,1,2.2s1.6,0.8,2.6,1c1.1,0.2,2.6,0.3,4.5,0.4c0.1,0,0.3,0,0.4,0s0.3,0,0.5,0
			c0.1,0,0.1,0,0.2,0s0.1,0,0.2,0c2.6,0.2,4.7,0.5,6.5,1c1.8,0.5,3.3,1.5,4.5,3.1c1.2,1.5,1.8,3.7,1.8,6.6c0,2.6-0.6,4.8-1.7,6.5
			s-2.8,3-5.1,3.9s-5.1,1.3-8.5,1.3C338.2,240.5,337.1,240.5,337.1,240.5z"/>
	</g>
</g>
</svg>
