<?xml version="1.0" encoding="utf-8"?>
<!-- Generator: Adobe Illustrator 23.0.3, SVG Export Plug-In . SVG Version: 6.00 Build 0)  -->
<svg version="1.1" id="Layer_1" xmlns="http://www.w3.org/2000/svg" xmlns:xlink="http://www.w3.org/1999/xlink" x="0px" y="0px"
	 viewBox="0 0 519.3 449.8" style="enable-background:new 0 0 519.3 449.8;" xml:space="preserve">
<polygon style="opacity:0.46;fill:none;stroke:#45B6FE;stroke-miterlimit:10;enable-background:new    ;" points="389.5,0 129.8,0 
	0,224.9 129.8,449.8 389.5,449.8 519.3,224.9 "/>
<g>
	<g>
		<path d="M147.4,195h7.8l12.3,40.1l12.3-40.1h7.8l-16.7,51.1H164L147.4,195z"/>
		<path d="M194.2,195h7.2v7.2h-7.2V195z M194.2,209.6h7.2v36.5h-7.2V209.6z"/>
		<path d="M218.1,244.8c-2.3-1.2-4-3.1-5.2-5.4c-1.2-2.4-1.8-5.2-1.8-8.6v-5.9c0-3.3,0.6-6.1,1.8-8.5s2.9-4.1,5.2-5.4s5-1.8,8.1-1.8
			s5.9,0.6,8.1,1.8s4,3,5.2,5.4s1.8,5.2,1.8,8.5v6c0,3.3-0.6,6.2-1.8,8.5c-1.2,2.4-2.9,4.2-5.2,5.4s-5,1.9-8.1,1.9
			S220.4,246,218.1,244.8z M232.1,237.5c1.4-1.6,2.1-3.8,2.1-6.6v-6c0-2.8-0.7-5-2.1-6.6s-3.3-2.3-5.8-2.3s-4.4,0.8-5.8,2.3
			s-2.1,3.7-2.1,6.6v6c0,2.8,0.7,5,2.1,6.6c1.4,1.6,3.3,2.4,5.8,2.4C228.8,239.8,230.7,239,232.1,237.5z"/>
		<path d="M258.7,236.7c0,0.9,0.2,1.6,0.6,2.1s0.9,0.7,1.6,0.7h3.4v6.8H260c-2.7,0-4.8-0.8-6.3-2.5s-2.2-4.1-2.2-7.1V195h7.2V236.7z
			"/>
		<path d="M282.2,246.6c0,0-1.2-0.6-3.6-1.9s-4.2-3.1-5.5-5.6c-1.3-2.4-1.9-5.4-1.9-8.9v-4.1c0-3.6,0.6-6.7,1.8-9.2
			c1.2-2.6,3-4.5,5.3-5.8s5.1-2,8.3-2c3,0,5.6,0.8,7.8,2.3c2.2,1.5,3.8,3.7,4.9,6.6s1.7,6.3,1.7,10.4v2.4h-24.6V225h17.8
			c-0.2-3-1-5.3-2.3-6.9s-3.1-2.5-5.3-2.5c-2.7,0-4.8,0.9-6.3,2.7s-2.2,4.3-2.2,7.6v4.6c0,3,0.8,5.3,2.4,7s3.9,2.4,6.8,2.4
			c1.5,0,2.9-0.3,4.3-0.9c1.4-0.6,2.7-1.4,3.8-2.5l4.7,4.7c-1.8,1.7-3.8,3.1-6.1,4s-4.5,1.4-6.8,1.4
			C283.9,246.6,282.2,246.6,282.2,246.6z"/>
		<path d="M310.9,209.6h7.2v36.5h-7.2V209.6z M333.1,224c0-2.6-0.7-4.6-2-6s-3.2-2.1-5.6-2.1c-2.3,0-4.2,0.6-5.4,1.9
			c-1.3,1.2-1.9,3-1.9,5.2l-0.7-7c1.1-2.2,2.6-3.9,4.4-5.1s3.8-1.8,6-1.8c4,0,7,1.3,9.2,3.9c2.2,2.6,3.3,6.3,3.3,11v22.1h-7.2
			L333.1,224L333.1,224z"/>
		<path d="M348.3,209.6h16.5v6.5h-16.5V209.6z M354.2,243.8c-1.4-1.6-2.1-4-2.1-7.2V199h7.2v37.7c0,0.9,0.2,1.6,0.5,2.1
			c0.4,0.5,0.9,0.7,1.5,0.7h3.4v6.8h-4.1C357.7,246.3,355.5,245.5,354.2,243.8z"/>
	</g>
</g>
</svg>
