<?xml version="1.0" encoding="utf-8"?>
<!-- Generator: Adobe Illustrator 23.0.3, SVG Export Plug-In . SVG Version: 6.00 Build 0)  -->
<svg version="1.1" id="Layer_1" xmlns="http://www.w3.org/2000/svg" xmlns:xlink="http://www.w3.org/1999/xlink" x="0px" y="0px"
	 viewBox="0 0 3057 1981" style="enable-background:new 0 0 3057 1981;" xml:space="preserve">
<polygon style="opacity:0.46;fill:#DB9B40;stroke:#000000;stroke-miterlimit:10;enable-background:new    ;" points="498.6,443.5 
	240.3,443.5 111.1,667.3 240.3,891 498.6,891 627.8,667.3 "/>
<g>
	<g>
		<path d="M202.2,685.5c-2.2-1.2-3.9-3-5.1-5.4c-1.2-2.4-1.8-5.2-1.8-8.6v-27.1h6v27.3c0,3.1,0.8,5.5,2.3,7.2
			c1.6,1.7,3.8,2.5,6.6,2.5c2.9,0,5.1-0.8,6.7-2.5c1.6-1.7,2.4-4.1,2.4-7.2v-27.3h6v27.1c0,3.3-0.6,6.2-1.8,8.6
			c-1.2,2.4-2.9,4.2-5.1,5.4s-5,1.9-8.1,1.9C207,687.4,204.5,686.8,202.2,685.5z"/>
		<path d="M234.5,656.6h6v30.2h-6V656.6z M252.8,668.6c0-2.1-0.6-3.8-1.7-5c-1.1-1.2-2.7-1.8-4.7-1.8s-3.5,0.5-4.5,1.6
			c-1.1,1-1.6,2.5-1.6,4.4l-0.6-5.9c0.9-1.8,2.2-3.3,3.7-4.2c1.5-1,3.2-1.5,5-1.5c3.3,0,5.9,1.1,7.7,3.2c1.8,2.2,2.7,5.2,2.7,9.2
			V687h-6L252.8,668.6L252.8,668.6z"/>
		<path d="M267.8,644.6h6v6h-6V644.6z M267.8,656.6h6v30.2h-6V656.6z"/>
		<path d="M280.5,656.6h13.6v5.4h-13.6V656.6z M285.2,685.1c-1.1-1.4-1.7-3.4-1.7-6V648h6v31.2c0,0.7,0.1,1.3,0.4,1.7
			s0.7,0.6,1.3,0.6h2.9v5.7h-3.5C288.2,687.1,286.4,686.4,285.2,685.1z"/>
		<path d="M310.4,687.4c0,0-1-0.5-3-1.6s-3.5-2.6-4.6-4.6c-1-2-1.6-4.5-1.6-7.4v-3.4c0-3,0.5-5.6,1.5-7.7c1-2.1,2.5-3.8,4.4-4.9
			c1.9-1.1,4.2-1.7,6.9-1.7c2.5,0,4.7,0.6,6.5,1.9c1.8,1.3,3.2,3.1,4.1,5.5s1.4,5.3,1.4,8.6v2h-20.4v-4.8h14.7
			c-0.2-2.5-0.8-4.4-1.9-5.8c-1.1-1.4-2.6-2.1-4.4-2.1c-2.3,0-4,0.7-5.3,2.2c-1.2,1.5-1.9,3.6-1.9,6.3v3.9c0,2.5,0.7,4.5,2,5.8
			s3.2,2,5.7,2c1.2,0,2.4-0.2,3.6-0.7s2.3-1.2,3.2-2.1l3.9,3.9c-1.5,1.4-3.2,2.6-5.1,3.4s-3.8,1.2-5.7,1.2
			C311.8,687.4,310.4,687.4,310.4,687.4z"/>
		<path d="M338.2,686c-1.6-1-2.8-2.4-3.6-4.2c-0.8-1.8-1.2-4.1-1.2-6.7v-6.7c0-2.6,0.4-4.9,1.2-6.7c0.8-1.9,2-3.3,3.5-4.2
			c1.5-1,3.4-1.5,5.5-1.5c1.8,0,3.4,0.5,4.9,1.4s2.7,2.3,3.6,4l-0.6,6.2c0-1.3-0.2-2.4-0.7-3.3c-0.5-0.9-1.1-1.6-2-2.1
			s-2-0.7-3.2-0.7c-2,0-3.5,0.6-4.6,1.8s-1.6,3-1.6,5.2v6.6c0,2.2,0.5,3.9,1.6,5.1c1.1,1.2,2.6,1.8,4.6,1.8c1.3,0,2.3-0.2,3.2-0.7
			c0.9-0.5,1.6-1.2,2-2.2s0.7-2.1,0.7-3.4l0.4,6.4c-0.6,1.5-1.6,2.8-3,3.8s-3.1,1.5-5.1,1.5C341.6,687.5,339.8,687,338.2,686z
			 M351.5,644.6h6V687h-6V644.6z"/>
		<path d="M392.7,687.4c0,0-0.9-0.2-2.8-0.6c-1.8-0.4-3.5-1-5.1-1.8s-3.1-1.8-4.5-2.9l3.7-4.6c1.6,1.4,3.4,2.5,5.4,3.2
			s4.1,1.1,6.4,1.1c3.1,0,5.5-0.6,7.2-1.7s2.5-2.8,2.5-4.8l0,0c0-1.5-0.4-2.7-1.2-3.5c-0.8-0.9-1.8-1.5-3-1.9s-2.8-0.8-4.7-1.2
			c-0.1,0-0.1,0-0.2,0s-0.1,0-0.2,0l-0.4-0.1c-2.9-0.5-5.2-1-7-1.7s-3.3-1.7-4.6-3.4c-1.3-1.6-1.9-4-1.9-7l0,0
			c0-2.6,0.6-4.9,1.8-6.8c1.2-1.9,2.9-3.3,5.2-4.3c2.3-1,5-1.5,8.2-1.5c1.5,0,3,0.2,4.5,0.5s2.9,0.8,4.4,1.5s2.8,1.5,4.2,2.5
			l-3.4,4.7c-1.6-1.2-3.2-2.1-4.8-2.7c-1.6-0.6-3.2-0.9-4.8-0.9c-2.9,0-5.2,0.6-6.8,1.7s-2.4,2.8-2.4,4.9l0,0c0,1.5,0.4,2.6,1.2,3.5
			c0.8,0.8,1.9,1.5,3.1,1.9s3,0.8,5.2,1.2c0.1,0,0.2,0,0.2,0c0.1,0,0.1,0,0.2,0s0.2,0,0.3,0.1c0.1,0.1,0.2,0,0.3,0.1
			c2.6,0.5,4.7,1.2,6.5,1.9s3.2,1.9,4.3,3.5c1.2,1.6,1.7,3.8,1.7,6.6v0.1c0,2.6-0.6,4.8-1.8,6.7s-3,3.3-5.3,4.2
			c-2.3,1-5.2,1.5-8.5,1.5C393.8,687.4,392.7,687.4,392.7,687.4z"/>
		<path d="M416.9,656.6h13.6v5.4h-13.6V656.6z M421.7,685.1c-1.1-1.4-1.7-3.4-1.7-6V648h6v31.2c0,0.7,0.1,1.3,0.4,1.7
			s0.7,0.6,1.3,0.6h2.9v5.7h-3.5C424.6,687.1,422.8,686.4,421.7,685.1z"/>
		<path d="M440,685.1c-1.9-1.6-2.8-3.9-2.8-7.1c0-3,0.8-5.3,2.5-6.8s4.3-2.3,7.7-2.3h8.6l0.4,4.8h-9c-1.6,0-2.7,0.3-3.5,1
			s-1.2,1.8-1.2,3.2c0,1.5,0.5,2.7,1.5,3.4s2.6,1.1,4.7,1.1c2.3,0,4-0.2,5.1-0.7s1.7-1.3,1.7-2.3l0.6,4.3c-0.5,0.8-1.2,1.5-1.9,2
			c-0.8,0.5-1.7,0.9-2.7,1.2s-2.2,0.4-3.4,0.4C444.6,687.4,441.8,686.6,440,685.1z M455.7,667.8c0-2-0.5-3.5-1.6-4.6
			s-2.6-1.7-4.5-1.7c-1.2,0-2.4,0.2-3.6,0.6c-1.2,0.4-2.2,0.9-3.1,1.6l-4.4-3c1.2-1.4,2.7-2.5,4.6-3.2c1.9-0.8,4-1.2,6.3-1.2
			c2.5,0,4.7,0.4,6.5,1.3c1.8,0.9,3.2,2.2,4.1,3.9s1.4,3.7,1.4,6.1V687h-5.7L455.7,667.8L455.7,667.8z"/>
		<path d="M468.1,656.6h13.6v5.4h-13.6V656.6z M473,685.1c-1.1-1.4-1.7-3.4-1.7-6V648h6v31.2c0,0.7,0.1,1.3,0.4,1.7s0.7,0.6,1.3,0.6
			h2.9v5.7h-3.5C475.8,687.1,474.1,686.4,473,685.1z"/>
		<path d="M498.1,687.4c0,0-1-0.5-3-1.6s-3.5-2.6-4.6-4.6c-1-2-1.6-4.5-1.6-7.4v-3.4c0-3,0.5-5.6,1.5-7.7c1-2.1,2.5-3.8,4.4-4.9
			c1.9-1.1,4.2-1.7,6.9-1.7c2.5,0,4.7,0.6,6.5,1.9c1.8,1.3,3.2,3.1,4.1,5.5c0.9,2.4,1.4,5.3,1.4,8.6v2h-20.4v-4.8H508
			c-0.2-2.5-0.8-4.4-1.9-5.8c-1.1-1.4-2.6-2.1-4.4-2.1c-2.3,0-4,0.7-5.3,2.2c-1.2,1.5-1.9,3.6-1.9,6.3v3.9c0,2.5,0.7,4.5,2,5.8
			s3.2,2,5.7,2c1.2,0,2.4-0.2,3.6-0.7s2.3-1.2,3.2-2.1l3.9,3.9c-1.5,1.4-3.2,2.6-5.1,3.4s-3.8,1.2-5.7,1.2
			C499.5,687.4,498.1,687.4,498.1,687.4z"/>
		<path d="M530,687.4c0,0-0.8-0.2-2.4-0.5c-1.6-0.4-3-0.9-4.4-1.6c-1.4-0.7-2.6-1.6-3.8-2.6l3.5-4.4c1.6,1.3,3.3,2.2,4.9,2.8
			s3.2,0.9,4.8,0.9c2.4,0,4.1-0.4,5.3-1.1c1.2-0.7,1.8-1.8,1.8-3.3c0-1-0.3-1.7-1-2.2s-1.4-0.8-2.4-1s-2.3-0.3-4-0.5
			c-0.2,0-0.3,0-0.5,0s-0.3,0-0.5,0c-0.1,0-0.2,0-0.2,0c-0.1,0-0.2,0-0.2,0c-2-0.2-3.6-0.4-5-0.9c-1.4-0.4-2.5-1.2-3.4-2.4
			s-1.4-2.8-1.4-5s0.4-3.9,1.3-5.4c0.9-1.5,2.2-2.5,3.9-3.2s3.9-1.1,6.5-1.1c1.6,0,3.1,0.1,4.5,0.4s2.8,0.7,4.1,1.3s2.6,1.3,3.8,2.2
			l-3.6,4.4c-1.5-1-3-1.7-4.5-2.2s-2.9-0.7-4.3-0.7c-2,0-3.6,0.3-4.6,1s-1.5,1.7-1.5,3.1c0,0.8,0.3,1.4,0.9,1.8
			c0.6,0.4,1.3,0.7,2.2,0.8s2.1,0.3,3.8,0.4c0.1,0,0.2,0,0.4,0c0.1,0,0.3,0,0.4,0c0.1,0,0.1,0,0.2,0c0.1,0,0.1,0,0.2,0
			c2.1,0.1,3.9,0.4,5.4,0.8c1.5,0.4,2.7,1.3,3.8,2.5c1,1.3,1.5,3.1,1.5,5.5c0,2.2-0.5,4-1.4,5.4s-2.3,2.5-4.2,3.2s-4.3,1.1-7.1,1.1
			C530.9,687.4,530,687.4,530,687.4z"/>
	</g>
</g>
<polygon style="opacity:0.46;fill:#DB9B40;stroke:#000000;stroke-miterlimit:10;enable-background:new    ;" points="489.6,959.3 
	231.3,959.3 102.1,1183.1 231.3,1406.8 489.6,1406.8 618.8,1183.1 "/>
<polygon style="opacity:0.46;fill:#DB9B40;stroke:#000000;stroke-miterlimit:10;enable-background:new    ;" points="1384.6,981.5 
	1126.3,981.5 997.1,1205.3 1126.3,1429 1384.6,1429 1513.8,1205.3 "/>
<polygon style="opacity:0.46;fill:#DB9B40;stroke:#000000;stroke-miterlimit:10;enable-background:new    ;" points="949.2,700.2 
	690.9,700.2 561.7,924 690.9,1147.7 949.2,1147.7 1078.4,924 "/>
<g>
	<g>
		<path d="M677.3,890.5h7.1v51.1h-7.1V890.5z M681.5,934.9h13.9c3.6,0,6.3-0.7,7.9-2.1c1.7-1.4,2.5-3.3,2.5-5.8v-0.1
			c0-1.7-0.3-3.2-0.9-4.5s-1.5-2.2-2.8-2.9c-1.3-0.7-2.9-1-5-1h-15.6V912h15.6c2.6,0,4.6-0.6,6-1.9c1.3-1.2,2-3.1,2-5.5
			c0-2.6-0.8-4.5-2.3-5.7c-1.5-1.3-3.8-1.9-6.8-1.9h-14.6v-6.6h15.9c3.3,0,6.1,0.6,8.3,1.7s3.9,2.7,5,4.8c1.1,2.1,1.7,4.5,1.7,7.4
			c0,1.8-0.3,3.4-1,4.9s-1.7,2.8-3.1,3.9c-1.4,1.1-3.1,1.8-5.2,2.2c2.1,0.3,3.8,1,5.3,2.2s2.6,2.6,3.4,4.3c0.8,1.7,1.2,3.6,1.2,5.6
			v0.1c0,2.8-0.6,5.2-1.8,7.3c-1.2,2.1-3,3.7-5.2,4.9c-2.3,1.1-4.9,1.7-7.9,1.7h-16.5L681.5,934.9L681.5,934.9z"/>
		<path d="M724.1,940.5c-2.3-1.1-4.1-2.6-5.6-4.6l5.9-4.2c0.7,1.1,1.6,2,2.8,2.7c1.2,0.6,2.7,0.9,4.3,0.9c2.8,0,5-0.9,6.5-2.6
			s2.3-4.2,2.3-7.3v-34.8h7.2v34.9c0,3.5-0.6,6.6-1.9,9.1c-1.2,2.5-3.1,4.4-5.4,5.7s-5.3,2-8.6,2
			C728.8,942.1,726.3,941.6,724.1,940.5z"/>
		<path d="M771.8,942.1c0,0-1.1-0.2-3.3-0.7s-4.3-1.2-6.2-2.1s-3.7-2.1-5.4-3.5l4.5-5.5c1.9,1.7,4.1,3,6.4,3.8
			c2.3,0.8,4.9,1.3,7.6,1.3c3.7,0,6.6-0.7,8.6-2.1s3.1-3.3,3.1-5.8l0,0c0-1.8-0.5-3.2-1.4-4.2s-2.1-1.8-3.6-2.3s-3.4-1-5.7-1.4
			c-0.1,0-0.1,0-0.2,0c-0.1,0-0.2,0-0.2,0l-0.5-0.1c-3.4-0.6-6.2-1.2-8.3-2s-4-2.1-5.5-4c-1.5-2-2.3-4.7-2.3-8.3l0,0
			c0-3.2,0.7-5.9,2.1-8.1c1.4-2.2,3.5-3.9,6.2-5.1s6-1.8,9.8-1.8c1.8,0,3.6,0.2,5.4,0.6c1.8,0.4,3.5,1,5.2,1.8s3.4,1.8,5.1,3
			l-4.1,5.7c-1.9-1.4-3.9-2.5-5.8-3.2s-3.9-1.1-5.8-1.1c-3.5,0-6.2,0.7-8.1,2.1s-2.9,3.4-2.9,5.9l0,0c0,1.8,0.5,3.1,1.5,4.1
			s2.2,1.8,3.7,2.2c1.5,0.5,3.6,1,6.2,1.5c0.1,0,0.2,0,0.3,0.1c0.1,0,0.2,0,0.3,0.1c0.1,0,0.2,0,0.4,0.1s0.3,0,0.4,0.1
			c3.1,0.6,5.7,1.4,7.8,2.3s3.8,2.3,5.2,4.2c1.4,1.9,2.1,4.6,2.1,7.9v0.1c0,3.1-0.7,5.8-2.2,8s-3.6,3.9-6.4,5.1
			c-2.8,1.2-6.2,1.7-10.1,1.7C773.1,942.1,771.8,942.1,771.8,942.1z"/>
		<path d="M832.9,942.1c0,0-1.2-0.6-3.5-1.9s-4.2-3-5.4-5.4s-1.9-5.2-1.9-8.6v-6c0-3.3,0.6-6.1,1.9-8.5c1.2-2.3,3-4.1,5.4-5.4
			s5.2-1.8,8.5-1.8c1.9,0,3.7,0.2,5.4,0.7s3.2,1.1,4.5,2s2.4,1.9,3.3,3.2l-5.2,4.6c-1-1.2-2.2-2.1-3.6-2.7c-1.4-0.6-2.8-0.9-4.3-0.9
			c-2.8,0-4.9,0.8-6.4,2.3s-2.3,3.7-2.3,6.5v6c0,2.9,0.8,5.1,2.3,6.7s3.7,2.4,6.5,2.4c1.5,0,3-0.3,4.4-1s2.6-1.6,3.6-2.9l5.2,5
			c-0.9,1.2-2,2.3-3.4,3.1s-2.8,1.5-4.5,2c-1.7,0.4-3.5,0.7-5.3,0.7C834.5,942.1,832.9,942.1,832.9,942.1z"/>
		<path d="M864.9,940.3c-2.3-1.2-4-3.1-5.2-5.4c-1.2-2.4-1.8-5.2-1.8-8.6v-5.9c0-3.3,0.6-6.1,1.8-8.5s2.9-4.1,5.2-5.4s5-1.8,8.1-1.8
			s5.9,0.6,8.1,1.8s4,3,5.2,5.4s1.8,5.2,1.8,8.5v6c0,3.3-0.6,6.2-1.8,8.5c-1.2,2.4-2.9,4.2-5.2,5.4s-5,1.9-8.1,1.9
			S867.1,941.5,864.9,940.3z M878.8,932.9c1.4-1.6,2.1-3.8,2.1-6.6v-6c0-2.8-0.7-5-2.1-6.6s-3.3-2.3-5.8-2.3s-4.4,0.8-5.8,2.3
			s-2.1,3.7-2.1,6.6v6c0,2.8,0.7,5,2.1,6.6s3.3,2.4,5.8,2.4S877.4,934.5,878.8,932.9z"/>
		<path d="M903,940.5c-1.9-1.2-3.3-2.9-4.3-5.1s-1.5-4.9-1.5-8v-8.1c0-3.1,0.5-5.8,1.4-8.1c1-2.2,2.4-3.9,4.2-5.1s4-1.7,6.6-1.7
			c2.2,0,4.1,0.6,5.9,1.7s3.2,2.7,4.3,4.7l-0.7,7.5c0-1.5-0.3-2.9-0.8-4s-1.4-1.9-2.4-2.5c-1.1-0.6-2.4-0.9-3.9-0.9
			c-2.4,0-4.2,0.7-5.5,2.2s-2,3.6-2,6.2v7.9c0,2.6,0.7,4.7,2,6.1s3.1,2.2,5.5,2.2c1.5,0,2.8-0.3,3.9-0.9c1.1-0.6,1.9-1.5,2.4-2.6
			s0.8-2.5,0.8-4l0.5,7.7c-0.7,1.8-1.9,3.3-3.6,4.5s-3.7,1.8-6.1,1.8C907.1,942.2,904.8,941.6,903,940.5z M919,890.5h7.2v51.1H919
			V890.5z"/>
		<path d="M946.9,942.1c0,0-1.2-0.6-3.6-1.9s-4.2-3.1-5.5-5.6c-1.3-2.4-1.9-5.4-1.9-8.9v-4.1c0-3.6,0.6-6.7,1.8-9.2
			c1.2-2.6,3-4.5,5.3-5.8s5.1-2,8.3-2c3,0,5.6,0.8,7.8,2.3s3.8,3.7,4.9,6.6c1.1,2.9,1.7,6.3,1.7,10.4v2.4h-24.6v-5.8h17.8
			c-0.2-3-1-5.3-2.3-6.9c-1.3-1.7-3.1-2.5-5.3-2.5c-2.7,0-4.8,0.9-6.3,2.7c-1.5,1.8-2.2,4.3-2.2,7.6v4.6c0,3,0.8,5.3,2.4,7
			c1.6,1.6,3.9,2.4,6.8,2.4c1.5,0,2.9-0.3,4.3-0.9c1.4-0.6,2.7-1.4,3.8-2.5l4.7,4.7c-1.8,1.7-3.8,3.1-6.1,4s-4.5,1.4-6.8,1.4
			C948.6,942.1,946.9,942.1,946.9,942.1z"/>
	</g>
</g>
<g>
	<g>
		<path d="M1075.4,1218.3c0,0-1.1-0.6-3.2-1.9s-3.8-3-4.9-5.3s-1.8-4.9-1.8-7.9v-11.1c0-3,0.6-5.6,1.8-7.9c1.2-2.3,2.8-4,4.9-5.3
			s4.6-1.9,7.4-1.9c2.3,0,4.5,0.5,6.4,1.5s3.6,2.4,4.9,4.2c1.3,1.8,2.2,3.9,2.7,6.3h-5.8c-0.4-1.3-0.9-2.4-1.8-3.4s-1.8-1.8-2.9-2.3
			s-2.3-0.8-3.5-0.8c-1.7,0-3.1,0.4-4.3,1.2c-1.2,0.8-2.2,1.9-2.9,3.4c-0.7,1.4-1,3.1-1,5v11.1c0,1.9,0.3,3.6,1,5s1.7,2.6,2.9,3.4
			c1.2,0.8,2.7,1.2,4.3,1.2c1.2,0,2.4-0.3,3.5-0.8s2.1-1.2,2.9-2.2s1.4-2.2,1.8-3.5h5.8c-0.5,2.4-1.4,4.5-2.7,6.3
			c-1.3,1.8-3,3.2-4.9,4.2s-4.1,1.5-6.4,1.5C1076.8,1218.3,1075.4,1218.3,1075.4,1218.3z"/>
		<path d="M1101.1,1189h5.7v28.9h-5.7V1189z M1115.1,1194.5c-0.8-0.3-1.6-0.5-2.6-0.5c-1.8,0-3.2,0.5-4.2,1.5s-1.5,2.4-1.5,4.1
			l-0.6-5.6c0.9-1.7,2-3.1,3.5-4c1.4-1,3-1.4,4.7-1.4c1.3,0,2.5,0.2,3.6,0.6s2,0.9,2.8,1.7l-3.7,5
			C1116.5,1195.2,1115.9,1194.8,1115.1,1194.5z"/>
		<path d="M1125.4,1177.4h5.7v5.7h-5.7V1177.4z M1125.4,1189h5.7v28.9h-5.7V1189z"/>
		<path d="M1139.7,1189h5.7v28.9h-5.7V1189z M1157,1200.4c0-2-0.5-3.6-1.5-4.7s-2.4-1.7-4.3-1.7s-3.3,0.5-4.3,1.5s-1.5,2.4-1.5,4.1
			l-0.6-5.6c0.9-1.7,2.1-3.1,3.5-4s3-1.4,4.8-1.4c2,0,3.7,0.5,5.2,1.4c1.4,0.9,2.5,2.3,3.3,4c0.8,1.8,1.1,3.9,1.1,6.4v17.5h-5.7
			V1200.4z M1174.2,1200.4c0-2-0.5-3.6-1.6-4.7s-2.5-1.7-4.5-1.7c-1.8,0-3.1,0.5-4.1,1.6s-1.4,2.6-1.4,4.6l-1.1-5.6
			c0.9-1.9,2.1-3.4,3.6-4.4s3.1-1.6,4.9-1.6c2.1,0,3.9,0.5,5.3,1.4c1.5,0.9,2.6,2.3,3.4,4c0.8,1.8,1.2,3.9,1.2,6.4v17.5h-5.7
			L1174.2,1200.4L1174.2,1200.4z"/>
		<path d="M1196.4,1218.3c0,0-0.9-0.5-2.8-1.5s-3.3-2.5-4.3-4.4s-1.5-4.3-1.5-7v-3.3c0-2.9,0.5-5.3,1.4-7.3c1-2,2.3-3.6,4.2-4.6
			c1.8-1.1,4-1.6,6.6-1.6c2.4,0,4.5,0.6,6.2,1.8c1.7,1.2,3,3,3.9,5.2c0.9,2.3,1.3,5,1.3,8.2v1.9h-19.5v-4.6h14.1
			c-0.2-2.4-0.8-4.2-1.8-5.5s-2.5-2-4.2-2c-2.2,0-3.8,0.7-5,2.1s-1.8,3.4-1.8,6v3.7c0,2.4,0.6,4.2,1.9,5.5s3.1,1.9,5.4,1.9
			c1.2,0,2.3-0.2,3.4-0.7s2.1-1.1,3-1.9l3.7,3.7c-1.4,1.4-3,2.4-4.8,3.2c-1.8,0.8-3.6,1.1-5.4,1.1
			C1197.7,1218.3,1196.4,1218.3,1196.4,1218.3z"/>
		<path d="M1242.1,1218.3c0,0-0.9-0.5-2.8-1.5s-3.3-2.4-4.3-4.3s-1.5-4.1-1.5-6.8v-4.8c0-2.6,0.5-4.9,1.5-6.7c1-1.9,2.4-3.3,4.3-4.2
			c1.9-1,4.1-1.5,6.7-1.5c1.5,0,2.9,0.2,4.2,0.5c1.3,0.4,2.5,0.9,3.6,1.6s1.9,1.5,2.6,2.5l-4.1,3.7c-0.8-0.9-1.8-1.6-2.9-2.1
			s-2.2-0.8-3.4-0.8c-2.2,0-3.9,0.6-5.1,1.8c-1.2,1.2-1.8,2.9-1.8,5.2v4.8c0,2.3,0.6,4,1.8,5.3c1.2,1.2,2.9,1.9,5.1,1.9
			c1.2,0,2.4-0.3,3.5-0.8s2-1.3,2.8-2.3l4.1,4c-0.7,1-1.6,1.8-2.7,2.5s-2.3,1.2-3.6,1.5s-2.7,0.5-4.2,0.5
			C1243.4,1218.3,1242.1,1218.3,1242.1,1218.3z"/>
		<path d="M1264.1,1216.1c-1.8-1.5-2.6-3.7-2.6-6.7c0-2.9,0.8-5,2.4-6.4s4.1-2.1,7.3-2.1h8.2l0.4,4.6h-8.6c-1.5,0-2.6,0.3-3.3,1
			c-0.7,0.7-1.1,1.7-1.1,3c0,1.5,0.5,2.6,1.5,3.3c1,0.7,2.5,1.1,4.4,1.1c2.2,0,3.8-0.2,4.9-0.7s1.6-1.2,1.6-2.2l0.6,4.1
			c-0.5,0.8-1.1,1.4-1.9,1.9c-0.7,0.5-1.6,0.9-2.5,1.1c-1,0.3-2.1,0.4-3.3,0.4C1268.5,1218.3,1265.8,1217.6,1264.1,1216.1z
			 M1279.1,1199.6c0-1.9-0.5-3.4-1.5-4.4s-2.4-1.6-4.3-1.6c-1.2,0-2.3,0.2-3.4,0.5c-1.1,0.4-2.1,0.8-2.9,1.5l-4.1-2.8
			c1.1-1.3,2.5-2.3,4.3-3.1c1.8-0.7,3.8-1.1,6-1.1c2.4,0,4.4,0.4,6.2,1.3c1.7,0.8,3,2.1,3.9,3.7s1.3,3.5,1.3,5.8v18.6h-5.4
			L1279.1,1199.6L1279.1,1199.6z"/>
		<path d="M1290.9,1189h13v5.1h-13V1189z M1295.5,1216.1c-1.1-1.3-1.6-3.2-1.6-5.7v-29.8h5.7v29.8c0,0.7,0.1,1.2,0.4,1.6
			s0.7,0.6,1.2,0.6h2.7v5.4h-3.3C1298.3,1218,1296.6,1217.4,1295.5,1216.1z"/>
		<path d="M1319.6,1218.3c0,0-0.9-0.5-2.8-1.5s-3.3-2.5-4.3-4.4s-1.5-4.3-1.5-7v-3.3c0-2.9,0.5-5.3,1.4-7.3c1-2,2.3-3.6,4.2-4.6
			c1.8-1.1,4-1.6,6.6-1.6c2.4,0,4.5,0.6,6.2,1.8c1.7,1.2,3,3,3.9,5.2c0.9,2.3,1.3,5,1.3,8.2v1.9H1315v-4.6h14.1
			c-0.2-2.4-0.8-4.2-1.8-5.5s-2.5-2-4.2-2c-2.2,0-3.8,0.7-5,2.1s-1.8,3.4-1.8,6v3.7c0,2.4,0.6,4.2,1.9,5.5s3.1,1.9,5.4,1.9
			c1.2,0,2.3-0.2,3.4-0.7s2.1-1.1,3-1.9l3.7,3.7c-1.4,1.4-3,2.4-4.8,3.2c-1.8,0.8-3.6,1.1-5.4,1.1
			C1320.9,1218.3,1319.6,1218.3,1319.6,1218.3z"/>
		<path d="M1346,1217c-1.5-0.9-2.6-2.3-3.4-4s-1.2-3.9-1.2-6.3v-6.4c0-2.5,0.4-4.6,1.1-6.4c0.8-1.8,1.9-3.1,3.3-4
			c1.5-0.9,3.2-1.4,5.2-1.4c1.7,0,3.3,0.4,4.7,1.3c1.4,0.9,2.6,2.1,3.4,3.8l-0.6,5.9c0-1.2-0.2-2.3-0.7-3.1s-1.1-1.5-1.9-2
			s-1.9-0.7-3.1-0.7c-1.9,0-3.3,0.6-4.4,1.8c-1,1.2-1.5,2.8-1.5,4.9v6.3c0,2.1,0.5,3.7,1.5,4.9c1,1.1,2.5,1.7,4.4,1.7
			c1.2,0,2.2-0.2,3.1-0.7c0.8-0.5,1.5-1.2,1.9-2s0.7-2,0.7-3.2l0.4,6.1c-0.6,1.4-1.5,2.6-2.8,3.6s-2.9,1.4-4.8,1.4
			C1349.3,1218.4,1347.5,1217.9,1346,1217z M1348.7,1229.6c0,0-0.9-0.4-2.6-1.2c-1.7-0.8-3-1.9-4-3.4l3.8-3.5c0.7,1,1.6,1.8,2.7,2.4
			c1,0.6,2.1,0.8,3.2,0.8c2.2,0,3.9-0.6,5-1.8c1.2-1.2,1.8-2.9,1.8-5.1V1189h5.7v28c0,2.7-0.5,4.9-1.5,6.8s-2.4,3.3-4.2,4.3
			c-1.9,1-4.1,1.5-6.7,1.5C1349.8,1229.6,1348.7,1229.6,1348.7,1229.6z"/>
		<path d="M1377.7,1216.8c-1.8-1-3.1-2.4-4.1-4.3s-1.4-4.2-1.4-6.8v-4.7c0-2.6,0.5-4.9,1.4-6.7c0.9-1.9,2.3-3.3,4.1-4.3
			c1.8-1,3.9-1.5,6.4-1.5s4.6,0.5,6.4,1.5s3.1,2.4,4.1,4.3c0.9,1.9,1.4,4.1,1.4,6.7v4.8c0,2.6-0.5,4.9-1.4,6.7
			c-0.9,1.9-2.3,3.3-4.1,4.3s-3.9,1.5-6.4,1.5S1379.4,1217.8,1377.7,1216.8z M1388.7,1211c1.1-1.2,1.6-3,1.6-5.2v-4.8
			c0-2.2-0.5-4-1.6-5.2s-2.6-1.8-4.6-1.8s-3.5,0.6-4.6,1.8c-1.1,1.2-1.6,3-1.6,5.2v4.8c0,2.2,0.5,4,1.6,5.2s2.6,1.9,4.6,1.9
			S1387.6,1212.3,1388.7,1211z"/>
		<path d="M1404.1,1189h5.7v28.9h-5.7V1189z M1418.1,1194.5c-0.8-0.3-1.6-0.5-2.6-0.5c-1.8,0-3.2,0.5-4.2,1.5s-1.5,2.4-1.5,4.1
			l-0.6-5.6c0.9-1.7,2-3.1,3.5-4c1.4-1,3-1.4,4.7-1.4c1.3,0,2.5,0.2,3.6,0.6s2,0.9,2.8,1.7l-3.7,5
			C1419.5,1195.2,1418.8,1194.8,1418.1,1194.5z"/>
		<path d="M1425.3,1189h5.8l8.9,25.1l-3.1,6.2L1425.3,1189z M1450.9,1189l-12.3,35.7c-0.4,1.3-1,2.4-1.8,3.1
			c-0.7,0.8-1.6,1.3-2.7,1.7s-2.4,0.5-3.9,0.5h-1.1v-5.5h1.1c1.1,0,1.9-0.2,2.5-0.6s1.2-1.2,1.6-2.2l10.7-32.6L1450.9,1189
			L1450.9,1189z"/>
	</g>
</g>
<polygon style="opacity:0.46;fill:#DB9B40;stroke:#000000;stroke-miterlimit:10;enable-background:new    ;" points="1829.6,718.5 
	1571.3,718.5 1442.1,942.3 1571.3,1166 1829.6,1166 1958.8,942.3 "/>
<g>
	<g>
		<path d="M1596.4,909.8h7.8l12.3,40.1l12.3-40.1h7.8l-16.7,51.1h-6.8L1596.4,909.8z"/>
		<path d="M1643.3,909.8h7.2v7.2h-7.2V909.8z M1643.3,924.4h7.2v36.5h-7.2V924.4z"/>
		<path d="M1667.2,959.6c-2.3-1.2-4-3.1-5.2-5.4s-1.8-5.2-1.8-8.6v-5.9c0-3.3,0.6-6.1,1.8-8.5s2.9-4.1,5.2-5.4s5-1.8,8.1-1.8
			s5.9,0.6,8.1,1.8s4,3,5.2,5.4s1.8,5.2,1.8,8.5v6c0,3.3-0.6,6.2-1.8,8.5s-2.9,4.2-5.2,5.4s-5,1.9-8.1,1.9
			S1669.5,960.8,1667.2,959.6z M1681.1,952.2c1.4-1.6,2.1-3.8,2.1-6.6v-6c0-2.8-0.7-5-2.1-6.6s-3.3-2.3-5.8-2.3s-4.4,0.8-5.8,2.3
			s-2.1,3.7-2.1,6.6v6c0,2.8,0.7,5,2.1,6.6s3.3,2.4,5.8,2.4S1679.8,953.8,1681.1,952.2z"/>
		<path d="M1707.7,951.5c0,0.9,0.2,1.6,0.6,2.1s0.9,0.7,1.6,0.7h3.4v6.8h-4.2c-2.7,0-4.8-0.8-6.3-2.5s-2.2-4.1-2.2-7.1v-41.6h7.2
			L1707.7,951.5L1707.7,951.5z"/>
		<path d="M1731.3,961.4c0,0-1.2-0.6-3.6-1.9s-4.2-3.1-5.5-5.6s-1.9-5.4-1.9-8.9v-4c0-3.6,0.6-6.7,1.8-9.2s3-4.5,5.3-5.8
			s5.1-2,8.3-2c3,0,5.6,0.8,7.8,2.3s3.8,3.7,4.9,6.6s1.7,6.3,1.7,10.4v2.4h-24.6v-5.8h17.8c-0.2-3-1-5.3-2.3-6.9s-3.1-2.5-5.3-2.5
			c-2.7,0-4.8,0.9-6.3,2.7s-2.2,4.3-2.2,7.6v4.6c0,3,0.8,5.3,2.4,7s3.9,2.4,6.8,2.4c1.5,0,2.9-0.3,4.3-0.9s2.7-1.4,3.8-2.5l4.7,4.7
			c-1.8,1.7-3.8,3.1-6.1,4s-4.5,1.4-6.8,1.4C1733,961.4,1731.3,961.4,1731.3,961.4z"/>
		<path d="M1760,924.4h7.2v36.5h-7.2V924.4z M1782.2,938.8c0-2.6-0.7-4.6-2-6s-3.2-2.1-5.6-2.1c-2.3,0-4.2,0.6-5.4,1.9
			s-1.9,3-1.9,5.2l-0.7-7c1.1-2.2,2.6-3.9,4.4-5.1s3.8-1.8,6-1.8c4,0,7,1.3,9.2,3.9s3.3,6.3,3.3,11v22.1h-7.2v-22.1H1782.2z"/>
		<path d="M1797.4,924.4h16.5v6.5h-16.5V924.4z M1803.2,958.6c-1.4-1.6-2.1-4-2.1-7.2v-37.6h7.2v37.7c0,0.9,0.2,1.6,0.5,2.1
			s0.9,0.7,1.5,0.7h3.4v6.8h-4.1C1806.8,961.1,1804.6,960.3,1803.2,958.6z"/>
	</g>
</g>
<polygon style="opacity:0.46;fill:#DB9B40;stroke:#000000;stroke-miterlimit:10;enable-background:new    ;" points="2279.6,981.5 
	2021.3,981.5 1892.1,1205.3 2021.3,1429 2279.6,1429 2408.8,1205.3 "/>
<g>
	<g>
		<path d="M2058.7,1167.8h7.1v51.1h-7.1V1167.8z M2062.9,1212.2h13.9c3.6,0,6.3-0.7,7.9-2.1s2.5-3.3,2.5-5.8v-0.1
			c0-1.7-0.3-3.2-0.9-4.5s-1.5-2.2-2.8-2.9s-2.9-1-5-1h-15.6v-6.5h15.6c2.6,0,4.6-0.6,6-1.9s2-3.1,2-5.5c0-2.6-0.8-4.5-2.3-5.7
			s-3.8-1.9-6.8-1.9h-14.6v-6.6h15.9c3.3,0,6.1,0.6,8.3,1.7s3.9,2.7,5,4.8s1.7,4.5,1.7,7.4c0,1.8-0.3,3.4-1,4.9s-1.7,2.8-3.1,3.9
			s-3.1,1.8-5.2,2.2c2.1,0.3,3.8,1,5.3,2.2s2.6,2.6,3.4,4.3s1.2,3.6,1.2,5.6v0.1c0,2.8-0.6,5.2-1.8,7.3s-3,3.7-5.2,4.9
			s-4.9,1.7-7.9,1.7h-16.5L2062.9,1212.2L2062.9,1212.2z"/>
		<path d="M2111.7,1209.5c0,0.9,0.2,1.6,0.6,2.1s0.9,0.7,1.6,0.7h3.4v6.8h-4.2c-2.7,0-4.8-0.8-6.3-2.5s-2.2-4.1-2.2-7.1v-41.6h7.2
			v41.6H2111.7z"/>
		<path d="M2126.9,1216.6c-2.2-1.9-3.3-4.7-3.3-8.5c0-3.6,1-6.3,3.1-8.1s5.1-2.7,9.2-2.7h10.4l0.5,5.8H2136c-1.9,0-3.3,0.4-4.2,1.2
			s-1.4,2.1-1.4,3.8c0,1.9,0.6,3.2,1.8,4.1s3.1,1.3,5.6,1.3c2.7,0,4.8-0.3,6.1-0.9s2-1.5,2-2.7l0.7,5.1c-0.6,1-1.4,1.8-2.3,2.4
			s-2,1.1-3.2,1.4s-2.6,0.5-4.1,0.5C2132.5,1219.4,2129.1,1218.5,2126.9,1216.6z M2145.9,1195.8c0-2.4-0.6-4.2-1.9-5.6s-3.1-2-5.4-2
			c-1.5,0-2.9,0.2-4.3,0.7s-2.6,1.1-3.7,1.9l-5.2-3.6c1.4-1.7,3.2-3,5.5-3.9s4.8-1.4,7.5-1.4c3,0,5.6,0.5,7.8,1.6s3.8,2.6,4.9,4.6
			s1.7,4.5,1.7,7.3v23.4h-6.8v-23H2145.9z"/>
		<path d="M2173.4,1219.4c0,0-1.2-0.6-3.5-1.9s-4.2-3-5.4-5.4s-1.9-5.2-1.9-8.6v-6c0-3.3,0.6-6.1,1.9-8.5s3-4.1,5.4-5.4
			s5.2-1.8,8.5-1.8c1.9,0,3.7,0.2,5.4,0.7s3.2,1.1,4.5,2s2.4,1.9,3.3,3.2l-5.2,4.6c-1-1.2-2.2-2.1-3.6-2.7s-2.8-0.9-4.3-0.9
			c-2.8,0-4.9,0.8-6.4,2.3s-2.3,3.7-2.3,6.5v6c0,2.9,0.8,5.1,2.3,6.7s3.7,2.4,6.5,2.4c1.5,0,3-0.3,4.4-1s2.6-1.6,3.6-2.9l5.2,5
			c-0.9,1.2-2,2.3-3.4,3.1s-2.8,1.5-4.5,2s-3.5,0.7-5.3,0.7C2175.1,1219.4,2173.4,1219.4,2173.4,1219.4z"/>
		<path d="M2199.5,1167.8h7.2v51.1h-7.2V1167.8z M2202.6,1205l18.8-22.6h8.4l-27.7,31.1L2202.6,1205z M2211.1,1197.8l4.6-4.8
			l15.9,25.8h-7.8L2211.1,1197.8z"/>
	</g>
</g>
<polygon style="opacity:0.46;fill:#DB9B40;stroke:#000000;stroke-miterlimit:10;enable-background:new    ;" points="2726.6,718.5 
	2468.3,718.5 2339.1,942.3 2468.3,1166 2726.6,1166 2855.8,942.3 "/>
<g>
	<g>
		<path d="M2560.4,904.8h6.7v51.1h-7v-38.3l0.4,2.3l-12.6,28.9h-5l-12.6-28.2l0.4-3v38.3h-7v-51.1h6.7l15,33.8L2560.4,904.8z"/>
		<path d="M2580.7,953.6c-2.2-1.9-3.3-4.7-3.3-8.5c0-3.6,1-6.3,3.1-8.1s5.1-2.7,9.2-2.7h10.4l0.5,5.8h-10.8c-1.9,0-3.3,0.4-4.2,1.2
			s-1.4,2.1-1.4,3.8c0,1.9,0.6,3.2,1.8,4.1s3.1,1.3,5.6,1.3c2.7,0,4.8-0.3,6.1-0.9s2-1.5,2-2.7l0.7,5.1c-0.6,1-1.4,1.8-2.3,2.4
			s-2,1.1-3.2,1.4s-2.6,0.5-4.1,0.5C2586.3,956.4,2582.9,955.5,2580.7,953.6z M2599.7,932.8c0-2.4-0.6-4.2-1.9-5.6s-3.1-2-5.4-2
			c-1.5,0-2.9,0.2-4.3,0.7s-2.6,1.1-3.7,1.9l-5.2-3.6c1.4-1.7,3.2-3,5.5-3.9s4.8-1.4,7.5-1.4c3,0,5.6,0.5,7.8,1.6s3.8,2.6,4.9,4.6
			s1.7,4.5,1.7,7.3v23.4h-6.8v-23H2599.7z"/>
		<path d="M2624.6,946.5c0,0.9,0.2,1.6,0.6,2.1s0.9,0.7,1.6,0.7h3.4v6.8h-4.2c-2.7,0-4.8-0.8-6.3-2.5s-2.2-4.1-2.2-7.1v-41.6h7.2
			v41.6H2624.6z"/>
		<path d="M2648.2,956.4c0,0-1.2-0.6-3.6-1.9s-4.2-3.1-5.5-5.6s-1.9-5.4-1.9-8.9v-4c0-3.6,0.6-6.7,1.8-9.2s3-4.5,5.3-5.8
			s5.1-2,8.3-2c3,0,5.6,0.8,7.8,2.3s3.8,3.7,4.9,6.6s1.7,6.3,1.7,10.4v2.4h-24.6v-5.8h17.8c-0.2-3-1-5.3-2.3-6.9s-3.1-2.5-5.3-2.5
			c-2.7,0-4.8,0.9-6.3,2.7s-2.2,4.3-2.2,7.6v4.6c0,3,0.8,5.3,2.4,7s3.9,2.4,6.8,2.4c1.5,0,2.9-0.3,4.3-0.9s2.7-1.4,3.8-2.5l4.7,4.7
			c-1.8,1.7-3.8,3.1-6.1,4s-4.5,1.4-6.8,1.4C2649.9,956.4,2648.2,956.4,2648.2,956.4z"/>
	</g>
</g>
<g>
	<g>
		<path d="M216.6,1146.2h7.2v51.1h-7.2V1146.2z M220.2,1190.5h29.3v6.8h-29.3V1190.5z"/>
		<path d="M263.1,1196c-2.3-1.2-4-3.1-5.2-5.4c-1.2-2.4-1.8-5.2-1.8-8.6v-5.9c0-3.3,0.6-6.1,1.8-8.5c1.2-2.4,2.9-4.1,5.2-5.4
			s5-1.8,8.1-1.8s5.9,0.6,8.1,1.8s4,3,5.2,5.4c1.2,2.4,1.8,5.2,1.8,8.5v6c0,3.3-0.6,6.2-1.8,8.5c-1.2,2.4-2.9,4.2-5.2,5.4
			s-5,1.9-8.1,1.9S265.3,1197.2,263.1,1196z M277,1188.7c1.4-1.6,2.1-3.8,2.1-6.6v-6c0-2.8-0.7-5-2.1-6.6s-3.3-2.3-5.8-2.3
			c-2.5,0-4.4,0.8-5.8,2.3s-2.1,3.7-2.1,6.6v6c0,2.8,0.7,5,2.1,6.6s3.3,2.4,5.8,2.4C273.7,1191,275.6,1190.2,277,1188.7z"/>
		<path d="M303.6,1183c0,2.6,0.7,4.5,2,5.9s3.1,2.1,5.5,2.1c2.3,0,4.2-0.6,5.4-1.9c1.3-1.2,1.9-3,1.9-5.3l0.5,7.6
			c-0.8,1.8-2,3.3-3.7,4.5s-3.8,1.8-6.2,1.8c-4,0-7.1-1.3-9.3-3.9c-2.2-2.6-3.3-6.2-3.3-11v-22.2h7.2V1183z M318.4,1160.8h7.1v36.5
			h-7.1V1160.8z"/>
		<path d="M336.5,1146.2h7.2v7.2h-7.2V1146.2z M336.5,1160.8h7.2v36.5h-7.2V1160.8z"/>
		<path d="M364.2,1197.8c0,0-0.9-0.2-2.8-0.6c-1.9-0.4-3.7-1.1-5.3-1.9c-1.6-0.8-3.2-1.9-4.5-3.2l4.3-5.2c2,1.5,3.9,2.6,5.9,3.4
			c1.9,0.8,3.9,1.1,5.8,1.1c2.8,0,5-0.4,6.4-1.3c1.4-0.9,2.1-2.2,2.1-4c0-1.2-0.4-2.1-1.2-2.6s-1.7-1-2.9-1.2
			c-1.1-0.2-2.8-0.4-4.9-0.5c-0.2,0-0.4,0-0.6,0s-0.4,0-0.6-0.1c-0.1,0-0.2,0-0.3,0c-0.1,0-0.2,0-0.3,0c-2.4-0.2-4.4-0.5-6-1
			c-1.6-0.5-3-1.4-4.1-2.8s-1.6-3.4-1.6-5.9s0.5-4.7,1.6-6.4s2.6-3,4.7-3.8c2.1-0.9,4.7-1.3,7.8-1.3c1.9,0,3.7,0.2,5.4,0.5
			s3.4,0.9,4.9,1.6c1.6,0.7,3.1,1.6,4.5,2.6l-4.3,5.2c-1.8-1.2-3.6-2.1-5.4-2.6c-1.8-0.6-3.5-0.9-5.2-0.9c-2.4,0-4.3,0.4-5.5,1.2
			c-1.2,0.8-1.8,2.1-1.8,3.7c0,1,0.3,1.7,1,2.2c0.7,0.5,1.6,0.8,2.6,1s2.6,0.3,4.5,0.4c0.1,0,0.3,0,0.4,0c0.2,0,0.3,0,0.5,0
			c0.1,0,0.1,0,0.2,0s0.1,0,0.2,0c2.6,0.2,4.7,0.5,6.5,1s3.3,1.5,4.5,3.1c1.2,1.5,1.8,3.7,1.8,6.6c0,2.6-0.6,4.8-1.7,6.5
			s-2.8,3-5.1,3.9c-2.3,0.9-5.1,1.3-8.5,1.3C365.3,1197.8,364.2,1197.8,364.2,1197.8z"/>
		<path d="M391.9,1146.2h7.2v7.2h-7.2V1146.2z M391.9,1160.8h7.2v36.5h-7.2V1160.8z"/>
		<path d="M411.5,1195c-2.2-1.9-3.3-4.7-3.3-8.5c0-3.6,1-6.3,3.1-8.1s5.1-2.7,9.2-2.7h10.4l0.5,5.8h-10.8c-1.9,0-3.3,0.4-4.2,1.2
			c-0.9,0.8-1.4,2.1-1.4,3.8c0,1.9,0.6,3.2,1.8,4.1s3.1,1.3,5.6,1.3c2.7,0,4.8-0.3,6.1-0.9c1.3-0.6,2-1.5,2-2.7l0.7,5.1
			c-0.6,1-1.4,1.8-2.3,2.4c-0.9,0.6-2,1.1-3.2,1.4c-1.2,0.3-2.6,0.5-4.1,0.5C417.1,1197.8,413.8,1196.9,411.5,1195z M430.6,1174.2
			c0-2.4-0.6-4.2-1.9-5.6c-1.3-1.3-3.1-2-5.4-2c-1.5,0-2.9,0.2-4.3,0.7c-1.4,0.4-2.6,1.1-3.7,1.9l-5.2-3.6c1.4-1.7,3.2-3,5.5-3.9
			c2.3-0.9,4.8-1.4,7.5-1.4c3,0,5.6,0.5,7.8,1.6c2.2,1.1,3.8,2.6,4.9,4.6s1.7,4.5,1.7,7.3v23.4h-6.8V1174.2z"/>
		<path d="M448.3,1160.8h7.2v36.5h-7.2V1160.8z M470.4,1175.2c0-2.6-0.7-4.6-2-6s-3.2-2.1-5.6-2.1c-2.3,0-4.2,0.6-5.4,1.9
			c-1.3,1.2-1.9,3-1.9,5.2l-0.7-7c1.1-2.2,2.6-3.9,4.4-5.1c1.8-1.2,3.8-1.8,6-1.8c4,0,7,1.3,9.2,3.9c2.2,2.6,3.3,6.3,3.3,11v22.1
			h-7.2V1175.2z"/>
		<path d="M490.1,1195c-2.2-1.9-3.3-4.7-3.3-8.5c0-3.6,1-6.3,3.1-8.1s5.1-2.7,9.2-2.7h10.4l0.5,5.8h-10.8c-1.9,0-3.3,0.4-4.2,1.2
			c-0.9,0.8-1.4,2.1-1.4,3.8c0,1.9,0.6,3.2,1.8,4.1s3.1,1.3,5.6,1.3c2.7,0,4.8-0.3,6.1-0.9c1.3-0.6,2-1.5,2-2.7l0.7,5.1
			c-0.6,1-1.4,1.8-2.3,2.4c-0.9,0.6-2,1.1-3.2,1.4c-1.2,0.3-2.6,0.5-4.1,0.5C495.7,1197.8,492.3,1196.9,490.1,1195z M509.1,1174.2
			c0-2.4-0.6-4.2-1.9-5.6c-1.3-1.3-3.1-2-5.4-2c-1.5,0-2.9,0.2-4.3,0.7c-1.4,0.4-2.6,1.1-3.7,1.9l-5.2-3.6c1.4-1.7,3.2-3,5.5-3.9
			c2.3-0.9,4.8-1.4,7.5-1.4c3,0,5.6,0.5,7.8,1.6c2.2,1.1,3.8,2.6,4.9,4.6s1.7,4.5,1.7,7.3v23.4h-6.8V1174.2z"/>
	</g>
</g>
</svg>
