<?xml version="1.0" encoding="utf-8"?>
<!-- Generator: Adobe Illustrator 23.0.3, SVG Export Plug-In . SVG Version: 6.00 Build 0)  -->
<svg version="1.1" id="Layer_1" xmlns="http://www.w3.org/2000/svg" xmlns:xlink="http://www.w3.org/1999/xlink" x="0px" y="0px"
	 viewBox="0 0 519.3 449.8" style="enable-background:new 0 0 519.3 449.8;" xml:space="preserve">
<polygon style="opacity:0.46;fill:#45B6FE;enable-background:new    ;" points="389.5,0 129.8,0 0,224.9 129.8,449.8 389.5,449.8 
	519.3,224.9 "/>
<g>
	<g>
		<path d="M221.1,194.9h6.7V246h-7v-38.3l0.4,2.3l-12.6,28.9h-5L191,210.7l0.4-3V246h-7v-51.1h6.7l15,33.8L221.1,194.9z"/>
		<path d="M241.3,243.7c-2.2-1.9-3.3-4.7-3.3-8.5c0-3.6,1-6.3,3.1-8.1s5.1-2.7,9.2-2.7h10.4l0.5,5.8h-10.8c-1.9,0-3.3,0.4-4.2,1.2
			s-1.4,2.1-1.4,3.8c0,1.9,0.6,3.2,1.8,4.1s3.1,1.3,5.6,1.3c2.7,0,4.8-0.3,6.1-0.9c1.3-0.6,2-1.5,2-2.7l0.7,5.1
			c-0.6,1-1.4,1.8-2.3,2.4c-0.9,0.6-2,1.1-3.2,1.4c-1.2,0.3-2.6,0.5-4.1,0.5C246.9,246.5,243.5,245.6,241.3,243.7z M260.3,222.9
			c0-2.4-0.6-4.2-1.9-5.6c-1.3-1.3-3.1-2-5.4-2c-1.5,0-2.9,0.2-4.3,0.7c-1.4,0.4-2.6,1.1-3.7,1.9l-5.2-3.6c1.4-1.7,3.2-3,5.5-3.9
			s4.8-1.4,7.5-1.4c3,0,5.6,0.5,7.8,1.6s3.8,2.6,4.9,4.6s1.7,4.5,1.7,7.3V246h-6.8v-23.1H260.3z"/>
		<path d="M285.2,236.6c0,0.9,0.2,1.6,0.6,2.1s0.9,0.7,1.6,0.7h3.4v6.8h-4.2c-2.7,0-4.8-0.8-6.3-2.5s-2.2-4.1-2.2-7.1V195h7.2v41.6
			H285.2z"/>
		<path d="M308.8,246.5c0,0-1.2-0.6-3.6-1.9s-4.2-3.1-5.5-5.6s-1.9-5.4-1.9-8.9V226c0-3.6,0.6-6.7,1.8-9.2c1.2-2.6,3-4.5,5.3-5.8
			s5.1-2,8.3-2c3,0,5.6,0.8,7.8,2.3c2.2,1.5,3.8,3.7,4.9,6.6s1.7,6.3,1.7,10.4v2.4H303v-5.8h17.8c-0.2-3-1-5.3-2.3-6.9
			s-3.1-2.5-5.3-2.5c-2.7,0-4.8,0.9-6.3,2.7s-2.2,4.3-2.2,7.6v4.6c0,3,0.8,5.3,2.4,7s3.9,2.4,6.8,2.4c1.5,0,2.9-0.3,4.3-0.9
			s2.7-1.4,3.8-2.5l4.7,4.7c-1.8,1.7-3.8,3.1-6.1,4s-4.5,1.4-6.8,1.4C310.5,246.5,308.8,246.5,308.8,246.5z"/>
	</g>
</g>
</svg>
