<?xml version="1.0" encoding="utf-8"?>
<!-- Generator: Adobe Illustrator 23.0.3, SVG Export Plug-In . SVG Version: 6.00 Build 0)  -->
<svg version="1.1" id="Layer_1" xmlns="http://www.w3.org/2000/svg" xmlns:xlink="http://www.w3.org/1999/xlink" x="0px" y="0px"
	 viewBox="0 0 519.3 449.8" style="enable-background:new 0 0 519.3 449.8;" xml:space="preserve">
<polygon style="opacity:0.46;fill:#45B6FE;" points="389.5,0 129.8,0 0,224.9 129.8,449.8 389.5,449.8 519.3,224.9 "/>
<g>
	<g>
		<path d="M120.1,242.1c0,0-1.1-0.2-3.3-0.7c-2.2-0.5-4.3-1.2-6.2-2.1c-1.9-0.9-3.7-2.1-5.4-3.5l4.5-5.5c1.9,1.7,4.1,3,6.4,3.8
			c2.3,0.8,4.9,1.3,7.6,1.3c3.7,0,6.6-0.7,8.6-2.1s3.1-3.3,3.1-5.8v0c0-1.8-0.5-3.2-1.4-4.2c-0.9-1-2.1-1.8-3.6-2.3
			c-1.5-0.5-3.4-1-5.7-1.4c-0.1,0-0.1,0-0.2,0c-0.1,0-0.2,0-0.2,0l-0.5-0.1c-3.4-0.6-6.2-1.2-8.3-2s-4-2.1-5.5-4
			c-1.5-2-2.3-4.7-2.3-8.3v0c0-3.2,0.7-5.9,2.1-8.1c1.4-2.2,3.5-3.9,6.2-5.1c2.7-1.2,6-1.8,9.8-1.8c1.8,0,3.6,0.2,5.4,0.6
			c1.8,0.4,3.5,1,5.2,1.8s3.4,1.8,5.1,3l-4.1,5.7c-1.9-1.4-3.9-2.5-5.8-3.2s-3.9-1.1-5.8-1.1c-3.5,0-6.2,0.7-8.1,2.1
			s-2.9,3.4-2.9,5.9v0c0,1.8,0.5,3.1,1.5,4.1c1,1,2.2,1.8,3.7,2.2c1.5,0.5,3.6,1,6.2,1.5c0.1,0,0.2,0,0.3,0.1c0.1,0,0.2,0,0.3,0.1
			c0.1,0,0.2,0,0.4,0.1s0.3,0,0.4,0.1c3.1,0.6,5.7,1.4,7.8,2.3s3.8,2.3,5.2,4.2c1.4,1.9,2.1,4.6,2.1,7.9v0.1c0,3.1-0.7,5.8-2.2,8
			s-3.6,3.9-6.4,5.1c-2.8,1.2-6.2,1.7-10.1,1.7C121.3,242.1,120.1,242.1,120.1,242.1z"/>
		<path d="M159.2,227.2c0,2.6,0.7,4.5,2,5.9s3.1,2.1,5.5,2.1c2.3,0,4.2-0.6,5.4-1.9c1.3-1.2,1.9-3,1.9-5.3l0.5,7.6
			c-0.8,1.8-2,3.3-3.7,4.5s-3.8,1.8-6.2,1.8c-4,0-7.1-1.3-9.3-3.9c-2.2-2.6-3.3-6.2-3.3-11V205h7.2V227.2z M174,205h7.1v36.5H174
			V205z"/>
		<path d="M192.1,205h7.2v36.5h-7.2V205z M209.7,211.9c-1-0.4-2.1-0.6-3.3-0.6c-2.3,0-4,0.6-5.3,1.9c-1.3,1.3-1.9,3-1.9,5.2l-0.7-7
			c1.1-2.2,2.6-3.9,4.4-5.1c1.8-1.2,3.7-1.8,5.9-1.8c1.7,0,3.2,0.2,4.5,0.7c1.3,0.5,2.5,1.2,3.5,2.1l-4.7,6.3
			C211.5,212.9,210.7,212.3,209.7,211.9z"/>
		<path d="M222.8,205h7.2v51.3h-7.2V205z M233.2,240.4c-1.7-1.1-2.9-2.6-3.7-4.6l0.5-7.6c0,1.6,0.3,2.9,0.8,4s1.4,1.9,2.4,2.5
			s2.4,0.9,3.9,0.9c2.4,0,4.2-0.7,5.5-2.2s2-3.5,2-6.1v-7.9c0-2.7-0.7-4.7-2-6.2s-3.1-2.2-5.5-2.2c-1.5,0-2.8,0.3-3.9,0.8
			s-1.9,1.4-2.4,2.5s-0.8,2.4-0.8,3.9l-0.7-7c1.1-2.1,2.5-3.8,4.3-4.9s3.8-1.7,5.9-1.7c2.6,0,4.8,0.6,6.6,1.7s3.2,2.9,4.2,5.1
			s1.4,4.9,1.4,8.1v7.9c0,3.1-0.5,5.7-1.5,7.9s-2.4,3.9-4.3,5s-4.2,1.7-6.8,1.7C236.9,242.1,234.9,241.5,233.2,240.4z"/>
		<path d="M262,205h7.2v36.5H262V205z M279.6,211.9c-1-0.4-2.1-0.6-3.3-0.6c-2.3,0-4,0.6-5.3,1.9s-1.9,3-1.9,5.2l-0.7-7
			c1.1-2.2,2.6-3.9,4.4-5.1s3.8-1.8,5.9-1.8c1.7,0,3.2,0.2,4.5,0.7s2.5,1.2,3.5,2.1l-4.7,6.3C281.4,212.9,280.6,212.3,279.6,211.9z"
			/>
		<path d="M292.7,190.4h7.2v7.2h-7.2V190.4z M292.7,205h7.2v36.5h-7.2V205z"/>
		<path d="M320.4,242.1c0,0-0.9-0.2-2.8-0.6s-3.7-1.1-5.3-1.9s-3.2-1.9-4.5-3.2l4.3-5.2c2,1.5,3.9,2.6,5.9,3.4s3.9,1.1,5.8,1.1
			c2.8,0,5-0.4,6.4-1.3s2.1-2.2,2.1-4c0-1.2-0.4-2.1-1.2-2.6s-1.7-1-2.9-1.2s-2.8-0.4-4.9-0.5c-0.2,0-0.4,0-0.6,0s-0.4,0-0.6-0.1
			c-0.1,0-0.2,0-0.3,0s-0.2,0-0.3,0c-2.4-0.2-4.4-0.5-6-1s-3-1.4-4.1-2.8s-1.6-3.4-1.6-5.9s0.5-4.7,1.6-6.4s2.6-3,4.7-3.8
			s4.7-1.3,7.8-1.3c1.9,0,3.7,0.2,5.4,0.5s3.4,0.9,4.9,1.6s3.1,1.6,4.5,2.6l-4.3,5.2c-1.8-1.2-3.6-2.1-5.4-2.6s-3.5-0.9-5.2-0.9
			c-2.4,0-4.3,0.4-5.5,1.2s-1.8,2.1-1.8,3.7c0,1,0.3,1.7,1,2.2s1.6,0.8,2.6,1s2.6,0.3,4.5,0.4c0.1,0,0.3,0,0.4,0s0.3,0,0.5,0
			c0.1,0,0.1,0,0.2,0s0.1,0,0.2,0c2.6,0.2,4.7,0.5,6.5,1s3.3,1.5,4.5,3.1s1.8,3.7,1.8,6.6c0,2.6-0.6,4.8-1.7,6.5s-2.8,3-5.1,3.9
			c-2.3,0.9-5.1,1.3-8.5,1.3C321.5,242.1,320.4,242.1,320.4,242.1z"/>
		<path d="M358,242.1c0,0-1.2-0.6-3.6-1.9s-4.2-3.1-5.5-5.6s-1.9-5.4-1.9-8.9v-4.1c0-3.6,0.6-6.7,1.8-9.2s3-4.5,5.3-5.8s5.1-2,8.3-2
			c3,0,5.6,0.8,7.8,2.3s3.8,3.7,4.9,6.6s1.7,6.3,1.7,10.4v2.4h-24.6v-5.8H370c-0.2-3-1-5.3-2.3-6.9s-3.1-2.5-5.3-2.5
			c-2.7,0-4.8,0.9-6.3,2.7s-2.2,4.3-2.2,7.6v4.6c0,3,0.8,5.3,2.4,7s3.9,2.4,6.8,2.4c1.5,0,2.9-0.3,4.3-0.9s2.7-1.4,3.8-2.5l4.7,4.7
			c-1.8,1.7-3.8,3.1-6.1,4s-4.5,1.4-6.8,1.4C359.7,242.1,358,242.1,358,242.1z"/>
		<path d="M406.4,234h7.5v7.5h-7.5V234z M406.6,190.4h7.2v38h-7.2V190.4z"/>
	</g>
</g>
</svg>
