<?xml version="1.0" encoding="utf-8"?>
<!-- Generator: Adobe Illustrator 23.0.3, SVG Export Plug-In . SVG Version: 6.00 Build 0)  -->
<svg version="1.1" id="Layer_1" xmlns="http://www.w3.org/2000/svg" xmlns:xlink="http://www.w3.org/1999/xlink" x="0px" y="0px"
	 viewBox="0 0 1602.8 1344" style="enable-background:new 0 0 1602.8 1344;" xml:space="preserve">
<polygon style="fill:#4CC184;stroke:#000000;stroke-miterlimit:10;" points="601.8,712.7 343.5,712.7 214.3,936.5 343.5,1160.2 
	601.8,1160.2 731,936.5 "/>
<g>
	<g>
		<path d="M339.7,901.5h6.1l18.8,51.1h-7.7l-14.2-41.2l-14.2,41.2h-7.7L339.7,901.5z M329.5,934.6h26.9v6.8h-26.9V934.6z"/>
		<path d="M371.7,901.5h7.2v51.1h-7.2V901.5z M382.1,951.5c-1.7-1.1-2.9-2.6-3.7-4.6l0.5-7.6c0,1.6,0.3,2.9,0.8,4s1.4,1.9,2.4,2.5
			c1.1,0.6,2.4,0.9,3.9,0.9c2.4,0,4.2-0.7,5.5-2.2s2-3.5,2-6.1v-7.9c0-2.7-0.7-4.7-2-6.2s-3.1-2.2-5.5-2.2c-1.5,0-2.8,0.3-3.9,0.8
			c-1.1,0.6-1.9,1.4-2.4,2.5s-0.8,2.4-0.8,3.9l-0.7-7c1.1-2.1,2.5-3.8,4.3-4.9c1.8-1.2,3.8-1.7,5.9-1.7c2.6,0,4.8,0.6,6.6,1.7
			c1.8,1.2,3.2,2.9,4.2,5.1s1.4,4.9,1.4,8.1v7.9c0,3.1-0.5,5.7-1.5,7.9s-2.4,3.9-4.3,5s-4.2,1.7-6.8,1.7
			C385.8,953.2,383.8,952.6,382.1,951.5z"/>
		<path d="M416.7,951.3c-2.3-1.2-4-3.1-5.2-5.4c-1.2-2.4-1.8-5.2-1.8-8.6v-5.9c0-3.3,0.6-6.1,1.8-8.5c1.2-2.4,2.9-4.1,5.2-5.4
			s5-1.8,8.1-1.8s5.9,0.6,8.1,1.8s4,3,5.2,5.4s1.8,5.2,1.8,8.5v6c0,3.3-0.6,6.2-1.8,8.5c-1.2,2.4-2.9,4.2-5.2,5.4s-5,1.9-8.1,1.9
			S419,952.5,416.7,951.3z M430.7,944c1.4-1.6,2.1-3.8,2.1-6.6v-6c0-2.8-0.7-5-2.1-6.6s-3.3-2.3-5.8-2.3s-4.4,0.8-5.8,2.3
			s-2.1,3.7-2.1,6.6v6c0,2.8,0.7,5,2.1,6.6s3.3,2.4,5.8,2.4C427.3,946.3,429.3,945.6,430.7,944z"/>
		<path d="M457.3,938.3c0,2.6,0.7,4.5,2,5.9s3.1,2.1,5.5,2.1c2.3,0,4.2-0.6,5.4-1.9c1.3-1.2,1.9-3,1.9-5.3l0.5,7.6
			c-0.8,1.8-2,3.3-3.7,4.5s-3.8,1.8-6.2,1.8c-4,0-7.1-1.3-9.3-3.9c-2.2-2.6-3.3-6.2-3.3-11v-22.2h7.2V938.3z M472.1,916.1h7.1v36.5
			h-7.1V916.1z"/>
		<path d="M487.3,916.1h16.5v6.5h-16.5V916.1z M493.1,950.4c-1.4-1.6-2.1-4-2.1-7.2v-37.6h7.2v37.7c0,0.9,0.2,1.6,0.5,2.1
			s0.9,0.7,1.5,0.7h3.4v6.8h-4.1C496.7,952.8,494.5,952,493.1,950.4z"/>
		<path d="M532.9,916.1h7.2v36.5h-7.2V916.1z M554.7,930.5c0-2.6-0.6-4.6-1.9-6s-3.1-2.1-5.4-2.1c-2.3,0-4.2,0.6-5.4,1.9
			c-1.3,1.2-1.9,3-1.9,5.2l-0.7-7c1.1-2.2,2.6-3.9,4.4-5.1c1.8-1.2,3.8-1.8,6-1.8c2.6,0,4.7,0.6,6.5,1.7c1.8,1.2,3.2,2.9,4.1,5.1
			s1.4,4.9,1.4,8.1v22.1h-7.2v-22.1H554.7z M576.5,930.5c0-2.6-0.7-4.6-2-6s-3.2-2.1-5.6-2.1c-2.2,0-3.9,0.7-5.2,2
			c-1.2,1.4-1.8,3.3-1.8,5.8l-1.4-7c1.1-2.4,2.7-4.3,4.6-5.6c1.9-1.3,4-2,6.2-2c2.6,0,4.9,0.6,6.7,1.7s3.3,2.9,4.3,5.1
			s1.5,4.9,1.5,8.1v22.1h-7.2L576.5,930.5L576.5,930.5z"/>
		<path d="M604.5,953.2c0,0-1.2-0.6-3.6-1.9s-4.2-3.1-5.5-5.6c-1.3-2.4-1.9-5.4-1.9-8.9v-4.1c0-3.6,0.6-6.7,1.8-9.2
			c1.2-2.6,3-4.5,5.3-5.8s5.1-2,8.3-2c3,0,5.6,0.8,7.8,2.3s3.8,3.7,4.9,6.6c1.1,2.9,1.7,6.3,1.7,10.4v2.4h-24.6v-5.8h17.8
			c-0.2-3-1-5.3-2.3-6.9c-1.3-1.7-3.1-2.5-5.3-2.5c-2.7,0-4.8,0.9-6.3,2.7c-1.5,1.8-2.2,4.3-2.2,7.6v4.6c0,3,0.8,5.3,2.4,7
			c1.6,1.6,3.9,2.4,6.8,2.4c1.5,0,2.9-0.3,4.3-0.9c1.4-0.6,2.7-1.4,3.8-2.5l4.7,4.7c-1.8,1.7-3.8,3.1-6.1,4s-4.5,1.4-6.8,1.4
			C606.2,953.2,604.5,953.2,604.5,953.2z"/>
	</g>
</g>
<polygon style="fill:#4CC184;" points="695,707.3 797.2,890.5 1278.8,893.4 1257.5,929 774.7,929.7 670.9,746.7 "/>
</svg>
