<?xml version="1.0" encoding="utf-8"?>
<!-- Generator: Adobe Illustrator 23.0.3, SVG Export Plug-In . SVG Version: 6.00 Build 0)  -->
<svg version="1.1" id="Layer_1" xmlns="http://www.w3.org/2000/svg" xmlns:xlink="http://www.w3.org/1999/xlink" x="0px" y="0px"
	 viewBox="0 0 1602.8 1344" style="enable-background:new 0 0 1602.8 1344;" xml:space="preserve">
<polygon style="fill:#4CC184;stroke:#000000;stroke-miterlimit:10;enable-background:new    ;" points="1395.7,32.1 1137.4,32.1 
	1008.2,255.9 1137.4,479.6 1395.7,479.6 1524.9,255.9 "/>
<g>
	<g>
		<path d="M1148.2,223.7h7.2v51.2h-7.2V223.7z M1151.3,246.4h17.4c1.4,0,2.6-0.3,3.6-1c1.1-0.7,1.9-1.6,2.4-2.8
			c0.6-1.2,0.9-2.6,0.9-4.2c0-1.6-0.3-3-0.9-4.2c-0.6-1.2-1.4-2.1-2.4-2.8c-1-0.7-2.3-1-3.6-1h-17.4v-6.8h17.2c3,0,5.5,0.6,7.8,1.8
			c2.2,1.2,4,2.9,5.2,5.2c1.2,2.2,1.8,4.8,1.8,7.8c0,2.9-0.6,5.5-1.9,7.8c-1.2,2.2-3,4-5.2,5.2c-2.2,1.2-4.8,1.8-7.8,1.8h-17.2
			V246.4z M1165.2,251.7l7.1-1.6l13.1,24.8h-8.5L1165.2,251.7z"/>
		<path d="M1196,272.6c-2.2-1.9-3.3-4.7-3.3-8.5c0-3.6,1-6.3,3.1-8.1c2-1.8,5.1-2.7,9.2-2.7h10.4l0.5,5.8H1205
			c-1.9,0-3.3,0.4-4.2,1.2c-0.9,0.8-1.4,2.1-1.4,3.8c0,1.9,0.6,3.2,1.8,4.1c1.2,0.9,3.1,1.3,5.6,1.3c2.7,0,4.8-0.3,6.1-0.9
			c1.3-0.6,2-1.5,2-2.7l0.7,5.1c-0.6,1-1.4,1.8-2.3,2.4c-0.9,0.6-2,1.1-3.2,1.4c-1.2,0.3-2.6,0.5-4.1,0.5
			C1201.6,275.4,1198.2,274.5,1196,272.6z M1215,251.7c0-2.4-0.6-4.2-1.9-5.6c-1.3-1.3-3.1-2-5.4-2c-1.5,0-2.9,0.2-4.3,0.7
			c-1.4,0.4-2.6,1.1-3.7,1.9l-5.2-3.6c1.4-1.7,3.2-3,5.5-3.9c2.3-0.9,4.8-1.4,7.5-1.4c3,0,5.6,0.5,7.8,1.6c2.2,1.1,3.8,2.6,4.9,4.6
			c1.1,2,1.7,4.5,1.7,7.3v23.4h-6.8V251.7z"/>
		<path d="M1232.7,238.4h7.2v36.5h-7.2V238.4z M1254.9,252.8c0-2.6-0.7-4.6-2-6s-3.2-2.1-5.6-2.1c-2.3,0-4.2,0.6-5.4,1.9
			c-1.3,1.2-1.9,3-1.9,5.2l-0.7-7c1.1-2.2,2.6-3.9,4.4-5.1c1.8-1.2,3.8-1.8,6-1.8c4,0,7,1.3,9.2,3.9c2.2,2.6,3.3,6.3,3.3,11v22.1
			h-7.2V252.8z"/>
		<path d="M1277.7,273.8c-1.9-1.2-3.3-2.9-4.3-5.1c-1-2.2-1.5-4.9-1.5-8v-8.1c0-3.1,0.5-5.8,1.4-8.1c1-2.2,2.4-3.9,4.2-5.1
			c1.8-1.2,4-1.7,6.6-1.7c2.2,0,4.1,0.6,5.9,1.7s3.2,2.7,4.3,4.7l-0.7,7.5c0-1.5-0.3-2.9-0.8-4c-0.6-1.1-1.4-1.9-2.4-2.5
			c-1.1-0.6-2.4-0.9-3.9-0.9c-2.4,0-4.2,0.7-5.5,2.2s-2,3.6-2,6.2v7.9c0,2.6,0.7,4.7,2,6.1s3.1,2.2,5.5,2.2c1.5,0,2.8-0.3,3.9-0.9
			c1.1-0.6,1.9-1.5,2.4-2.6s0.8-2.5,0.8-4l0.5,7.7c-0.7,1.8-1.9,3.3-3.6,4.5s-3.7,1.8-6.1,1.8
			C1281.9,275.5,1279.6,274.9,1277.7,273.8z M1293.7,223.8h7.2v51.1h-7.2V223.8z"/>
		<path d="M1317.6,273.5c-2.3-1.2-4-3.1-5.2-5.4c-1.2-2.4-1.8-5.2-1.8-8.6v-5.9c0-3.3,0.6-6.1,1.8-8.5c1.2-2.4,2.9-4.1,5.2-5.4
			s5-1.8,8.1-1.8s5.9,0.6,8.1,1.8s4,3,5.2,5.4c1.2,2.4,1.8,5.2,1.8,8.5v6c0,3.3-0.6,6.2-1.8,8.5c-1.2,2.4-2.9,4.2-5.2,5.4
			c-2.3,1.2-5,1.9-8.1,1.9S1319.9,274.8,1317.6,273.5z M1331.6,266.2c1.4-1.6,2.1-3.8,2.1-6.6v-6c0-2.8-0.7-5-2.1-6.6
			s-3.3-2.3-5.8-2.3c-2.5,0-4.4,0.8-5.8,2.3s-2.1,3.7-2.1,6.6v6c0,2.8,0.7,5,2.1,6.6c1.4,1.6,3.3,2.4,5.8,2.4
			C1328.3,268.6,1330.2,267.8,1331.6,266.2z"/>
		<path d="M1351,238.4h7.2v36.5h-7.2V238.4z M1372.8,252.8c0-2.6-0.6-4.6-1.9-6s-3.1-2.1-5.4-2.1c-2.3,0-4.2,0.6-5.4,1.9
			c-1.3,1.2-1.9,3-1.9,5.2l-0.7-7c1.1-2.2,2.6-3.9,4.4-5.1c1.8-1.2,3.8-1.8,6-1.8c2.6,0,4.7,0.6,6.5,1.7c1.8,1.2,3.2,2.9,4.1,5.1
			c0.9,2.2,1.4,4.9,1.4,8.1v22.1h-7.2V252.8z M1394.6,252.8c0-2.6-0.7-4.6-2-6s-3.2-2.1-5.6-2.1c-2.2,0-3.9,0.7-5.2,2
			c-1.2,1.4-1.8,3.3-1.8,5.8l-1.4-7c1.1-2.4,2.7-4.3,4.6-5.6c1.9-1.3,4-2,6.2-2c2.6,0,4.9,0.6,6.7,1.7s3.3,2.9,4.3,5.1
			c1,2.2,1.5,4.9,1.5,8.1v22.1h-7.2V252.8z"/>
	</g>
</g>
<polygon style="fill:#4CC184;" points="1035.2,480.8 934.1,297 452.5,291.4 474,255.9 956.7,257.9 1059.5,441.5 "/>
</svg>
