<?xml version="1.0" encoding="utf-8"?>
<!-- Generator: Adobe Illustrator 23.0.3, SVG Export Plug-In . SVG Version: 6.00 Build 0)  -->
<svg version="1.1" id="Layer_1" xmlns="http://www.w3.org/2000/svg" xmlns:xlink="http://www.w3.org/1999/xlink" x="0px" y="0px"
	 viewBox="0 0 1737.5 1223.9" style="enable-background:new 0 0 1737.5 1223.9;" xml:space="preserve">
<polygon style="fill:#4CC184;stroke:#000000;stroke-miterlimit:10;" points="528.7,0 270.4,0 141.2,223.8 270.4,447.5 528.7,447.5 
	657.9,223.8 "/>
<g>
	<g>
		<path d="M275.2,191.6h7.2v51.1h-7.2V191.6z M278.9,216.1h16.3c1.5,0,2.9-0.4,4.1-1.1c1.2-0.7,2.1-1.8,2.7-3.1c0.6-1.3,1-2.9,1-4.6
			c0-1.8-0.3-3.3-1-4.6c-0.6-1.3-1.6-2.4-2.7-3.1c-1.2-0.7-2.5-1.1-4.1-1.1h-16.3v-6.8H295c3,0,5.7,0.7,8.1,2s4.1,3.1,5.4,5.5
			s1.9,5.1,1.9,8.2c0,3.1-0.6,5.9-1.9,8.2c-1.3,2.4-3.1,4.2-5.4,5.5c-2.3,1.3-5,1.9-8.1,1.9h-16.1V216.1z"/>
		<path d="M319.3,206.2h7.2v36.5h-7.2V206.2z M337,213.1c-1-0.4-2.1-0.6-3.3-0.6c-2.3,0-4,0.6-5.3,1.9c-1.3,1.3-1.9,3-1.9,5.2
			l-0.7-7c1.1-2.2,2.6-3.9,4.4-5.1c1.8-1.2,3.7-1.8,5.9-1.8c1.7,0,3.2,0.2,4.5,0.7c1.3,0.5,2.5,1.2,3.5,2.1l-4.7,6.3
			C338.8,214.1,338,213.5,337,213.1z"/>
		<path d="M355.9,241.4c-2.3-1.2-4-3.1-5.2-5.4c-1.2-2.4-1.8-5.2-1.8-8.6v-5.9c0-3.3,0.6-6.1,1.8-8.5c1.2-2.4,2.9-4.1,5.2-5.4
			s5-1.8,8.1-1.8s5.9,0.6,8.1,1.8s4,3,5.2,5.4c1.2,2.4,1.8,5.2,1.8,8.5v6c0,3.3-0.6,6.2-1.8,8.5c-1.2,2.4-2.9,4.2-5.2,5.4
			s-5,1.9-8.1,1.9S358.2,242.6,355.9,241.4z M369.9,234.1c1.4-1.6,2.1-3.8,2.1-6.6v-6c0-2.8-0.7-5-2.1-6.6s-3.3-2.3-5.8-2.3
			s-4.4,0.8-5.8,2.3s-2.1,3.7-2.1,6.6v6c0,2.8,0.7,5,2.1,6.6c1.4,1.6,3.3,2.4,5.8,2.4C366.6,236.4,368.5,235.7,369.9,234.1z"/>
		<path d="M384.4,250.7h4c0.7,0,1.2-0.2,1.5-0.7c0.4-0.5,0.5-1.2,0.5-2.1v-41.7h7.2v41.7c0,3.1-0.7,5.4-2.2,7.1s-3.6,2.5-6.3,2.5
			h-4.7V250.7z M390.4,191.6h7.3v7.2h-7.3V191.6z"/>
		<path d="M418.5,243.3c0,0-1.2-0.6-3.6-1.9c-2.4-1.3-4.2-3.1-5.5-5.6c-1.3-2.4-1.9-5.4-1.9-8.9v-4.1c0-3.6,0.6-6.7,1.8-9.2
			c1.2-2.6,3-4.5,5.3-5.8s5.1-2,8.3-2c3,0,5.6,0.8,7.8,2.3s3.8,3.7,4.9,6.6c1.1,2.9,1.7,6.3,1.7,10.4v2.4h-24.6v-5.8h17.8
			c-0.2-3-1-5.3-2.3-6.9c-1.3-1.7-3.1-2.5-5.3-2.5c-2.7,0-4.8,0.9-6.3,2.7s-2.2,4.3-2.2,7.6v4.6c0,3,0.8,5.3,2.4,7
			c1.6,1.6,3.9,2.4,6.8,2.4c1.5,0,2.9-0.3,4.3-0.9c1.4-0.6,2.7-1.4,3.8-2.5l4.7,4.7c-1.8,1.7-3.8,3.1-6.1,4
			c-2.3,0.9-4.5,1.4-6.8,1.4C420.2,243.3,418.5,243.3,418.5,243.3z"/>
		<path d="M456.9,243.3c0,0-1.2-0.6-3.5-1.9c-2.4-1.2-4.2-3-5.4-5.4s-1.9-5.2-1.9-8.6v-6c0-3.3,0.6-6.1,1.9-8.5
			c1.2-2.3,3-4.1,5.4-5.4c2.4-1.3,5.2-1.8,8.5-1.8c1.9,0,3.7,0.2,5.4,0.7c1.7,0.5,3.2,1.1,4.5,2s2.4,1.9,3.3,3.2l-5.2,4.6
			c-1-1.2-2.2-2.1-3.6-2.7c-1.4-0.6-2.8-0.9-4.3-0.9c-2.8,0-4.9,0.8-6.4,2.3s-2.3,3.7-2.3,6.5v6c0,2.9,0.8,5.1,2.3,6.7
			c1.5,1.6,3.7,2.4,6.5,2.4c1.5,0,3-0.3,4.4-1c1.4-0.7,2.6-1.6,3.6-2.9l5.2,5c-0.9,1.2-2,2.3-3.4,3.1c-1.3,0.9-2.8,1.5-4.5,2
			c-1.7,0.4-3.5,0.7-5.3,0.7C458.6,243.3,456.9,243.3,456.9,243.3z"/>
		<path d="M480.2,206.2h16.5v6.5h-16.5V206.2z M486.1,240.5c-1.4-1.6-2.1-4-2.1-7.2v-37.6h7.2v37.7c0,0.9,0.2,1.6,0.5,2.1
			c0.4,0.5,0.9,0.7,1.5,0.7h3.4v6.8h-4.1C489.6,242.9,487.4,242.1,486.1,240.5z"/>
		<path d="M516.2,243.3c0,0-0.9-0.2-2.8-0.6c-1.9-0.4-3.7-1.1-5.3-1.9c-1.6-0.8-3.2-1.9-4.5-3.2l4.3-5.2c2,1.5,3.9,2.6,5.9,3.4
			c1.9,0.8,3.9,1.1,5.8,1.1c2.8,0,5-0.4,6.4-1.3c1.4-0.9,2.1-2.2,2.1-4c0-1.2-0.4-2.1-1.2-2.6c-0.8-0.6-1.7-1-2.9-1.2
			c-1.1-0.2-2.8-0.4-4.9-0.5c-0.2,0-0.4,0-0.6,0s-0.4,0-0.6-0.1c-0.1,0-0.2,0-0.3,0s-0.2,0-0.3,0c-2.4-0.2-4.4-0.5-6-1
			c-1.6-0.5-3-1.4-4.1-2.8c-1.1-1.4-1.6-3.4-1.6-5.9c0-2.6,0.5-4.7,1.6-6.4c1.1-1.7,2.6-3,4.7-3.8c2.1-0.9,4.7-1.3,7.8-1.3
			c1.9,0,3.7,0.2,5.4,0.5c1.7,0.3,3.4,0.9,4.9,1.6c1.6,0.7,3.1,1.6,4.5,2.6l-4.3,5.2c-1.8-1.2-3.6-2.1-5.4-2.6
			c-1.8-0.6-3.5-0.9-5.2-0.9c-2.4,0-4.3,0.4-5.5,1.2s-1.8,2.1-1.8,3.7c0,1,0.3,1.7,1,2.2s1.6,0.8,2.6,1c1.1,0.2,2.6,0.3,4.5,0.4
			c0.1,0,0.3,0,0.4,0c0.2,0,0.3,0,0.5,0c0.1,0,0.1,0,0.2,0c0.1,0,0.1,0,0.2,0c2.6,0.2,4.7,0.5,6.5,1s3.3,1.5,4.5,3.1
			c1.2,1.5,1.8,3.7,1.8,6.6c0,2.6-0.6,4.8-1.7,6.5c-1.1,1.7-2.8,3-5.1,3.9s-5.1,1.3-8.5,1.3C517.3,243.3,516.2,243.3,516.2,243.3z"
			/>
	</g>
</g>
<polygon style="fill:#4CC184;" points="622.4,461.4 723.5,277.6 1205.2,272 1183.6,236.5 700.9,238.5 598.1,422.1 "/>
</svg>
