<?xml version="1.0" encoding="utf-8"?>
<!-- Generator: Adobe Illustrator 23.0.3, SVG Export Plug-In . SVG Version: 6.00 Build 0)  -->
<svg version="1.1" id="Layer_1" xmlns="http://www.w3.org/2000/svg" xmlns:xlink="http://www.w3.org/1999/xlink" x="0px" y="0px"
	 viewBox="0 0 519.3 449.8" style="enable-background:new 0 0 519.3 449.8;" xml:space="preserve">
<polygon style="opacity:0.46;fill:#45B6FE;enable-background:new    ;" points="389.5,0 129.8,0 0,224.9 129.8,449.8 389.5,449.8 
	519.3,224.9 "/>
<g>
	<g>
		<path d="M174.8,193.4h7.1v51.1h-7.1V193.4z M179,237.9h13.9c3.6,0,6.3-0.7,7.9-2.1c1.7-1.4,2.5-3.3,2.5-5.8v-0.1
			c0-1.7-0.3-3.2-0.9-4.5s-1.5-2.2-2.8-2.9s-2.9-1-5-1H179V215h15.6c2.6,0,4.6-0.6,6-1.9c1.3-1.2,2-3.1,2-5.5c0-2.6-0.8-4.5-2.3-5.7
			c-1.5-1.3-3.8-1.9-6.8-1.9H179v-6.6h16c3.3,0,6.1,0.6,8.3,1.7c2.2,1.1,3.9,2.7,5,4.8s1.7,4.5,1.7,7.4c0,1.8-0.3,3.4-1,4.9
			s-1.7,2.8-3.1,3.9c-1.4,1.1-3.1,1.8-5.2,2.2c2.1,0.3,3.8,1,5.3,2.2s2.6,2.6,3.4,4.3c0.8,1.7,1.2,3.6,1.2,5.6v0.1
			c0,2.8-0.6,5.2-1.8,7.3s-3,3.7-5.2,4.9c-2.3,1.1-4.9,1.7-7.9,1.7H179V237.9z"/>
		<path d="M227.8,235.1c0,0.9,0.2,1.6,0.6,2.1s0.9,0.7,1.6,0.7h3.4v6.8h-4.2c-2.7,0-4.8-0.8-6.3-2.5s-2.2-4.1-2.2-7.1v-41.6h7.2
			v41.6H227.8z"/>
		<path d="M243,242.2c-2.2-1.9-3.3-4.7-3.3-8.5c0-3.6,1-6.3,3.1-8.1s5.1-2.7,9.2-2.7h10.4l0.5,5.8H252c-1.9,0-3.3,0.4-4.2,1.2
			s-1.4,2.1-1.4,3.8c0,1.9,0.6,3.2,1.8,4.1s3.1,1.3,5.6,1.3c2.7,0,4.8-0.3,6.1-0.9s2-1.5,2-2.7l0.7,5.1c-0.6,1-1.4,1.8-2.3,2.4
			s-2,1.1-3.2,1.4s-2.6,0.5-4.1,0.5C248.6,245,245.3,244.1,243,242.2z M262.1,221.4c0-2.4-0.6-4.2-1.9-5.6c-1.3-1.3-3.1-2-5.4-2
			c-1.5,0-2.9,0.2-4.3,0.7c-1.4,0.4-2.6,1.1-3.7,1.9l-5.2-3.6c1.4-1.7,3.2-3,5.5-3.9s4.8-1.4,7.5-1.4c3,0,5.6,0.5,7.8,1.6
			s3.8,2.6,4.9,4.6s1.7,4.5,1.7,7.3v23.4h-6.8v-23H262.1z"/>
		<path d="M289.5,245c0,0-1.2-0.6-3.5-1.9s-4.2-3-5.4-5.4s-1.9-5.2-1.9-8.6v-6c0-3.3,0.6-6.1,1.9-8.5c1.2-2.3,3-4.1,5.4-5.4
			s5.2-1.8,8.5-1.8c1.9,0,3.7,0.2,5.4,0.7s3.2,1.1,4.5,2s2.4,1.9,3.3,3.2l-5.2,4.6c-1-1.2-2.2-2.1-3.6-2.7s-2.8-0.9-4.3-0.9
			c-2.8,0-4.9,0.8-6.4,2.3s-2.3,3.7-2.3,6.5v6c0,2.9,0.8,5.1,2.3,6.7s3.7,2.4,6.5,2.4c1.5,0,3-0.3,4.4-1s2.6-1.6,3.6-2.9l5.2,5
			c-0.9,1.2-2,2.3-3.4,3.1s-2.8,1.5-4.5,2s-3.5,0.7-5.3,0.7C291.2,245,289.5,245,289.5,245z"/>
		<path d="M315.6,193.4h7.2v51.1h-7.2V193.4z M318.7,230.6l18.8-22.6h8.4l-27.7,31.1L318.7,230.6z M327.2,223.4l4.6-4.8l15.9,25.8
			h-7.8L327.2,223.4z"/>
	</g>
</g>
</svg>
