<?xml version="1.0" encoding="utf-8"?>
<!-- Generator: Adobe Illustrator 23.0.3, SVG Export Plug-In . SVG Version: 6.00 Build 0)  -->
<svg version="1.1" id="Layer_1" xmlns="http://www.w3.org/2000/svg" xmlns:xlink="http://www.w3.org/1999/xlink" x="0px" y="0px"
	 viewBox="0 0 519.3 449.8" style="enable-background:new 0 0 519.3 449.8;" xml:space="preserve">
<polygon style="opacity:0.46;fill:none;stroke:#45B6FE;stroke-miterlimit:10;enable-background:new    ;" points="389.5,0 129.8,0 
	0,224.9 129.8,449.8 389.5,449.8 519.3,224.9 "/>
<g>
	<g>
		<path d="M197,192.9h4.9l10.5,40.1l9-40.1h7.5L216.4,244h-7.3l-9.4-35.7l-9.8,35.7h-7.3l-12.5-51.1h7.5l9,40.1L197,192.9z"/>
		<path d="M235.6,192.9h7.2V244h-7.2V192.9z M257.7,221.9c0-2.6-0.7-4.6-2-6s-3.2-2.1-5.6-2.1c-2.3,0-4.2,0.6-5.4,1.8
			c-1.3,1.2-1.9,2.9-1.9,5.2l-0.7-7c1.1-2.2,2.6-3.8,4.4-5c1.8-1.2,3.8-1.8,6-1.8c4,0,7,1.3,9.2,3.9c2.2,2.6,3.3,6.3,3.3,11V244
			h-7.2V221.9z"/>
		<path d="M275.8,192.9h7.2v7.2h-7.2V192.9z M275.8,207.5h7.2V244h-7.2V207.5z"/>
		<path d="M291.1,207.5h16.5v6.5h-16.5V207.5z M296.9,241.7c-1.4-1.6-2.1-4-2.1-7.2v-37.6h7.2v37.7c0,0.9,0.2,1.6,0.5,2.1
			s0.9,0.7,1.5,0.7h3.4v6.8h-4.1C300.4,244.2,298.3,243.4,296.9,241.7z"/>
		<path d="M327.2,244.5c0,0-1.2-0.6-3.6-1.9s-4.2-3.1-5.5-5.6s-1.9-5.4-1.9-8.9v-4.1c0-3.6,0.6-6.7,1.8-9.2c1.2-2.6,3-4.5,5.3-5.8
			s5.1-2,8.3-2c3,0,5.6,0.8,7.8,2.3c2.2,1.5,3.8,3.7,4.9,6.6s1.7,6.3,1.7,10.4v2.4h-24.6v-5.8h17.8c-0.2-3-1-5.3-2.3-6.9
			s-3.1-2.5-5.3-2.5c-2.7,0-4.8,0.9-6.3,2.7c-1.5,1.8-2.2,4.3-2.2,7.6v4.6c0,3,0.8,5.3,2.4,7s3.9,2.4,6.8,2.4c1.5,0,2.9-0.3,4.3-0.9
			s2.7-1.4,3.8-2.5l4.7,4.7c-1.8,1.7-3.8,3.1-6.1,4s-4.5,1.4-6.8,1.4C328.9,244.5,327.2,244.5,327.2,244.5z"/>
	</g>
</g>
</svg>
