<svg xmlns="http://www.w3.org/2000/svg" viewBox="0 0 1444.02 1442.42"><defs><style>.cls-1{fill:#ca4a24;}.cls-2{fill:#91c3d7;}.cls-3{fill:#86055a;}.cls-4{fill:#de5126;}.cls-5{fill:#d02027;}.cls-6{fill:#fbe821;}.cls-7{fill:#178240;}.cls-8{fill:#193a66;}.cls-9{fill:#30051c;}.cls-10,.cls-103,.cls-112,.cls-12,.cls-147,.cls-148,.cls-154,.cls-155,.cls-41{fill:none;}.cls-10,.cls-102,.cls-103,.cls-104,.cls-11,.cls-112,.cls-113,.cls-114,.cls-12,.cls-14,.cls-143,.cls-144,.cls-145,.cls-146,.cls-147,.cls-148,.cls-149,.cls-15,.cls-152,.cls-154,.cls-155,.cls-22,.cls-25,.cls-33,.cls-34,.cls-40,.cls-41,.cls-52,.cls-53,.cls-58,.cls-69,.cls-70,.cls-71,.cls-72,.cls-73,.cls-74,.cls-76,.cls-77,.cls-83,.cls-86,.cls-90,.cls-93,.cls-96{stroke:#231f20;}.cls-10,.cls-11{stroke-width:4px;}.cls-109,.cls-11,.cls-113,.cls-146,.cls-40,.cls-70{fill:#fff;}.cls-13{font-size:20px;}.cls-114,.cls-124,.cls-13,.cls-142,.cls-149,.cls-15,.cls-152,.cls-22,.cls-25,.cls-33,.cls-34,.cls-52,.cls-53,.cls-58,.cls-68,.cls-73,.cls-74,.cls-77,.cls-83,.cls-86,.cls-90,.cls-93,.cls-96{fill:#231f20;}.cls-114,.cls-124,.cls-13,.cls-149,.cls-15,.cls-152,.cls-22,.cls-25,.cls-33,.cls-34,.cls-52,.cls-53,.cls-58,.cls-73,.cls-74,.cls-77,.cls-83,.cls-86,.cls-90,.cls-93,.cls-96{font-family:KabelITCbyBT-Book, KabelITCbyBT Book;}.cls-14{stroke-width:6px;stroke-miterlimit:4;}.cls-15,.cls-22,.cls-26,.cls-52,.cls-53,.cls-58,.cls-86{font-size:13px;}.cls-15{letter-spacing:0.17em;}.cls-16{letter-spacing:0.19em;}.cls-17{letter-spacing:0.22em;}.cls-18{letter-spacing:0.18em;}.cls-19{letter-spacing:0.14em;}.cls-20{letter-spacing:0.15em;}.cls-21{letter-spacing:0.11em;}.cls-149,.cls-152,.cls-22,.cls-25,.cls-33,.cls-34,.cls-52,.cls-53,.cls-58,.cls-86,.cls-93,.cls-96{stroke-width:0.75px;}.cls-22,.cls-24,.cls-26{letter-spacing:0.1em;}.cls-23{letter-spacing:0.1em;}.cls-25{font-size:10px;letter-spacing:0.1em;}.cls-27,.cls-52{letter-spacing:0.08em;}.cls-28,.cls-58{letter-spacing:0.1em;}.cls-29{letter-spacing:0.11em;}.cls-30{letter-spacing:0.09em;}.cls-31{letter-spacing:0.07em;}.cls-32{letter-spacing:0.09em;}.cls-33,.cls-34,.cls-93,.cls-96{font-size:14px;}.cls-33,.cls-37{letter-spacing:0.1em;}.cls-34,.cls-97{letter-spacing:0.1em;}.cls-35{letter-spacing:0.13em;}.cls-36{letter-spacing:0.07em;}.cls-38{letter-spacing:0.11em;}.cls-39{letter-spacing:0.09em;}.cls-102,.cls-103,.cls-104,.cls-148,.cls-40,.cls-41,.cls-71,.cls-72,.cls-76{stroke-width:3px;}.cls-42{letter-spacing:0.11em;}.cls-43{letter-spacing:0.07em;}.cls-44{letter-spacing:0.07em;}.cls-45{letter-spacing:0.09em;}.cls-46{letter-spacing:0.13em;}.cls-47{letter-spacing:0.09em;}.cls-48{letter-spacing:0.1em;}.cls-49{letter-spacing:0.06em;}.cls-50{letter-spacing:0.08em;}.cls-51{letter-spacing:0.02em;}.cls-53{letter-spacing:0.09em;}.cls-54{letter-spacing:0.07em;}.cls-55{letter-spacing:0.06em;}.cls-56{letter-spacing:0.06em;}.cls-57{letter-spacing:0.04em;}.cls-59{letter-spacing:0.13em;}.cls-60{letter-spacing:0.09em;}.cls-61{letter-spacing:0.04em;}.cls-62{letter-spacing:0.1em;}.cls-63{letter-spacing:0.09em;}.cls-64{letter-spacing:0.01em;}.cls-65{letter-spacing:0.1em;}.cls-66{letter-spacing:0.04em;}.cls-67{fill:#010101;}.cls-69{fill:#ed1c24;}.cls-143,.cls-144,.cls-145,.cls-146,.cls-147,.cls-154,.cls-155,.cls-69,.cls-70{stroke-width:2px;}.cls-71{fill:#e02a29;}.cls-72{fill:#56bbd8;}.cls-73,.cls-74,.cls-77{font-size:21px;}.cls-73,.cls-75{letter-spacing:0.11em;}.cls-74{letter-spacing:0.03em;}.cls-76{fill:#ee2d2b;}.cls-77{letter-spacing:0.11em;}.cls-78{letter-spacing:0.07em;}.cls-79{letter-spacing:0.08em;}.cls-80{letter-spacing:0.14em;}.cls-81{letter-spacing:0.12em;}.cls-82{letter-spacing:0.1em;}.cls-83,.cls-90{font-size:19px;}.cls-83,.cls-91{letter-spacing:0.05em;}.cls-84{letter-spacing:0.04em;}.cls-85{letter-spacing:-0.03em;}.cls-86{letter-spacing:-0.03em;}.cls-87{letter-spacing:-0.03em;}.cls-88{letter-spacing:0.05em;}.cls-89{letter-spacing:0.05em;}.cls-90{letter-spacing:0.05em;}.cls-92{letter-spacing:0.04em;}.cls-93{letter-spacing:-0.03em;}.cls-94{letter-spacing:-0.03em;}.cls-95{letter-spacing:0.05em;}.cls-105,.cls-96{letter-spacing:0.08em;}.cls-98{letter-spacing:0.05em;}.cls-99{letter-spacing:0.12em;}.cls-100{letter-spacing:0.05em;}.cls-101{letter-spacing:0.09em;}.cls-102,.cls-104{fill:#edd206;}.cls-103,.cls-144,.cls-145,.cls-146,.cls-147,.cls-148,.cls-154{stroke-linecap:round;}.cls-104,.cls-148,.cls-154{stroke-linejoin:round;}.cls-106{letter-spacing:0.12em;}.cls-107{letter-spacing:0.1em;}.cls-108{fill:#d9cdcd;}.cls-110{fill:#988d7e;}.cls-111{fill:#3c3d3d;}.cls-112,.cls-113,.cls-114{stroke-width:7px;}.cls-114{font-size:150.21px;letter-spacing:0.07em;}.cls-115{letter-spacing:0.07em;}.cls-116{letter-spacing:0.08em;}.cls-117{letter-spacing:0.08em;}.cls-118{letter-spacing:0.08em;}.cls-119{letter-spacing:0.08em;}.cls-120{letter-spacing:0.08em;}.cls-121{letter-spacing:0.08em;}.cls-122{letter-spacing:-0.01em;}.cls-123{letter-spacing:0.1em;}.cls-124{font-size:8px;letter-spacing:0.2em;}.cls-125{letter-spacing:0.19em;}.cls-126{letter-spacing:0.18em;}.cls-127{letter-spacing:0.19em;}.cls-128{letter-spacing:0.19em;}.cls-129{letter-spacing:0.19em;}.cls-130{letter-spacing:0.18em;}.cls-131{letter-spacing:0.2em;}.cls-132{letter-spacing:0.19em;}.cls-133{letter-spacing:0.18em;}.cls-134{letter-spacing:0.19em;}.cls-135{letter-spacing:0.17em;}.cls-136{letter-spacing:0.18em;}.cls-137{letter-spacing:0.17em;}.cls-138{letter-spacing:0.18em;}.cls-139{letter-spacing:0.18em;}.cls-140{letter-spacing:0.19em;}.cls-141{letter-spacing:0.17em;}.cls-142{stroke:#fff;stroke-width:0.25px;}.cls-143,.cls-144{fill:#cb9930;}.cls-145{fill:#623d0a;}.cls-149,.cls-152{font-size:22px;}.cls-149{letter-spacing:0.23em;}.cls-150,.cls-152{letter-spacing:0.25em;}.cls-151{letter-spacing:0.28em;}.cls-153{fill:#428db7;}</style></defs><title>Seminopoly</title><g id="Layer_1" data-name="Layer 1"><rect class="cls-1" x="55.17" y="1249.91" width="136" height="136"/><rect class="cls-2" x="544.83" y="1249.57" width="118.33" height="38.67"/><rect class="cls-2" x="309.5" y="1250.24" width="118.33" height="38.67"/><rect class="cls-2" x="192.17" y="1249.57" width="118.33" height="38.67"/><rect class="cls-3" x="153.5" y="1131.57" width="38.67" height="117"/><rect class="cls-3" x="153.5" y="896.57" width="38.67" height="117"/><rect class="cls-3" x="153.5" y="779.57" width="38.67" height="117"/><rect class="cls-4" x="152.5" y="544.57" width="39" height="116.67"/><rect class="cls-4" x="153.5" y="191.57" width="39" height="116.67"/><rect class="cls-4" x="153.17" y="309.24" width="39" height="116.67"/><rect class="cls-5" x="191.83" y="154.91" width="117.67" height="35.67"/><rect class="cls-5" x="426.83" y="155.24" width="117.67" height="35.67"/><rect class="cls-5" x="544.83" y="155.57" width="117.67" height="35.67"/><rect class="cls-6" x="779.5" y="154.91" width="117" height="35.67"/><rect class="cls-6" x="897.17" y="155.24" width="117" height="35.67"/><rect class="cls-6" x="1132.5" y="155.24" width="117" height="35.67"/><rect class="cls-7" x="1250.5" y="191.57" width="40.53" height="117.33"/><rect class="cls-7" x="1250.5" y="308.9" width="40.53" height="117.33"/><rect class="cls-7" x="1250.17" y="544.24" width="40.53" height="117.33"/><rect class="cls-8" x="1250.5" y="896.57" width="39.67" height="117"/><rect class="cls-8" x="1250.5" y="1132.24" width="39.67" height="117"/><rect class="cls-9" x="1132.5" y="1249.24" width="117.33" height="38.33"/><rect class="cls-9" x="897.17" y="1249.91" width="117.33" height="38.33"/><rect class="cls-10" x="2" y="2.24" width="1438.18" height="1438.18"/><line class="cls-10" x1="309.68" y1="4.24" x2="309.68" y2="1439.2"/><line class="cls-10" x1="427.23" y1="4.24" x2="427.23" y2="1439.2"/><line class="cls-10" x1="544.79" y1="4.24" x2="544.79" y2="1439.2"/><line class="cls-10" x1="662.34" y1="4.24" x2="662.34" y2="1439.2"/><line class="cls-10" x1="1250.12" y1="4.24" x2="1250.12" y2="1439.2"/><line class="cls-10" x1="1132.57" y1="4.24" x2="1132.57" y2="1439.2"/><line class="cls-10" x1="1015.01" y1="4.24" x2="1015.01" y2="1439.2"/><line class="cls-10" x1="897.46" y1="4.24" x2="897.46" y2="1439.2"/><line class="cls-10" x1="779.9" y1="4.24" x2="779.9" y2="1439.2"/><line class="cls-10" x1="192.12" y1="4.24" x2="192.12" y2="1439.2"/><line class="cls-10" x1="1440.5" y1="308.77" x2="3.54" y2="308.77"/><line class="cls-10" x1="1440.5" y1="426.33" x2="3.54" y2="426.33"/><line class="cls-10" x1="1440.5" y1="543.89" x2="3.54" y2="543.89"/><line class="cls-10" x1="1440.5" y1="661.44" x2="3.54" y2="661.44"/><line class="cls-10" x1="1440.5" y1="1249.22" x2="3.54" y2="1249.22"/><line class="cls-10" x1="1440.5" y1="1131.66" x2="3.54" y2="1131.66"/><line class="cls-10" x1="1440.5" y1="1014.11" x2="3.54" y2="1014.11"/><line class="cls-10" x1="1440.5" y1="896.55" x2="3.54" y2="896.55"/><line class="cls-10" x1="1440.5" y1="779" x2="3.54" y2="779"/><line class="cls-10" x1="1440.5" y1="191.22" x2="3.54" y2="191.22"/><rect class="cls-11" x="192.5" y="191.24" width="1058" height="1058"/><path class="cls-12" d="M450,238" transform="translate(0.5 1.24)"/><path class="cls-12" d="M265,423" transform="translate(0.5 1.24)"/><text class="cls-13" transform="translate(255.72 466.59) rotate(-45)"><tspan class="cls-14">•</tspan><tspan x="9.64" y="0">?</tspan><tspan x="17.77" y="0">•</tspan><tspan x="23.4" y="0">?</tspan><tspan x="31.52" y="0">•</tspan><tspan x="37.17" y="0">?</tspan><tspan x="45.3" y="0">•</tspan><tspan x="50.92" y="0">?</tspan><tspan x="59.05" y="0">•</tspan><tspan x="64.68" y="0">?</tspan><tspan x="72.81" y="0">•</tspan><tspan x="78.45" y="0">?</tspan><tspan x="86.56" y="0">•</tspan><tspan x="92.2" y="0">?</tspan><tspan x="100.31" y="0">•</tspan><tspan x="105.98" y="0">?</tspan><tspan x="114.08" y="0">•</tspan><tspan x="119.72" y="0">?</tspan><tspan x="127.83" y="0">•</tspan><tspan x="133.49" y="0">?</tspan><tspan x="141.62" y="0">•</tspan><tspan x="147.25" y="0">?</tspan><tspan x="155.35" y="0">•</tspan><tspan x="161" y="0">?</tspan><tspan x="169.13" y="0">•</tspan><tspan x="174.76" y="0">?</tspan><tspan x="182.88" y="0">•</tspan><tspan x="188.51" y="0">?</tspan><tspan class="cls-14" x="200.66" y="0">•</tspan></text><text class="cls-13" transform="translate(467.09 260.97) rotate(45)">?<tspan x="8.11" y="0">•</tspan><tspan x="13.76" y="0">?</tspan><tspan x="21.88" y="0">•</tspan><tspan x="27.54" y="0">?</tspan><tspan x="35.65" y="0">•</tspan><tspan x="41.28" y="0">?</tspan><tspan x="49.4" y="0">•</tspan><tspan x="55.05" y="0">?</tspan><tspan x="63.18" y="0">•</tspan><tspan x="68.82" y="0">?</tspan><tspan x="76.92" y="0">•</tspan><tspan x="82.56" y="0">?</tspan><tspan x="90.68" y="0">•</tspan><tspan x="96.32" y="0">?</tspan><tspan x="104.45" y="0">•</tspan><tspan x="110.08" y="0">?</tspan></text><text class="cls-13" transform="translate(601.28 376.89) rotate(135)"><tspan class="cls-14">•</tspan><tspan x="9.64" y="0">?</tspan><tspan x="17.75" y="0">•</tspan><tspan x="23.4" y="0">?</tspan><tspan x="31.52" y="0">•</tspan><tspan x="37.17" y="0">?</tspan><tspan x="45.3" y="0">•</tspan><tspan x="50.92" y="0">?</tspan><tspan x="59.05" y="0">•</tspan><tspan x="64.68" y="0">?</tspan><tspan x="72.81" y="0">•</tspan><tspan x="78.45" y="0">?</tspan><tspan x="86.56" y="0">•</tspan><tspan x="92.2" y="0">?</tspan><tspan x="100.31" y="0">•</tspan><tspan x="105.95" y="0">?</tspan><tspan x="114.08" y="0">•</tspan><tspan x="119.72" y="0">?</tspan><tspan x="127.83" y="0">•</tspan><tspan x="133.49" y="0">?</tspan><tspan x="141.59" y="0">•</tspan><tspan x="147.25" y="0">?</tspan><tspan x="155.35" y="0">•</tspan><tspan x="161" y="0">?</tspan><tspan x="169.13" y="0">•</tspan><tspan x="174.76" y="0">?</tspan><tspan x="182.88" y="0">•</tspan><tspan x="188.51" y="0">?</tspan><tspan class="cls-14" x="200.63" y="0">•</tspan></text><text class="cls-13" transform="translate(389.91 582.5) rotate(-135)">?<tspan x="8.14" y="0">•</tspan><tspan x="13.76" y="0">?</tspan><tspan x="21.88" y="0">•</tspan><tspan x="27.54" y="0">?</tspan><tspan x="35.65" y="0">•</tspan><tspan x="41.28" y="0">?</tspan><tspan x="49.4" y="0">•</tspan><tspan x="55.05" y="0">?</tspan><tspan x="63.18" y="0">•</tspan><tspan x="68.82" y="0">?</tspan><tspan x="76.92" y="0">•</tspan><tspan x="82.56" y="0">?</tspan><tspan x="90.68" y="0">•</tspan><tspan x="96.32" y="0">?</tspan><tspan x="104.45" y="0">•</tspan><tspan x="110.09" y="0">?</tspan></text><text class="cls-13" transform="translate(844.72 1066.59) rotate(-45)"><tspan class="cls-14">•</tspan><tspan x="9.64" y="0">?</tspan><tspan x="17.77" y="0">•</tspan><tspan x="23.4" y="0">?</tspan><tspan x="31.52" y="0">•</tspan><tspan x="37.17" y="0">?</tspan><tspan x="45.3" y="0">•</tspan><tspan x="50.92" y="0">?</tspan><tspan x="59.05" y="0">•</tspan><tspan x="64.68" y="0">?</tspan><tspan x="72.81" y="0">•</tspan><tspan x="78.45" y="0">?</tspan><tspan x="86.56" y="0">•</tspan><tspan x="92.2" y="0">?</tspan><tspan x="100.31" y="0">•</tspan><tspan x="105.98" y="0">?</tspan><tspan x="114.08" y="0">•</tspan><tspan x="119.72" y="0">?</tspan><tspan x="127.83" y="0">•</tspan><tspan x="133.49" y="0">?</tspan><tspan x="141.62" y="0">•</tspan><tspan x="147.25" y="0">?</tspan><tspan x="155.35" y="0">•</tspan><tspan x="161" y="0">?</tspan><tspan x="169.13" y="0">•</tspan><tspan x="174.76" y="0">?</tspan><tspan x="182.88" y="0">•</tspan><tspan x="188.51" y="0">?</tspan><tspan class="cls-14" x="200.66" y="0">•</tspan></text><text class="cls-13" transform="translate(1056.09 860.97) rotate(45)">?<tspan x="8.11" y="0">•</tspan><tspan x="13.76" y="0">?</tspan><tspan x="21.88" y="0">•</tspan><tspan x="27.54" y="0">?</tspan><tspan x="35.65" y="0">•</tspan><tspan x="41.28" y="0">?</tspan><tspan x="49.4" y="0">•</tspan><tspan x="55.05" y="0">?</tspan><tspan x="63.18" y="0">•</tspan><tspan x="68.82" y="0">?</tspan><tspan x="76.92" y="0">•</tspan><tspan x="82.56" y="0">?</tspan><tspan x="90.68" y="0">•</tspan><tspan x="96.32" y="0">?</tspan><tspan x="104.45" y="0">•</tspan><tspan x="110.08" y="0">?</tspan></text><text class="cls-13" transform="translate(1190.28 976.89) rotate(135)"><tspan class="cls-14">•</tspan><tspan x="9.64" y="0">?</tspan><tspan x="17.75" y="0">•</tspan><tspan x="23.4" y="0">?</tspan><tspan x="31.52" y="0">•</tspan><tspan x="37.17" y="0">?</tspan><tspan x="45.3" y="0">•</tspan><tspan x="50.92" y="0">?</tspan><tspan x="59.05" y="0">•</tspan><tspan x="64.68" y="0">?</tspan><tspan x="72.81" y="0">•</tspan><tspan x="78.45" y="0">?</tspan><tspan x="86.56" y="0">•</tspan><tspan x="92.2" y="0">?</tspan><tspan x="100.31" y="0">•</tspan><tspan x="105.95" y="0">?</tspan><tspan x="114.08" y="0">•</tspan><tspan x="119.72" y="0">?</tspan><tspan x="127.83" y="0">•</tspan><tspan x="133.49" y="0">?</tspan><tspan x="141.59" y="0">•</tspan><tspan x="147.25" y="0">?</tspan><tspan x="155.35" y="0">•</tspan><tspan x="161" y="0">?</tspan><tspan x="169.13" y="0">•</tspan><tspan x="174.76" y="0">?</tspan><tspan x="182.88" y="0">•</tspan><tspan x="188.51" y="0">?</tspan><tspan class="cls-14" x="200.63" y="0">•</tspan></text><text class="cls-13" transform="translate(978.91 1182.5) rotate(-135)">?<tspan x="8.14" y="0">•</tspan><tspan x="13.76" y="0">?</tspan><tspan x="21.88" y="0">•</tspan><tspan x="27.54" y="0">?</tspan><tspan x="35.65" y="0">•</tspan><tspan x="41.28" y="0">?</tspan><tspan x="49.4" y="0">•</tspan><tspan x="55.05" y="0">?</tspan><tspan x="63.18" y="0">•</tspan><tspan x="68.82" y="0">?</tspan><tspan x="76.92" y="0">•</tspan><tspan x="82.56" y="0">?</tspan><tspan x="90.68" y="0">•</tspan><tspan x="96.32" y="0">?</tspan><tspan x="104.45" y="0">•</tspan><tspan x="110.09" y="0">?</tspan></text><line class="cls-10" x1="191.5" y1="154.84" x2="308.5" y2="154.84"/><line class="cls-10" x1="426.5" y1="155.04" x2="543.5" y2="155.04"/><line class="cls-10" x1="544.5" y1="155.24" x2="661.5" y2="155.24"/><line class="cls-10" x1="1250.5" y1="154.44" x2="1133.5" y2="154.44"/><line class="cls-10" x1="1015.5" y1="154.64" x2="898.5" y2="154.64"/><line class="cls-10" x1="897.5" y1="154.24" x2="780.5" y2="154.24"/><line class="cls-10" x1="1290.7" y1="661.24" x2="1290.7" y2="544.24"/><line class="cls-10" x1="1290.7" y1="426.24" x2="1290.7" y2="309.24"/><line class="cls-10" x1="1290.7" y1="308.24" x2="1290.7" y2="191.24"/><line class="cls-10" x1="661.5" y1="1288.24" x2="544.5" y2="1288.24"/><line class="cls-10" x1="426.5" y1="1288.24" x2="309.5" y2="1288.24"/><line class="cls-10" x1="308.5" y1="1288.24" x2="191.5" y2="1288.24"/><line class="cls-10" x1="153.5" y1="1248.24" x2="153.5" y2="1131.24"/><line class="cls-10" x1="153.5" y1="1013.24" x2="153.5" y2="896.24"/><line class="cls-10" x1="153.5" y1="895.24" x2="153.5" y2="778.24"/><line class="cls-10" x1="153.5" y1="661.24" x2="153.5" y2="544.24"/><line class="cls-10" x1="153.5" y1="426.24" x2="153.5" y2="309.24"/><line class="cls-10" x1="153.5" y1="310.24" x2="153.5" y2="193.24"/><line class="cls-10" x1="1249.5" y1="1288.24" x2="1132.5" y2="1288.24"/><line class="cls-10" x1="1014.5" y1="1288.24" x2="897.5" y2="1288.24"/><line class="cls-10" x1="1290.7" y1="896.24" x2="1290.7" y2="1013.24"/><line class="cls-10" x1="1290.7" y1="1131.24" x2="1290.7" y2="1248.24"/><text class="cls-15" transform="translate(1270.48 1316.54) rotate(-45)">C<tspan class="cls-16" x="9.74" y="0">OLLE</tspan><tspan class="cls-17" x="47.24" y="0">C</tspan><tspan class="cls-16" x="57.62" y="0">T</tspan><tspan class="cls-16"><tspan x="-27.92" y="20">$200.00 SALA</tspan><tspan class="cls-18" x="75.64" y="20">R</tspan><tspan x="84.96" y="20">Y</tspan><tspan x="-15.22" y="40">AS</tspan><tspan class="cls-19" x="4.09" y="40"> </tspan><tspan class="cls-20" x="8.72" y="40">Y</tspan><tspan x="17.75" y="40">OU </tspan><tspan class="cls-21" x="45.29" y="40">P</tspan><tspan x="53.58" y="40">ASS</tspan></tspan></text><text class="cls-22" transform="translate(1168.62 1313.57)">WRECK<tspan class="cls-23"><tspan x="2.44" y="16">R</tspan><tspan class="cls-24" x="10.77" y="16">OOM</tspan></tspan></text><text class="cls-25" transform="translate(1162.89 1429.24)">PRICE<tspan class="cls-26" x="28.81" y="0" xml:space="preserve"> $60</tspan></text><text class="cls-22" transform="translate(932.1 1313.57)">BOILER<tspan class="cls-23"><tspan x="2.92" y="16">R</tspan><tspan class="cls-24" x="11.25" y="16">OOM</tspan></tspan></text><text class="cls-25" transform="translate(926.93 1429.24)">PRICE<tspan class="cls-26" x="28.81" y="0" xml:space="preserve"> $60</tspan></text><text class="cls-22" transform="translate(579.01 1313.57)">TENNIS<tspan class="cls-27"><tspan x="-2.53" y="16">C</tspan><tspan class="cls-28" x="6.04" y="16">OU</tspan><tspan class="cls-29" x="26.01" y="16">R</tspan><tspan class="cls-30" x="34.42" y="16">T</tspan><tspan class="cls-24" x="42.1" y="16">S</tspan></tspan></text><text class="cls-25" transform="translate(570.28 1429.24)">PRICE<tspan class="cls-26" x="28.81" y="0" xml:space="preserve"> $100</tspan></text><text class="cls-22" transform="translate(335.82 1313.57)">L<tspan class="cls-31" x="7.44" y="0">A</tspan><tspan x="16.33" y="0">UND</tspan><tspan class="cls-32" x="45.85" y="0">R</tspan><tspan x="54" y="0">Y</tspan><tspan class="cls-23"><tspan x="10.87" y="16">R</tspan><tspan class="cls-24" x="19.2" y="16">OOM</tspan></tspan></text><text class="cls-25" transform="translate(334.61 1429.24)">PRICE<tspan class="cls-26" x="28.81" y="0" xml:space="preserve"> $100</tspan></text><text class="cls-22" transform="translate(222.54 1313.57)">WEIGHT<tspan class="cls-23"><tspan x="5.52" y="16">R</tspan><tspan class="cls-24" x="13.85" y="16">OOM</tspan></tspan></text><text class="cls-25" transform="translate(215.91 1429.24)">PRICE<tspan class="cls-26" x="28.81" y="0" xml:space="preserve"> $120</tspan></text><line class="cls-10" x1="53.17" y1="1249.91" x2="53.17" y2="1387.91"/><line class="cls-10" x1="51.5" y1="1385.91" x2="191.83" y2="1385.91"/><text class="cls-33" transform="translate(27.24 1304.57) rotate(90)">JUST</text><text class="cls-33" transform="translate(86.71 1409.59)">VISITING</text><text class="cls-34" transform="translate(132.22 1261.23) rotate(45)">RE<tspan class="cls-35" x="17.22" y="0">C</tspan><tspan class="cls-36" x="27.13" y="0">T</tspan><tspan class="cls-37" x="35.11" y="0">O</tspan><tspan class="cls-38" x="46.16" y="0">R</tspan><tspan class="cls-39" x="55.21" y="0">’</tspan><tspan x="59.4" y="0">S</tspan></text><text class="cls-33" transform="translate(65.22 1338.78) rotate(45)">OFFICE</text><rect class="cls-40" x="82.19" y="1276.1" width="80.28" height="80.28" transform="translate(-894.38 473.25) rotate(-45)"/><line class="cls-41" x1="135.5" y1="1274.24" x2="80.5" y2="1329.24"/><line class="cls-41" x1="150.04" y1="1288.24" x2="94.21" y2="1344.07"/><line class="cls-41" x1="166.17" y1="1304.24" x2="110.33" y2="1360.07"/><text class="cls-22" transform="translate(128.06 1175.98) rotate(90)">THE<tspan x="-7.51" y="16">DORM</tspan></text><text class="cls-25" transform="translate(11.5 1156.23) rotate(90)">PRICE<tspan class="cls-26" x="28.81" y="0" xml:space="preserve"> $140</tspan></text><text class="cls-22" transform="translate(128.06 942.15) rotate(90)">THE<tspan x="-14.53" y="16">LIB</tspan><tspan class="cls-42" x="5.66" y="16">R</tspan><tspan x="14.02" y="16">A</tspan><tspan class="cls-32" x="23.28" y="16">R</tspan><tspan x="31.43" y="16">Y</tspan></text><text class="cls-25" transform="translate(13.5 922.4) rotate(90)">PRICE<tspan class="cls-26" x="28.81" y="0" xml:space="preserve"> $140</tspan></text><text class="cls-22" transform="translate(128.06 825.41) rotate(90)">THE<tspan class="cls-43"><tspan x="-29.78" y="16">A</tspan><tspan class="cls-24" x="-20.89" y="16">UDI</tspan><tspan class="cls-44" x="3.19" y="16">T</tspan><tspan class="cls-24" x="10.6" y="16">ORIUM</tspan></tspan></text><text class="cls-25" transform="translate(13.5 805.47) rotate(90)">PRICE<tspan class="cls-26" x="28.81" y="0" xml:space="preserve"> $160</tspan></text><text class="cls-22" transform="translate(128.06 591.65) rotate(90)">THE<tspan x="-2.21" y="16">G</tspan><tspan class="cls-45" x="7.49" y="16">Y</tspan><tspan x="15.69" y="16">M</tspan></text><text class="cls-25" transform="translate(15.5 571.9) rotate(90)">PRICE<tspan class="cls-26" x="28.81" y="0" xml:space="preserve"> $160</tspan></text><text class="cls-22" transform="translate(128.06 357.65) rotate(90)">THE<tspan class="cls-28"><tspan x="-15.76" y="16">HEIGH</tspan><tspan class="cls-30" x="25.6" y="16">T</tspan><tspan class="cls-24" x="33.28" y="16">S</tspan></tspan></text><text class="cls-25" transform="translate(14.5 337.9) rotate(90)">PRICE<tspan class="cls-26" x="28.81" y="0" xml:space="preserve"> $160</tspan></text><text class="cls-22" transform="translate(128.06 240.98) rotate(90)">THE<tspan x="-24.72" y="16">REFE</tspan><tspan class="cls-46" x="6.6" y="16">C</tspan><tspan class="cls-44" x="15.8" y="16">T</tspan><tspan x="23.21" y="16">O</tspan><tspan class="cls-47" x="33.47" y="16">R</tspan><tspan class="cls-48" x="41.62" y="16">Y</tspan></text><text class="cls-25" transform="translate(14.83 221.23) rotate(90)">PRICE<tspan class="cls-26" x="28.81" y="0" xml:space="preserve"> $200</tspan></text><text class="cls-22" transform="translate(264.6 129.18) rotate(180)">THE<tspan class="cls-49"><tspan x="-8.39" y="16">L</tspan><tspan class="cls-24" x="-1.46" y="16">OB</tspan><tspan class="cls-50" x="17.14" y="16">B</tspan><tspan class="cls-24" x="25.29" y="16">Y</tspan></tspan></text><text class="cls-25" transform="translate(284.35 13.96) rotate(180)">PRICE<tspan class="cls-26" x="28.81" y="0" xml:space="preserve"> $220</tspan></text><text class="cls-22" transform="translate(498.93 129.18) rotate(180)">THE<tspan class="cls-27"><tspan x="-27.31" y="16">C</tspan><tspan class="cls-28" x="-18.75" y="16">OU</tspan><tspan class="cls-29" x="1.22" y="16">R</tspan><tspan class="cls-46" x="9.63" y="16">T</tspan><tspan class="cls-51" x="17.76" y="16">Y</tspan><tspan class="cls-24" x="25.04" y="16">ARD</tspan></tspan></text><text class="cls-25" transform="translate(518.68 15.63) rotate(180)">PRICE<tspan class="cls-26" x="28.81" y="0" xml:space="preserve"> $220</tspan></text><text class="cls-22" transform="translate(623.02 129.18) rotate(180)">PRIEST<tspan x="-24.37" y="16">DINING </tspan><tspan class="cls-23" x="27.86" y="16">R</tspan><tspan x="36.19" y="16">OOM</tspan></text><text class="cls-25" transform="translate(633.35 13.63) rotate(180)">PRICE<tspan class="cls-26" x="28.81" y="0" xml:space="preserve"> $240</tspan></text><text class="cls-52" transform="translate(868.25 129.18) rotate(180)">C<tspan class="cls-28" x="8.57" y="0">ONVENT</tspan><tspan class="cls-24"><tspan x="5.66" y="16">CHAPEL</tspan></tspan></text><text class="cls-25" transform="translate(869.35 14.96) rotate(180)">PRICE<tspan class="cls-26" x="28.81" y="0" xml:space="preserve"> $260</tspan></text><text class="cls-53" transform="translate(1003.96 137.18) rotate(180)">M<tspan class="cls-24" x="11.62" y="0">A</tspan><tspan class="cls-47" x="20.88" y="0">R</tspan><tspan class="cls-48" x="29.03" y="0">Y M</tspan><tspan class="cls-54" x="53.17" y="0">O</tspan><tspan class="cls-24" x="63.1" y="0">THER</tspan><tspan class="cls-24"><tspan x="2.79" y="16">OF</tspan><tspan class="cls-55" x="20.68" y="16"> </tspan><tspan x="24.21" y="16">THE</tspan><tspan class="cls-56" x="49.44" y="16"> </tspan><tspan x="53.03" y="16">WORD</tspan><tspan x="22.7" y="32">CHAPEL</tspan></tspan></text><text class="cls-25" transform="translate(988.02 14.3) rotate(180)">PRICE<tspan class="cls-26" x="28.81" y="0" xml:space="preserve"> $260</tspan></text><text class="cls-22" transform="translate(1233.19 129.18) rotate(180)">S<tspan class="cls-57" x="7.71" y="0">T</tspan><tspan class="cls-28" x="14.69" y="0">. CHARLES</tspan><tspan x="15.26" y="16">CHAPEL</tspan></text><text class="cls-25" transform="translate(1224.68 13.63) rotate(180)">PRICE<tspan class="cls-26" x="28.81" y="0" xml:space="preserve"> $280</tspan></text><text class="cls-58" transform="translate(1315.59 283.42) rotate(-90)">GLENNON<tspan class="cls-49"><tspan x="5.25" y="16">L</tspan><tspan class="cls-24" x="12.18" y="16">OUNGE</tspan></tspan></text><text class="cls-25" transform="translate(1428.25 283.47) rotate(-90)">PRICE<tspan class="cls-26" x="28.81" y="0" xml:space="preserve"> $300</tspan></text><text class="cls-22" transform="translate(1315.59 395.16) rotate(-90)">PRIES<tspan class="cls-59" x="36.32" y="0">T</tspan><tspan class="cls-60" x="44.52" y="0">’</tspan><tspan x="48.41" y="0">S</tspan><tspan class="cls-49"><tspan x="0.99" y="16">L</tspan><tspan class="cls-24" x="7.92" y="16">OUNGE</tspan></tspan></text><text class="cls-25" transform="translate(1428.25 399.47) rotate(-90)">PRICE<tspan class="cls-26" x="28.81" y="0" xml:space="preserve"> $300</tspan></text><text class="cls-22" transform="translate(1315.59 628.33) rotate(-90)">KENRICK<tspan class="cls-49"><tspan x="0.82" y="16">L</tspan><tspan class="cls-24" x="7.75" y="16">OUNGE</tspan></tspan></text><text class="cls-25" transform="translate(1428.25 632.8) rotate(-90)">PRICE<tspan class="cls-26" x="28.81" y="0" xml:space="preserve"> $320</tspan></text><text class="cls-22" transform="translate(1315.59 990.68) rotate(-90)">S<tspan class="cls-57" x="7.71" y="0">T</tspan><tspan class="cls-28" x="14.69" y="0">. JOSEPH</tspan><tspan x="10.64" y="16">CHAPEL</tspan></text><text class="cls-25" transform="translate(1428.25 986.8) rotate(-90)">PRICE<tspan class="cls-26" x="28.81" y="0" xml:space="preserve"> $350</tspan></text><text class="cls-22" transform="translate(1315.59 1203.37) rotate(-90)">THE<tspan class="cls-44"><tspan x="-10.36" y="16">T</tspan><tspan class="cls-24" x="-2.95" y="16">OWER</tspan></tspan></text><text class="cls-25" transform="translate(1428.25 1223.15) rotate(-90)">PRICE<tspan class="cls-26" x="28.81" y="0" xml:space="preserve"> $400</tspan></text><text class="cls-22" transform="translate(709.66 1282.91)">RED<tspan class="cls-61"><tspan x="-0.49" y="16">V</tspan><tspan class="cls-62" x="7.33" y="16">AN</tspan></tspan></text><text class="cls-25" transform="translate(690.13 1429.24)">PRICE<tspan class="cls-26" x="28.81" y="0" xml:space="preserve"> $200</tspan></text><text class="cls-22" transform="translate(1280.97 742.63) rotate(-90)">SISTER<tspan class="cls-63" x="43.58" y="0">S</tspan><tspan class="cls-64" x="51.13" y="0">’</tspan><tspan class="cls-65"><tspan x="13.78" y="16">C</tspan><tspan class="cls-24" x="22.67" y="16">AR</tspan></tspan></text><text class="cls-25" transform="translate(1427.3 748.14) rotate(-90)">PRICE<tspan class="cls-26" x="28.81" y="0" xml:space="preserve"> $200</tspan></text><text class="cls-22" transform="translate(741 161.29) rotate(180)">WHITE<tspan class="cls-61"><tspan x="7.51" y="16">V</tspan><tspan class="cls-62" x="15.32" y="16">AN</tspan></tspan></text><text class="cls-25" transform="translate(752.53 14.96) rotate(180)">PRICE<tspan class="cls-26" x="28.81" y="0" xml:space="preserve"> $200</tspan></text><text class="cls-22" transform="translate(162.36 698.24) rotate(90)">SI<tspan class="cls-66" x="12.12" y="0">L</tspan><tspan x="18.78" y="0">VER</tspan><tspan class="cls-61"><tspan x="8.2" y="16">V</tspan><tspan class="cls-62" x="16.02" y="16">AN</tspan></tspan></text><text class="cls-25" transform="translate(15.5 687.4) rotate(90)">PRICE<tspan class="cls-26" x="28.81" y="0" xml:space="preserve"> $200</tspan></text><path class="cls-67" d="M673.51,1398a5.44,5.44,0,0,0,5.42,2c.4-3.33,5.21-8.16,7.82-7.79s5.85,3.34,6.5,7,47.31,3.71,48,1.12,3.47-8.16,6.29-8.16,7.16,1.48,7.81,6.3,10.41,0,10.41,0-.21-43.36-.86-44.84-4.78-3-7.81-3-39.49-.37-42.53-.37-10.85,1.86-13,3.34a20.94,20.94,0,0,0-6.73,7.78c-1.52,3.34-3,10.38-5,11.49s-6.72,1.85-8.46,3-6.51,3.33-6.94,6.67-.44,11.86-.44,11.86-1.52-.75-1.73.74A4.37,4.37,0,0,0,673.51,1398Z" transform="translate(0.5 1.24)"/><path class="cls-67" d="M757,1399.41a9.31,9.31,0,1,1-9.31-9.31A9.31,9.31,0,0,1,757,1399.41Z" transform="translate(0.5 1.24)"/><path class="cls-67" d="M696,1399.91a9.31,9.31,0,1,1-9.31-9.31A9.31,9.31,0,0,1,696,1399.91Z" transform="translate(0.5 1.24)"/><path class="cls-67" d="M672.21,1395.18c-.21,2.82-3.18,7.35,6.72,4.82" transform="translate(0.5 1.24)"/><path class="cls-67" d="M1393.18,763.89a5.46,5.46,0,0,0,2-5.43c-3.33-.4-8.16-5.2-7.79-7.81s3.34-5.86,7-6.51,3.7-47.3,1.11-47.95-8.16-3.47-8.16-6.29,1.48-7.16,6.31-7.81,0-10.42,0-10.42-43.37.22-44.85.87-3,4.77-3,7.81-.37,39.49-.37,42.53,1.86,10.85,3.34,13a20.93,20.93,0,0,0,7.78,6.72c3.34,1.52,10.38,3,11.49,5s1.85,6.73,3,8.47,3.33,6.51,6.67,6.94,11.86.43,11.86.43-.75,1.52.74,1.74A4.37,4.37,0,0,0,1393.18,763.89Z" transform="translate(0.5 1.24)"/><path class="cls-67" d="M1394.6,680.37a9.3,9.3,0,1,1-9.31,9.3A9.3,9.3,0,0,1,1394.6,680.37Z" transform="translate(0.5 1.24)"/><path class="cls-67" d="M1395.1,741.37a9.3,9.3,0,1,1-9.31,9.3A9.3,9.3,0,0,1,1395.1,741.37Z" transform="translate(0.5 1.24)"/><path class="cls-67" d="M766.08,49.88a5.46,5.46,0,0,0-5.43-2c-.4,3.33-5.2,8.15-7.81,7.78s-5.86-3.34-6.51-7-47.3-3.71-48-1.11-3.47,8.15-6.29,8.15-7.16-1.48-7.81-6.3-10.42,0-10.42,0,.22,43.36.87,44.84,4.77,3,7.81,3,39.49.37,42.53.37,10.85-1.85,13-3.34a20.86,20.86,0,0,0,6.73-7.78c1.51-3.33,3-10.38,5-11.49s6.72-1.85,8.46-3,6.51-3.34,6.94-6.67.43-11.86.43-11.86,1.52.74,1.74-.75A4.37,4.37,0,0,0,766.08,49.88Z" transform="translate(0.5 1.24)"/><path class="cls-67" d="M682.56,48.47a9.3,9.3,0,1,1,9.3,9.3A9.3,9.3,0,0,1,682.56,48.47Z" transform="translate(0.5 1.24)"/><path class="cls-67" d="M743.56,48a9.31,9.31,0,1,1,9.3,9.3A9.3,9.3,0,0,1,743.56,48Z" transform="translate(0.5 1.24)"/><path class="cls-68" d="M45.07,673a5.46,5.46,0,0,0-2,5.43c3.33.4,8.15,5.21,7.78,7.81s-3.34,5.86-7,6.51S40.1,740,42.7,740.68s8.15,3.47,8.15,6.3-1.48,7.16-6.3,7.81,0,10.41,0,10.41,43.36-.22,44.85-.87,3-4.77,3-7.81.37-39.49.37-42.52-1.85-10.85-3.33-13a21,21,0,0,0-7.79-6.73c-3.33-1.52-10.38-3-11.49-5s-1.85-6.73-3-8.46-3.34-6.51-6.67-6.95-11.86-.43-11.86-.43.74-1.52-.75-1.74A4.39,4.39,0,0,0,45.07,673Z" transform="translate(0.5 1.24)"/><path class="cls-68" d="M43.66,756.5a9.3,9.3,0,1,1,9.3-9.3A9.3,9.3,0,0,1,43.66,756.5Z" transform="translate(0.5 1.24)"/><path class="cls-68" d="M43.16,695.5a9.3,9.3,0,1,1,9.3-9.3A9.3,9.3,0,0,1,43.16,695.5Z" transform="translate(0.5 1.24)"/><polygon class="cls-69" points="1332.83 1332.24 1300.83 1364.24 1345.83 1409.24 1376.83 1378.24 1351.5 1352.91 1335.83 1368.57 1344.17 1376.9 1351.5 1369.57 1358.83 1376.91 1345.83 1389.91 1320.5 1364.57 1342.17 1342.9 1332.83 1332.24"/><polygon class="cls-69" points="1342.17 1325.57 1374.17 1293.57 1418.83 1338.24 1385.17 1371.91 1342.17 1325.57"/><rect class="cls-70" x="1368.82" y="1312.14" width="21.68" height="37.71" transform="translate(-536.56 1366.65) rotate(-45)"/><polygon class="cls-69" points="1392.17 1415.03 1303.83 1415.03 1303.83 1405.9 1273.17 1420.89 1303.17 1434.57 1303.17 1424.8 1393.83 1424.8 1399.83 1430.66 1429.17 1430.66 1418.5 1420.24 1429.17 1409.81 1397.83 1409.81 1392.17 1415.03"/><text class="cls-34" transform="translate(454.08 1275.92)">CHANCE</text><path class="cls-71" d="M472.33,1325.33l-11.66,8.34s-7-11-7-19,8-29.67,29-29.67S515,1302.33,515,1317s-22.33,32.67-26,35.67-13.33,11.33-10.67,15.66,8.34,5,12.34,2.34,1,2,1,2l-5.34,13s-7.66,2.66-12.66-.67-11-11.67-11-18,5-13.67,9.66-19,13.34-12,17-15a39,39,0,0,0,9.67-12.67c1.67-4,3-11.33-2-16.33s-14-7.33-17-6.33-10.33,5-11.33,9.66-2.34,8.34-1,11.34A32,32,0,0,0,472.33,1325.33Z" transform="translate(0.5 1.24)"/><path class="cls-71" d="M493.33,1405.67A11.33,11.33,0,1,1,482,1394.33,11.33,11.33,0,0,1,493.33,1405.67Z" transform="translate(0.5 1.24)"/><text class="cls-34" transform="translate(1279.6 864.91) rotate(-90)">CHANCE</text><path class="cls-71" d="M1329.75,844.91l8.34,11.67s-11,7-19,7-29.67-8-29.67-29,17.33-32.33,32-32.33,32.67,22.33,35.67,26,11.33,13.33,15.66,10.66,5-8.33,2.34-12.33,2-1,2-1l13,5.33s2.66,7.67-.67,12.67-11.67,11-18,11-13.67-5-19-9.67-12-13.33-15-17a38.92,38.92,0,0,0-12.67-9.66c-4-1.67-11.33-3-16.33,2s-7.33,14-6.33,17,5,10.33,9.66,11.33,8.34,2.33,11.34,1A31.89,31.89,0,0,0,1329.75,844.91Z" transform="translate(0.5 1.24)"/><path class="cls-71" d="M1410.09,823.91a11.34,11.34,0,1,1-11.34,11.34A11.34,11.34,0,0,1,1410.09,823.91Z" transform="translate(0.5 1.24)"/><text class="cls-34" transform="translate(397.59 169.38) rotate(180)">CHANCE</text><path class="cls-72" d="M378.33,117.49,390,109.16s7,11,7,19-8,29.67-29,29.67-32.33-17.34-32.33-32,22.33-32.67,26-35.67S375,78.83,372.33,74.49s-8.33-5-12.33-2.33-1-2-1-2l5.33-13s7.67-2.67,12.67.67,11,11.66,11,18-5,13.66-9.67,19-13.33,12-17,15a38.88,38.88,0,0,0-9.66,12.66c-1.67,4-3,11.34,2,16.34s14,7.33,17,6.33,10.33-5,11.33-9.67,2.33-8.33,1-11.33A32.08,32.08,0,0,0,378.33,117.49Z" transform="translate(0.5 1.24)"/><path class="cls-72" d="M357.33,37.16a11.34,11.34,0,1,1,11.34,11.33A11.34,11.34,0,0,1,357.33,37.16Z" transform="translate(0.5 1.24)"/><text class="cls-73" transform="translate(165.46 132.25) rotate(135)">FREE</text><text class="cls-74" transform="translate(82.17 19.2) rotate(135)">P<tspan class="cls-75" x="11.72" y="0">ARKING</tspan></text><path class="cls-40" d="M89.75,60.52a6,6,0,0,1,0-8.51h0a6,6,0,0,1,8.5.48l12,12.59a6,6,0,0,1,0,8.52h0a6,6,0,0,1-8.5-.49Z" transform="translate(0.5 1.24)"/><path class="cls-40" d="M50,103a6,6,0,0,1-.65-8.49h0a6,6,0,0,1,8.51-.1L70.63,106.1a6,6,0,0,1,.65,8.49h0a6,6,0,0,1-8.51.11Z" transform="translate(0.5 1.24)"/><path class="cls-76" d="M118.12,57.27s12.63,10.52,12.81,12.8-7.9,12.46-8.08,14,2.81,4.21,4.22,4.91,21.23,10,23.16,14,1.22,21.93-13,36.15S103,159.38,100,156.4,85,131.13,84.25,130.08s-1.4-3.51-2.63-3.33-9.82,7.72-13.68,6.66-12.11-13.15-12.11-13.15,16-16.67,17.9-21.41S76.18,86.92,78.11,85a16.38,16.38,0,0,1,6.67-3.86c1.93-.53,6.49-.88,8.25-2.28S118.12,57.27,118.12,57.27Z" transform="translate(0.5 1.24)"/><path class="cls-40" d="M107.5,135.78a8.31,8.31,0,0,1,0-11.75l13.34-13.34a8.32,8.32,0,0,1,11.75,0h0a8.31,8.31,0,0,1,0,11.76l-13.33,13.33a8.31,8.31,0,0,1-11.76,0Z" transform="translate(0.5 1.24)"/><path class="cls-40" d="M85.92,112.1a15.51,15.51,0,1,1,21.93,0A15.52,15.52,0,0,1,85.92,112.1Z" transform="translate(0.5 1.24)"/><path class="cls-40" d="M93.82,104.2a4.34,4.34,0,1,1,6.14,0A4.33,4.33,0,0,1,93.82,104.2Z" transform="translate(0.5 1.24)"/><text class="cls-77" transform="translate(1324.33 172.03) rotate(-135)">GO<tspan class="cls-78" x="32.66" y="0"> </tspan><tspan class="cls-79" x="38.56" y="0">T</tspan><tspan x="50.74" y="0">O</tspan></text><text class="cls-77" transform="translate(1421.78 95.24) rotate(-135)">RE<tspan class="cls-80" x="26.25" y="0">C</tspan><tspan class="cls-79" x="41.33" y="0">T</tspan><tspan x="53.51" y="0">O</tspan><tspan class="cls-81" x="70.29" y="0">R</tspan><tspan class="cls-82" x="84.08" y="0">’</tspan><tspan class="cls-75" x="90.57" y="0">S</tspan><tspan class="cls-75"><tspan x="13.46" y="25.2">OFFICE</tspan></tspan></text><text class="cls-83" transform="translate(785.46 1303.24)">FOR<tspan class="cls-84" x="35.42" y="0">M</tspan><tspan class="cls-85" x="51.45" y="0">A</tspan><tspan x="62.57" y="0">TION</tspan><tspan x="37.57" y="22.8">FEE</tspan></text><text class="cls-86" transform="translate(813.07 1366.24)">P<tspan class="cls-87" x="6.47" y="0">A</tspan><tspan class="cls-88" x="14.05" y="0">Y 10%</tspan><tspan class="cls-88"><tspan x="16.74" y="20">OR</tspan></tspan><tspan class="cls-89"><tspan x="10.73" y="40">$200</tspan></tspan></text><rect class="cls-68" x="833.66" y="1338" width="8" height="8" transform="translate(-703.12 986.75) rotate(-45.01)"/><text class="cls-90" transform="translate(1282.34 1122.91) rotate(-90)">R<tspan class="cls-91" x="11.23" y="0">OOM AND</tspan><tspan class="cls-91"><tspan x="18.89" y="22.8">B</tspan><tspan class="cls-92" x="30.13" y="22.8">O</tspan><tspan x="43.91" y="22.8">ARD</tspan></tspan></text><text class="cls-93" transform="translate(1426.25 1105.78) rotate(-90)">P<tspan class="cls-94" x="6.97" y="0">A</tspan><tspan class="cls-95" x="15.13" y="0">Y $75.00</tspan></text><text class="cls-96" transform="translate(1276.59 528.15) rotate(-90)">C<tspan class="cls-37" x="9.23" y="0">OMMUNI</tspan><tspan class="cls-35" x="71.4" y="0">T</tspan><tspan class="cls-97" x="80.15" y="0">Y</tspan><tspan class="cls-97"><tspan x="22.06" y="16">CHEST</tspan></tspan></text><text class="cls-53" transform="translate(1400.59 510.65) rotate(-90)">FOL<tspan class="cls-98" x="24.93" y="0">L</tspan><tspan x="31.73" y="0">OW</tspan><tspan x="-20.67" y="14">INSTRU</tspan><tspan class="cls-99" x="26.29" y="14">C</tspan><tspan x="35.36" y="14">TIONS</tspan><tspan x="-16.93" y="28">ON</tspan><tspan class="cls-100" x="2.92" y="28"> </tspan><tspan x="6.31" y="28">THE </tspan><tspan class="cls-30" x="35.08" y="28">C</tspan><tspan x="43.84" y="28">ARD</tspan></text><text class="cls-96" transform="translate(1030.1 1276.61)">C<tspan class="cls-37" x="9.23" y="0">OMMUNI</tspan><tspan class="cls-35" x="71.4" y="0">T</tspan><tspan class="cls-97" x="80.15" y="0">Y</tspan><tspan class="cls-97"><tspan x="22.06" y="16">CHEST</tspan></tspan></text><text class="cls-53" transform="translate(1047.6 1400.61)">FOL<tspan class="cls-98" x="24.93" y="0">L</tspan><tspan x="31.73" y="0">OW</tspan><tspan x="-20.67" y="14">INSTRU</tspan><tspan class="cls-99" x="26.29" y="14">C</tspan><tspan x="35.36" y="14">TIONS</tspan><tspan x="-16.93" y="28">ON</tspan><tspan class="cls-100" x="2.92" y="28"> </tspan><tspan x="6.31" y="28">THE </tspan><tspan class="cls-30" x="35.08" y="28">C</tspan><tspan x="43.84" y="28">ARD</tspan></text><text class="cls-96" transform="translate(164.64 443.13) rotate(90)">C<tspan class="cls-37" x="9.23" y="0">OMMUNI</tspan><tspan class="cls-35" x="71.4" y="0">T</tspan><tspan class="cls-97" x="80.15" y="0">Y</tspan><tspan class="cls-97"><tspan x="22.06" y="16">CHEST</tspan></tspan></text><text class="cls-53" transform="translate(40.64 460.62) rotate(90)">FOL<tspan class="cls-98" x="24.93" y="0">L</tspan><tspan x="31.73" y="0">OW</tspan><tspan x="-20.67" y="14">INSTRU</tspan><tspan class="cls-99" x="26.29" y="14">C</tspan><tspan x="35.36" y="14">TIONS</tspan><tspan x="-16.93" y="28">ON</tspan><tspan class="cls-100" x="2.92" y="28"> </tspan><tspan x="6.31" y="28">THE </tspan><tspan class="cls-30" x="35.08" y="28">C</tspan><tspan x="43.84" y="28">ARD</tspan></text><text class="cls-33" transform="translate(153.68 1020.97) rotate(90)">KENRICK LIGHT<tspan class="cls-97"><tspan x="11.93" y="16">AND </tspan><tspan class="cls-101" x="47.61" y="16">M</tspan><tspan class="cls-50" x="60.12" y="16">A</tspan><tspan class="cls-37" x="69.88" y="16">GIC</tspan></tspan></text><text class="cls-25" transform="translate(13.5 1041.81) rotate(90)">PRICE<tspan class="cls-26" x="28.81" y="0" xml:space="preserve"> $150</tspan></text><path class="cls-102" d="M55,1060s17-4,24.5-6.5,17-5.5,21.5-5,11.5,2,13.5,6.5,5.5,10,5.5,16.5,0,11.5-4,14.5-9.5,7-15.5,6-19-3-26.5-6.5-18.5-6-18.5-6Z" transform="translate(0.5 1.24)"/><line class="cls-103" x1="51" y1="1060.24" x2="54" y2="1080.24"/><line class="cls-103" x1="46.5" y1="1059.24" x2="49.5" y2="1080.74"/><line class="cls-103" x1="42" y1="1059.74" x2="45" y2="1080.24"/><line class="cls-103" x1="38" y1="1060.24" x2="40.5" y2="1081.24"/><line class="cls-103" x1="34.5" y1="1062.74" x2="37.5" y2="1080.24"/><path class="cls-103" d="M32.5,1063.5s-1,2.5-1.5,4,0,5,0,5l3.5,4" transform="translate(0.5 1.24)"/><path class="cls-104" d="M55.5,1065l24,1.5,3,2.5a58.9,58.9,0,0,0,6.5,5.5c3.5,2.5,18.5,7,20.5,5.5s2-4,0-4.5S99,1071,99,1071s-3.5-1-6.5-1.5-8-1-8-1l-5,1.5a1.85,1.85,0,0,1-1,3c-2.5,1-22.5,0-22.5,0Z" transform="translate(0.5 1.24)"/><path class="cls-104" d="M79.5,1066.5s1-2,5.5-3,14.5-3,17.5-2.5,5.5,1,5.5,1,4.5,3.5,1,4-11,0-11,0l-10,3H82.5l-1,3Z" transform="translate(0.5 1.24)"/><line class="cls-103" x1="114" y1="1045.74" x2="117.5" y2="1038.24"/><line class="cls-103" x1="99" y1="1041.24" x2="99.5" y2="1035.24"/><line class="cls-103" x1="84" y1="1042.24" x2="83" y2="1034.74"/><line class="cls-103" x1="68.5" y1="1045.74" x2="65.5" y2="1039.24"/><line class="cls-103" x1="56.5" y1="1051.24" x2="51.5" y2="1044.24"/><line class="cls-103" x1="114" y1="1098.24" x2="117.5" y2="1105.74"/><line class="cls-103" x1="98" y1="1101.24" x2="97.5" y2="1108.74"/><line class="cls-103" x1="81.5" y1="1099.74" x2="80.5" y2="1107.24"/><line class="cls-103" x1="66.5" y1="1097.24" x2="62" y2="1103.74"/><line class="cls-103" x1="53" y1="1092.74" x2="46.5" y2="1098.74"/><text class="cls-34" transform="translate(1106.81 168.18) rotate(180)">STUDENT<tspan class="cls-105"><tspan x="-6.36" y="16">C</tspan><tspan class="cls-37" x="2.87" y="16">OMPUTER</tspan></tspan><tspan x="-0.36" y="32">SE</tspan><tspan class="cls-106" x="16.23" y="32">R</tspan><tspan class="cls-107" x="25.39" y="32">VICES</tspan></text><text class="cls-25" transform="translate(1106.68 14.3) rotate(180)">PRICE<tspan class="cls-26" x="28.81" y="0" xml:space="preserve"> $150</tspan></text><path d="M1087.53,119.48a3.24,3.24,0,0,0-1.88.43.88.88,0,0,0-1.16,0c-1.65-.11-3.38.5-4.92.29-1.79.07-3.94-.21-5.49.14a44.67,44.67,0,0,0-4.91,0c-1.22-.4-2.58.17-3.76-.43-1.68.55-2.8-1.09-4.19-1.59l.14-.14c-2.64-1.37-4.65-3.15-7.22-4.63l-2-1.45c-2.7-1.71-5-2.74-7.51-4.91-.91-2.23-2.41-4.2-3-6.65-1.76-1.06-1-3.07-2.17-4.48a55.85,55.85,0,0,1-.41-8.14,31.79,31.79,0,0,0,0-4.68c0-.47-.12-4.28-.29-4.38-.37-.22-.22-.45-.14-.87-.65-9.33.39-18.88.14-28.18,0-.35-.41-.72,0-1,.25-2.61.1-5.1.15-7.67,1.17-1.45,2.72-.52,4.33-1.44,2.41-.15,3.77-.81,6.51-.87,1.1-.31,2.69-.27,3.9-.86,1.32.31,2.59-.67,3.9-.44,1.4-.42,2.81-.09,4.34-.72,2.68.07,5-1.06,7.51-.87,2.06.52,4.26.42,6.22.72v.15c3.89.3,8.06,1.14,12.28,1.3,2.66.78,5.66.41,8.39,1.3,1,.23,2.7-.24,3.47,1a95.74,95.74,0,0,1-.58,13.44c2.34.72,4.87,1.23,6.65,2.61h.72c0,.4.69.54.87.72,1,2.12,4.59,2.31,3.9,5.2.08,5.21-.66,10.45-.72,16.05a24.61,24.61,0,0,0-.29,3.47c-1.27,6.48-1.71,13.2-2.64,19.75-.27,1.82-.55,3.64-.88,5.46-.22,1.17-.31,4.27-1.11,5.14s-.69,2.26-2,2.6c-1.53,1.44-2.7,3.74-5.2,3.33-.92.31-2.32.17-3.33.72Z" transform="translate(0.5 1.24)"/><path class="cls-108" d="M1072.2,118.61c-1.25.54-3,.16-4.33.43-.58.3-1-.45-1.59-.29-.58-4-.44-8.59-.58-13,.38-.45-.23-1.06,0-1.73.09-2.7.19-5,.29-7.66a35.28,35.28,0,0,1-.15-7.08c.84-6.84,1.64-14.61,2-21.4.64-3.47,1.11-7.07,1.44-10.55l-.14-.14c.89,0,1.5-.69,2.31-.29,2.89-.82,6.54.21,9.54-.43,1.4-.53,2.48.4,4.19-.29a5.66,5.66,0,0,0,2.89,0,2.8,2.8,0,0,0,2.46.43c.57.22,1-.25,1.59-.29,3.43.46,7.83.55,11.27.87.64.06,1.85.67,2.32.58.66.93,2,1.07,2.74,2-1.9-.2-4.24-.39-6.21-.58a9.91,9.91,0,0,0-2.31,0c-3.07-.79-5.93,0-8.53-.72-.68.35-1.7,0-2.46.14l-7.08-.28a33.06,33.06,0,0,1-4.63.28c-1,.21-3-.54-4,.15a4,4,0,0,0-2.17.43c-.85,1.46-.67,3.28-1,4.92-1.34,8.29-1.53,17.47-2,25.73l-.14.43c-.34,3.86.13,8.08-.73,12.14.62,4.65-.69,9.94.58,14.31,1.31,1.2,2.71-.06,4.19.29,1.14.58,2.64-.63,4,.29,2.71-.78,5.52-.5,8.53-1,4.39-.2,9.22-.76,13.15-1.16,1.59.17,2.57-.58,4.19-.43h.29a4.05,4.05,0,0,1-3.18,1.88c-.69-.3-.79.17-1.3.28-2.81.12-5.29.78-8.09.87-4.42.28-8.11,1.08-12.43,1-1.16-.44-2.47,1.1-3.76,0-.4.49-.68-.26-1.16-.14Z" transform="translate(0.5 1.24)"/><path class="cls-109" d="M1068.73,115.28c-.45-2-.13-4.19-.43-6.21a10.53,10.53,0,0,0,.15-4.34c.11-1.93.11-4.31.28-6.21,1.37-11.64.62-25.45,3.18-37-.21-.44.07-1.05,0-1.45,1.94.82,3.81-.44,5.64.29,4.49-.45,9.41.16,13.88-.15.26,0,.82.35,1.15.15,2.25-.5,4.12.53,6.51,0,.56.67,1.12,0,1.88.29a51.69,51.69,0,0,0,6.65.58c.56.27,1.68,0,2.16.72.13,6.76-.71,13.41-1.15,20.09-.5,3.34-.59,6.06-1.16,9.4-.42,3.87-.89,8.74-1.3,12.86-.8,2.06-.76,4.73-1.88,6.79a1.7,1.7,0,0,1-1.3,2.17c-.2,0-.43-.15-.58.15-2.9.31-6.36.49-9.25,1-2.5.37-5.17.23-7.51.86a88.27,88.27,0,0,0-10.56.29c-1.19.53-3.25-.07-4.62.15l-1.74-.44Z" transform="translate(0.5 1.24)"/><path d="M1071.48,112.39c-.86-1.25-.58-3.4-.58-5.06s-.56-3,0-4.77c-.42-1.25,0-2.85,0-4.33a67.68,67.68,0,0,1,2-14c.54-.47.83-1.21,1.59-1.3,1.34-.15,2.28-.29,3.61-.44l.72-.29c7.18-.17,14.71-.68,21.39,0,2-.07,3.11-.36,4.92.29.91,1.74.44,3.48.43,5.35-.46,7.59-2.1,14.84-3.47,22.41-1.44,1.75-4,.68-5.92,1.3-.86.22-2.12-.34-2.89.29-4-.35-8.22.77-12,.43-2.12-.13-4.23.53-6.5.29-1.29.61-2.13-.23-3.33-.15Z" transform="translate(0.5 1.24)"/><path class="cls-108" d="M1077.12,111.67c-1.54-.3-4.58.64-4.77-1.3,0-7.75-.47-17.26,1.59-25.15.28-1,1.83-1,2.89-1.16,2.78-.27,5.64-.88,8.09-.58a3.29,3.29,0,0,1,1.59,0c1.86.31,3.82-1,5.64-.14,1.84-.58,3.29.12,4.91-.29,1.7.27,4,0,5.35.29a5,5,0,0,1-3.47.58,214,214,0,0,0-23,1.16c-1.36.07-1.41,1.71-1.59,2.89a78.5,78.5,0,0,0-1,20.67c.44.16.49.58.58.86,3.33,0,6.65,0,9.68-.29.81-.18,1.51.53,2.17,0,3,.34,5.48-.79,8.53-.43,1.45-.92,2.85.11,4.19-.87.72.7,1.56,1.22,1.88,1.88-1.25.88-3.5-.05-4.92.72-4-.07-7.76.54-11.56.73-1.63.23-3.55-.47-4.77.58-.51-.73-1.36-.21-2-.15Z" transform="translate(0.5 1.24)"/><path class="cls-110" d="M1057.17,113.69c-1-1-2.8-1-3.61-2.45.39-6.23-2-12.23,0-18.07.2-1.09-.46-1.46-1.3-2-3.84.37-8.15-.61-12-1-.22-9.1-.6-18.33-.14-27.6-.08-3.09-.18-6,0-9.11a70.88,70.88,0,0,1,.14-8,30.66,30.66,0,0,1-.14-3.47,29.68,29.68,0,0,1,5.05-.72c.86-.57,1.42-.1,2.17-.72,3-.27,6.37-1.45,9.69-1.3,1-.33,2.07-.19,3.18-.87,1.93-.45,3.43-.49,5.35-.87l1.15.15c-.4,3.51.3,6.69,0,10-.26,1.31-.12,3-.43,4.48l-.15,1.45a6.39,6.39,0,0,1,1.74,2.31c-1.14,10.35-3.15,22.15-3,32.52-.72,7.43-.2,15.95-.58,23.42a34.57,34.57,0,0,1,.29,6.5c-2.44-1.37-5-3.25-7.37-4.63Z" transform="translate(0.5 1.24)"/><path class="cls-110" d="M1046.26,107.06a2.59,2.59,0,0,1-.65-.59c-2.5-4-4.82-8.35-5.06-13.08a15.59,15.59,0,0,1-.18-2.94c.54-4.2,9.19-3.86,11.9-2.43a5.16,5.16,0,0,1,3.2,4.27c.77,3.83,1.84,7.68,2.43,11.54.32,2.09.39,5.21-1.14,6.92-2,2.29-4.66-.21-6.57-1.5C1049.54,108.81,1047.4,107.85,1046.26,107.06Z" transform="translate(0.5 1.24)"/><path class="cls-110" d="M1100.53,102.56c.39-4.67,1.42-10,1.59-15a7.14,7.14,0,0,1,0-2.31c.76-.26,1.19-.82,2-1.16a123.82,123.82,0,0,1-1.45,14.6c-.38,1,0,2.13-.58,3.18.3,2-.78,3.26-.72,5.35l-.29,1.16c-2.72-1-.19-3.81-.58-5.79Z" transform="translate(0.5 1.24)"/><path class="cls-111" d="M1076.54,108.2c-.58-.81-2.08.6-2-.87.31-.92-.72-1.86-.15-2.74.28-.66-.43-1.6.29-2.17-.76-3.41.5-6.36.29-9.54a53.34,53.34,0,0,1,1.16-6.36c2.42-.86,5,.17,7.37-1,1.56.39,3-.13,4.62,0,1.11.06,2.09.58,3,0a66.91,66.91,0,0,1,9.39.29c-.22,2.49.11,5.2-.43,7.51a5,5,0,0,1,.14,1.45l-.28.43a11.8,11.8,0,0,1-.73,5.06c-.56,2.13-.33,4-.86,6.36-.64.88-2,.08-2.75.58-3.69.44-7.44.67-10.84.87a17.27,17.27,0,0,1-6.51-.15l-1.73.29Z" transform="translate(0.5 1.24)"/><path d="M1075.38,72.64a22.67,22.67,0,0,1,.29-3.9c2.11-.87,5-.36,7.08-.43.28.35.23,1.24,1,1.15,2.77.23,6.1-.33,9.39-.14.08.94.5,2-.29,2.75-3.38,0-6.14.11-9.39-.15-.73.26-.17,1.33-1,1.59-2.06-.21-4.4.17-6.65,0l-.44-.87Z" transform="translate(0.5 1.24)"/><path class="cls-110" d="M1078.85,72.21c-.41.58-1.25-.31-1.88.29a12.69,12.69,0,0,1-.14-2.75,14.68,14.68,0,0,1,5.06-.14.62.62,0,0,0,.43.87H1092v.57l-10.12.15c-.36.18-.27.6-.29,1a4.31,4.31,0,0,1-2.75,0Z" transform="translate(0.5 1.24)"/><path class="cls-110" d="M1089.55,55.16c-.34-.45-.85.06-1.3,0-1.15-.4-2.46.49-3.47-.29-.53.35-1.66-.21-2.31.29-1,.21-2.25-.54-3.18-.15-3-.11-6.24.12-9.4.15-.39-.08-.91-1-1.44-1.59,3.9-.31,8,.34,11.56,0l.29.14c2.35-.08,4.83.25,7.23.29,4.21.19,9.69-.23,13.29,1.59-3.88-.08-7.49-.55-11.27-.43Z" transform="translate(0.5 1.24)"/><path class="cls-109" d="M1086.66,52c-4.19.34-7.42-.31-11.71.14-2.46-.64-4.57.15-7.08-.29l-.15-1c.56-4,.7-9,.87-12.72a14.31,14.31,0,0,1,5.06.14c1.61-.44,2.82.83,4.34.15,1.34.3,2.65.54,3.9.72,1.61.19,2.78.52,4.62.72a94.1,94.1,0,0,1,11.71,1.45,12.55,12.55,0,0,1,0,5.49c.5,1.2-.72,2.55-.29,3.9-.57.67.27,1.56-.29,2.17-3.19-.52-7.49-.14-11-.86Z" transform="translate(0.5 1.24)"/><path d="M1042.28,46.63c1.18.26,2.3-.72,3.18,0,0,1.62-2.28.82-3.18.72v-.72Z" transform="translate(0.5 1.24)"/><path d="M1074.23,46.34c.09-1.37-.85-3.81.72-4.34a10.6,10.6,0,0,1,.29,4.34c-.12.31-.83.55-1,0Z" transform="translate(0.5 1.24)"/><path d="M1072.35,42.29a.77.77,0,0,1,.87-.29c.72,1.38,0,3.16.14,4.63-2.13-.12-.45-2.83-1-4.34Z" transform="translate(0.5 1.24)"/><path d="M1048.21,45.62a7.63,7.63,0,0,1,2.6-.15c.7.34-.28,1-.58,1.16-.78-.26-2,.35-2-1Z" transform="translate(0.5 1.24)"/><path d="M1053.7,45.18c.06-.59.9-.68,1.45-.72,1,0,1.79-.57,2.31.58-.66,1.15-1.83.82-2.89.72-.29-.18-.9,0-.87-.58Z" transform="translate(0.5 1.24)"/><path d="M1042.57,45.9c-.52-1.4,1.45-1.12,2.17-1.44.26,0,.54-.1.72.14-.27,1.12-1.77,1.21-2.89,1.3Z" transform="translate(0.5 1.24)"/><path d="M1060.35,44.6c-.08-.57.62-.62,1-.72,1.2.2,2.23-1.07,2.89.15-.14.24,0,.56-.14.72a4,4,0,0,1-3.76-.15Z" transform="translate(0.5 1.24)"/><path d="M1047.78,44c.88-.65,2.09-.37,3.18-.58.27.07.36.44.29.72-.77,1-2.22.47-3.33.58-.06-.2-.44-.44-.14-.72Z" transform="translate(0.5 1.24)"/><path d="M1053.27,43.45c.63-1,2.08-.49,2.89-1,.22-.19,1.67-.37,1.45.72-.53,1.39-2.07.26-3,.87-.44-.19-1.28.1-1.3-.58Z" transform="translate(0.5 1.24)"/><path d="M1042.28,43.74c.38-1,2-.55,3-.58.29.4-.65.59-1,.87-.76-.65-1.42.66-2-.29Z" transform="translate(0.5 1.24)"/><path d="M1060.79,42.73c-.15-.76.74-.62,1-1.16H1064c.24.26.1.59.15.87-.8.56-1.87.42-2.75.72-.2-.06-.34-.25-.57-.43Z" transform="translate(0.5 1.24)"/><path d="M1048.5,42.29c.76.1,1.75-.88,2.17-.14,0,1.23-1.31.52-1.88,1-.23-.2-.65-.53-.29-.87Z" transform="translate(0.5 1.24)"/><path d="M1054.14,41.71c.28-.82,1.59-.67,2.45-1,.17.15.4.1.58.29-.18.89-1.3.75-2,1-.36.07-.92.11-1-.29Z" transform="translate(0.5 1.24)"/><path d="M1060.5,40.56c0-.51.75-.23,1-.58a2.72,2.72,0,0,1,2.74.14c.14.45-.37.68-.57.87-1-.61-2.52,1.22-3.18-.43Z" transform="translate(0.5 1.24)"/><path class="cls-112" d="M1145.3,390.91a12,12,0,0,1,0,17L415.57,1137.62a12,12,0,0,1-17,0L296.78,1035.8a12,12,0,0,1,0-17l729.73-729.74a12,12,0,0,1,17,0Z" transform="translate(0.5 1.24)"/><path class="cls-113" d="M820.87,641.45a36.22,36.22,0,0,0-1-12.83c-8.42-33-69.29-35.16-89.9-36-44.94-1.78-84.06,12-110.87,38.76C590.37,660.18,576.76,703.08,581,752c1.52,17.51,4,52.29,16.47,70.38,15.2,22,31.06,5.32,42.54-1.63,19.08-11.55,32.22-33.44,48.1-49,19.77-19.38,43.22-34.63,62.94-54.47C768.47,699.75,817.42,674.81,820.87,641.45Z" transform="translate(0.5 1.24)"/><path class="cls-109" d="M1125,403.27a11.39,11.39,0,0,1-.13,16.1L427,1117.25a11.39,11.39,0,0,1-16.1.13l-95.81-95.81a11.39,11.39,0,0,1,.13-16.1l697.88-697.88a11.38,11.38,0,0,1,16.1-.14Z" transform="translate(0.5 1.24)"/><text class="cls-114" transform="translate(405.78 1104.02) rotate(-45) scale(1.07 1)">S<tspan class="cls-115" x="84.25" y="0">E</tspan><tspan class="cls-116" x="169.11" y="0">M</tspan><tspan class="cls-117" x="302.1" y="0">I</tspan><tspan class="cls-118" x="349.67" y="0">N</tspan><tspan class="cls-119" x="461.07" y="0">O</tspan><tspan class="cls-120" x="577.02" y="0">P</tspan><tspan class="cls-121" x="668.48" y="0">O</tspan><tspan class="cls-122" x="784.44" y="0">L</tspan><tspan class="cls-123" x="853.65" y="0">Y</tspan></text><text class="cls-124" transform="translate(669.73 926.84) rotate(-45)">M<tspan class="cls-125" x="8" y="0">ade in 2007, using </tspan><tspan class="cls-126" x="98.78" y="0">A</tspan><tspan class="cls-127" x="105.1" y="0">dobe </tspan><tspan class="cls-128" x="131.86" y="0">P</tspan><tspan class="cls-129" x="137.6" y="0">ho</tspan><tspan class="cls-130" x="149.47" y="0">t</tspan><tspan class="cls-127" x="153.59" y="0">oshop and </tspan><tspan class="cls-131" x="205.93" y="0">I</tspan><tspan class="cls-127" x="209.45" y="0">llust</tspan><tspan class="cls-128" x="231.04" y="0">r</tspan><tspan class="cls-132" x="235.14" y="0">a</tspan><tspan class="cls-133" x="240.49" y="0">t</tspan><tspan class="cls-127" x="244.61" y="0">or on a </tspan><tspan x="281.55" y="0">M</tspan><tspan class="cls-129" x="289.55" y="0">ac</tspan><tspan class="cls-134" x="300.03" y="0">B</tspan><tspan class="cls-127" x="305.92" y="0">ook </tspan><tspan class="cls-135" x="326.23" y="0">P</tspan><tspan class="cls-136" x="331.88" y="0">r</tspan><tspan class="cls-137" x="335.93" y="0">o</tspan><tspan class="cls-129" x="341.65" y="0">.</tspan><tspan class="cls-134"><tspan x="100.95" y="9.6">B</tspan><tspan class="cls-127" x="106.84" y="9.6">oa</tspan><tspan class="cls-138" x="118.13" y="9.6">r</tspan><tspan class="cls-127" x="122.18" y="9.6">d desi</tspan><tspan class="cls-130" x="151.07" y="9.6">g</tspan><tspan class="cls-127" x="157.01" y="9.6">n </tspan><tspan class="cls-139" x="166.19" y="9.6">b</tspan><tspan class="cls-127" x="172.21" y="9.6">y Jeff </tspan><tspan class="cls-140" x="200.12" y="9.6">G</tspan><tspan class="cls-127" x="206.85" y="9.6">ee</tspan><tspan x="217.9" y="9.6">r</tspan><tspan class="cls-129" x="222.07" y="9.6">lin</tspan><tspan class="cls-141" x="234.83" y="9.6">g</tspan><tspan class="cls-127" x="240.7" y="9.6">.</tspan></tspan></text><rect class="cls-142" x="834.05" y="1338.39" width="7.23" height="7.23" transform="translate(-703.12 986.75) rotate(-45.01)"/><path class="cls-143" d="M1390.06,1025.91s-48.68-1.29-49.54-1.14-6.83-.43-7.68-.15-1.43.43-1.57,1.43.43,2.7,1.28,2.84a9,9,0,0,1,1.57.43s.71-.14.42.57a10.29,10.29,0,0,0-.71,3.13c0,1-.57,3.84-.42,4.84s-.29,11.53,0,12.53-.57,1.28-1.14,1.28-2.14,1-2.14,2,.43,1.71,1,1.71,7.83-.14,7.83-.14h32.88l5.55-.57,3.13-6.55,6.83-17.08.86-1.71s2.42.29,2.42-.14a11.73,11.73,0,0,0,.14-2.28A2.06,2.06,0,0,0,1390.06,1025.91Z" transform="translate(0.5 1.24)"/><line class="cls-143" x1="1335.61" y1="1030.7" x2="1335.33" y2="1026.86"/><path class="cls-143" d="M1334,1051.81s.14,2.71-.29,3.27" transform="translate(0.5 1.24)"/><path class="cls-144" d="M1333,1051.53l4.27.14s.71.71.71,1.14v1.56" transform="translate(0.5 1.24)"/><line class="cls-145" x1="1391.13" y1="1030.42" x2="1340.03" y2="1029.85"/><line class="cls-144" x1="1338.46" y1="1053.05" x2="1362.37" y2="1053.05"/><path class="cls-144" d="M1339.24,1025.05a2.42,2.42,0,0,1,.57,1" transform="translate(0.5 1.24)"/><path class="cls-144" d="M1334.54,1029.61a16.76,16.76,0,0,0,3.42-.29,3.17,3.17,0,0,0,1.57-1.42l.14-.43" transform="translate(0.5 1.24)"/><path class="cls-145" d="M1372.27,1120.14h10.53l11.24-10.25s-1.85-76.87-2.42-79-1.13-1-1.13-1l-11.39-.14-1.85.71-2.57,33-3.13,48.4Z" transform="translate(0.5 1.24)"/><path class="cls-146" d="M1378.67,1028.89a6.92,6.92,0,0,1,.85,2.42s1.14,24.2,1.14,25.48,2.14,51.1,1.71,53.1-9.68,10.25-11.1,11-10,1.56-11.25,1,.72-37.57.72-37.57l3.13-38.58,3-15.66" transform="translate(0.5 1.24)"/><path class="cls-146" d="M1379.52,1029.18s-12.09.14-12.66.85-5,11.11-5.56,12.81-4,10.68-4.12,12.81,1.56,64.49,2.27,65.77,2.71-1.71,3.85-2.57,6.26-6.26,6.69-8.39-2.56-76.73-2.71-77.87a15,15,0,0,1-.14-1.56" transform="translate(0.5 1.24)"/><line class="cls-147" x1="1371.91" y1="1112.12" x2="1380.88" y2="1111.27"/><line class="cls-147" x1="1394.54" y1="1110.7" x2="1383.01" y2="1110.7"/><path class="cls-148" d="M74.15,1323.22,78.87,1313c.88-1.86,1.74-3.48,2.24-4.72a9.9,9.9,0,0,1,2.49-3.23,20.49,20.49,0,0,1,4.35-2.86c1.74-1,.87-2.11,1.61-2.86s2.11-.37,4-.49,5.71,1.49,7.45.74,2.61.13,2.12,1.37,1,7,.62,8.32.12,3.36-1.12,4.35a26.65,26.65,0,0,0-3,2.24,17.89,17.89,0,0,1-3,2.49c-.49.24-1,1.49-2.36,1.86s-1.74,3-3.48,3.48-2.11.87-3-.75-.62,1.12-.62,1.12l-3.11,3.11c-.49.49-2.61,3.1-2.61,3.1" transform="translate(0.5 1.24)"/><path class="cls-148" d="M129.2,1365.35c-.37-1.12,1-2.24,1-4.23s-1.62-3.35-1-4.72,1.24-2.73-1.12-4.85a13.4,13.4,0,0,1-3.35-4.84" transform="translate(0.5 1.24)"/><path class="cls-148" d="M103.6,1311.91c1.37-1.61,4.73-5.21,4.73-5.21s-.25-2.74.49-4a4.43,4.43,0,0,0,0-4c-.49-.74-1.12-.62-2.36.38a31.54,31.54,0,0,0-3.6,4.34" transform="translate(0.5 1.24)"/><path class="cls-148" d="M88,1302.22s10.68,1.24,11.68,3.48-.13,5.84.24,7.21a1.9,1.9,0,0,0,1.5,1.49" transform="translate(0.5 1.24)"/><path class="cls-148" d="M83.6,1305.08c1.74,1,10.56,1.62,11.68,3.48s1,5,1.36,6.83l.38,1.87" transform="translate(0.5 1.24)"/><path class="cls-148" d="M80.37,1310.3s11.8,1.61,12.42,3.23-.25,7,.25,7.7" transform="translate(0.5 1.24)"/><path class="cls-148" d="M87.82,1323a6.9,6.9,0,0,0-.25-3c-.49-1.49.13-2.61-1.86-3.11l-2-.49-2.36-.37" transform="translate(0.5 1.24)"/><line class="cls-148" x1="91.3" y1="1324.96" x2="101.87" y2="1327.32"/><line class="cls-148" x1="101.62" y1="1328.81" x2="106.46" y2="1319.24"/><path class="cls-148" d="M108.57,1315.14s6.71-12.92,10.07-15.28a26.38,26.38,0,0,1,14.29-4.6" transform="translate(0.5 1.24)"/><path class="cls-148" d="M108.08,1315.14s6.46-13.41,8.45-15.65-.13-1.37-.13-1.37" transform="translate(0.5 1.24)"/><path class="cls-148" d="M124.11,1309.8c.37,1.62,1.86,5.59,3.1,5.34s-1.74,2-1.74,2l-8.07,9.32" transform="translate(0.5 1.24)"/><path class="cls-148" d="M129.08,1321.48s2-3,2.48-2.48,4.48,3.72,8.33,1.12" transform="translate(0.5 1.24)"/><path class="cls-148" d="M120.88,1330.18s-4.35.62-6,2.49-.62-.38-.62-.38l-2.11-2.36s-.5-.49,2.11-3.85" transform="translate(0.5 1.24)"/><path class="cls-148" d="M112.43,1327s-6.59,2.86-8.58,4.85-2.86,5.34-2.48,6.21,2.36,7.33,7.58,7.33,5.46-1,6.71-2.73,3.23-9.45,3.23-9.45" transform="translate(0.5 1.24)"/><path class="cls-148" d="M127,1326.83s-1.49,3.72,2.49,4.72" transform="translate(0.5 1.24)"/><path class="cls-148" d="M116.15,1341.61a21.81,21.81,0,0,0-.25,4" transform="translate(0.5 1.24)"/><path class="cls-148" d="M130.57,1336.14c-2.49.75-8.7,2-9.94,4" transform="translate(0.5 1.24)"/><path class="cls-148" d="M108.33,1321.11a4.33,4.33,0,0,0-1,4c.62,2.36-1.12,3.1-1.74,4.72" transform="translate(0.5 1.24)"/><path class="cls-148" d="M119.38,1305.33l2.24-.75s-.62-.12.37,1.37,1.49.5,1.49.5" transform="translate(0.5 1.24)"/><path class="cls-148" d="M134.79,1324.22s-1.36,2.61-2.48,2.73-1.49-2.24-1.49-2.24" transform="translate(0.5 1.24)"/><line class="cls-148" x1="117.77" y1="1321.35" x2="116.9" y2="1318.5"/><line class="cls-41" x1="120.88" y1="1316.51" x2="121.5" y2="1314.15"/><path class="cls-41" d="M115.28,1341.74s-3.72-4.23-5-5.47-3.72-4-3.72-4l-1.37.62,3,3.24,3.23,3.23,3.23,3.23-1.24.74a11.7,11.7,0,0,1-3-2.23c-.87-1.12-3.85-4.35-3.85-4.35l-1.74-2.49s-.5,3.73,7.33,9.07" transform="translate(0.5 1.24)"/><path class="cls-41" d="M133.18,1337.26l-2.61,2.61c-.75.75-4.48,4.72-5.59,4.1" transform="translate(0.5 1.24)"/><path class="cls-41" d="M136,1315c-.62-.62-.49-2-1.11-2.11a2.58,2.58,0,0,1-1.74-1c-.87-.87-1.24-2.48-2-2.48" transform="translate(0.5 1.24)"/><path class="cls-41" d="M137.65,1310.92c-.87-1.37-2-3-2-3" transform="translate(0.5 1.24)"/><path class="cls-41" d="M152.56,1317.62s-2,7-4.84,9.57-5.72,3.73-6.59,4.6-4.47,3.48-4.47,3.48,5-5.22,6-5.47,6.21-2.48,7.95-1.74-1.49,1.24-1.49,1.24l-3.1.13" transform="translate(0.5 1.24)"/><path class="cls-41" d="M139.89,1296.51a31.68,31.68,0,0,0,5.22,5.21c2.36,1.62,6.95,6.22,6.21,7s-5.47,3.73-5.47,3.73l.25-1.24,3.85-2.11-1-3-7.46,2.49-1-1.49.37-2.11-2.11-1.12-1.49-1.25h3.48l-.25-2.23,1.49,1.24,2.73.74,1.37,1.87,1,1.74-4.34,1.12-.13-1.37-.87-1.61v-1.25l2.61,1.12.5,1.49-1.12.13-.5-1.25" transform="translate(0.5 1.24)"/></g><g id="Layer_2" data-name="Layer 2"><text class="cls-149" transform="translate(620.56 428.02) rotate(135)">C<tspan class="cls-150" x="17.8" y="0">OMMUNI</tspan><tspan class="cls-151" x="135.3" y="0">T</tspan><tspan class="cls-150" x="152.35" y="0">Y CHEST</tspan></text><text class="cls-152" transform="translate(883.27 966.43) rotate(-45)">CHANCE</text></g><g id="Cutaway"><polygon class="cls-109" points="1339.46 91.19 1335.64 90.26 1329.02 91.5 1323.44 94.61 1319.82 95.74 1313.72 94.6 1306.18 94.09 1299.46 93.98 1293.46 94.19 1287.67 94.19 1285.81 93.57 1287.67 91.92 1292.53 88.92 1294.6 88.71 1302.14 87.58 1302.04 86.02 1300.7 84.27 1302.04 82.3 1303.9 80.44 1303.18 78.69 1304.01 76.41 1307.21 74.65 1310.1 71.55 1316.51 64.52 1317.76 65.76 1317.75 67.42 1317.65 69.17 1316.93 70.11 1316.93 71.76 1316.31 73 1319.2 75.07 1321.16 77.24 1323.44 75.58 1327.06 74.24 1330.78 74.86 1333.05 77.55 1334.4 79.1 1335.22 78.06 1335.53 74.03 1339.46 74.86 1342.98 75.69 1339.46 91.19"/><polygon class="cls-109" points="1314.45 125.1 1314.45 122 1315.79 121.48 1318.06 121.69 1320.03 122.62 1322.4 120.86 1322.82 116.93 1321.06 112.9 1322.1 111.66 1324.68 109.28 1329.13 110.42 1333.05 111.66 1335.22 109.08 1338.53 105.77 1332.64 99.26 1333.88 96.57 1335.95 96.36 1337.81 97.19 1339.05 98.64 1338.22 100.7 1337.29 101.63 1336.26 102.67 1339.36 105.56 1340.7 104.84 1342.67 102.87 1346.49 100.5 1350.52 103.91 1352.69 107.73 1354.86 109.7 1357.24 110.01 1357.35 107.63 1359.62 106.39 1361.17 106.29 1362.93 116.93 1362.83 126.34 1360.14 132.13 1358.28 135.23 1357.04 137.71 1359 140.09 1358.59 143.81 1356 148.05 1353.01 150.22 1348.25 151.46 1344.11 152.29 1342.15 152.6 1339.57 154.56 1338.22 158.18 1335.74 156.53 1333.88 153.22 1320.24 136.26 1314.45 125.1"/><polygon class="cls-153" points="1337.08 158.08 1315.69 146.4 1305.56 139.16 1301.83 133.99 1303.9 133.37 1309.48 133.16 1314.14 131.2 1315.48 130.06 1316.31 130.06 1335.43 154.15 1337.81 157.35 1337.08 158.08"/><path class="cls-153" d="M1372.56,122.72c2.27.62,8.48,3.11,14.78-1.13s11.37-8.27,13-10.34,3.41-4.24,3.41-4.24l-39-39.59-15.3-.21-2.17.31-2.59,1.55-1.24,1.45L1340,90l1.44,1.44,14.27,1.86-3.93,11.79,2.58,3.41,2.49-2.07,3.82-1.34,1.45,11.37-.73,9.41-1.34,4.23.41,1.45H1364l4.24-3,2.89-5Z" transform="translate(0.5 1.24)"/><path class="cls-154" d="M1339.58,134.61s.11,4.24,1.35,6.1,4,.93,4.86.52,4.34-3.1,5-4.55a7.79,7.79,0,0,1,1.86-2.69c.52-.51,2-2.38,1.45-3.3s-1.35-1.35-1.66-2.28-1.24-2.07-2.27-1" transform="translate(0.5 1.24)"/><path class="cls-154" d="M1344.23,136.78s-.93-2.58-.1-3.41,2.28,1,3,.31a5.39,5.39,0,0,0,1-2.27" transform="translate(0.5 1.24)"/><path class="cls-154" d="M1339.69,153.53a26.73,26.73,0,0,1-2,3.41c-.51.52-3.82-1.34-4.86-1.76s-14.37-7.34-15.81-8.37-7.24-5.17-8.38-5.89a30.55,30.55,0,0,1-5.47-4.86c-.73-1.14-2.17-2.38-1.87-3.31s2.18-1.14,2.8-1.14a54,54,0,0,0,5.58-.2,8.13,8.13,0,0,0,2.89-1.66c.62-.62,2.69-2.48,2.69-2.48a34.37,34.37,0,0,1-1.65-5c0-.83.2-2.48.93-2.58s2.79,1.13,4,1.34,3.1.62,3.82-1.76-.2-4.54-.82-6a4.62,4.62,0,0,1-.42-2.48s2-2.59,3-2.79,2.9.62,4.45,1.13,3,2.17,4.54.62,3.41-3.2,4.14-4.13,2.38-.31,2.89-1.24a13.56,13.56,0,0,1,2.59-3.41c.93-.73,2.27-2.28,4-1.56s3,3,3.72,4.35,1.14,2.79,2.28,3.31a6,6,0,0,1,3.2,3.2,21.59,21.59,0,0,1,1.45,6.41c-.11.72.62,4.13.41,5.58a19,19,0,0,1-1.45,5.17l-.62,1" transform="translate(0.5 1.24)"/><path class="cls-154" d="M1338,104.53a8.91,8.91,0,0,1-3.1-1.65c-1-1-3.41-3.21-3.31-4.35s.42-3.72,1.66-3.92,2.89-.62,3.72.2,2.79,2.17,2.07,3.31-1.45,3.1-2.18,3.21a14.33,14.33,0,0,1-3.41-.93l2.79,2.79Z" transform="translate(0.5 1.24)"/><path class="cls-154" d="M1355.5,120.76a26.28,26.28,0,0,0,1.14-2.38,18.82,18.82,0,0,0,1-4.34c0-.83-.82-4.34-.93-5.27s-.51-1.55.11-2.38,3.41-2.17,3.41-2.17" transform="translate(0.5 1.24)"/><path class="cls-154" d="M1342.37,151.67a37.56,37.56,0,0,0,7.34-2c2.38-1.14,5.38-1,6.41-3.73s3.31-5.17,2.38-7.13-2.48-1.86-2.17-3.2,2.69-3.52,3.31-4.76,1.86-7.65,2.27-9.51,0-11.16-.2-13-2-5.69-1.66-6.83,1.24-3.93,1.24-3.93" transform="translate(0.5 1.24)"/><path class="cls-154" d="M1318.81,121.69s3,8,3.51,8.48,3-.11,3-.11" transform="translate(0.5 1.24)"/><path class="cls-154" d="M1330.38,136.16c.11-1.34,2.28-.2,2.79-.51s2.48.41,2.69-.21a9.21,9.21,0,0,0-.21-2.69s1.45-.62,1.35-1.14-4.34.63-5,0" transform="translate(0.5 1.24)"/><path class="cls-154" d="M1310.64,130.69a5,5,0,0,0,1.65,2.47c1.55,1.56,2.48.83,3,.52s2.07-1.44,2.07-1.44-3.41,2.17-3.1,3.1,3.41,3.2,3.41,3.2" transform="translate(0.5 1.24)"/><path class="cls-154" d="M1321.7,134.92s2.38.93,3.1.62" transform="translate(0.5 1.24)"/><path class="cls-154" d="M1331.52,139.78s2-.51,2.07-1.24" transform="translate(0.5 1.24)"/><path class="cls-154" d="M1323.46,123.86c.2-1.24,4.08-5.63,4.7-6" transform="translate(0.5 1.24)"/><path class="cls-154" d="M1332.24,124.79a43,43,0,0,1-2-5.68c-.21-1.45-.72-.93-.72-.93" transform="translate(0.5 1.24)"/><path class="cls-154" d="M1323.35,121.69s3.62,1.14,3.83.52a7.3,7.3,0,0,0,.1-2" transform="translate(0.5 1.24)"/><path class="cls-154" d="M1324.7,109.39s5.17,2.27,6.61,2.27" transform="translate(0.5 1.24)"/><path class="cls-154" d="M1335.14,115.07s.1-7.13,5.48-8.37,9.51,3.31,9.51,3.31" transform="translate(0.5 1.24)"/><path class="cls-155" d="M1351.06,109.08l.31-.52" transform="translate(0.5 1.24)"/><path class="cls-155" d="M1361.39,132.44s2.9.21,4.35-1.24a23.69,23.69,0,0,0,4.55-6.2,46.12,46.12,0,0,0,2.79-8.58c.31-2.17-.11-11.27-.21-12.41s3.41-.72,3.83-1.13-.63-2.07-.73-3-.52-4.45-1.34-5.07-7-.82-8.17-1.13-10.75-1-11.78-1-9.93-1-9.93-1l-5-1c-.52-.11-3.62-.94-3.62-.94l-4.24-.93s-4.55,1.45-5.79,2.49-5.16,3.1-6.82,3.3-8.06-1.65-9.92-1.65-6,.41-7.14.52-2.27-.62-3.3-.62a39.65,39.65,0,0,0-5,.41,35.55,35.55,0,0,1-5,.62,27,27,0,0,1-3.51-.41,4.52,4.52,0,0,1,.62-2.28,10.46,10.46,0,0,1,3.93-2.69c1.75-.72,3.41-.31,4-.93a5,5,0,0,1,3-1.13,21.47,21.47,0,0,1,4.54,0c1.14.1,5.28,3,5.28,3l-6.31-5.06s-1.55-.72-1.14-1.55a14.43,14.43,0,0,1,2.28-2.69c.62-.62,2.17-.52,2.17-.52s6.41,5.59,7,5.59-7.34-5.9-7.86-7a2.76,2.76,0,0,1,.42-2.9,13.71,13.71,0,0,1,3.2-1.75c.62-.21,6.62,7,7.34,7.33s-7.44-7.23-6.93-8.37,2.38-1.76,3.31-2.69a49.39,49.39,0,0,0,4.65-5.27,8,8,0,0,1,1.66-1.86s1.86,4.55.72,6.31-2.17,2.17-1.65,2.89,3.82,2.38,3.92,3.1.31,1.14,1.24.41a20,20,0,0,1,5.59-2.27c1.55-.31,6,2.69,6.72,3.62s1.86,2.69,1.65,4.34-.93,7.55-.93,7.55" transform="translate(0.5 1.24)"/><path class="cls-155" d="M1339.43,89.39c2-4.24,4-21.25,4-21.25l5.06.11" transform="translate(0.5 1.24)"/><path class="cls-155" d="M1334.52,78.69l-.21-4.76s.83-.83,1.45-.83,6.41.62,6.41.62" transform="translate(0.5 1.24)"/><path class="cls-154" d="M1336.58,156.84l-23.36-27.5,2.07-2.07c1.14,2.59,18.81,24.81,18.81,24.81" transform="translate(0.5 1.24)"/></g></svg>