<?xml version="1.0" encoding="utf-8"?>
<!-- Generator: Adobe Illustrator 23.0.3, SVG Export Plug-In . SVG Version: 6.00 Build 0)  -->
<svg version="1.1" id="Layer_1" xmlns="http://www.w3.org/2000/svg" xmlns:xlink="http://www.w3.org/1999/xlink" x="0px" y="0px"
	 viewBox="0 0 519.3 449.8" style="enable-background:new 0 0 519.3 449.8;" xml:space="preserve">
<polygon style="opacity:0.46;fill:#45B6FE;enable-background:new    ;" points="389.5,0 129.8,0 0,224.9 129.8,449.8 389.5,449.8 
	519.3,224.9 "/>
<g>
	<g>
		<path d="M116.3,186.9h6.5l25,39.5l-0.8,0.9v-40.4h7.1V238h-6.6L122.6,199l0.8-0.9V238h-7.1V186.9z"/>
		<path d="M175.9,238.5c0,0-1.2-0.6-3.6-1.9s-4.2-3.1-5.5-5.6c-1.3-2.4-1.9-5.4-1.9-8.9v-4.1c0-3.6,0.6-6.7,1.8-9.2
			c1.2-2.6,3-4.5,5.3-5.8c2.3-1.3,5.1-2,8.3-2c3,0,5.6,0.8,7.8,2.3c2.2,1.5,3.8,3.7,4.9,6.6c1.1,2.9,1.7,6.3,1.7,10.4v2.4h-24.6
			v-5.8H188c-0.2-3-1-5.3-2.3-6.9c-1.3-1.7-3.1-2.5-5.3-2.5c-2.7,0-4.8,0.9-6.3,2.7c-1.5,1.8-2.2,4.3-2.2,7.6v4.6c0,3,0.8,5.3,2.4,7
			c1.6,1.6,3.9,2.4,6.8,2.4c1.5,0,2.9-0.3,4.3-0.9c1.4-0.6,2.7-1.4,3.8-2.5l4.7,4.7c-1.8,1.7-3.8,3.1-6.1,4s-4.5,1.4-6.8,1.4
			C177.6,238.5,175.9,238.5,175.9,238.5z"/>
		<path d="M201.5,201.5h7.5l6.5,26.1l9.1-26.1h5l9.1,26.1l6.5-26.1h7.5L241.3,238h-5.4l-8.9-25.2l-8.9,25.2h-5.4L201.5,201.5z"/>
		<path d="M295.7,217.2V238h-7.2v-20.8L273,186.9h8l11.2,23.1l11.2-23.1h8L295.7,217.2z"/>
		<path d="M321.7,236.7c-2.3-1.2-4-3.1-5.2-5.4s-1.8-5.2-1.8-8.6v-5.9c0-3.3,0.6-6.1,1.8-8.5s2.9-4.1,5.2-5.4s5-1.8,8.1-1.8
			s5.9,0.6,8.1,1.8s4,3,5.2,5.4s1.8,5.2,1.8,8.5v6c0,3.3-0.6,6.2-1.8,8.5s-2.9,4.2-5.2,5.4s-5,1.9-8.1,1.9S324,237.9,321.7,236.7z
			 M335.7,229.4c1.4-1.6,2.1-3.8,2.1-6.6v-6c0-2.8-0.7-5-2.1-6.6s-3.3-2.3-5.8-2.3s-4.4,0.8-5.8,2.3s-2.1,3.7-2.1,6.6v6
			c0,2.8,0.7,5,2.1,6.6s3.3,2.4,5.8,2.4S334.3,230.9,335.7,229.4z"/>
		<path d="M355.1,201.5h7.2V238h-7.2V201.5z M372.8,208.4c-1-0.4-2.1-0.6-3.3-0.6c-2.3,0-4,0.6-5.3,1.9c-1.3,1.3-1.9,3-1.9,5.2
			l-0.7-7c1.1-2.2,2.6-3.9,4.4-5.1c1.8-1.2,3.8-1.8,5.9-1.8c1.7,0,3.2,0.2,4.5,0.7c1.3,0.5,2.5,1.2,3.5,2.1l-4.7,6.3
			C374.6,209.4,373.8,208.8,372.8,208.4z"/>
		<path d="M385.8,186.9h7.2V238h-7.2V186.9z M388.9,224.1l18.8-22.6h8.4l-27.7,31.1L388.9,224.1z M397.4,216.9l4.6-4.8l15.9,25.8
			h-7.8L397.4,216.9z"/>
	</g>
</g>
</svg>
