<?xml version="1.0" encoding="utf-8"?>
<!-- Generator: Adobe Illustrator 23.0.3, SVG Export Plug-In . SVG Version: 6.00 Build 0)  -->
<svg version="1.1" id="Layer_1" xmlns="http://www.w3.org/2000/svg" xmlns:xlink="http://www.w3.org/1999/xlink" x="0px" y="0px"
	 viewBox="0 0 519.3 449.8" style="enable-background:new 0 0 519.3 449.8;" xml:space="preserve">
<polygon style="opacity:0.46;fill:#45B6FE;enable-background:new    ;" points="389.5,0 129.8,0 0,224.9 129.8,449.8 389.5,449.8 
	519.3,224.9 "/>
<g>
	<g>
		<path d="M124.3,191.9h6.1l18.8,51.1h-7.7l-14.2-41.2L113.1,243h-7.7L124.3,191.9z M114.1,225H141v6.8h-26.9V225z"/>
		<path d="M156.2,206.5h7.2V243h-7.2V206.5z M173.9,213.4c-1-0.4-2.1-0.6-3.3-0.6c-2.3,0-4,0.6-5.3,1.9c-1.3,1.3-1.9,3-1.9,5.2
			l-0.7-7c1.1-2.2,2.6-3.9,4.4-5.1c1.8-1.2,3.7-1.8,5.9-1.8c1.7,0,3.2,0.2,4.5,0.7c1.3,0.5,2.5,1.2,3.5,2.1l-4.7,6.3
			C175.7,214.4,174.9,213.8,173.9,213.4z"/>
		<path d="M187,191.9h7.2V243H187V191.9z M190.1,229.1l18.8-22.6h8.4l-27.7,31.1L190.1,229.1z M198.5,221.9l4.6-4.8l15.9,25.8h-7.8
			L198.5,221.9z"/>
		<path d="M226.6,240.7c-2.2-1.9-3.3-4.7-3.3-8.5c0-3.6,1-6.3,3.1-8.1s5.1-2.7,9.2-2.7H246l0.5,5.8h-10.8c-1.9,0-3.3,0.4-4.2,1.2
			s-1.4,2.1-1.4,3.8c0,1.9,0.6,3.2,1.8,4.1s3.1,1.3,5.6,1.3c2.7,0,4.8-0.3,6.1-0.9s2-1.5,2-2.7l0.7,5.1c-0.6,1-1.4,1.8-2.3,2.4
			s-2,1.1-3.2,1.4s-2.6,0.5-4.1,0.5C232.2,243.5,228.9,242.6,226.6,240.7z M245.6,219.9c0-2.4-0.6-4.2-1.9-5.6c-1.3-1.3-3.1-2-5.4-2
			c-1.5,0-2.9,0.2-4.3,0.7c-1.4,0.4-2.6,1.1-3.7,1.9l-5.2-3.6c1.4-1.7,3.2-3,5.5-3.9c2.3-0.9,4.8-1.4,7.5-1.4c3,0,5.6,0.5,7.8,1.6
			c2.2,1.1,3.8,2.6,4.9,4.6c1.1,2,1.7,4.5,1.7,7.3V243h-6.8V219.9z"/>
		<path d="M263.4,206.5h7.2V243h-7.2V206.5z M285.5,220.9c0-2.6-0.7-4.6-2-6s-3.2-2.1-5.6-2.1c-2.3,0-4.2,0.6-5.4,1.9
			c-1.3,1.2-1.9,3-1.9,5.2l-0.7-7c1.1-2.2,2.6-3.9,4.4-5.1s3.8-1.8,6-1.8c4,0,7,1.3,9.2,3.9c2.2,2.6,3.3,6.3,3.3,11V243h-7.2V220.9z
			"/>
		<path d="M313.3,243.5c0,0-0.9-0.2-2.8-0.6s-3.7-1.1-5.3-1.9s-3.2-1.9-4.5-3.2l4.3-5.2c2,1.5,3.9,2.6,5.9,3.4s3.9,1.1,5.8,1.1
			c2.8,0,5-0.4,6.4-1.3s2.1-2.2,2.1-4c0-1.2-0.4-2.1-1.2-2.6s-1.7-1-2.9-1.2s-2.8-0.4-4.9-0.5c-0.2,0-0.4,0-0.6,0s-0.4,0-0.6-0.1
			c-0.1,0-0.2,0-0.3,0s-0.2,0-0.3,0c-2.4-0.2-4.4-0.5-6-1s-3-1.4-4.1-2.8c-1.1-1.4-1.6-3.4-1.6-5.9c0-2.6,0.5-4.7,1.6-6.4
			c1.1-1.7,2.6-3,4.7-3.8c2.1-0.9,4.7-1.3,7.8-1.3c1.9,0,3.7,0.2,5.4,0.5s3.4,0.9,4.9,1.6c1.6,0.7,3.1,1.6,4.5,2.6l-4.3,5.2
			c-1.8-1.2-3.6-2.1-5.4-2.6c-1.8-0.6-3.5-0.9-5.2-0.9c-2.4,0-4.3,0.4-5.5,1.2c-1.2,0.8-1.8,2.1-1.8,3.7c0,1,0.3,1.7,1,2.2
			s1.6,0.8,2.6,1c1.1,0.2,2.6,0.3,4.5,0.4c0.1,0,0.3,0,0.4,0s0.3,0,0.5,0c0.1,0,0.1,0,0.2,0s0.1,0,0.2,0c2.6,0.2,4.7,0.5,6.5,1
			c1.8,0.5,3.3,1.5,4.5,3.1s1.8,3.7,1.8,6.6c0,2.6-0.6,4.8-1.7,6.5s-2.8,3-5.1,3.9s-5.1,1.3-8.5,1.3
			C314.3,243.5,313.3,243.5,313.3,243.5z"/>
		<path d="M342.5,240.7c-2.2-1.9-3.3-4.7-3.3-8.5c0-3.6,1-6.3,3.1-8.1s5.1-2.7,9.2-2.7h10.4l0.5,5.8h-10.8c-1.9,0-3.3,0.4-4.2,1.2
			s-1.4,2.1-1.4,3.8c0,1.9,0.6,3.2,1.8,4.1s3.1,1.3,5.6,1.3c2.7,0,4.8-0.3,6.1-0.9s2-1.5,2-2.7l0.7,5.1c-0.6,1-1.4,1.8-2.3,2.4
			s-2,1.1-3.2,1.4s-2.6,0.5-4.1,0.5C348.1,243.5,344.7,242.6,342.5,240.7z M361.5,219.9c0-2.4-0.6-4.2-1.9-5.6c-1.3-1.3-3.1-2-5.4-2
			c-1.5,0-2.9,0.2-4.3,0.7c-1.4,0.4-2.6,1.1-3.7,1.9l-5.2-3.6c1.4-1.7,3.2-3,5.5-3.9c2.3-0.9,4.8-1.4,7.5-1.4c3,0,5.6,0.5,7.8,1.6
			c2.2,1.1,3.8,2.6,4.9,4.6c1.1,2,1.7,4.5,1.7,7.3V243h-6.8V219.9z"/>
		<path d="M388.9,243.5c0,0-0.9-0.2-2.8-0.6s-3.7-1.1-5.3-1.9s-3.2-1.9-4.5-3.2l4.3-5.2c2,1.5,3.9,2.6,5.9,3.4s3.9,1.1,5.8,1.1
			c2.8,0,5-0.4,6.4-1.3s2.1-2.2,2.1-4c0-1.2-0.4-2.1-1.2-2.6s-1.7-1-2.9-1.2s-2.8-0.4-4.9-0.5c-0.2,0-0.4,0-0.6,0s-0.4,0-0.6-0.1
			c-0.1,0-0.2,0-0.3,0s-0.2,0-0.3,0c-2.4-0.2-4.4-0.5-6-1s-3-1.4-4.1-2.8c-1.1-1.4-1.6-3.4-1.6-5.9c0-2.6,0.5-4.7,1.6-6.4
			c1.1-1.7,2.6-3,4.7-3.8c2.1-0.9,4.7-1.3,7.8-1.3c1.9,0,3.7,0.2,5.4,0.5s3.4,0.9,4.9,1.6c1.6,0.7,3.1,1.6,4.5,2.6l-4.3,5.2
			c-1.8-1.2-3.6-2.1-5.4-2.6c-1.8-0.6-3.5-0.9-5.2-0.9c-2.4,0-4.3,0.4-5.5,1.2c-1.2,0.8-1.8,2.1-1.8,3.7c0,1,0.3,1.7,1,2.2
			s1.6,0.8,2.6,1c1.1,0.2,2.6,0.3,4.5,0.4c0.1,0,0.3,0,0.4,0s0.3,0,0.5,0c0.1,0,0.1,0,0.2,0s0.1,0,0.2,0c2.6,0.2,4.7,0.5,6.5,1
			c1.8,0.5,3.3,1.5,4.5,3.1s1.8,3.7,1.8,6.6c0,2.6-0.6,4.8-1.7,6.5s-2.8,3-5.1,3.9s-5.1,1.3-8.5,1.3
			C390,243.5,388.9,243.5,388.9,243.5z"/>
	</g>
</g>
</svg>
