<?xml version="1.0" encoding="utf-8"?>
<!-- Generator: Adobe Illustrator 23.0.3, SVG Export Plug-In . SVG Version: 6.00 Build 0)  -->
<svg version="1.1" id="Layer_1" xmlns="http://www.w3.org/2000/svg" xmlns:xlink="http://www.w3.org/1999/xlink" x="0px" y="0px"
	 viewBox="0 0 519.3 449.8" style="enable-background:new 0 0 519.3 449.8;" xml:space="preserve">
<polygon style="opacity:0.46;fill:#45B6FE;enable-background:new    ;" points="389.5,0 129.8,0 0,224.9 129.8,449.8 389.5,449.8 
	519.3,224.9 "/>
<g>
	<g>
		<path d="M155.1,194.9h6.7V246h-7v-38.3l0.4,2.3l-12.6,28.9h-5L125,210.7l0.4-3V246h-7v-51.1h6.7l15,33.8L155.1,194.9z"/>
		<path d="M173.7,194.9h7.2v7.2h-7.2V194.9z M173.7,209.5h7.2V246h-7.2V209.5z"/>
		<path d="M201.5,246.5c0,0-1.2-0.6-3.5-1.9s-4.2-3-5.4-5.4c-1.2-2.4-1.9-5.2-1.9-8.6v-6c0-3.3,0.6-6.1,1.9-8.5
			c1.2-2.3,3-4.1,5.4-5.4s5.2-1.8,8.5-1.8c1.9,0,3.7,0.2,5.4,0.7s3.2,1.1,4.5,2c1.3,0.9,2.4,1.9,3.3,3.2l-5.2,4.6
			c-1-1.2-2.2-2.1-3.6-2.7c-1.4-0.6-2.8-0.9-4.3-0.9c-2.8,0-4.9,0.8-6.4,2.3c-1.5,1.5-2.3,3.7-2.3,6.5v6c0,2.9,0.8,5.1,2.3,6.7
			s3.7,2.4,6.5,2.4c1.5,0,3-0.3,4.4-1c1.4-0.7,2.6-1.6,3.6-2.9l5.2,5c-0.9,1.2-2,2.3-3.4,3.1s-2.8,1.5-4.5,2s-3.5,0.7-5.3,0.7
			C203.2,246.5,201.5,246.5,201.5,246.5z"/>
		<path d="M227.7,194.9h7.2V246h-7.2V194.9z M249.8,223.9c0-2.6-0.7-4.6-2-6s-3.2-2.1-5.6-2.1c-2.3,0-4.2,0.6-5.4,1.8
			c-1.3,1.2-1.9,2.9-1.9,5.2l-0.7-7c1.1-2.2,2.6-3.8,4.4-5c1.8-1.2,3.8-1.8,6-1.8c4,0,7,1.3,9.2,3.9c2.2,2.6,3.3,6.3,3.3,11V246
			h-7.2V223.9z"/>
		<path d="M267.9,194.9h7.2v7.2h-7.2V194.9z M267.9,209.5h7.2V246h-7.2V209.5z"/>
		<path d="M290.7,244.9c-1.9-1.2-3.3-2.9-4.3-5.1s-1.5-4.9-1.5-8v-8.1c0-3.1,0.5-5.8,1.4-8.1c1-2.2,2.4-3.9,4.2-5.1s4-1.7,6.6-1.7
			c2.2,0,4.1,0.6,5.9,1.7s3.2,2.7,4.3,4.7l-0.7,7.5c0-1.5-0.3-2.9-0.8-4c-0.6-1.1-1.4-1.9-2.4-2.5c-1.1-0.6-2.4-0.9-3.9-0.9
			c-2.4,0-4.2,0.7-5.5,2.2s-2,3.6-2,6.2v7.9c0,2.6,0.7,4.7,2,6.1s3.1,2.2,5.5,2.2c1.5,0,2.8-0.3,3.9-0.9s1.9-1.5,2.4-2.6
			s0.8-2.5,0.8-4l0.5,7.7c-0.7,1.8-1.9,3.3-3.6,4.5s-3.7,1.8-6.1,1.8C294.8,246.6,292.6,246.1,290.7,244.9z M294.1,260.8
			c0,0-1.1-0.5-3.3-1.5s-3.8-2.5-5-4.3l4.9-4.4c0.9,1.3,2.1,2.3,3.4,3s2.7,1.1,4.1,1.1c2.7,0,4.9-0.8,6.4-2.3s2.3-3.7,2.3-6.4v-36.5
			h7.2v35.4c0,3.4-0.6,6.2-1.8,8.6s-3,4.2-5.4,5.4s-5.2,1.9-8.5,1.9C295.4,260.8,294.1,260.8,294.1,260.8z"/>
		<path d="M326.3,243.7c-2.2-1.9-3.3-4.7-3.3-8.5c0-3.6,1-6.3,3.1-8.1s5.1-2.7,9.2-2.7h10.4l0.5,5.8h-10.8c-1.9,0-3.3,0.4-4.2,1.2
			s-1.4,2.1-1.4,3.8c0,1.9,0.6,3.2,1.8,4.1s3.1,1.3,5.6,1.3c2.7,0,4.8-0.3,6.1-0.9s2-1.5,2-2.7l0.7,5.1c-0.6,1-1.4,1.8-2.3,2.4
			s-2,1.1-3.2,1.4s-2.6,0.5-4.1,0.5C331.9,246.5,328.6,245.6,326.3,243.7z M345.4,222.9c0-2.4-0.6-4.2-1.9-5.6c-1.3-1.3-3.1-2-5.4-2
			c-1.5,0-2.9,0.2-4.3,0.7c-1.4,0.4-2.6,1.1-3.7,1.9l-5.2-3.6c1.4-1.7,3.2-3,5.5-3.9c2.3-0.9,4.8-1.4,7.5-1.4c3,0,5.6,0.5,7.8,1.6
			c2.2,1.1,3.8,2.6,4.9,4.6c1.1,2,1.7,4.5,1.7,7.3V246h-6.8V222.9z"/>
		<path d="M363.1,209.5h7.2V246h-7.2V209.5z M385.2,223.9c0-2.6-0.7-4.6-2-6s-3.2-2.1-5.6-2.1c-2.3,0-4.2,0.6-5.4,1.9
			c-1.3,1.2-1.9,3-1.9,5.2l-0.7-7c1.1-2.2,2.6-3.9,4.4-5.1s3.8-1.8,6-1.8c4,0,7,1.3,9.2,3.9c2.2,2.6,3.3,6.3,3.3,11V246h-7.2V223.9z
			"/>
	</g>
</g>
</svg>
